<mxfile host="app.diagrams.net" modified="2022-12-15T14:52:50.557Z" agent="5.0 (Windows NT 10.0; Win64; x64) AppleWebKit/537.36 (KHTML, like Gecko) Chrome/108.0.0.0 Safari/537.36" version="20.7.2" etag="uURGSH7A2bNTDeXumi2-" type="github">
  <diagram id="Mq-TIC8QKV3AhDGzrJvn" name="Page-1">
    <mxGraphModel dx="1034" dy="470" grid="1" gridSize="10" guides="1" tooltips="1" connect="1" arrows="1" fold="1" page="1" pageScale="1" pageWidth="850" pageHeight="1100" math="0" shadow="0">
      <root>
        <mxCell id="0" />
        <mxCell id="1" parent="0" />
        <mxCell id="I4vXzKeWVCMAm9B2MQ4L-1" value="" style="shape=image;verticalLabelPosition=bottom;labelBackgroundColor=default;verticalAlign=top;aspect=fixed;imageAspect=0;image=data:image/png,iVBORw0KGgoAAAANSUhEUgAAAu4AAAU2CAIAAABFtaRRAAAAAXNSR0IArs4c&#xa;6QAAAARnQU1BAACxjwv8YQUAAAAJcEhZcwAADsMAAA7DAcdvqGQAAP+lSURB&#xa;VHhe7J0FoFRFF8f37r6gu1MBARMBwQAEBANQuqRDAUFBEBQ7PwNFsAtb6VRA&#xa;UBEEQaUVEZSS7obHq939/mfO3Lt38+0LkJXzY7lv8syZuRPntuH1eh2CIAiC&#xa;IAixiVP/FQRBEARBiEHElBEEQRAEIYYRU0YQBEEQhBhGTBlBEARBEGIYMWUE&#xa;QRAEQYhhxJQRBEEQBCGGEVNGEARBEIQYJtJ7ZRBlGIb2nB/YVYpGPStNZusS&#xa;OX1mpWWWsy1f+I8RTYcJToMQbKPvaSwhm50zm9mzxr9SqCDEOh6P56+//tqy&#xa;ZcvRo0dTU1Ph5UmD4dlAe8JjTRoRErtcroSEhMKFC1euXLlq1arw6oggwo3l&#xa;qFTJLOEKix6r5pacAJnhioi+6JApOTB6IcCe2HLv2LFjr2KfolSpUiVLlixT&#xa;pkzp0qUrVKhgpQwoKFPlCoKdHOk8Z6lbQgK2AUJyRGGQKTk5Vagg/Oc5ffr0&#xa;vHnzDh8+rP0KDB8eRDyocwoWyDKLFSt266235suXj6MYREUeuTms0LkhoFbh&#xa;Kplh5bMPtx6Xkp6e/uuvv86cOXPKlCmHDh2CjYlYWLIpKSmJiYnx8fFOpxPe&#xa;EiVKtGvXrk2bNnXr1oXtaWl4DrQVLgRCdqRoehensVIGZ4ksOVwstsHhmSWk&#xa;8MhkIYsgCDxw3G73jBkzjhw5kjdvXixVOA7PlSsXwrGK6XQZkakBiOKSk5P3&#xa;7NmzYsWKU6dOFS1atHXr1hHOzQQTA6aM1SIej2fjxo0HDx6sWbNmgQIFODZH&#xa;4CK4KaJvfQvshk8//fTBBx9MS0tLSkqC12pVFmsJZ2DW5M6dG7bOqFGjevTo&#xa;kakdJggZYvVkODBqNmzYgPno4osv5thguIvaHXZYGg7Otm/ffumll+bJk4fD&#xa;I4DJaPny5YUKFbrqqqvi4uJ0aBAhiwsgchrWLZtCBEEIAJPG4sWL8+fP37Zt&#xa;WxgxOjTzBAw99tqHrT0B3DjanzZt2smTJ2+88UbMNhweDZm47RfF1K9fv0SJ&#xa;Es8//7wO8gcJxo0bV6pUqQEDBuigbMC1BajnL7/8gqLz5ct3xRVXNG7cuHDh&#xa;wlWrVn3ppZesNBZIBgWWLFmi/Q7HtddeW7Jkydtuu037Q8GN26RJE6Rs0KCB&#xa;Ds0ILh1GTIUKFYYMGYK5HjsgPT0d4fZ9Y20tYPEg5aFDhwYPHlyxYkVIQAIs&#xa;OTpaEDKD1bssB7ofmDBhQr169TAZwZ6oVKlSwYIFGzZsuHTpUk7DIAuwuqvl&#xa;sECv7tmzJ8yg4sWL16lTB2MQQ++BBx7AIRQn4EJZDhwYlddccw1GKEYTHLB7&#xa;cHS1f/9+K6Wd4OLsNGrUCOMRhv7VV18dnJf57LPPihUrBt2QcuXKlTo0CBQE&#xa;NZAGitWuXVuHCoIQhi1btjidTgxh2DEwL0aOHFm6dGmMo8xSpkwZ5E1JSWGx&#xa;COEtO6wQBu7ExETMMygaCujQKFFTUMbw/T7VqlVDFhxm4ZCLwy04weuvv44E&#xa;nTt35sAswHLswDxC9SC2SJEimItbtGhRuXJlUt3haNWq1YkTJ3Q6BWv43Xff&#xa;ab8ZAtasWaODQrFixQpOhnk/WAcmIByHnrfffjuWCs5oB/NvgQIFsHhgKsde&#xa;wRZuhPAJGN551i6EhObNm58+fZrFhitdEKIE9vSDDz7IvcsOulx8fPybb74Z&#xa;3MdC9rrff/894FyO1Wkx3ezcuVOnU0BCv379rDT2LY5/fvjhB50uOv744w9k&#xa;tMABoo7w5+2339YpHI67774bIQEVYe+mTZt0IocDBx4cJQhCOHCQ8N5772GN&#xa;wwh66KGH9OBRI5oHdYZwMt5CAmRCFI9Hy8FudgB2o1AUDQU40I49cQDRnpWx&#xa;1AKYKLt3756UlMRRDCfIPgFytm/fftddd6WlpT355JM4tlu0aNHs2bM3b978&#xa;/fffw0icNWvWmDFjdFIFZ0fF2Avg5sB3332XQ0KCOdHKG7IuAeGYx2vUqLFg&#xa;wQK0uw5SV45gtUCx/v37T5kyZeHChVAVymMLzRGCcL7oiJSWwJMnTyIWJhRk&#xa;whuydEGIEvSrL7/8ctSoUXAXLVoURxc///zzt99+O2jQIEShN953330HDhzg&#xa;xAxM/2HDhiEZ3EjDgaB169bbtm2Do23btjNnzly1atWnn34K4wZdFKa/dXaW&#xa;swwcOPD999+HI1++fIiCtOnTp0MCQlAcZgwY61biDEEV2MHDYfz48faMIYVM&#xa;mjQJk1LA8GHvxx9/zF5BEKIhNTUVW74/BlYFBwIMvZCjLxhOxluWAFE8Hi0H&#xa;u9kB2M3Xs1iBAOyJA1GKRYt1hgNg5tKhNrJ/VgbYLa/XXnsNAm+++WbttzFt&#xa;2jREYWLVfkWEszIwMuyncOylHD58OCEhgZNdeeWVOjQ8mJSLFy9uvwnA5XLl&#xa;zp27Y8eOOP7TicIDywYpkT5AQrFixSA5guEpCNFw6623okc5nc4///xTBynu&#xa;vvtu7mzjxo3TQV7vli1brBnkyJEjOtTrZcsGYDjb+yQMbk5frlw5HeT14pCD&#xa;zzhCyNKlS3WoGmU9evRQYhzPPvusDo2Ciy66CFmqVq2KYQIHbDIYYTrOhv2s&#xa;DPjoo490hA0ceuH4QaeQszKCkBEYtu8peODrkZNVeLpgydGAQt99912Uzt59&#xa;+/axIzJZeUXem2++iQkLk8i8efN0kAkkWluG3ZgiYXnce++9devW7dWrF47t&#xa;du3axQmCsVteP/30E7b16tVjr11ymzZtYOs99dRTfLQXmRtuuAFHbJ9//rn2&#xa;+5cCObABr7/+eu23YZVoLxq2yLFjx9xuNwvBYSgWDxyz4riwSpUqCLEnDqZy&#xa;5cpIifS33HKL9cgZ9t+hQ4cg2a6YIGQWvouladOm99xzT8B9cw0bNmSH/To0&#xa;uhx3V2TkUcneDRs2QEiTJk2GDh1q75OwYNCBEbJ3717r1OzChQsxHOBAFow1&#xa;DgRI9sQTT7B71KhRnCZDYAz9888/cLRr1+7pp5+GAwcb1mwTYXB98MEH2mVj&#xa;7ty5e/bsgUNGliBEgzVScmTIRF4Ng0Gh9nKxau/evVt7IkhDRPTwGY7Fixfz&#xa;ZZ1SpUph9dVxCj4r06lTJ7bmmG3btpUtWxbh0I8f5YIDxtCSJUt0ChN7LuaZ&#xa;Z55B+vr16/PttHasxPZc4c7KYDrDNuCMCzIy1atXR+zs2bOxveKKK3R0EEip&#xa;XV7vb7/9VqBAAVQkb968mG11qAJtMnny5A4dOvC9lqgyUsLdvn17hB88eNAu&#xa;BxXMkycP5OTPn3/t2rU6VBAyj71f2bHCH3jgAfRwMGfOHCsQ5kX37t2LFCky&#xa;ZMgQDokAcuGwhM8m1qlTxwp84YUXWLI1FuzKcBTYunWrDoqI9dzAypUr+QoX&#xa;BkjHjh11tAmKsM7KwG5jx/r163W0qcPtt9+O8BtvvJGHuZyVEYQM4bMy7FYD&#xa;K7uwqCixl/7UU0/hyJ/dwD6x2MmKKbNo0SKIw+Ea3G3btoXbks7Xg2DKsBdg&#xa;XecZBDMRMuLID9PTiBEjEFK4cOE//vhDpwvDL7/8wtZP8+bN+V5jqyw7VmA4&#xa;UwYTYuPGjeEItp8WLFiA8FtuueWvv/6CI5oLTAyMEhyewnrTfq8XB7VYLWCl&#xa;8bPimH+xtYPw3LlzDxs2DCl1Hq/3jTfegJwDBw5ovyDkBPaRgnH3/vvv81VU&#xa;dHV4dYQJjWGV3p4LBHhhi/AjfhA1f/58Her18mEAOny7du10kJkXXd0aCPaB&#xa;acdeSmpqarFixZC4YsWKHHL11VfDi4Fz8uRJDrGwTJnp06fzyycxAHWcYu/e&#xa;vWx4ffHFF3yOSkwZQcgQuzFBAyzbsKgosZf+5JNPfvDBB3AEzEUBZOUCEyYm&#xa;8PHHH8MWwQzy2WefwQtZHMVpLJ544omNGzdi+vvyyy8bNmyYmJhYq1atUaNG&#xa;3X333UePHrWOpcJx7bXXfvLJJ7Bm5s6dW7du3UqVKvXt2xdFIy+XyASXGwAS&#xa;Dxw4EI7gm395NgzWxC7fjhWOCXfz5s333Xcfe2fOnIm5EtKwTmDORUiwBISf&#xa;OXMGaZAS6Tnw3nvvhZzixYuzVxAyC/e0gP6GQQFr47LLLqtatWq+fPn69++f&#xa;J0+ewYMHo+NhGFpZ2IHEAYPICse2ZcuWkFOyZEkMQBwM3HDDDXPmzIFJpBIS&#xa;9evX50MOGCvr1q2DA9k576uvvsqiAPo5OwKwFz1v3jwc/8DRpk0bDsHxErYY&#xa;OJhtOARYMhnYK3369IEDk0NaWhocnADe9PT0QoUKWdICqikIwnkOllRsI4/c&#xa;rJgyPEeUL1/+nXfegQNr+T///MPFBMwvYPny5di++OKL1i2unHL06NGY+1at&#xa;WpXh5fPu3bv/+OOP3bp1w0S8bds2zE2Ys0qVKoUJjt8fE1xoMCi0VatWZcuW&#xa;5Us8OtTh2Ldv36xZs1CXO+64QweZIAskW8LZgS2Hc6DFhAkToCFbKvAGJ+CJ&#xa;nsPZ1unatStyWYGCkGV4TPHWAv3qxIkTGzZsgAHB12dxMMC3ySPWysIOqxPC&#xa;ayWwArds2YIDEn7uCQYNvzCGo5iCBQvCskF6lNi4cePXX3/9t99+mz17do8e&#xa;PWDK6EQOB79gJhxcHAYFq9SuXTsOZAewHmsCnMYCyXr37o1RhoOcGTNmIIT1&#xa;//DDD+Hu0qULX8aFG8d2lEEQhFgAo5hPJ/P8wNtgsnhWhh2dOnXCenzq1ClM&#xa;WCEtktTU1N9//x2OK664Alu7Kvnz569QoUJSUtKff/4JbzB2jevVq/f555/D&#xa;7Jg2bdrw4cOvvvpqSMbBZdOmTbHlOUsnDU98fDw/182zG/PBBx9glu/Xrx8/&#xa;fxEAJFuVZYd9C7hcLBWYK/nuY47Kmzcvv+oHdtjjjz+OLb9rCOGUTYG6Ixfy&#xa;WtIEIQdBv6pVq9Zbb701duzYO++8s1ixYt9+++3QoUMvv/xy+3tWuA/bu7Tl&#xa;thzow2+88cZjjz2GbowjAbgxJB955BGOZaZMmcK35x8+fHjIkCE1a9bE4QGG&#xa;LUbryy+/zGkKFSrEjpADFsVhMsGhBWJxrMK3DyPwsssu44vUCxYsiGAMYT7h&#xa;Rx3HjRvHIYsWLeIbnDHwsWUjxqqUIAjnPzg+wdzF85J9dgoEcdHD9538+OOP&#xa;7MXUcOzYMcwgkP7iiy8iJOBeGbZjSpcuzd4A+JHRL774QvsVka+HWaxfv/66&#xa;665DdhgofAWdM0a4Vwbu3bt3x8XFVapUCYYXvDBiypcvDwn8uFdm75Wxs3z5&#xa;cn4WCSYRHM8++yxaRseZIOSZZ55BLJ+gguOXX37RcTaibAFBiExAR0Kff/LJ&#xa;J9HxAKwEHWpiTxyuB3L49u3brWebYRtxFHP8+PHBgwfD8uDpBj180KBBCLSu&#xa;3n755Zc6aRjsb7BormjWrBm28LJMzDA6qYJPDAM2gGBOwY2UPN5xoAUv7DmV&#xa;1iv3yghClNjvVqEBlm1YVJTYS3/llVfst5aGIytnZSwwZRQsWPDTTz+F44kn&#xa;nlizZo2OMOEHlw4dOgSjgUPs8AEW0kAPDgE8YQVgT8BguuSTK2lpaTAI4Iic&#xa;kR2Yglu2bLl169b58+fDO3v27J07d7Zt27ZkyZIqVbQE61OnTp0VK1bgeBcL&#xa;xj///IPjV7SMjjNBCI5uEYvWQK2R/tprr9VxNkJWRBAiwB0yoFsGdCQc3Dz6&#xa;6KN8qnbZsmVHjx7lcOQaMmRIlSpV+LHncCAZC4Qp0L9/f3bz3b4WBQoUgKmB&#xa;wwwcG2CUnThx4s0330SgdeaVjxPYHRL7JaS5im+++QZbeDmjPQEIkIbRzfec&#xa;jRs3DhXkV0/xKRlBEGKRHj16BBgJIcmWKcPSGzVqNGzYsNTU1O7duycnJ9sn&#xa;0CJFilSqVAnWRsDtfsiIJX/Dhg1w165dO2DOtZQ+ffr066+/jtkwZDVgzfCj&#xa;DZg3OSQYS7Ll4Jt/+WCOtxwSknDNB2nBUdWrV58zZ05SUlLRokU55I8//pg5&#xa;cyaMPGytF7EjFmmWLl3K58wFIftw9+btt99+27x58xYtWtjPcDCwZviNc8Aa&#xa;NT/++CNGGSyPp556ik9MspyePXtCSKtWrVJSUtDbrREEIIT7vyXkzJkzGONb&#xa;tmzhkBIlSvBLgeHetGkTv22vdOnSMGU4MOTIOnDgwPfff8/uLl26QAEL6z17&#xa;y5cvt66OBQuBoYaUCMfx1eeff47pCKpClI4WBCE6+I4Lvm8EI1eFZZ1MSUCh&#xa;mCWsWz744MQ+/4QGwz5DrBPO1gWmgFPQmDKuuuoqFgjsD2N37NgRIY899pj2&#xa;m0yaNAnhEKj9oUApfLJ66tSpVoi1xVEXZi7E7t69W0VSuHWBydKwatWqCOET&#xa;zoDToJl++OEH5MXcaqXkeTzCe2WiB9YbjgXz589fsGBBKIkt3Hynjk4hCGeH&#xa;vXv38j3mlStX5muvgDs53w8L4uLiYE9zlHXKJD4+fv/+/QjhxGziY4y8/fbb&#xa;KqEGg71u3bqcxRrXhw8f5gus6OrWeGT4OjIYMWKEDgoDv5UKJfbq1UsH2cDx&#xa;EsfC5IKXlYRuCEE4X2AC9upgy5YNIxeYBCFKcCD0nvoGE9z2bzAxPOgiY0/z&#xa;4IMPsthwWKswiPANpghEZcpYsKGwaNEi7VewEr///jt/9BHYTZmFCxeywTF9&#xa;+nRL3bVr12JpR8p3330XXns1gN37yiuvIFm5cuXmzJmjgxR79uxp2rQpomrU&#xa;qMHpYcphC8MFZdlNGdbZMmUAv9+PZ177NL1x40aEZO1emQBuvvnmXP4fRodW&#xa;OEDk2xJZt4BaC0KOgH5lWQ9VqlT58MMPV65ciWEIC4BXdwCrWqdWTJ48uWfP&#xa;nnPnztV+JcT6cAG67qBBgxD722+/TZgwge9RA5BmH1bDhw/n8EsuuQQ20/bt&#xa;28ePH299kb5IkSI49tBJFcH937re+tVXX+kgWzLrm96QzyEA4xch0NAyZYB1&#xa;vzC2ixcvtiSIKSMIUfL111/Dnvj777/hTklJGTlyZKlSpXhM8TZKkAuWUGpq&#xa;KouNhk2bNqFoKKD90ZE5U6Z69eqohnXbbwCvvvoqYkHAN5gwo3Gtypcvj6jL&#xa;LruMvY888ohOEX5dP3HiRIcOHTg9Sm/fvn3//v0bNGjAjwJVrFgRJpROqoTw&#xa;VZuA236hkn3OxZTKp9lhTtm/yoTdhpSZPSsTUvMffviBNYRAa5snTx6sGYgN&#xa;V1lByBF27twJs8De93jLdO3a1TolYxGyT7711luW9RNA8eLFYR7pdIpDhw6F&#xa;/PQHwGEDv1dTJw2FddkIozI56A1+AMcqpUuX5oqsWLGCA/msDJg5cyaHgI/N&#xa;j0di7NsL5ZlHTBlByJD169fDnvjiiy+swYihFHkIRyZyXisWxX3++ecoOuD7&#xa;cRmSuXtldCaFDrJx//33N2rUyIq10tx5551Ywlu1agW7YeLEibAqmjRpArvn&#xa;ueee4wSAZ6hgMK9NmjTptddeK1eu3MaNG6dOnYpKLlmyBOkhEIeb1o2E2CLQ&#xa;KtQOR2mPeiKUL59369YN8q0scAA+OR89ITVv3Ljx/PnzYc2wcGzhRgjMMrjD&#xa;VVYQcgQMlsWLFw8ePJiXbR4XLpcLa/nYsWMxPVl3zADuolafZC9zzz33wASB&#xa;VWRPX6RIkRYtWixfvtz6ohODcBzkDB8+3HqDC4M5AUKQOLjbc1m8tQ54mjdv&#xa;bp3ftUAaDEwMeU7Mjz1aUYCHLQe2a9eOT/r27dvXXiimS+0SBCEi1atXL1q0&#xa;6KlTp7Dm4jADjuDhw8MtAmpo6jTBw98OhJ8+fRoFoTi+3zSz95JG9UaWyEBC&#xa;SC2DwxHy119/XXzxxcFTFQgnxwKHfWvXrj169GiNGjWqVKmCycvKwo4MJZwb&#xa;LDVgcjVr1gx7CEelc+fO5Te+C0KOY+/5AaPgyJEjq1evRg/EqLFbJJEJEOJ2&#xa;u3EgsX379ssvv7xixYo6NAxIvGHDBgzVAgUKVFNweIbDM3KCgNjgxBGyZ5hX&#xa;EIQAsHLh8Pvw4cNw85DB1u7O7CCyJEQGdsxtt91mfwdbNGTOlIlGe3saFm73&#xa;BmQPSJB9otEwQ6IXkmFKHBzjUHLWrFk33ngjvPb0OV53QQiGu1xAZwvotwFe&#xa;O1ZUhDQgeoEBZDZjyAT2wAgSOCrDIgRBYDwez19//bVly5ajR4+mpqbiKEVH&#xa;REf0Y83lcsXHxxcpUqRy5cpVq1blx5cyNVQzMGWyNuyzOVlkMzuIICFD4ZzA&#xa;vtURWSVHhAhCOCJ0sKxFBWBPyW5ri5AohWSByBqe7dIFQfi3sM8zOigj9Hwk&#xa;CIIgCIIQi2TuFldBEARBEITzCjFlBEEQBEGIYcSUEQRBEAQhhhFTRhAEQRCE&#xa;GEZMGUEQBEEQYhgxZQRBEARBiGHElBEEQRAEIYYRU0YQBEEQhBhGTBlBEARB&#xa;EGIYMWUEQRAEQYhhxJQRBEEQBCGGEVNGEARBEIQYRkwZQRAEQRBiGDFlBEEQ&#xa;BEGIYcSUEQRBEAQhhhFTRhAEQRCEGEZMGUEQBEEQYhgxZQRBEARBiGHElBEE&#xa;QRAEIYYRU0YQBEEQhBhGTBlBEARBEGIYMWUEQRAEQYhhxJQRBEEQBCGGEVNG&#xa;EARBEIQYRkwZQRAEQRBiGDFlBEEQBEGIYcSUEQRBEAQhhhFTRhAEQRCEGEZM&#xa;GUEQBEEQYhgxZQRBEARBiGHElBEEQRAEIYYxvF6vdgqCIGQEZgzDMLQnRuBZ&#xa;LubUFoScw2M7c+FzBwzntMP/nN68yL3/b/epw57TRzynjyHQyFPQla+oM2+R&#xa;hJLVcl/SKL7oRQgMyOhxeJ2Of3N8iSkjCIImFs0UQRDCwSM6/Lj2uB1Ol8MB&#xa;w+XEqs+T//rJfWQvR5hZnF7DY3gdTsNwexxOJ8INZ6Giuas1zH9t17g8JWwp&#xa;gbaQYFKc+0lETBlBEMJinwTDT4gxw3+gCoIQPRE7vMcDqyM19dgvHyWvmuZO&#xa;TjYMWDUerwGzQKfwsiUDAQacTghDAgj0YhuXO3+dNnmv6+1KyKvSelRRVJaY&#xa;MoIgnF94vW49PZnzVCzi8XicTkzEYscIFyK0ysP8ICPFGgBkeaRuXXZ4zv+8&#xa;Z0543Q4jzuvxOpw2k4CsF0rt4SwUSedd2DxyeZ1upzfOyJO70G0P56ncyAuD&#xa;x5L9b9gyYsoIguCHfcm33DxRwG2PjSFCVkoQLhyUgQELxmkYdCXo+MrPjn//&#xa;rpNCDYcTMYbT8Lo9dNKF7B7KYCSUvxTOlF0b2BLCmHEbnjgjwetI97iRTB/n&#xa;5GvUr9C1vdQBA3z/zjGDmDKCIPiIZhqKOVOAFY45tQUhJ7Dd5EvWjMPjTjs6&#xa;/9kzvy+gwaDGBf46c+XJVet2l9dx8ufJZnpP8d4fYcjs/6gnjB2+8JTvug4e&#xa;p5G0eq435ZQ6beOhS1KGkXhFk2LNn3AYLhpoqpRzjK6hIAgC4CVfe0w4xNrG&#xa;nEHAlbLUDq6gIPx3oVWe+zwGAP4cmffMmd8X0nkM8tI1o1zVry/Vf2qRBvcm&#xa;/fEtpTfcsFHy1LwtoURV/PLWbM52DLan139fpN6gsv3G56l8LV178jqcdCrG&#xa;mfrngkNzn6ITPOYFqXNMiGlLEIQLmdTU1HXr1u3evXvPnj3Hj58sU6ZM2bJl&#xa;K1WqdNFFFXSK2MHjcaxZs2bTpk0HDhxISkoqWrRoiRIlrr/++hIliukUgvDf&#xa;xYMB4DScZMDA4KDTMyd++eT4wvcts95ISCh86wN5LrsdZk7SujlH5jyvD2Zy&#xa;5yl99yRXniJI4046sv/9Tp7kJD4eKHz7yLxI7zROrJ126vs3vOlplg1RsHG/&#xa;/Nf21J5zi5gygvDvwPPCmTNnrr66Frx6BgmiSJFCJUqUuvrqq++4445ata5W&#xa;x0B+JCcn16hRU3ui4MEHH+zbtzeXroNMduzY9cUXX0yaNOnIkSM6yEbt2rV7&#xa;9uzeokWLhIQEnhZ1hOLEiVN169aFWJY8derkK664IrgIiwceGDFnzhxO3Lp1&#xa;6xdffF5HBNSIXlehHpoIP1NxjbRHgcQwXF5//c0pU6bAiGE1LCFw1KpVa+jQ&#xa;oTfe2ABpOZYZN+6jl19+mbXSQeFhgV7SzujStfOTTz6uIwTh/CCgJydtWnRk&#xa;2qP6BAs6cGLu4h1fTSh7Fcfu/6Rb2r5t5DK8ea/rWLjhYIxxlnBs0dhTv0xB&#xa;JozG+BIXlej9BYcn71hxeOqD3tRU670yxds9n3hJQxLi41y8dCZwWhQE4dyA&#xa;iYCng9OnT2Pd5a0FvKdPnUk6nbxr155Vq1Z99OEnWO+7du2+e/dulZtOC5s4&#xa;kR4mkSXhTFIKO0KSlpaGPPYJjvnyywkNGzZ455137HaMToaZyOGAGoMH33/7&#xa;7S137twZPHV4vW5SWGmCrdutbwm0QGW1S5GammpVPCUlRYcqkDLptFmFM6ew&#xa;QRoWy7DbCuEaMVzK6tWrGzW66e233z548KClhqUAHKhLt25dhg17ID09XYW4&#xa;ORZeCIQthS3Lt1o1GI46k3waSrIcQTivQOc3Oz0OEU4fn4sDBqe2Y/LkLd7l&#xa;rXjTjkk/uidt33ZDjXQkyHdVG7JjVJTX4cl7ZWvkgT2CYZJ2cBsSQzSiclWo&#xa;U7zTa0ZiojXKjsz9nyftlJlRbVGcirQG4NlATBlB+NfA+OfnhLXfH6fL4zBo&#xa;gTQcLjoz4XAtWbKkRYs7du/eax+5WIbV1nf45XX4lvZAaKqym0EE8j722BMj&#xa;R45MT+coa+th4SjdyrVhwwZYMytWrGIvw6V7HZSYHOy1mQ4cbrktLJ2BX5Sh&#xa;ygU8t1IsQkgHS3KAKAaxf/65sUePHnv36pd9ATOlWR2HBzIMwzV16tRhw4bD&#xa;Dzepbwrn9Ly1NITDdJMapj66ZTg7uwXh/MHsvp7jyz9OTz5tDgFH0db/SyhZ&#xa;zaG6MfruqQ1zyUEj3ZFY4bK4QhUQiLw0UhzO+KIV4stW9Xoo1utwndo4hxw0&#xa;QDwJZa8q0vIZPuuCAeJJTjr582dcqN7aRhA7zga+6UYQhHMPDv0vuaSaNcg7&#xa;dOhQtmxZdmMVP3ny5Jatm35asiwtPQWmjOHEZOK56qor5sz5Wr3PijhzJqVq&#xa;1SqWcdOgQYMiRYo4jTj2BmJ4WrVq1aRJY+1VS/IHH3z47LP/g8NwxJPx5I27&#xa;8qrL77zzziqVq+bPn3/Xrl0rVv46/stJJ08dg548Y6CIH374vlixIla5J06c&#xa;uPzyKxHLdZk9+6saNWpwlBVoZ/Dg+2fMmMHu9u3bjxkzmt0AbVK1alXlJMOr&#xa;Qf3GRYsVhFbwsxwIhP2HpmB9Wrdu3aRpQ2VGOFGLVq3arFnzm8pO3HTTTWjV&#xa;atWqFSxQeOvWrWt/W/3mm28eP3YShhcL+eijcTfffLOS7Pn+u8WzZs3ijJbO&#xa;ycnJc7+ZDS92gcebelPjWwoWym/ZWIThubFBow4dcSArCOcj7lOH973f1pGm&#xa;zz7mrXdn4Qb30pDHNELvkzH2f9Itff8/NFQdjgJ3jMx3eQt6agldW5ssjlN/&#xa;zj7+9YtwOA0jrmTl4r0+RgKVleQfWzTm1C9TOaUzMbFM/ymOvMX0+FEDUzvP&#xa;GmLKCMK/SVJSUrVql2qPw4HV/ZpratGEolZWFeb8559/Bg267/fff9encLzO&#xa;CRMm1G9wnYrlhb86razqiGr69Ol16tQ28wZDxoE1s6CgrVv/ue3W5skpSSgR&#xa;U1tcXMKYMS+3bt1WJbNSOo8fPzpkyAMLFixQXlrmb7vttvfee9dc7ulemcsv&#xa;v1wJoSkFpsxVV12lauHDrBdx331DZs6cyW42ZaxYvzbxOqfPmFynTh2rRnYh&#xa;NnSNfv11Rft2HWGm8KmskSMfHDRoEEdBgsrr2r9/b69eff74408EQVTNq2vP&#xa;+moa3CqWlOcisOUER48eveoqup+JmTv3qyuuQNU4JSXkVrW5BeH84sjCl8/8&#xa;OpO6tOHyGh6nw0UTieHr6h53uoPeLKNSOw3MM9z/gTJ33B5YNR4+o0O93YjD&#xa;IISt41GXq2hS8jhS6NyxSpD32vaFGw9RbsvaObvIqBOEfxPMI9qlVlCePsxA&#xa;DE+aUC666KJ33nknd+7cLpc6E2N4Zs6aqhIQKgvmGfVuKx+UN9SPozgXFfT0&#xa;00/CGDJDnO+//66yYwCSxVm5ChYs/MEH7zVu3BjJmLlzZy9ZslilZMjUQDh7&#xa;4PDXhwgIUWIIdiOW3X7JjHSvh2qNePygDCZWdvj/CGRfs2YVsrAdU6BAgbvu&#xa;uoujFJQXf0qWLD1y5CNWub+vW52cnAy3KpekqWR6i58qTkGvFwPx+K/0Ia9K&#xa;Q+pZbkE430j5exk6rDpZS09Qexxuj9vtTkuHpeFOw3+P03BpO4ZGoeFJd9P7&#xa;8tJxUIAtkrrZjqE4p8fldXjTVRoMNTeyY5CmUnb1kQMUkfz3IvqrMAcP5dWu&#xa;s4AMPEE4X6C10H7ZQqEWSEf58mWvv/56TCqUwOvcuZNu/uWpQa+g9IWUTMwU&#xa;LPbw4cM//rjEoKxYir1t27Zt2rQpwr3qgjqFKtgdHx//wgv/g0UFL8BKP2vW&#xa;11YChT5xAkLeAMQprfTQgWE3wtnNmDoYUA8OldCXkR2MXeCePfuoNdQJqurV&#xa;qycmJnKUAoF0Ygbbhg0bjBo16tlnn33uueeeeOKJ1NRUncQfKlJdzDL9Ojs5&#xa;6W4bDiU4pfYIwnkDumX6kZ3uY/sdXhdMDw7ESEJnpae0YZmo3q16L93X60CI&#xa;Gj4AVgslc8DQUahx7YGRQzfy8rGTh85GqsReZIK5pNzuowfSDtPlKuTgEJSn&#xa;0p8txJQRhPMJcxIJWBcxC1x88cXqXhY6AXPo0AEOVJEqi8qY2dV07tx5HnUr&#xa;nzqfbIwY8QCH89kLyGfYjW3ZsmW7detCKRTz5s1LS+MnlVhtPZ9AjZCa2EUF&#xa;ExBu6WAz78gRLNmekW+y4TRr1649efKkCmaojioxyenSpXOvXj169uzeu3fv&#xa;AgUKcIpgkJ6k2UxMJUHvJjt2NQThPAHd8symH2BkmMaHw3A56ReHgwQXn380&#xa;R666WkRXmQyPixxI4Ixzwdgx4lwU7nTxyEIqD/4hIyS5XA4lECkpyhyeZzYt&#xa;QnF0Qxv7z/Lg8I1PQRDOD2iZDF4X9+3bZ9krpUqVUWGBBgRyqakkxEIbDFL+&#xa;8MMPlvuKK64oV65ccLkBmHfIEidOnFi1ih9l8ptJMhSSOUzzjoksXN1Vo9Ok&#xa;paV16NBpz549KobIumI2HVQLo74yeQoxAHpryr6N5FDeAk3uKTtiCf2G/6Qd&#xa;I5YklOW77ImiHV4q9+BPFUb8hC2iygxfXOZB2sJdrP0LSIBBBGMnodxlCEEa&#xa;xLIQ/Ao1HmQNsdT9f2Eb8uzs2UBGoyCcX5jnaxmsoLSIJiUlrVy5kgLU/RkX&#xa;XXQRuUMZEGqb8bhmu8da5uGtX78+uyNTt27dhIQEtZwTlgRIswKzD9eFsbsz&#xa;pGrVKkWKFGJNvB5j/fr19eo16N6958SJE3fs2EWB/jpaOueg8oJw/oDR4zl9&#xa;hK4cqWkhvoTParHwpvhOXjoTC2mXwj4ujFyFMDnp0ZhsP9+pcZWqol2Ytk4f&#xa;065zMrDElBGE8wv/lRsj1JmW5n7ssSf2799LN8Sod8a0adOKo4MX4AEDBtxw&#xa;Q/1wvy5dunEyLmX//v2Wt3Tp0uyOTFxcXLFixSwlDxygS10AmmTK5ogM14u3&#xa;/fvdY68CTBO7t2vX7ioHwTo8//zz6lhQv5UnPT190aJFw4c/WK9evZo1a/fp&#xa;0/vDDz/etGkLZ7F0zkHlBeG8gkwZOkCig6KEohdzoB33mePahekmt9/FVvu4&#xa;QBTdS6Pc7uRT6q8fduGe04e065wMLDFlBOE84tdff/3uu+++/fbb775bgO3M&#xa;mTNHjx590003TZkyBaPVcLqdRkLdOtddc801nD54AYZtsTM89hfHud3uY8fM&#xa;IyeHo2jRotqVETBlsGU7wzJlGOgTrFKWUXfweANqtGPHjl27dvEW3j176FwL&#xa;o4r2NG/efOzYsblz5Xd44wwHfnQJXz385Tl06ND33//w5JNPoklbt26NFlbz&#xa;u+/ikSD89/CdIMGYylNYu2x41RN8jMv/rIwNjyuXz8oxziRpF1DWDR1I5Pbl&#xa;tRd6DhBTRhDOI0aNGtWnT5++ffv27t27b9+77x10/9gxb27fvp1jMVeULVfy&#xa;nXdfM718gORn0ERvSSA7PWOZVbggSweAEHj5PuIMiawnYlkaO3SoCYdrjx8o&#xa;2mkY7rZtW/+wcF7vPl1z54njdxBTTWHZqFx8/X7Vyt/69uk/9P6H0nyfwxME&#xa;ISYRU0YQziOUZWA9aOOg55CNdMtcaNKkyZQp00qUKMVeazm3L+0tW7bsH55O&#xa;nTpxMsCXirTH4Qj5CcmQHDpknjqmd7SU1C7TrIEmlsIh4dgM01gmEddowIAB&#xa;2PZTqKpod6dOd3IyBU9o9F7gcuUqPPPMc+vWrZ8wYcLAgQPr1auXN18ixDKU&#xa;ykjHb+q0ic8885QKkXMzwn8TZ17byZKko9plw8iVS7tg9KeEO5vidCef0E6M&#xa;0Nx5tAuouYcG/hnb6R9boeeAnLxTTxCEzKLf1WvicrmUUcLLqjMtLY0tA2x7&#xa;9+7Ni65KoIE3JSUFEjgcW/NtvxnA6W+55bYNGzawd9CgQQ8//BDHRiA9Pb1a&#xa;tUtTU1O5uDFjxrRvT6/Ui/DhAmCFWwS/7ZfdIKBNpk2bVreuvqCWHWAbrVu3&#xa;btGixePHj7c/1oQ2//PPP/LksU3N/qi3/V6tPQ7HN9/MueKKK7RHEM57Dozv&#xa;n7rjD2Xoe4reOSZ3xbo6wmT/uI5ph/g7tY7iPd5PLHM5u4F95KbsWX/g8344&#xa;vILREF+sbMm7JnO4xZntyw9PGMruhApXlejyDrmQ2m/onxXkrIwgnEdMmTJl&#xa;27Yt2zRb+KkiNhqw8J84cYrdnBiw1x6iyOAEA9Lz9FSmDD/UTXJ++ukndkdm&#xa;+fLl/EI5LtSSACCExYKkJNuldBWlXSYBCSIQ5fOcQY0QCOTAuhoy5L4ff1xo&#xa;PzvldrtXrlytPYLw3wLjwpm3iHLStJB24G/l9sNIzK9dSOR/VsY+cr3Jx6zb&#xa;fh25fFks3Ps2axeGm3VW5uzbMcBvWhQE4RwTcAYi4JzK6tWrW7duaw3SQQPv&#xa;G/kwfcnZzpkzp6tVu9xKE+VZGeaTTz55/PHH+ZAGc9by5b+ULFnSmrymTZth&#xa;3abToEEDFvv008+OGzeOA/Pnz7927eqEhAT2XnJJteTkZNbkscceGTBgAIer&#xa;OTTQHKlT59p9+/bQRyINz8CBAx5++GEdEdwm02bWqVtTe2x2WHZIT0+97rob&#xa;9u07wKKGDh0ydOjQcGLlrIwQ05z89dPjC99H5/YY9FC24TIHo+E1PPStAa/H&#xa;Te/Q48Mk9cUkpKSL2wr1eTFKjkROt89ggBykpzcEm+PG66bXYVMWh6NAo7sL&#xa;XNfLE/7L/znLuShDEISsUatWrSZNmpBLvW32o4/H8ePTbC6Y0IRCz2mbgf6x&#xa;kWjR4g5+qS5l9xijR4/GbKZiiGrVLnnrrbfGjBkzduzYu+++G0Xv3bv3yy+/&#xa;1NEOx81Nb01I8H2Cu0zpctga9KU6p+08Rwg7Zvfu3fv27dMvL6ZTO5TRjpoN&#xa;9bkl/nCBqhSFICpcBU+cOPXqq2NHjx6DLX78ZSWA9AFZXK74ypUv4TkX8Oku&#xa;dgvCf4xcVRqi/3sMpxpJMEnoo0v6B9zKnMEwwfjC8PeQbUMmCyI9bvrQkkcn&#xa;RiAPEySg9G4PfcLJ7WaBSElR5jjKfUkjyMZUoAde6CGbY4gpIwjnFwGL7kMP&#xa;PUSLt3oMJykpCSs0EgStu36fkwyKDUuxYoVuuEF9YRsmheGZPHnq0qW/qhji&#xa;8ssvf/zxR+FAiYcPHx4wYODIkY+cOXOaY0GbtnfwHMI617j6Sgo1PJg1ly1b&#xa;9vffdLZZH9D588knnyELVwrKX32175wHowTy7ETS8EdVSpcVUEEuHeTNm/u9&#xa;99577bXXYH69+uorkyZN4XCkD8iSlJS8erXvolLFiuW1SxD+a3jii14UV6Sk&#xa;k+wROgzAWNCDUnkxrLwYWU7YJy56/Yzh9Zif6fB66BQNYsm6UVnI3IFEiuc0&#xa;Tqd59GMgwBTsKlwChapB5/twgTVOzwZaY0EQzhMCFt3q1au2bHm74aCvn+AQ&#xa;Z8KECVu3bsWRFH9t0YQ+J6mdGsw4IX++CUVNaq4nn3w6Po6/uegBvXr1+O67&#xa;7zgl6NmzZ7Nmzdi9cuXKBQsWWJNGk5tubtToRnazzt27d9dqGJ4TJ0507Nhx&#xa;06ZNZnV06diOHfPmO++8Q4drpInnyitq1qjhu83QQmekK1D8DTyWAIuNctl/&#xa;PJdCmsvlqlmzJn10E1oaCW+//faff/6BBKqtfOnT01Off/45fc5GvT25bl3Y&#xa;c4gShP8eNCRzVb3R63DRSHHSN1GdcMcZzjg6geqMoytOTtgahppSlKlDn16i&#xa;zyqpc6wqGZ++hXGjLku5EIUERhykOg0XZCWQFaM/J+nMVbUR/VXo6SZoZstZ&#xa;5F4ZQfg3CXevjLIz9Mjftm1bo0Y3wc5AIOaUW26+bdyH73IUOHMmpWrVKrR2&#xa;Ywbyeps2bVqiRIkgy0aDBC1ub9awYQPtV7z22muvvPIqHJDgcWPrvP6Gup07&#xa;dalUuUKhQoXWrVt/zz33kDKQSed+MGM4CxQosGDBdyVLFueJ0sTTuXOXpUt/&#xa;houVL1SwSJMmTa655hpYGEeOHFm5avkvP69YumwxoqwKfvjhB7fccgscFqpN&#xa;+PXqMHfcNzdtVrxEYboapXJhyxktmjdv3rBRPXb//PPPnTrdycmAyxnfq1ev&#xa;hg0bXnzxxaVKldqyZcvGjRvHjRv3xx9/GE5+3ttTv/6NEyd+4V8RP+ReGSHW&#xa;ST956OD77dxp+svYeevdWajBvRhFNE4wWAxj7yddPPvoxjgEFrhjZL7LW6i7&#xa;ZcjLQ/XEH1+dmP2Syu2ML1G+ZJ/xcHn0rTWOY4vGnPplKo87Z2Jimf5THHmL&#xa;maMUoyzs4MopxJQRhH+TyLf9Ap5HRox4aOLEifCq2+gcM2bMsF74GyBBpceg&#xa;Djt3PPbYI/3799ceNcukp3uGDx8+bdo0+FGWOoeB7GQ56TtpFCpKTxcTJ46v&#xa;V09bD3YOHz56xx137Ny5U/n4PAdpgrzqZAmfjfbpdt99gx588EHtMbHXCEeF&#xa;Hm+6OoXDZ6G0xabcmkcffXTAgH7WjPnQQw+NH4951lcKt6H2KFgCJBUtWnzG&#xa;jGkwdDg8JGLKCDEN+jp6/5HFbyX9Ot7hpiGEsV2sy9hcFerwMHcYrhM/vX/y&#xa;p085fWKFy4rd+T4NWvLpYXXgyz6pO+kLkSBfvR6FGvAcQrFntvx0ZOpIa5Tl&#xa;u75LwRsHqthzh2+0C4Jw/mCt1jw73H//YH5QyGnEY/P88y+qSIZWd+3k9F7f&#xa;rbjBWC/jVUXQDBAX5xwzZvSjjz4Mi0GdqKBANS/57BhgTVXlypW74YYbODCA&#xa;okULw+Sqc821ygf7Qymmbkmms9WUXQn3GHFxccOHDxsxYgQl8EdVwSxa3QNk&#xa;qkp5lYYhoVjw4osv9ulzF6vKoF7aZYJYSC1XrsIXX3xms2PCSRaEGIYsF4ej&#xa;8HW9nbnywat8jiOzHkvd/5c6q+LCUMlbvQkGq6HO5qbs+DP92A4EIh2GsNfh&#xa;STv8D+wYGjTqPE6ey5rSH8KZuvv3I1894dHnd7zOXHnyX9+DY/XWnMosx9kg&#xa;cIQLgvAvQnOFv4MpW7Zst27qS5CGGzPCihUrvv32exUD1HGVHfVYUDjUeRF2&#xa;+IqAe8CAAd9+O69Hjx558+blEIoIdaFq165db72lXn5FBJZVvnzZqdMmPvvs&#xa;s5dddpkWovRRSpIjMTHx9jtumz37qyFDhgRUk0FKr0OfCed7fu2Ey6JdKsHT&#xa;Tz/59ddfN2jQQH16ScfaM5YuXXro0AcWLlygzq8ENaAg/JfAwQ76f0Kews1G&#xa;WmPAc/rUwfGD0nb/TmdsHB5X0UqJxcp5eeowvKd+n4FATmw4nKfXzVS3wmCc&#xa;GAnFyyUUrcxRyTtWHJw0xJuSYo2gIs0fdcbnMzOqLSYcFRly5OYUcoFJEAQN&#xa;ZgNMN6dOnVq9evWePXt279598uRprPply5auVKkSHLfe2ow+SOl1Ol2OyZMn&#xa;X3ttHZ0zDJs3b12zZs2BAwcOHToEC6ZUqVIQUq/e9bCWzuq8ZnHixKmlS5du&#xa;37796NGjycnJhQsXLlasWI0aNa68MsSNxoLwHwXGOgYc1nrniV8+ObHoAx3s&#xa;cDoT4ws1HZrnyjvgOfnb1OPfjKEnjRyGM1ee4v0nxeemd+t5zhzd915n75kk&#xa;eguNYeRvdn/+K9vBcfK36Se/e92b7vuGWcHG/fJf21N7zi1iygiCEAm2b3i7&#xa;fPnK9u3b86QBo2T+/G9gHNiTsfs8xF6L81xVQchZeMByz8efw3MeT/1jobrM&#xa;5FRWjjd39fpFbnnEkZh//3u3u0+eokeZvEa+q5sXuo3exXBk/rOnf/uGDCGv&#xa;4cpfoGT/2Y60E8fmPpe06RdTrGE4PQmXNS52+3OGeW/NOUbVTRAEITpzZM6c&#xa;OfyINRLXrVs33E0z5yHR1E4Q/kuoPs8miw+PO+3o/GeTf18AN+J4LDtz5clT&#xa;63aEnFo22bxpxlOi90eI3v9hLzVwKCTf9Z3dDnfKmjme1DNI43G4YQshNvGK&#xa;JsWaP+Ew6BNyJFMVdC4RU0YQBCLcSs/hkWO1JyPsiTOVMfuc4+IE4XyArQru&#xa;/Gql99Aj1uoRxVPLPzv2w3tOZ5zHm+Yw4pxIi3TqtI1Bt6jRYEksdym2qTvp&#xa;i7M8fDxeN72DBqk9Tq8jnQPzNepX6Fr+RgF8dI//uR9rYsoIghBhpQ84XQyv&#xa;ujGQAu3h4cD8RtfXbcKjyZXz/CvTqyD8u3C3V1ss9DT0fAPB403duvTg3Gcc&#xa;Z5K9njR6kslwqjt9aYAjGT2zrRLS2/O8XvqegQPGSpw6EwOLiLyuPPkK3fZw&#xa;nsqNvIZtfLEBdW4RU0YQhLArvX0SNL1+ycJltIOjQP2qUJU4miyCIOQgIQcd&#xa;BqY3LfXUzx+fWDXDSDuDaDeGqjXYDadBZ2cMftDaSc8h0ZkYl+HywIiJS8x9&#xa;Tcf81/dwJdADj2QZUQlUxL9hyYgpIwhCRKK0PAKSZZgrSrHZ55wVJAjnJxkO&#xa;AffJ/SdWjk/ZtCT9yH51owxl4bMycHNOPisDOc5CRXNXa1ygTjdXvuIItwnX&#xa;Z3DFlBEE4byGpy1r8rLNYn6EC/9XCNBZEC4cbN3efqXYdJtGh7pDhhKnH9mZ&#xa;vHlhyr6NntNH1O8YnVLNXzQuTxFn3iKJparnqtIwrkjFYJke9VkTdv8riCkj&#xa;CIIgCEIMY5lpgiAIgiAIsYeYMoIgCIIgxDBiygiCIAiCEMOIKSMIgiAIQgwj&#xa;powgCIIgCDGMmDKCIAiCIMQwYsoIgiAIghDDiCkjCIIgCEIMI6aMIAiCIAgx&#xa;jJgygiAIgiDEMGLKCIIgCIIQw4gpIwiCIAhCDCOmjCAIgiAIMYyYMoIgCIIg&#xa;xDBiygiCIAiCEMOIKSMIgiAIQgwjpowgCIIgCDGMmDKCIAiCIMQwYsoIgiAI&#xa;ghDDiCkjCIIgCEIMI6aMIAiCIAgxjJgygiAIgiDEMGLKCIIgCIIQwxipKV7t&#xa;FARBEARBiDXkrIwgCIIgCDGMmDKCIAiCIMQwYsoIgiAIghDDiCkjCIIgCEIM&#xa;I6aMIAiCIAgxjJgygiAIgiDEMGLKCIIgCIIQw4gpIwiCIAhCDCOmjCAIgiAI&#xa;MYyYMoIgCIIgxDBiygiCIAiCEMOIKSMIgiAIQgwjpowgCIIgCDGMmDKCIAiC&#xa;IMQwYsoIgiAIghDDiCkjCIIgCEIMI6aMIAiCIAgxjJgygiAIgiDEMGLKCIIg&#xa;CIIQw4gpIwiCIAhCDCOmjCAIgiAIMYyYMoIgCIIgxDBiygiCIAiCEMOIKSMI&#xa;giAIQgwjpowgCIIgCDGMmDKCIAiCIMQwYsoIgiAIghDDiCkjCIIgCEIMI6aM&#xa;IAiCIAgxjJgygiAIgiDEMGLKCIIgCIIQw4gpIwiCIAhCDCOmjCAIgiAIMYyY&#xa;MoIgCIIgxDBiygiCIAiCEMOIKSMIgiAIQgwjpowgCIIgCDGMmDKCIAiCIMQw&#xa;YsoIgiAIghDDiCkjCIIgCEIMI6aMIAiCIAgxjJgygiAIgiDEMGLKCIIgCIIQ&#xa;w4gpIwiCIAhCDCOmjCAIgiAIMYyYMoIgCIIgxDBiygiCIAiCEMOIKSMIgiAI&#xa;QgwjpowgCIIgCDGMmDKCIAiCIMQwYsoIgiAIghDDiCkjCIIgCEIMI6aMIAiC&#xa;IAgxjJgygiAIgiDEMGLKCIIgCIIQw4gpkxW8Xq92ORyGoR0KX7gQEjQX/bwO&#xa;w+lxqqaDOwD/Js0Y2+7499sfulj6R6iIPSqz9b3QQA/hriIIsYDfLGRfLGwg&#xa;0MsDP0wCIXOIKRMt/muPz+PfDynGnlK6aQBoD/oZDo/b8Ki2gRsbcplE2Wb2&#xa;dgZo6vOhtZ1On/4R1LFHhUwWULsLEt0u1FvIGb41BeE8wuCJCEMYDvtiYQOB&#xa;SBYhgZA5xJSJFl5vMlwsVe/UyaSbhsRqEh7qqq304GeibDPOgcRoZHP77/dn&#xa;Wz0ygKuvPSZW3aOX898FbYFW0AevyisIMYBTnUXEEKaJyd8EtwY4oxIIOYCY&#xa;MtFgTaYWvABrrFg42M1b7tBCAB51iI0m4qHOg9k+pBEevMYHoROwtIyTn2Vs&#xa;6mu8Xo92hcKqPnu5vthydRjqZArtv5AwLzuifejglVxBLSwI5yfmkOXBSx3X&#xa;6r3mfKVTBKCShY4SImOkpkjDZQx6nrni6r4IM0XPsE6P1+OzCDml2sKH/0hk&#xa;9mLBBtrHHOfcA32tZIvKGJUYfy1R/3Jrsz68tbpNNNgTWhIEO151l5UgnM/Y&#xa;Z4CQo5hHujU5cAKV8t+fvmIXOSuTIdTRzH5G3Q5GjH19stsxgKOwMdNI1wyN&#xa;1+E2GwdbXyuhnZWxSCHc5hFQ+8Vx6tSpH3/8MTn5jF3OvwWrzPauvZ9EwOpa&#xa;1o+9At0erttBtae0iXDeo0YujWk6yg3qsTxlqXCe4lSonjH+/ekrdpGzMhnD&#xa;nS/Aja5qLVR2N7P9n21vvjmW3f97/uWEhAR2C3Z2bN/6xhtvOIx0uP/3v9Hc&#xa;StyY9jaPzB/rfu/e/c6kpKTChQt/NeubEqVK6oh/FdY/uGPYsWLtlVVu9lzo&#xa;89p7776zefPfcDRo0LBlq9ZwRG5PQThvwBA2cFDmdDrt8xg6L0wWPqPPo94+&#xa;9oXsIKZMxqC3paSeWf/HhoMHDx4/frxU6RLly1UsV668y+WyLjOZ0FSLkDWr&#xa;Vnfq3NYwXLC21/72Z+7cuXW8YIIj7FVrVt3ZuaPX8MC9es0fefPm1XGZ4eGR&#xa;I6ZPn8ruofc/OGDgPew+x6CTnDx5cvfu3Xv27D1zJqls2bJlypQpVqxYuDuR&#xa;A6aw9PT0Y8eOqRkQUXSBksNBvnz5EhMTz4c7ms8x3bvduXz5L3D07Nn7kUef&#xa;gEMuMAkxgRrOR9ldtCgmAX3EAjvG7XYfPXqEo+x2OYyeggULYU3RfiGTiClj&#xa;gXZAx+ItQd3M49iybctbb76+cOGCU6dOYSZ1UiwWFQ9Wl44dO/cfMLB48RL2&#xa;XMzq1Vik27N7zdr1efLkgUMdU+KvX8oMQZaQZrsVDocH21BpQIbZo8Fr0D/t&#xa;iY6vv/56zuxZGKuVK1cePmIkQgynx/A47bfCrl6z4s5OHZXTuWbtOm4lC/9D&#xa;cOhKKlDTe/wOzd98Y+wbb7zmMgy31/vyy2PuaNnKHmvBq2CEWltR0Rz62+Wc&#xa;OH5sxoxpkyZN2LJliw5SQE6hQoVatmzdqXOXSy6pihBk8kB0KAVsHYaqqBzI&#xa;4HF4yYLJnz9/6dJlmzZt2rzFHSwq81AD4o9/C+jA8GSYwE7YxGgK371lKonl&#xa;tikD/CQEmzKAshv67jSIVSE6CxoW3VRJ8JOTKXjvfDX7q7lzvoYDvXfE8JFW&#xa;37f6hn8nCVGcVTWllQqKiJWeCfAGgFjbKCAHErPmXFbADXzAX6DOwoOCCS4x&#xa;nA5WuFk1eMJWP0OibB9gtTkLj6Ae4cE/9T4i/+lCQQoHZ9divX57X89dFEW5&#xa;/Pd7WELO/yzfHsUDHAI9Ho/h9Lqc8UWLFi1evHjFihffdlvzRo0bJybm0inN&#xa;7AA6BB1CC3KvjI/ADooe8+FH41re0Wz27K9Onz6NDufyOrBkOh10QSQt5czn&#xa;n3/a5KZGkydPMvOG7Fy+FlZjgAaD9ushxYOEgJMdWpTKqiIxgCilBXdrDqEE&#xa;Hkpg4VeEmcyaswAScxIE2sXa8hE2OZTInpJRavjnUcLBtq1bFi5c+MMP369a&#xa;tYICvTRosUT7TVtqnVZQjPr5BPKUwRVnUwr5EWlNJUiJmerOLt1uvbVZQq5c&#xa;rVu3vbXZLTrWcKv6+gTaqx8ZS34ElEhvenr6q2NebtCg3vPPP2fZMbSDFZBz&#xa;/PjxL7747PYWzXr36bF//37SPUM11OU2gKZxqvaBqFMnTvz114a333n99jtu&#xa;e+7Zp86cOcNpMsJeGFfKr3h7TS2nf+3hCa2xmcyKhcNMbLgDclkzL+99cw+T&#xa;A3sQFdR+raQftlgCPmuRJh34IUEcYegVkSWYNVMJ2W3J8a+gH0iDjgbxO7Zu&#xa;QdfFAQx6L+us4GWM5Ph3EnIjwB7GpSHEsij8cgThX0vyBgjkchVUFZsCvraF&#xa;8tgiBiazqq9PqCWfYk2PvTeaYfhDLpVM7y/gtFoSDispl2XOISxNp4kaLkJJ&#xa;0GIDsCpiVZn1540KCARREIteB5WQi/S0JcRe1C5drt4qgQ5MHNu2/o29b85d&#xa;FKpuZCFsWTMHMrJ8q/EJNcBhx8TR26icXrf7wIED69evn/vNV4MH33v9DXUe&#xa;efShQ4cO6rSoi9kOIURd8GSm010Q6K6KGXLipPEvjXo2LQ3zsjM+Pr757S0G&#xa;3z9sxMOPdO3e++LKldxGHBbWtJTTzz71yKLFP6gBGbKb0xE29zlzqFOvVj3b&#xa;4/Ty0RUlwNbtG5lKFB+c0y6izouUnAyQw8yrov0uP6iVgyY1Rvd7+8xojkwE&#xa;0ggxfxhQvjSkJHm4LOUgNx3n6NkAPiqaXYDzulRN1SyiVmV1/YivGSOv32kZ&#xa;P5CZ8rNAyk2tgSLTqeLISO2lEtpAPYoWLfbam2+vWfvHiy+9kphgntfxuqhx&#xa;SaDVRCpYi1Wqa7TDFpIB0A2JDx440LNnp/feeTs5OQmB0LBSpUq3Nmvep1//&#xa;e+8d3LZt+9q1a6MuHiQ3PMt+WtKqdfOfly5D6axJWLzO1m3bdejQqX3Hzm07&#xa;dmjfsVPTprdUrX5ZQq5EPsb8/PPP7+rbw51GbRtBZ25Fm5tAcvXTOnjd1LDs&#xa;ZUlweNQOYslqS0mtLJYos++x31KD9p6huoAOULBwoJqOnRDJ5WKLPx5qGRWl&#xa;t6YAxFICvxC9hSg9qaOVdSwtDtRMbNzrutAWQlR1LAVCgDRY/tBFoQ3g9ADC&#xa;lXz1H2qyin6o4ek2W4kUU6HYZ2aHRwLtioSWQC7VVpZALp0qhTAlH9U0sSRT&#xa;lJmRgMOSqdy842gwqkAl108OPPjpqquDB6qu201+qgJCzJ1LWnl4tiGv0k2V&#xa;giqHHeZ2fA2pJFh6kEd1DPKgFrQxmwIxdB6D4pFMTXRcvIny0X/V4KQ91UJZ&#xa;M/RDdtZN9w2VWgugP3FUjJpoMHbVH/xHHVGo5c0O1HvM8jp36dqtR/cePXrd&#xa;2b3HnV07N2jYuHz5ijRVYrYzPKdPnpo2ZXKrlrcvWvgDZSQ1faVDHdUygkYu&#xa;MGm4r2s83iPHTzVtVPv0mTSM+qsuv2rMa2+VK1seXZCmBxjQ6Z5JU8c/89QT&#xa;qekOw+nOnavgooU/FipSWGfXJxg78nBZ+9ufuXLRvQ7ow+ofJaCy1Hih7qlG&#xa;KZLqKYHw9VHq94bbUEMMeelUJIaVUgUCaGJBYr91RQOxau0nna2ZhZIpiSRN&#xa;rWpqRlTl0sg3rImJ1gNTHWocNXnA1EGgep+tXUOlkimQ5g6H8fprr7311msQ&#xa;U7NmzfGTJquEaujRqqPzrl69unOntqpFHavWrs+dJwHVRFnw8qkJl2oZjGqu&#xa;iV2lYFgNu9vap6rNSTWXmsSt6mBnsNoMQrC1WiAkSO/2eg4dONimfcuj+w57&#xa;0B5eo9ktt/bo3adWTbJdWAMyEgxj997dk8d/+dGnHyWnnXamxxtxxiujX29+&#xa;e3PdCWz4TjsbnrWrN+TOndtqJWb//v1jxo6aNm2aC9p5XD369H340Ud9PTY0&#xa;pIO9LiwShcNodsHC5Pah3Un2Ou8aq0HsLWO5ffvaPxm23DODuyK1M9Swjy/u&#xa;tKqlkJdXGgL9RilCeRwGX2BC3u7dez762JMqhdp3JIdSYE9hufJgmUGAeTel&#xa;JRyitFh/WGHWikPYraoAF4l487XXVe911KpV68uJUyiTygWpLJlUVtlJD3Kj&#xa;cEcaer4yI1yIUlfBIA1eVpg6pK3QkCgdVNe1VEJ1SCsMADp2giilIQmheJLM&#xa;uSzJqkRqcDioUAQrMTQcvG6Pi1ZKTqf+mCCxvQEpsdPhdJNwDMY4NdWg6kjg&#xa;caRDGchHKdAWGahZtEpQj/aFKloHRoCEoEaUT4NmRPGqClQp3sXaalNdi/5z&#xa;ZdFvyXakeqqyAJxUd6oCWtFFw5B0RgsgI9WNWozTulG7NFOyghJQagfPXZBz&#xa;9dVXj580lYXDuo1zYzeQypw+AiEvMAFIWrl6VZdOOmrtmvV58+YhvVTpVBeH&#xa;JzUtbdvWzR9/MG7G1zNVKhTpGXr/iAEDB/LuZpDe3F8Coad+gXuJ6qXUv6dP&#xa;/vRUchrmozy5C4x94/0y5cujE7vjsKRi1ve6XUaHzt0eeuxppwsDPO5Myonv&#xa;f5xP+RWY7tVf3tKsBEObXOpYD0Pz9IkTHo/b4fZgTlTHPZgQ1JCmeQppaHCq&#xa;vAT6q9PATEKJHOlel9eJY970tDTK6PFAJlKrsRY4wLwuEk6Fpvuk0WStBjuX&#xa;QMKRBpMvDXKfHQOwplggjVKVYpEYZapQFUfjk1xKLgmMJylIgDzUAobLE+91&#xa;xjmcsMVQijV1kA5Ip0SplkIeVBMF0WTp8niSjh9HDVFHw620JI9Kh5KUS08p&#xa;rAbmIMi2KsoWhV5W6TgMyqPpkNmdTk2HNuHdAWFWa0MZYPpCQ4nTjWHDBh3d&#xa;eyDdSIuLi3v22WfHvv3mVbVrw9pE90hHD0E948ldunSZ+4c/OGHS5PJlLvK4&#xa;UF3v44+P2L51W4QiDNhvSAeDxUWdTW3JUaJUyedfeqV58+YetFKcZ+qkz08f&#xa;P6nzhIXqoppOAy+FuB0JsI3Rfh5PuuqHTixw2KkE9RArsYXlps6nehF3XSiY&#xa;npyGGnvT3Whe7DvV4PSf/qj1g4SSKhxGgSoBSaA+gqweGIdpFJ5Oqz+EQ7yZ&#xa;GFXQw4eBHJaghJPbhULRLVXXVSerKAai0HQoRWXyg+vCWjHsRjiExBnoqFj+&#xa;VfeHOWI4Eg0ndgl2qTpeV3YMFhcaLpQEWbj/o0C0KlIiWVpKGpZKdPU4jxFP&#xa;aQ0YEJTXVmhIVI18KanuHvihAA0NCEcwzwDU8ikplEfnUrrxBqi9DMMdQ8Cd&#xa;mkbNimGVjvzOVOw9sxHscAOyBPJiDOI4ja6iuuPS3R43dWrVNzAF0XREHQZF&#xa;qKHNWQAkwFqCBzpHs+Rzr6MpRc0B6KsogXRz0gGDpRI6Cew4pZzhTXNTiNrF&#xa;lBkdiZXmjfqjJNBIhU1Jh0Hm9IUKYPgbbjSKNx49BfvObAfVzYx4tzL9HOk0&#xa;K6uOh85Ac6PbkYhqOWmepMS0yTQQjOops08DOW7DCwMJtiG6K/2czoSExGrV&#xa;L39xzJiPPv68YsWKmLHQw18b+8qShT9SFqobgZqaToGQszIa9CrVrfGfrP77&#xa;htz3/fw5GD7169/40UefYEDB4MD4pKTqpARIT027/oa6J04ecXoSbmnW9PU3&#xa;3rH61po1qzt3aqfdyirfvWvnxMkTvps/b9ee3WmpSXHxucuVKdvk5qbt23Wu&#xa;VKkyp7SAJhhLenBqt7F27RoclK/9beW+PftPnDqZL1+eMqXK1rjiyjbtOl5z&#xa;zTWcxqwFbefN/2bCpC8QWKRIsdGvjCFRava3g4Ex7IH7jh07huPJa+rWGXjP&#xa;fTpCYaX//fffxowdjZUnb56Cr7/+Bp3bCDWYIe3MmaRB995jeD07duzYuXMn&#xa;AgsUKHDFVVdSq6nK5MtX4PXX3lLJ0UprOndqy+7Vv63PmzvPnj27J0748rsF&#xa;3+/c/k9qujshLr5MmTLUSu3bV6lcVQ3jgIK9mzdvef5/T7H8d959P1dCLptu&#xa;lAPVxkHST0sXb1j/5/oNf+zbd6B0yRIVKlSoU6dOnz798uUvoNMSwfJD8OqY&#xa;l9975204UOTb73140003qT1EhfE8pd1qIuYjyP2H9rZr1XL/4UNIcMkl1aZO&#xa;m5mYmKiEaQLPytCxGh8EYxVVEzp+TseO3buaNK6HCQ8yR708pmXLVip3KLAm&#xa;+B9x0u6HhZqW/v2C72bMmr5ty+bd+3Y40rylypQrU65s9erVe3TvU65ceWSi&#xa;+5qoG4VoCpazZu3K6dOnY/ft37/3+PHj6Iply1a8/PLL21NXrBOuGSGSWwYS&#xa;0tLSvvlm7sxZ03f8s23/3t0ep6tUqVI1atRo37bTddff4HJhIQp9268NlOLA&#xa;Qrtw4Q8zZk7bsmXTwb17TiefKVykWJky5epdf12HDp0qVKxkpgzUx2oQC/hO&#xa;n0bvHQA3uh/1XsNTsEDhy6+8SsVjMnDmz5//9dfexDCz938eJr+tWTtl+oTf&#xa;1/62d+/e4ydP8J3aNa68ok3bjtfWrpPOwzOo0HBwyk2bNr3w/NMoF1bnu++M&#xa;i09M2Ldr7+fjP8U0snf/vpEPPda9ew+dwQTi01PTf1j0A9p286YNB/buSUpO&#xa;L1y0UOnS5evVq9exQ2e1OrIyOgtj082blpY+75u56CT//LP1wP69KL10iXJV&#xa;q196Z/vO9W9sTPcMOoyXRj2/YcN6ZGna9JauXXxqLFz0/WeffQYHRu7/nnuR&#xa;A4NRx3tGn749uWFHDB952WWXUThUMNd7buT09HTs4lkzp2/e/Pe+/XvOJKUU&#xa;KVa4dMkyVJ2OXSqUr2ilxF/IZBeDSkHUqjWrlv60eP2GP//884/9+w+WLFn8&#xa;ogoX165zTd9ed+crkF8ndTiSkk7fO+geDJudO7by3IWdeGWNq+FQXddTIF/h&#xa;115/nfe9WWJowp2VAfysAynmdK5avT5vXnq4FS2KVrDLpFFoGClnznTs0G7D&#xa;X3/GOYy8BQvMmjG7bLnyOoHqdYKFmDIWfsMASyxmajjatWv3/AsvW1Hcgaxu&#xa;hIXB7XbDmnYZ8XFxytBRrFq9vEvnTuxGV/5704YB/e4+duQIZgskorFrbp3x&#xa;zqH3P9D3rntociFDxE8Nsp+czi1bto4YPnTdut/o+AVjkzJSbhxQ00Ga14tZ&#xa;YNTLY6tWVY/J4MgGxy2GsXHjhlYtm9OpEa/zxx+Xli5Tho7M1PKGkcmmz7Zt&#xa;W2+7tYkS6ChSrMRPS2nloMxmBXmCG/Pqy+++S4v3rbc2e/PNt910JcIXSy6T&#xa;EyeOX3MNDBccwsQjCglQKXpTlFnxIkWK/PzLKqREvlWr9IDHNLFm9Z+bN2/q&#xa;36/P0aP0ECNVkqTgcJLOKsQnuO4fMuyuvvfYlmfdUKvX/Hpnpy7cnPbHoFRj&#xa;koZvvfnaW2+94fakoR3ozL9KyhQqVOj+YQ/c2bkriwJWxcMB9W5scF1qaip0&#xa;7tal55NPPk1mBh2w6Yz+EkhJ1QKOxT8t7n9XL7eKGzXq1Vat23AKxpr7IGcV&#xa;5r58eXxammCX4bj8mmtrnT5+DLt+yOAHBg4arOOCYLvBaiUKcbh/+mnZyJHD&#xa;Dxw4hEM97B1+7It2kdpTCQkJLVu2fmD4g0WLFuMsDCdgUdu2bnrggQfWr1+n&#xa;4xSWBGyrV79s9Ogxl1Spyh1Mp/AHK9Ojj4w8fPgg8lhp+JIcHDBoXhn9WoUK&#xa;Fbt17bxy5XKE9OjRC6YMJ7S6JSzFJUuWPPLwiH379lHjq2juY9hCWpzTecft&#xa;rZ587pk8uWm5QjxyWa0RkhMnTtS5piZ3ECijLTpTLEDv/eXnVaadp6Vt3bpl&#xa;xPBhf6xfyx1MlWI1msfjcFa/7NJXXh4b/aNnEMCVXbVqZZc7O7AoTCO7d+/q&#xa;2q3T8aPHEAWVnnj8qS7demIvY5bgczlg6dKlD498AG0CNymghj9HAUwmLVq0&#xa;ePa5l3Pn9lnSmDEwzaj2oW6zcNEPjz424tBBemCYK44tX8mBtGpVLx3z+luV&#xa;L67crWuXFSt+Rppevfo8/MjjqsZU4oQJ459+6jF4qlSpMmfud6qE0Hg8nksv&#xa;vZjV+/iTL264oR6H2/npJ7WL9+9RN2AFgnm3Rcs7nnn6f2z6o/SAvQw3hv87&#xa;b72Rjv1Al/wghCqEuqDUAoUL3D90xJ133knnQ9TcVeeaq+nWPhjS+pjQiZlW&#xa;9QZqxmJFiiz7eRWaAyHcMcIRbMpw8wLbY5v6+M2MYolacwscFXft3F5dKfN0&#xa;69Hn0cee5PRcX51IUL1UYKxuQV2qRNES1H0dDkyXMFZUOMHdkbfAFe9KyJWY&#xa;GJ8YH08tqRYPwj7w5n87t0ePbseOkx2TO09i9csuK12yJIlWo8qd7n355Zdh&#xa;K8Crhoevd6qOanwzd3a7tnf88cfvbMeg+xYtXqxK1eqFixblUhC+YcOGDu1b&#xa;zZxBr1ehaQ05DTeOs8uWL8czxZIlP5LOph1AAxV4HYsWLuTVHckOHTqwfv0f&#xa;TjrkogpyMIlyOJb9vJg8DsfNN9+MoymOAhxrorQ3jMSE3IkJeePpXAKFxDm8&#xa;8YmJWCZ5m5grXiX2w+lwffft/B7d7zx+9Cgk5M1NrVS8ZElWHv/TUt1opVfH&#xa;vKyaCILxxywaa5ZeaDSsFHKlpKT079/zjTdewx5EW2HtLlKs2NW1apWEZMWx&#xa;YyeefPLx+fPp4iByscJckXDMmD4tJQ12jCN/3gIjHnxYzd7KbjAzWQ6APY4t&#xa;xRqOBg1ubNzkZu5UkyZNUPEhYFvHv0IaHF9iQi1auBDsGLTM6dOndUQoeBG2&#xa;dhB8H77/Qb+7eh04cADSEY5VrcLFFWrVqlWqVCl4QVpa2rTpk3r36nHiOC2W&#xa;FojivzhSb9u2Lbqi8lJ4sWLFYEAXLVqUvdhu3Phnu3atZsycrvuVxtco7737&#xa;zj0D7oIdgwqhfVDRgoULQ0jx4sU5we+//w4T/LfffoNA2tNmg+Kv1baIeuft&#xa;N/vd3RuLHLxew5UQ58TaeenlV6LjQSYSYPWd+fXMNm1a7dz1D6VR7aEcPmUC&#xa;QC4MZvRSdCkkQ4ODhMS4OASZIJkpgKShTdq1bU1tovoqikYfq1K1KoYn3LBj&#xa;ELjxzw0d22F4TidPGNBaVoPx9TQogNKVl/w7d2zv07v78WP6lSQk3Dw5Spdo&#xa;oJPH++47b/ZXz8ohI3V3l6tK5aqXX14jIS5ODQiyHr7+ek6b1s127dxBORU4&#xa;8uFWQSd5+523Bgy4i+0YgN5YpAhVp3hx2sUYa3/9vaF9m5ZYqvU1OF97mtob&#xa;6SokQl1tqEYLB6pzt+qxGLxIF+8i8+jyy69MdOmjRgyEr76a2abt7Tt37oBp&#xa;ixCli9YkNTWlf7/eGP5kxwDYIiUK165du1SpEvAh6Pixk0898fi3875T8yHt&#xa;bOzf+DwJ6EJqRKP9vXGJtPPj4xIxccGFlB6PNnAzBTcSjE57Vn3ySQfBbbah&#xa;jVpX12rXoROU8TjiUFk6iPIv3Wz/C53oOtyFBC8/FSvpwwUMpO++/Tag71qT&#xa;jtX5uDuF7OIjHxyRcia5bp0bZs+et3r1+hkz5yxa8suKlWsHD74fsyR3xA8/&#xa;eO/XX+mMiB3ErPtj7fDhw5KS6BmZvLlyDxky5MfFvy5buuLr2fOX/bxy4cIl&#xa;AwcOTIindw8kJyc/9siDy5f/qlWi4wzjlqbN+IHen376CVu+bcKmPI6PF/Da&#xa;6VFL7OIfF9JlNGoEKp2rc/z48T/X/YHQ+Pj4ho2a8OwZCorIn7/Auj/+wq/f&#xa;gHs5tEbN2hzy+7qN2C5apKvJLcagER566AFUoc6113719Tcr1/yJVlqsWmnQ&#xa;kPtd8dr6QSv9QlcccATqp4SaqHx/WTJmnCmTJ/y4aIkKcwwYMHDW11/9tHT5&#xa;hInTIPnTzyZchF2MensdIx/CUexemqHoYjoyB9bQNll4p0yZgCw4cLu1WXN+&#xa;86G9IgFQSpuwNu3aUqcyPKtWrdiy+S8d6g8WIL8C/YFNtnvnNu6ZFStejL3E&#xa;4aGggi05876dB1sw3Uu3UxcpUuT1N95ZtXrdvHmLxk+YitaYM/fbli1bUjqv&#xa;86+/NvTr1yclJZm8JlDo999/Gz78/qSkU5jnYWsOGTx88eJlS5etmD1n/s+/&#xa;rPqBuuK9iYmJ0Ex1xeE/+/Vn3Qrz58159dVRdMyLqcfp6N2773ff//jLr6tn&#xa;zZ4PUYuX/HzvvffGxTuTk5IGD+qnzB1aYFRWDTQB38ydM2bMaLZQS5YqPmbM&#xa;mNW/bZwz97tpM2etWP3H+AlT2rTpoJI7/9m6bch9g2kBUH4GErTLn/z583Mv&#xa;7a+utCJZzZo1163bxB0Yvx8X/6yWPa0St8npMyeQktpkyNAfVZtgeHKb3DNo&#xa;IA51kDIpRJv46QCNLKXYYZXC2t7dr+ehAwfy5kps167Dgw+OfOPNdxs1bmxV&#xa;BInnzpuLNkn1kIUBY/2VMW/89vsGtMn0GTNWrF735fhJbdrwJW/Ptm3bBg8e&#xa;iDZRXi6INt/Mmzt27CssE/5evfp8v+DHn3+h6qBSS5b8PGjQIEwCmI6G3n+v&#xa;eqMjdPPtHVNh6py+QZlVvvkGyrwK2wvmO6rz6tg31/62ae43qM5XK9au+3z8&#xa;ZLM6DlRnyOB7U1J0dSwmThr/44/6/hIa/l/NXbZkJYY/duKnn42/+OKLuaaY&#xa;efbv3Qunnrt+38hzF6pj7f0/1v/9++9/IyOHY5s1YHSq80Eaa/eFxGrOIfc/&#xa;gEJhV6HNv/9uHodbalBERDkXCL5mvcDhZZu6h7KbO3bqQocy9OCA44Gh9738&#xa;yos4ZkWPQQJe5i3Ia/Zts3cxvrbt0aPHZ59+eUnVak6+bZLuICk46N4hn382&#xa;SR1E0gPHH3/0EbJDDUva6VMn7x98X1qa2+nwlC5detK0mfcMHFKyJB28khpe&#xa;b9ly5e4fMmLq1JklShZDYWlu77Ch95mvkkS8t+nN+jTAL78sc9MttH67+8Sp&#xa;E2vW0LWeiuXLc7JFixZhy2oA1uSXX37GdILoOnXqFChgv7MkJ8GA7NmzJyyM&#xa;qlWrGXQMRqC4ewcN+eKLifwSTNVK7/MuiIzaU8acb+YqnxML27ChI6pXu1yN&#xa;f6rbddddN+6DT/j9wpial/60mKcG3gaAQAiE4+DBg1u3bqUQr7vlHa2piTOa&#xa;RKx4pGzUsAkWSzZEVq2ilg8FukO8eU6F/JZGCFu8+Mf0dNIHClW6pIrDGbl0&#xa;HXvgwP4nHn9YXa1zXH11ra+//ubWW2/lK3Fc38qVq7z8ymv33afvlFqzZs2s&#xa;mfz0BDU1yj19+sz9QwZhCCCkVJkyk6Z+hVWthDq5xRUsU6bskPuHTZkyg86l&#xa;qa74wLDB6IrIjvpwFfbv3/fYE496HW51ws775NNPPTTykQoVKiAKCfArWbLU&#xa;fYMfeP21d2G84hCCX9UT0MJQ+MCBQ48//jD3WFTnm29+aHZ7SyyxFOs1cuXK&#xa;fc0117w0ahQ05AV1/fr1r73+KltTqiCCPJlEZYIypDxcp06dxIpObeIxypUr&#xa;N3nqzIGD7kMVVFqibLnSw+4fMWXyjNI0Zp2p6R60ifVOZ8hTW7/aRWD/voO1&#xa;rrnmq7nfPf/CqL539bvlllvKli1n2fT79+9/8olH4EDV0CZY8lu0uD2OTsZA&#xa;Ptokl2qTVwYNus+rLkWhTV5/7VWVVbNv38EnlASoigo+/fSzIx9+tHx52jtM&#xa;iZKlhgwe9tpr76Kp9+3b9/fff1PfcPrOWOcg2PvosdTOhqdmjVowyJo1bxGX&#xa;EK8a3puQgOrUefGlVwbeO8irusH69evGvjY6YFqYN/cb7iQweoYOG1G9+qVq&#xa;SqaL7Nddd/0H49TwNzwY/j8t0Qc85xXc8bEtXrxYsWIluNetXr2awwF1ROXJ&#xa;Wn/+j+G3tl3IYMLFFh2Du0X58uVHPPI4VlAMBayg48a936jBdc88/cSSJUvS&#xa;U8mm4Y5Edo8638hdSs2cFuSBtJKlSzwwbKTtJg8fV9es1b5jF8xHyL5s8YIj&#xa;R47yysFMnz559+7dkBMXlzBm7JuXVKludVl1CoG0Rfpq1auPHftOfDwt9gcO&#xa;HZw0cSKi+N60WrVqFypSBA5MoBvWreehzpoCDGB1utLb6667S5Uui5A/f//t&#xa;GHRQCUgTSu9dtnQJaoKO0uTmWyiC0CJMdXKAEqVKDh32MLvRAqp2KIUKuLpm&#xa;zU6d7iQVnN6lS5YcPaLPfkeAG+rAvr1KcU+1atX4ZBNHqq0Di2j9+vUppdNY&#xa;vkIbFsE14hAWqHaHwum86KKLEMjh0YCUWFrQr9i7Zw9dGQmNka6XKO5OHtUg&#xa;Xsfh40eeefpxWCSw0y698opral0TYJsGYOk2YfwXfAztcsW/8MJLxYsXt6LQ&#xa;yHyuDo77Bg+rUfNqRCFo4qTPVPtTuShk2vSJO3fvQmGJ8fGvjnnjkkuqonuo&#xa;eKsnoA87qlW/dOzYN+nyjDL7Jk6ciE6pujelmTjpi5PHTziNOAyoRx57vFPH&#xa;btYdHkjAacBNTZqMGvWKeuItZNt6J038/OTJk7AIYem+Oua1PPny8pBRFaGF&#xa;CqIwQLDuYuVWWTyTJ05KTUmCPFWQWVImMc/YQS9svdNnTN21axfqF5/gGv3q&#xa;65WrVlexBBfh9LqQAyvo6LFvJ+CwyDAOHjw8YcJ4tK/ShC08EqV+YeFLdXnz&#xa;5X79jXfKla3Io5jLIjd1B8ekiRNOnKDXkecvkHfMmNdgMUO+uuaCnzYlodR9&#xa;g4cOvgfLP3knThyfnELXKFWsd/Kkz44fP04uw/Pwo4916tzVifyc0wQZmzZt&#xa;+tJLL6sodVRmO8eQI3BDTJzwBVXH682frzBXB4GmLlBKN9eQwcPvHajt78mT&#xa;J6ae8bvkun//XsMRD2OlenW6oVgBEdzfMcNXqH9jPYc3Dvsp/HHFvwZ3Id6i&#xa;41WqdJEKhsVJd0Exav9Qo/jvpQuUHO6IsQuND55f9DDx9ure46MPvyhauCB5&#xa;vN6DRw99+eXnffv0qlvn6iGD78Fha3JyMuZNszPRlucISk5ealtk7Nu7X648&#xa;dCUCYdw1EWxt77qrH7bInuJJ37hxoxlFTJo0yUkTlffWZi2uvrqmDlWo4nRh&#xa;cNSuXfuO29ugdCg/ZeqX6ThSwgKiuOmmplzo4mU/mlXTLFq0CFkwKzVt0uym&#xa;RjcjJN3hXbJ0iaoKiWJjbOlSOmRxG55bmtxm6m/Vk//mAH1735UrV4KLJl8S&#xa;CsmqjozRt49qJa/TnZa6YePGgIoEQdHIXbJkWa8jzfAY8+fPV1kgII32Muf3&#xa;OJ559oXvvlv43fwfhg17gELMGtnl2+tIpox6QBerS4kSpRFi7XH+E4yvElol&#xa;fZuOzyqyoaus7FRqCbICsFM8u/btnjhlfPNbm+4/sBeTr8twPzDsIXrpTthi&#xa;CdYcu+zr2TNUgKN9x46VK1VBMValMBuyPUQOr+PB4Q+369Cxc/t21S+98uiR&#xa;w5wGpUyZNBG6oDugK8Lcsepr7SOUoiR4a9W+pvntrVW4c/qUL+kFkxzvdnw1&#xa;cxZdL/B4brv5tt49+iI9Z+QUjPIazVu07Nmzpw5SmOUggWPWLKoOlO7du7c6&#xa;M0H6Q0lVEXr8kLxqOPfpe7c68eY8eerot/MXIi/rGbndwqEqxTlJycmTvlSh&#xa;6c1uuwPD0y6TSleP6KiNo9Y11CYU7nRPmfKFCuc0KrVaX9kVEr4E3LvX3Tg2&#xa;hwOVJFvIyoFm9HhnzZqGfuP0ePv26V+mLB2WIIWyvchpFkSBPe++O18eOhl5&#xa;6vSJb79dRLqQ5WfMnPkVNY7DcUvTm/v0vAvyEa52hx+QeXuLVj179vZ40umM&#xa;G3UKqmNOgdqg0FmzZkEsrKU+ffqUKVuORxmKZn3sSvXp2x+7GPVKOnF8/vf0&#xa;KjmLkiVLk5Ju17x5+qIM5GA3uWnnYIp2P/vUS99///138368f+hQleM8gncw&#xa;jxG4L7qIn8WDKbPH2vVWOwTtpQsRmgUEgC5OPzUDom8gwOP2Xnf9DdO+mten&#xa;z13FShSP86pHcoz0U8lJWBofemjEDddf89KLz/J7V/2h2/CsEV7lkmo0+xAc&#xa;AKijqs7qxUDVd8J6444e3I8ochqOf/7ZtmnLZg+9Gc9o166D6tOU3y7FhGa2&#xa;Nh06qsNf766d+zb/vZ5TIbzpzbfCWIHApUsW8oyAYpEMK8rixYuwHF52efUS&#xa;JYre1ISeY8JssfgHmvEB6Ws4duzSz1RfefnVJUqV5OVKSaAJmdLlEGgl2DFu&#xa;feALSDgPWkw6ZSqUy51Iz2o5jPijBw9xRUKisuA/vZ6kQcP6TiPB63Kv/W35&#xa;w488eOzoISM9jgwF9eIv9P1ChQqXv6hi+YsuMi0MqjT9CSUfWY4ePUpmjNeR&#xa;r1B+F5+1MlcLtQ2BfXfBXagQnSQDfJokAC79thZNb2xwff0br2/U4PobG15f&#xa;68pLmza84anHHkXp7nQDx/fPvPBKvQb1sXBHvv+QW2/rls3bd+xSnc1xW7M7&#xa;UDVdR7UfzdWOHd7adev+77kXn/nfqBeff6mIupkXyXZs/2fTpi2wqqmbtW2v&#xa;HsUnafBy7ZQoWjgRDHf7Dp09dLTu2b5739a/1qsEjq1bN+/YtdPpItO5TadO&#xa;HnWjqilEw15Wu2PHzhzCWM4tW/9W50Ko0197XQMVRnHWLjMlUCCO5i+99FKq&#xa;nNvx57qVCFEdOPT+zQjWADnhMLbv2Lrpb7r+hcLatutI5pEpk4Wzn+6NwF+P&#xa;p30H9Tyj17lz156/VZtYSkaGpw44atSqzTMKvAi0Whs9cMvmv9AmcCOo7rU3&#xa;QDa59VkZxldQgTz56bFn7C63c/26lSQFnWTbX7t371QThdGufWdUgfsDj3eA&#xa;NBjySIt6IRbmLjk89CIU6MgJcgSUu3nLXzt3053aKKHutdermZlAiawP70Qm&#xa;f16qDgLTPc4Nv63VodQEjgYNb3Q66SVMNPxHPnj82FF6YA8DGP/JnHUVKFKw&#xa;fIWLy19csUQp32XB8wqrmmWVeQqOHDnCgaiyChA0Yspo0L1patBjX/1RE0Hp&#xa;EiUeGvnoTz8unzBt2uB7773y8qvo/CSNBHdSUtKHH3/SrWeXgwcPUHpCdy97&#xa;L6tYviLlUJOdmuAo0uyH9CBJ2TIXq3DPIfM2F4zDvXv3qWWSjkSuuPJKNXNR&#xa;XpsEFoEtDeyrrqrhprkG670b06WKovFcr179XLlywcpZ+9u6MyfpBCwSQ8jv&#xa;v/925MghKNb4Jvpu0XV1r8uTJ4/HaSxe9gOsHMoLvI5fli5TkhxNbm6qDpgo&#xa;XCmTwz3noooVUV3b1EmND1BdJz2/YJQuWxFFp3vTD5pnC0KiW0Wp36vn3dWq&#xa;XUInmb3OGdOmNm3adPhD9+MwLCk1GVVANSGcTrKol7JzSwKzYQNBcIkS+or1&#xa;qWMn09zp5k6JhH+89/BhrTwfYYdk/959e/fj6Gvvnn0H9u3bdyYt1Y3DedXg&#xa;NWvXem/c5x3atNcWd2hNTdTKt2fPHrZxQcWK9BIObltozvqzEFURfe4dKdMx&#xa;5yNS7e49u2Fho0/QinXFFVcgPcLtcCOwBFCjRg0kQHrDkb599x6yHQ1j955d&#xa;pIYHhXpq16wFt9UylEehdgHZoAisVLlKoUKFOAGD0rHdu1ufYHcZxqFDB3/4&#xa;YQF96mvhd3Dwb+EPC3Co/QNYRBtODOtrz75DcHBlfUt81NiamjLv3kVqUJt6&#xa;jCuvpDbhBAiwGke1HoVjjGN4IgSxcQ7vzl17OZxFRYbaDvvBcJQvU9aanWhF&#xa;xu6DC1EuY+9e7CBy6zZZ+N3CBQsXLUQzLOCWWYCGQaBqnwULFyC3k56F9O47&#xa;QM/DIy+qg/1Cd9h6vbVr1kaImq8oElsqk+TTARoSwF2pSuXCRQpS/9BRmW/Q&#xa;cDgN7GIWF+cwDh05vGARqoDqQPfvURPsblRsIWqo9jX2MumNxE7P7gO+iy+o&#xa;Sq+efatVr0wKe+OmTZ90U9OGIx4c9v13355OOcNHIGhW7D/0eae6peZ8A41q&#xa;teuePWS+gyJFMG8o5WnvkNo52PYxjZgyFjT72qchPXGod8jCQrj6ihqDhjww&#xa;bfrXy35e8fijT5UsXVqNdc/qlSvatrkDM4ga5LpbqfFOwx5JihTjo1v6qW6H&#xa;/4jmOQEJHHnzJrKHP3RChXu9e3bvwsQEHfLmzZs/fwEyUTiSUFJ0F9YlJiQk&#xa;FC1chN8Xsm/vbo5EdoQ3bEhPOqSnpv38K9+BT1GLFi6gZdzrvalxU8yM8YkJ&#xa;DRo0dHkdx46egJVDKVR2vroEmtx0sxr+BBdtVidnKFykKIrjxdVa51CEVeu8&#xa;+aiVEOHxBJ8GC03u3ImTp8zs3JmOMpH35KmjX8/66t57765/be37h9z7zdy5&#xa;p06dRiXMlQ1bKkyXHYrSaqfDASvmwAF65JXDI+C327Br9mkrE6LYEUzdutdd&#xa;d90N199wLf7Ex8dT9/M6Kl1Uce787ydNnHp9vRuUlcHtH0kB1Brs30/rHEhM&#xa;TLTflAqwXGHLMjgx5gN4EY6/tK6pdsPxuopzwNgtUKAgzf+2SllYgehyhQsX&#xa;xmpiuF0wybh56WuaKkG+fPlIiG3P2kBK1IlVcZQqVYqzcAhvD+7TyzZ2weD7&#xa;7rnnnj4D+vcdOKD/PQPu4t+AAXcNGtiP3P36ImrFCvqaKWzZY0es4w1eyDKH&#xa;pRWrtGcPXR9EIIZngXwFdOupEGsOUa2HENrmypWo2oQsvH17g26TMh9sDka3&#xa;gNdRvERJ+CiEjHvaB6ogegfKPnMXYyBTm/TvN+Cevv379x80qC/caIpBA+++&#xa;p/8ARAzEn/59V65crpZu55FDMKxJ1P79+0hzw0u7uBB2MY1EVXIgus94jVIl&#xa;y3BIzgLDYv/BfXSyx8A4N4bc119VoS9268BBd0H5Af37DBqkd7T69V61ahV0&#xa;dXuN44f0oSD+ozK5c+eePHnWnZ27063BXuepEydnzZoxaFD/+tfWxPCfM/tr&#xa;HIuSfUYmwfm4DqL9zV3g3bZtO7swKFA5dvPxZMjddAEipowF2Q0WcNunJEC9&#xa;XYUULVqse48eX8+ef0cruv4NME1/9OEHGDzsBeykucHsaBzi8+nEakqyZeQy&#xa;EJLmTuVr5OoxBC4e2FMCLY6hZU+JSk/HQTWHEU2b0u26OBJb+hM9oMRRixb9&#xa;gOFdpkyZy664HNMGQm66qSkmOOizZDElAzjc+eUX+ghOhQoVqlWrjhD79IZw&#xa;eynZhxpcTZRocJtk06VmN9Vjo+20kIP1++lnnvtw3KdohPg4elTYcLhOJZ+Z&#xa;N2/u0KH33djghq+/pq/5m+jmRSv67ROz4uXKlTNbwPnX3xuUI0N8uzcp6czO&#xa;XdtVLehdqBxob1Lmvfc//OzTLz/9dNKnn33ZrVsPzv/PP/9gLoZDdUtq+QAN&#xa;Q4LE6EjcXuhI/NIgC3vJ3Ns5hLdcLrZpnhTWGRIQRuNEG39+WPWEKPU8Eb3m&#xa;PS2NPuKNHB4HGdkUC7iUjPS3+rO9iVI89FIfDkGs9fFwFUkEtCdLAIn05Dyi&#xa;/GKzAMtzp+tHf10uul7BNQJwWPViB6uDbVwCVQfqpqenqvMINtQr2iJh0Ksy&#xa;8YecJNCaNOAz0t1QhkYHy2dodKpPcwDVJrBNMKPovaB2qIdflIcQr/mdEpRC&#xa;Ev2tZLvbat34hIx0zhJotPT0dNqtZKTR+5N0hKoFNAFcL6WzjqVArzcxD7/3&#xa;Dz71l8z3XE89TcO/yc1Nre50+kzKt/PmDhs2uEGDOrNnz0Z6TnwegkoBaLh1&#xa;62Z4ob8yZYQQ+DqKQKPDh90N9BzBgwTdK3/+/C+PerVSpSoq2DF//jfsCIc1&#xa;BTA2Lw1C7ST0uKJDUgMrhufEiRPJybQemOMzRGKA8X/k0CEWVbpMOQ5kbmzY&#xa;UB3ce5YuXcrZ9+3bu2EDrcSNGt3EFhw2DRs1punSaZCVQ8m86/9Yd+zYEUwg&#xa;N998KwkiHXwlRklQFrv+GiuNmqYDsBlMNK8FLAKRsKQ1aHDj2++8t2Llb2+8&#xa;/X6HDp1K0QEucerUieEP3P/wIw/a3oKo8wTsL9awcOEil19+pQrwzDQfVwYB&#xa;VQyssVIZgd/On3cmKQW2FNq5foNGKk5LtoMQK+ze+4bwC+hgVj791BN8Lp0J&#xa;0DAkOOIsWaI0vzQo6cypw4foTcp2gjUPEIseheNvp4fsaXTFM2dUV1RpAnaW&#xa;2Y29aEx0RaiMkNJlKiAEh9pQA7MNlp9Tp06dPkPvSbLt19DgCEENOnVp1qR0&#xa;yTJUruFBl37ppdEvjRr78stjRr00BtuX4R41dvQrr48a9Sq8r7wyFj8KR4JR&#xa;r97dbyCyqV8kuBZcolmjACiyZCltidLwVM8BMWowaeztg+F59OAh2otqeAY0&#xa;e8bYVnSFX360CXUyrxO25ouq7vafrxHUj1qJWoy2/foPYgn6FIvhOZ108vSZ&#xa;ZHstFLomltpomX17D8CQ1H4bMKm49fjRfTsBtT51SpnmwCYHRUMZt7rSCWuJ&#xa;VB31yisvqUqNeo22am9i+8rLr78MzMCXXxmrdjGBzGh8qxY0/N/6YPmKtdh2&#xa;7Ni5ZMmS9E0tjIiTSQ8Mu++Rh4fTC4psVSF11JABSmebehl12kygivBvEz/h&#xa;hvldtIOH9h08zJdHvTVr1bHvBe0SxJTxRx8vqq3p9vUbGhvcedC9VJijWbNm&#xa;yuvat38PfZkv58B4hvGBoxP0V/MFGxyDor2Yt2ilsA2DzZs3p3vT49SLQcvQ&#xa;xQudGhQqUKjutddAzvbt2/mWyUU/6nsIbr6JHlxiihQpXLNmbdR6/fr1h2AV&#xa;GcZPP/FLfj1NmviSRQ9MMRquhu96EBS2ms5Ojo5JFkWXYOgPQTsR29y5c6Mi&#xa;zz73wpKffvly/OSGjRup2cQzfeq0KVMnci7VvJHo3Lkz3TPg9f644PujR4+S&#xa;dDWGVNV0RWy1oVgraurUyag+HPXqNYhwdIUErDPIly//sGEPwuEyjPXr102a&#xa;qJ6aIVCGr5gI0EUlr+oWhmvHDt87Xrnz6AnbhDWHsrSl89t0HFy6VCkYQ2R5&#xa;OA3dFbltza1S2LzJ1Gls2vx3Gn3ikYSorkjWsqqvx+WlO9z//JPve1XpKZS2&#xa;SIMADvN66fodmebKD+EUSllgQ0COE+MiLc19ZY0rWrZu1bJV69ZtW2PbsnVL&#xa;/O5o1fKOlhSILTvo16ZNnTp1WYIibNOxVlQfutDGJwJVa+iMBNRBddCkrNjW&#xa;Lf9wU3BKGpvsUUKYzZs3pXnV9w+9XrQJS7PLzAbekqVLcEm6TbjK5g+NgBaC&#xa;Q/3BP/rbqnWbO1q3Vh/MIvjKI90R63H98cdvPPVZi4MeS1Qj3t2eAwf38oGT&#xa;mcTCWyB/YT5fsmfPHlhunJXbgbMzCOfeSK1knj0CsGHoMq4aVamozlVXtWrd&#xa;7nalv/WD8qa7rS+wVeu6dWkXA+q66Evq9BJ2B3vz5Ml9U9OmGP6Ll/zyxZcT&#xa;Gjduwib+tGnTJk+ZoAYCVxtbOiek3IzVVW2urOKTQLcrBZzZoihfvD4T7x0z&#xa;+lUnfZeKPrRC71s3J4fsK/NfIqgrXtig86B7oPc/+tCIAYP6Dbyn30fjPuIh&#xa;AazjSPOv46oaNdGfnDjaSvN46DRvjlGlSpUixYrTAHO5v5k7G38x5FUMATW9&#xa;6sPXejbxeKdNn4yx4Xa4ixQpVv3Sy3hUMEjVpOltWAvhWLZ0Cery40IyZXLn&#xa;zVXn+us5DY12r4O+jKgKWrJ4EUJ+XkZfwClSrGjNWnQnYKaAEJhiUMnrobs9&#xa;EEDjznZSwX8Y5lg/xLKpGopXXhrtvO/gptlNTcRQq3adOh+8+3HLO/hjlp6Z&#xa;02dAQ6vRbC0dyO13tM2VO7/T5TiTkvbE449Qf3FTZdVhJMv3ZaZGUE9LebCD&#xa;pk1bvmIZxTqNjvSanLBoCTy5er1t27W/4qoryWd4Xhsz+tiR4yiEivJvwQC4&#xa;1vhbtcolBQsWRnaIWv7rzwjnKBc6jZruLZBg3769c+bMmTvnm3mzvzp+8jgX&#xa;UbnKJUWLFfbQ58m938ybY0lADopXtzcBXe9079TpU8jn9BYpUkR1ReKSS6oW&#xa;LV6MvhrmpDeyUJBXm/707iZSmPJjA5lOh/Prr2bSbdUUqKJNLrnkkkJFCroR&#xa;4XXzV9KALtpsE7pIgpZHs7vTDx8+dOTIkaOHj6Sm0nekrZT8JwwqN6ek4cV9&#xa;Svt5W6XKJYWKFUU3QPjcOV9zm3DpGGgqjbqthO/KoeE5heYVh6Nw0eLVL72U&#xa;hZnKZBPs4mpFiikDwkj/bc1a6oNKBSjCDu1W5ak2OcZtkpaSysqiVYuVKE4J&#xa;jPRZX82AwmSXmp8o4abAwEECuGHhfT3rK/56huoBdoySpUpQEocnLS1t7+49&#xa;XKhuTNWaDIK379imPQTJYYUrV66MqY+6itexeg09d8YNi41VmuXAtHvkyGGq&#xa;ztGj9hf+olwe8i4vvec0juqibjJSGa+55pp33xuH4c+SZ82Y6VKfqoAbIVQ0&#xa;wsnQUZ/q1qBafl0x85AoVQigllC312OLhoVkakv8zASalctXTp02kfqjYdzR&#xa;qnViov50BldEsMixJeS/gTIOaNnbtuufhd99u2DBd1+M/xCNxNeyrQ7EfQ5p&#xa;N25YjwHgcThLlCoVH0cfEMgp4uLi29zeElOHy52Ao/mDBw9DLZSlxpuaqekf&#xa;1DDchuOfXdunTZlMZ0G8ce3atdO315ggzc03NVPTi3fxkqXJaem/LFuGHd+g&#xa;3o0JCQnmkKCBRHfVGBi77kU/LjlzJmnV6uUOp/emRk14wGcKfk8aoHPqZHlB&#xa;Z5oErTakevjI5hzhg1pFFfDXXxtbt2rTrm2rtu3bbtqyGfMuZkbsKxe9cVkt&#xa;VE5Hs1vopBracvuOLWgnJSAD8ubONWLo/QaOI430Bd9+98WEz9RqQZalqhE9&#xa;L0rCaYGn+nqcdIfC5s2bn33mCYcRj8T1rq9/s+9lg7o1GNZcbX2rEQQ+8djT&#xa;tEB6ncePHx01+nk+1LVNsiGgN/sS3oRcCbc3U18V9Xg//PCDw8ePeuPoKzlu&#xa;j35eCeiVhr62/fwDDwy6f+igl155KY96+whwuVyY9J1uiHBOnTxp/+GD5rRB&#xa;+9SHOv+0fafuimjpDm07qJtmgBdCbm9+B2phuF1fzZq2ePFiDw5JqWNYO5+e&#xa;qMIfNNeGv9e/99471MlVTS1QHMZFu5Zt4wz6qNCHH7zP115ZH6RnCepkAI3P&#xa;jz766Ibrr7/+utoN69c5eGi/Fhb+HlsTeuIdIiGHbG/VexW8iykBhlirO1p7&#xa;3HRgPWXKpIMHD7p1B1D7BXufzwfQk/uO7bt3TJ88CbsCsjA8E+Lg0ILUcM46&#xa;qpN4XZgr7mhJvcvj+mDcO8kpKdz9IBvFo1WQitsE6dEm119fQ7VJ7YOH9K3Q&#xa;2Dt33Ha7qmHcrBnTF/+0hNqIVneKZSVxyEYJnI4NGzagFEhFE/n3AKJipUqJ&#xa;mLRoMvJMnYGeYN+DeherQer44osvdCil0QqD+PiE1i3uoAcPHc4PPniPv6Fh&#xa;xXJKtWMo8KMPP7zu2to3XH9N/frX2J4kdfz991+tWrfG8G/Trs22LVtSVF83&#xa;1C1BVJrqcs1vbcFyduzcCr34RiOUgp1LVVZnxOmpMG5J4EaCwPpmBntTsP40&#xa;UaNcOv+nYlVBFE3fxaIXsp984smHXeoTVIUL5u/Tq6/ZCL6UvmF8YUM7TwA8&#xa;m/P6Aduk/rX1aO2nr7jt/eKTT3GsSRF0+kUPJPSkE0ePTpw4noMbNWqkT7Dn&#xa;ECilXbeueXIluF2pOOAYMfy+lKRTKMLlQinQQW2hlNdz8vCRwQMGnjl92nCk&#xa;582X2LnLnYjliph4i5UtftllVyB85a9Lflq8ICklCd3/pqZ02cgcGzTLXHRx&#xa;pYsqVsKRzC9LF/76869uTwqOnNWbaTJdtWIly9LyqV5PibGmvnzAZVmzN/5Y&#xa;YnOwH9LJJ/wpV678xr/W/fHH73+uWzVj6hQnzedoN6ebXjKid+WWf7agTbCf&#xa;ixQugRb1aWY6gkHDdunZt+ltzTDppztSn3vy6Vdfft6T7qavjiuoa8DwjSNz&#xa;k6w4j7FowYJOHdskJ6d60tOKFS380qhXaAf5yuK/BAeqnUv2kPLS08tX1azZ&#xa;rGUrRHkccTOnTlm3drWZLCxmD6Btu06dsfbDujh+/PjoF573ptLLilxO+pCB&#xa;kgEbk5KuXP7rd9/M5cukXTt3dcVrgxh7v1PnLvF54PUcPX7soWH3piQpA4La&#xa;WV9XIk3TvccOHRk88J7Tp0+7nB50xQ5du5r9kNTp1KWrMyHe40xPTUm/9967&#xa;1vy6HFnQidE3WA2Ignf71q19evU8ceKEMnxtrWOC6uAoG3sSBuILzz6DEKvx&#xa;WRlkROtt+2fz+x+86TDorudbm91RrnQFLSzDe2wdjuKlyqO/xjmd+/bv4rGP&#xa;vOmwXHz3TXtRncTEeFi0x4+fHDHivvRTSdyMpAP9VJ3RJkcODx4w4PSZM0iZ&#xa;Rw1PlQx60vi194TMQjYKZaWu0rZTl3jsUad7y+btzz9Dhq8llexpPoowHFu3&#xa;bUKb0KkKevFmK3r7nJmsY7duzjgY+elg8KC7Vi2nvcODgluV99G2zVv69O5+&#xa;9MhJaI7llq/RWCBN0cJFrm3QgMaZI+7jD97fo95KhYxq66AGhEXgdXz91czV&#xa;q35FAORoM0slUSV62qO/JdDRwrYtW1EdFUix2Kr0Xv4AzLZt295//22W0LxZ&#xa;y7JlrXsEvRj+mzb+sW7dbxv+WDtt6lR0O+RCF+Opm3aQw7Hln7/pxTOGp3Ch&#xa;4qolNSXUnUMQS88bktlPcZSRCqX9pZoi0wRkVGrTxXfUFyXQbEF2FU0aIMHj&#xa;nTN7RvPbGm/Zsg0BaJ6XXnmjdDm/myB1m+jrUBc60goajHMfTqNrz1758tH3&#xa;hjAmX3jl+U+/+BgjHHMTwHqCeeHPDevu6td7/156JtOZkNiz113csXIKSKtS&#xa;4aLhDz7iogXH8fPPP3fo1H7lypV8NELzCz3llDZ//vzmrZpt3LKBgr1xTz/1&#xa;QtkyFZBezZK6UtDZ6XbcfCudCTh6/PRbb72BIY1puvGN6rV4BA1XqprD27hx&#xa;Y/iPnzzz5ltjcJCXN2/eejfckIWqXXxROeiD7oXpYPK0KeqIB1KoIMSqLRXH&#xa;5g5NxjkHFhFs8+XLe3uz2+HA7ho37v1Pv/jQk85lYWqn0NWrV73/7tvQBDNI&#xa;/fr1oZE10aimCAuyv/j8S1WqVHIaCZjK3x33YdsOLWfOnJGcfIabkQ77VVEr&#xa;Vvw6eOi99wzqd/rMKa/Xna9A3tGj3yxRjD7MG7IIahb1hDx5UA2a37GQ0ML8&#xa;4AMP5qGvJtH+f/Jpuv8XUX6d1h8rCsKuuOyKfgMGYqfDO2Xm9B69O+7fvw8m&#xa;HcwsVWsDLTN7zqx+A/qmuNOxSJQtW7Zjl668TyAHRV188cWPjHicFgCPd+mv&#xa;y9t3bLd69WqyO1QxSOl2p8/7bu4drZtt3PQ3QtzpxjNPv1ihTHnaxVRZklTp&#xa;okrDh41Ar4BRlZLsvuuevvO/nYeisUdUjQ232/3L0mU9enU9fPhwnjz5yvlP&#xa;3BZVqlQZ/sAjWI9hj02YOvmuvn1276JHVamdlP0HhRf/tLhr167Hj510ep25&#xa;8uS5Z+C9bOCa2N0huKgiina61c2tU6ZN4UB6AMxcNlBQpQoXP/TQo+puNvfP&#xa;y35t17nt6pVkYvJ1MyRwu73zv5vfsmXzjZs2ohGh8NNPPl++LFlUqkHI1KE/&#xa;BDkyi5UNcqpVueSB4SNpFxvpE6dN6tO3144dqk3w34PxQG3y0+LF3bt2OX7s&#xa;NJoob77cA+7R9/zCiw2qM+KBB7F3oHhSaho6w/zvv0lPd5NJploL9uKyZT/3&#xa;7N3t2JEjufO4SpUqRT3Ed8mIUKIcPbv3ghwUfCYlBV3lu2/nQ1mO9bgNT5pj&#xa;7OtjHhr5gMpL3Rj7kTOqNFSvSypXHjYU1SE7Y/K0qX1699y5cwcnQUWwo2Fw&#xa;L/lpUZeunY+dOIk0mKb6DeivBDD0kHyzFndAFIb/Rx/R8KeCaHSiUBK0atXK&#xa;t99+G8YEDMJ69a63xgu46GL6ugjS7923e8r0SdzOGIZs1FrNnimQCRlV7XQI&#xa;5NPQVrLxn+Ylp9Pt9uzcuf3HHxd179Nt2LBhBw4eRo2REQtBwwY3BkyTlqgs&#xa;afRfw0hN8W8eweSnn5YM7Hd3SjpdYgelS5e+9NIry5cvjePFbdu2//bbGiwn&#xa;3K2ff/Gltm062Ls4lsk7O7dn95q169UiFJb27VquW7cOjpEjH+vdpy8HMhA5&#xa;8qER02fQfTAcUrnyJVWrVilSsMieg3v//G39/kP8SgmaFAYMGDjsgRHwYLQH&#xa;j7etWzbf1vxmazDUrF1r4oRpcKjliQrCMMNYX/Hr8u7dOmN2cDlcmMpvueW2&#xa;N996x5xnMkFKSnLzZrfu2kV39kG54iVLlihRIi4uLn/BAh+8/wkXlyOtFFaI&#xa;17P/wIFePbvTc4x0psZZoUKF666rX6ZMiRMnTm3c+OeyZfT2P0yjJUsVnTz5&#xa;KygIH2eNDCufnHTm8SdGfvXVbLQ31g/DEY/Z8+KLK5cpUypXrjy7d+/ctWuX&#xa;9cEUTFuVKlV66+0PKleuzNntIGTVqlWdO7XjvYZa5M2bB1mQTCemF7043nv3&#xa;7dGjR1NxZM080+XObhEUxtRs7WsISUtL79+vr76P2/DkzpX/0kurXXbZFYUL&#xa;F96zZ9eKFSt27PyH+1jxEkUnjJ9WvgK/TE9DahiORx4aPm2a6jNKCdSoWrVL&#xa;CxUqdODAvt9///3gQfqQNYOuOHTYCK28CbzomfcPGaheJI9Fhv6VLFn6iiur&#xa;lyhW/sjRg9gp/2zfiiUf9sErY1+bMmH8z8vpTUg9e/Z+5NEnWAiDphl6/5B5&#xa;82bzGIyPj69Ro0bVqtXRx/bu3bt27e9//bWedzr2xfsffFi37rVow4CVICTc&#xa;bqr33sz3yIOSpYqXLFHaFWcUyF/o/Q+o96IiLPCRhx+cQZY6vecG20qVqlSv&#xa;XrVgwYIH9+9fu27toYNHzNbyaxPoz4YXgBsZyRVExAGCzJTP6iQej3vY0CHf&#xa;fPMNfazD8CbE57nqqquoTYqX3rtvz9q1K//66y9uk9y5c7/3/sfXXss3yVLR&#xa;JAGVSncMGdz/u+8Wer1pSm1UvOjll11ZqlQZGJcbNqzfsWMHV+all0ZPmzZl&#xa;+fJfkKtP994PPf4E7HuybFkZw/jfM099/vmnSj5VsHz58pdccknx4sW3/bPl&#xa;7782Hz9+EmLuvrv/Bx+8x2k+/uTLG264gd3cGLDZhw29b666TRBqJ8Tnwi6G&#xa;kBIlyuDoaM2aNX/9rV4k7cAuzvUBVedalG61Kti3b2/vXt3o+696+F903XXX&#xa;lSlT5sSpkxvW//HzL0upw6MHlig9Zeos64siICUtpfmtt+zarUcEotBLYckU&#xa;KFT4g/c/5BaLTIQdZ49q0LAR2ceqA6Snp+/du3v79u2pqalWf4CjRMliL744&#xa;9vp6N9iHM9tzVk0FIKZMaHhG+3nZ0scff5jf3E8Y6epog3A6PG6vK3/+vE8+&#xa;+WxL8wUzFjmySAO2M8Z/+cULLzxrfZSfoQGAA0KaPw1Mnf97ftTNN9/Mw4xz&#xa;+QO/cdutN23bto39I0Y8dNfdA9htB0fGN9xQ69jREzxnvfzi6FZt2qI1sgBs&#xa;wXsG3AW1IQqDlU6fOo0iRYr88rP+eBsOjLrc2YHdWW6lcE3NezApKenxJx6Z&#xa;/dUsDgzm6quvefOtt4sVK2ZNHwpqLu0MDc/axuRJE998c6z1GjoL2jn6RkJq&#xa;yMTExLnffFeunP6WZDBWLSBz9Zo/8tBHuwIVQEu2aNFkx/ZdmH8LFSwyb/4P&#xa;/Na1yPBECUe6xz129MsffvAeratB8O6+/PLLXxr16iWXVOVAbkN2qIs9xsQv&#xa;P/nfCy+lpiXxLM9AvtUbza54CzJRDNnHOpmCbiF5/Y3X3n77ddU4pnpqseFt&#xa;vnz5Xnhp1C03N+ve7c6Vy3+BVr169Xn4kcc5P+sJIPmjce+9POYldzrdlqED&#xa;lSZWqrJlyz73v1H1rr/BpgNppZ0RWbJk8cB7+qemJuvaqS313l9XKcV9jP/y&#xa;sxde+F96aiqK1NWBg5qOmgi65S9Y8PkXXm7a9GbEmisQqalSRtIn+mkEkki4&#xa;w/hg3HujR7+sXy6A9gRaDWoRpClXrhx20PXX09Jo3zW0i5HG4x075pV333vT&#xa;vn9tODHjvfDCyzffciv2zqoVv6Z7sHd6BRqahsOdlv7Si89+9tln8NobkBPA&#xa;/eijj3fr2rP6pZU5xG7K2PnQrI49O2CBcKhd/NINN9TjcDtQ48zppCcef+Tr&#xa;r3n4cxtYkPfqq2u98ebbJcy3MyhI9LIlPw4Y0M+ccnXGwkV9c1dkwuw42tf2&#xa;SU91EnaGAJZfixYtBt07tEABegejlVLta+0WLEL2V0H3m+tvqDdn7rePPfZY&#xa;nbq1cUyGI3gVSV2wdPkKg+67F+tTkB2DKYru2TJbFn8j9TtVEKWlBxCUF4aI&#xa;CjT/Oxxdunb7Zt73AwYOwrGhnp6oQ6NHO3GYgqX92/kL1eKhZ6YgOwYgymt9&#xa;2hp5G9sew2Z4psBRwo0N6DkmFIMqN2qiXn8SSmKG1K/fYP78BR06dKp+2WVY&#xa;n+Iwizvo6j4dtmGrDmu5OjwrhYRT4mfvqxDEUD5IwCJKQv06M3swiYx+Zezz&#xa;L7zSqNFN9gMv2BY4Zr3nnkFffDne/qVok7D6mCAHpenYqfPCRUvfevuDG29s&#xa;VLCgz7DAxJs/f8HLLruC737GnDhk8L3HT9DbSGkWVqsIfiqlqoUJFnMksfSh&#xa;p4bUfkGWxPiEh0c+qWrvOnb8yOhXXoIMThYBSxT27PARI6fPnN25c5eARTEu&#xa;3ln9isvfeOvtadO/rlLlEh2qClWQwtwFOnft+c28b/sPuLdECbpMxrCGlStV&#xa;G/nQ4/O/5a4I1Npj7hOzmhhDxuAh98+cNaddh44JufRby3jhhH3Wp89dX3/9&#xa;za1Nm3E+vhWDW4x/3D4UaDh6391/zpzve/XpXaCIbnkqkd4m57joooueffZ/&#xa;3327CAskt7OJnycCN9a/cf787zp06HDppZfmL5CXJVO30uOPIU26dO0xb973&#xa;/e8ZhDZBdVhz1XSeKlWqjHjoUQzPJk2aUiCtxyqanKxJZH2sWNSJ3JxJZ7Wh&#xa;xJJ+d/XtP3fut7179yUzF62q7l1FnMtlVL744ueee/G773+87jr13KK5axgo&#xa;TFU0jKHDRsycOa9Nm3YJCfSwDEWp8mDG9evXb/acb2HHcLibFn2rPvxX76y4&#xa;uLhHH3saBsrNN98KNyTQkYwSdc0117zzznvde/SmdEoJ/FcjGl4tzaJP37sx&#xa;A/fq0zfgKxYul+viShWfffbZb79bRGZZYIOQHIin4T96zAsvvKSGf3GOA2r4&#xa;X4EZ9YsvJ/jbMYD2YL36N86bvwBd9LLLLiuYX9//TtNXkIZBoBFDzP9KQ/Uf&#xa;TWbOVGbjEU6ns2jRotWrV69fv363bt0+/WzC4iW/PPzIk7BjEGtPaXYhwQ85&#xa;KxMtZ86cOXz4EMCqXLx4CRx96ggfaEk9pNDzMIGi36Nfc0g0oLuH66Y0Qajj&#xa;koMHD+7Zs/v48ePFihXDEUmhQjyJ+4oOgDNqT6YJK/bsAWX9L5CRm07o0KG3&#xa;h1YKevrZd+dmUHoNAoIbE3vwr7/+wqSMBRszLEKs9sleQ+nikpJO7969Ozk5&#xa;uUKFCqqHGLNmznhk5PBUj9tlODEtfvLplwXz04vhKQvMFHXvhb+q1OYZapUd&#xa;bZHX7fbu27d73759rGrp0uXi42FYWgtthpCSBw7s37N31/FjJ2ELli5dJuIp&#xa;IkqvXXQVQNc3PT19z549O3fuwMqEzgwhcCg1EI0KmstBGLgB0CuQ/MCBAxB1&#xa;6uSJcuUrlCtXNj4xEcZXlpvIjr2p8VfpFihWhVMU2mTv3r1BwzOLsFg7ZkgI&#xa;HRgrC5TZv38flDlx4kT58hXKly0H04TOetkuTPA0FYAlIS0tbdeunejPWPhL&#xa;lSpVpkxZ7B2Ec4N073bn8uW/wBtw+S9YZ8ycUOPAwb358xUsW7ZcgFFCxzeY&#xa;JUNpAtRpZ7IGIHP//v2Y+k6dOlOuXOly5VAd/b0Xa++wYuy24ABW6ciRI39t&#xa;3EDDv/Il1l3tZhG+7DY5yEbNZZcKd0AFgwk//5PkgPnKrnZAFbisaEoUxJSJ&#xa;FvQnTJqwnc3DCzqngB6mOh8FqFTZImAI+YdYUIgaDFR6UGxYQomKgFYgJyBR&#xa;1nyRIdAz4DKwpTlX2dKNw8PVy1+OzqJAGBlDKhdL0BGZwlQm0B0A1Pj6q1mP&#xa;PjQ8xUvvybj88is//uTzggVxpKX1CahUAOFqByJERY0ulEXZBUYQzgqrBDok&#xa;pObAstX8QVYSYubihqPS6Y9NKOvAxQVgqWc54ITDSqly6drlHCRSlYb/gcIR&#xa;zqY2X/TNctFcI1u9uC4UE7LcYGwS4OMs2sHhloRwBoQNK3FgucGmjFWu//i1&#xa;FWfuSssRkvCxFIpC1FEN1Y6bKJwoloOtZTqwhiyH4lUCM5BQjUM33ARYGzmI&#xa;1T72cgPgYE7Dyvg3qRCCqFaXCxn0Kt3f0KvUG5MwWwEEwK0SINqvR1r9U50M&#xa;93lDYsX692zt4BAO5mHGUdyzsVUhkbBEWsJZDiZc9gLE2JLRlkeRWaIvNhOY&#xa;b+8wq0AnuoElioWbJfhA+oBAFUIZucEtrMbh9CzQwqovgNvP56Az3uxGpoCM&#xa;UWLPZHcrfeDHhkJR0B0tWz734suJqIXhXP/nb716djl27BhWETMxLSeonn8u&#xa;uLAiUna1pcQWlmR2ZBLOwls/uVSSieW0HDbFyK36Hv3satj1pJShHhNFWpVF&#xa;e1kIJCCQ+7PVM1UnJ9lKPmWwoqxCLQcdWJioq3L0165P9oFMqKSEQrqtOOXU&#xa;pwzJS4koSKGcrI3yZwTXyJIAt6oLoDDTHQnOiq0pBFvt4BWahZBgXUgIuFRs&#xa;zOIpKeUws1gaMlZxlnyg8sKr95o1fu0JqPPbxAIrFk79V4NEVIj57D1VRzmI&#xa;4NersBxsrXnS1JnkIMY2gWvgZi9vlf6UhvSkPk9pVIgSHQZLXsj5H8pY5Sqp&#xa;cNIfTsZthQQI50C41UCgWCECYspkgOpSyoGRY6SrLk49T/UzcqtUVn+lzmd1&#xa;Oxz4Y4uU7A2JFckTtynHD05jDkgqms4P6QcY1f/wRQTE0GlPF93gx9aYhSUB&#xa;fyEeZQGzxEAhUeGlt4OhOtZ0o1425Zt94EahSMA/YOngrxqhElMLICWnsiuM&#xa;9EpIiLbjIpDGTE7YElKoldGSmSEqJeclr71kVSJXTQtGQ7Zu0+aZF0bHq8/j&#xa;/fnnn7163UmvqiMoAaqLtrK3OcLh5FhsTYf64+sJPs0zA2fhUnj2Z7tEy8dW&#xa;SdWSrUDTS1sk4GAYrNihlhZqCtZeMwdhhlAQdFZpdB4S5aBhRe9tob6BKHPF&#xa;UEYPEqjElN6KAirQ51CTv7rbDAKty3bm+2ayhC8viVIDB+3FlcB/7qVUuGpF&#xa;n9oGDU9rZkV6lUVvI0MFmf1HB0EO/5QEq9YRUFnx3/DQy2Th8BWM3GhkaG7f&#xa;BUyAYI7FRv1Fcqok+omll09D5bb5NJxX/aA9RStRflCfVz0/ODsIqiwS0Q87&#xa;gnssPR1vzifY6VZydljGjb2LmkIAxPvJN31UF7jVD0E8W1KJdKcW/GQA+mW0&#xa;gxxWXULO//C51IsTuUepuYuTcYm0p7l2pJ+CBYRoYsGGGiJCRLgPYes06C2Q&#xa;un/p6Ub3abOb+R0okFluSxMZJFQytReoHk6YCrAPoRgATvWmUfKqAZBxESqJ&#xa;utNOm/wcTCi3JYHWEo7lcrOMOt6y6aZnfJ+q7EYabjQrSj+OEgSSWQLNvLQ7&#xa;kB7hwdqqKSywSZHMFuJTBlgKZAiLRXLW3BKoZnxWj0aWUoBL9LZt0/L5l1+r&#xa;W/e6OnWuzZ+v6LtvvcV6qEi9RWYWxYqorU1XUz0uNDuY8nn46yZi+ZhG/eVT&#xa;IKIUpKcZSG1rXqdTGzOZTqJQ4ToTJ4KHZ2oGUfzGNgwulcAXxdiVQTKgPYGQ&#xa;MvhjxZPDVlCmgCJKji6O9iP2kdvvqR5WDPG0tJHD7LUeGp58m7TZLLQNr7kG&#xa;CSDTWsY4kBZOCLaNCDMmLLQPVCLz7KM9A0VBEU5gAV9I7VQgp+ezqhwcGZ0I&#xa;ifmn4OIgylcTri81bBix9vJMfUl/5OIYZb74KmIlt2KVz2cqqbT4D69PMhLq&#xa;P/ovJYLbl0RPL1og7+5wcK/Q2OZ/e3u73fS+TlKCxardYd8F7KB4mzD7qBGC&#xa;kXtlMsbeyeDmzmofQkEggY7lVPYeGYxdvkXIQCWZilZR+J+Jzo1hETBggkEa&#xa;a9jnBKwhba1yWQ0VS2Sm7oAF+hKwI3x6oLNYqMSBcrIMS7AqZRcegL3iZFAi&#xa;xD9VSGVoTbQtYxYhE2cWLCVKJT89oGf4PhCiakqIfYn36WarMosjNwJoAdPh&#xa;gGXS1t5ETHAICBmoJcCsV7sDx7pYR0IlywBLODaoBW8Zm9unM/sZMwEn4ihK&#xa;E0bhqPBXI7DECPgXGpAxYzlmiQREscNei+7d7lyx4ldEmffKUHFWliB8JdoV&#xa;41KsLQgngXWgIvQ/PYjCwTIZ/6bwi7LgNJYanMbKxG4zF/74pIXCl4AlBBcX&#xa;kMYaEZbbVhyTYaEXOn5zkBAS1aXQvbRb9TN4/Doax9rhsYeNf48MASdktymH&#xa;c1tYHoo2o4KKjIjSmeQGq8pYg5nvawaWMvwns+h28tPZCtTCER6sj3/dNep0&#xa;sS+plZ23lkxbw7EjULqK14EhC8oUkMDtZnmDS2SsNPiLVRY/9lpYypgJCXeY&#xa;SyRcrvZkBnsuZYIEags9AwTb9LEq4UMJoQyWZCu77TgSDu1GrL8Q9tA2WHqI&#xa;8sIEagmqaKqCOlUZOmFEKK+qANdCHbfoIcPHMPDqsoKkmwkQbkWRA+2QBU1s&#xa;apBTnc8gKVGKspLBEVQ8e03RGYHsqgqBBfvnDWHHcA4V7strycFfzqIWb+0G&#xa;HG+m0lgKhLNj/NP7qRagub0gKx1Jp4Zin06DLf/YbcYGyAsNS7aya/QdhH7q&#xa;KclaJrutBHAqF35RFHlhI6ZMlAQPVL++5R9LUVH1dx86sSknIK/dmymxwYSY&#xa;cRhLYes2mjDKRAuyhyyLA62okGmCsU4Xg2DJlkxbs2ezoaIlkztaKxkhl71q&#xa;EZJFiIpAFnLZ9bG7bZDMYMlhEoOsaJ4FwisQCXtFlFsPGTNcxwYLD9e2SJkF&#xa;TWzSyGGd+opalE/PMFlYbFid7di9yMGWhDUgw8jQuSLHAujA7uCthd0b8nyM&#xa;f/owRfqDLPbqB5QYjJUgo5QkM3TD6rdIIDIwNqT+poahRAn+iCkjCIIgZAIv&#xa;ra20dvD6YZ6OEoR/DblXRhAEQcgcy5YtPag+AFe50iVXXHElBwrCv4WYMoIg&#xa;CEK0eL30OLTX44hXbre6uyj09RRBOFeIKSMIgiBkDpgu6eoCU+QniQTh3CD3&#xa;ygiCIAiZw+t1uGDEyF0ywvmBmDKCIAhClJDt4qVLSuSRy0rCeYKYMoIgCEKU&#xa;kPFCDxPr0zFiywjnBWLKCIIgCIIQw4gpIwiCIAhCDCOmjCAIgiAIMYyYMoIg&#xa;CIIgxDBiygiCIAiCEMOIKSMIgiAIQgwjpowgCIIgCDGMmDKCIAiCIMQwYsoI&#xa;giAIghDDiCkjCIIgCEIMI6aMIAiCIAgxjJgygiAIgiDEMGLKCIIgCIIQw4gp&#xa;IwiCIAhCDCOmjCAIgiAIMYyYMoIgCIIgxDBiygiCIAiCEMOIKSMIgiAIQgwj&#xa;powgCIIgCDGMmDKCIAiCIMQwYsoIgiAIghDDiCkjCIIgCEIMI6aMIAiCIAgx&#xa;jJgygiAIgiDEMGLKCIIgCIIQw4gpIwiCIAhCDCOmjCAIgiAIMYyYMoIgCIIg&#xa;xDBiygiCIAiCEMOIKSMIgiAIQgwjpowgCIIgCDGMmDKCIAiCIMQwYsoIgiAI&#xa;ghDDiCkjCIIgCEIMI6aMIAiCIAgxjJgygiAIgiDEMGLKCIIgCIIQw4gpIwiC&#xa;IAhCDCOmjCAIgiAIMYyYMoIgCIIgxDBiygiCIAiCEMOIKSMIgiAIQgwjpowg&#xa;CIIgCDGMmDKCIAiCIMQwYsoIgiAIghDDiCkjCIIgCEIMI6aMIAiCIAgxjJgy&#xa;giAIgiDEMGLKCIIgCIIQw4gpIwiCIAhCDCOmjCAIgiAIMYyYMoIgCIIgxDBi&#xa;ygiCIAiCEMOIKSMIgiAIQgwjpowgCIIgCDGMmDKCIAiCIMQwYsoIgiAIghDD&#xa;iCkjCIIgCEIMI6aMIAiCIAgxjJgygiAIgiDEMGLKCIIgCIIQw4gpIwiCIAhC&#xa;DCOmjCAIgiAIMYyYMoIgCIIgxDBiygiCIAiCEMOIKSMIgiAIQgwjpowgCIIg&#xa;CDGMmDKCIAiCIMQwYsoIgiAIghDDiCkjCIIgCEIMI6aMIAiCIAgxjJgygiAI&#xa;giDEMGLKCIIgCIIQw4gpIwiCIAhCDCOmjCAIgiAIMYyYMoIgCIIgxDBiygiC&#xa;IAiCEMOIKSMIgiAIQgwjpowgCIIgCDGMmDKCIAiCIMQwYsoIgiAIghDDiCkj&#xa;CIIgCEIMI6aMIAiCIAgxjJgygiAIgiDEMGLKCIIgCIIQw4gpIwiCIAhCDCOm&#xa;jCAIgiAIMYyYMoIgCIIgxDBiygiCIAiCEMOIKSMIgiAIQgwjpowgCIIgCDGM&#xa;mDKCIAiCIMQwYsoIgiAIghDDiCkjCIIgCEIMI6aMIAiCIAgxjJgygiAIgiDE&#xa;MGLKCMCr//ocFxaGoR1ZxibB14bZFput3cGlY5v92p2fRFkvJPN67T2c3LYQ&#xa;EH07eyMX6ic1u0Ql67+6cwUhU4gpI2A2tKbDC3deVG3Ai5zyZxLkMldHJUi5&#xa;syaKl16v15PN3eGBAK0YOc7xmme2xlkkyhKQzL+Hk9vpxFbnz4ymhpnYyuuX&#xa;OTuNnLUWy1KmmMRqHzU0BMEPMWUudNTCqd0XLGgBjwetgIXK68zqmFCro17M&#xa;sHZmeS1HPmR32vTI0gLphQr4Y+3fc7aXbS1gX3JQPGvAJzZyUpvI7RMyVu0d&#xa;HcGGTmQhjC2NlZf/ZhfIsfUfbqJoROsmVdv/MmgQbY8abh4a7BMExkhN+e8P&#xa;AyEYTATnbG2LCVSD+Ja3fxGooWbtHFPGcHq8nnN90GLWwg41cFBg5vDvtznQ&#xa;RBDo8dA2y9hV8lfvrKLrrtoZf7PbDrECt/A5bGchNhBT5kLHf1K4YDuD4XWk&#xa;G464UAtwAJGbCHmRIOvrin13eL0ew4AJkp2dgoNZN+yYbBoQmYRbAG2JxrT0&#xa;t1qGWjhH1yEtVvtCEFh3cy9zxgDCyeEzdqS5tY8QoqIQEr2ccGh9lHBy6ODw&#xa;sBpmegrIfKGxh9oLTlXjqFpJuEAQU+aCxT4RWO4LbnYwlyWquGk6/MuYKlmr&#xa;VBb3CPJCgsqurQcV8u/sX/+iqVrZ0ITaRDWOr60ioBKwFcKNqZsUeT2egAbR&#xa;URnBRVopo8wVFVASqrJiUe6vaBpBEP7biClzoWOf0BMSc2xGjinIfGnSpPG8&#xa;b77PcEmI0ETWipKSDJMoWy3Ja9hrr48aMeJhhyO7NzmO/3JK+/btcnC5jQA0&#xa;T8xF7ckrMQcGk50mshZ4bJ773zNPP/0kh4dj1crfrrzyKu0Jw4oVy+vVv1Z7&#xa;wvDyyy8PGTxce0LjPXXqdJGi+bUve0QzMzdrfsuCBQuy30NiFFm8BIt//xhU&#xa;+HfBcsP3G17AYCXAzxlh6Y0O3YyWnCzbM2qphhAMT1qlsrzqK5y87iutzvrU&#xa;b6kaqjFzZraxGgMlRNMyHn6UKxDYQ9pFDiNja8AwXNoVFqhDQqNQKmcwHFAp&#xa;Y83/AwTv6Gh2vXDhIKaMQEuCoGbGbE2OwYt39hoWyujhmT0by8PZs1/BaIio&#xa;ak4tupmrRZg1j664MeTwZjwTRr8Xok6YbaKwwP4bhBpc56yVhRhATBlBEARB&#xa;EGIYMWUEQRAEQYhhxJQRBEEQBCGGEVNGEARBEIQYRkwZQRAEQRBiGDFlBEEQ&#xa;BEGIYcSUEQRBEAQhhhFTRsgC1G2ieGOYECX6DRn8AhTrNSg59OaMqMa4vSy7&#xa;WymTUy/wYE14m7l3w2SLEC9f8auReuFONK/IQzq0TbZaI+RLbsK8+eZCR7WK&#xa;rFBCVEhHETKBmnPRZ3jev1Bez3X24HXRWhzh8Ho9aktBLheMxeyPUOwmvVZG&#xa;WDGt1RRFs5sWbYKi6E8OYHUbfgFx1lH6RKuS18MfM9Jeha9GcChhGbezSofG&#xa;yJbqZrm6OKupc3QqPsdfDz17XCjvMhayj3yDSfARxTeYnIcPHc2VK69hYMUl&#xa;myYmJs1du3ZVrXax9oShadNb5s6Zrz3hieYzVcln3E5nBivTiy/9b/bs2Wg9&#xa;LGPWlqO83jTDiMf2008mV6xYHm3u9boz286mQPx1xsXBmYE+R48ebdmqhfaY&#xa;2QN0a9TwpmeffQ4O+ExLIBAk5m8wBWPPVafOtdxESM8h0eJ1OQw3/hoOl9fh&#xa;/vKLieXKlYssZO7cuaNGvWTQdylQEbVRf3S0sicee/SJJk2aan8YYFmqdrAy&#xa;htgjp0+fLlwkn/aEoUqVKr//tgEO/nwpK8RRygrxejweNI4qLmw7M81b3Pr9&#xa;999qjz9mHZ1/bdxcvjx6UcwAtVNSkosULcRWL08y9v1lIYuXYCGmjOAjmnX6&#xa;9KnUhIR47Tlf4eXB2h46dKhM2RI6Lgzn2JS56+7en332CRzhpmmHI27rlm1Y&#xa;p7GeZbikhQO5kNfj4e9C68CQ7N+/v3yFUtoThnbtOkwYP0kprEOCQV3CmTJ2&#xa;wtc6c+zcsa9UqZK8o3VQEJMnT+7arZNy0rqoHAE4Z0yfdfvtt2tfGFjfyGVF&#xa;Y8pceWWNVSvX2mXwbrLDIRm2UBhThttf13TP7gPFixdn9/mP6hVGenp6nryY&#xa;ZMLtL40sXoJFxpOOINjBPI6lERMOfnCcnz/o5nZjEiRVscUhrtb+vAG2Dq+I&#xa;1tKILTvY7XCkIxViuS722kX3oywQhW00iyIXrVQIcFDTsWUGiQhQorKwhJAE&#xa;lsn1MuVnDpVFydDSqLKRu6JlVsJ8Ulmo5ZXDgo/7M+jPnNQ/Y1Zwu+msEgRa&#xa;JQLTocMpKAttrNXDbvKdLnU647HfWP75/+O6m8qzHSOLlJAx0kuETKNXYcMN&#xa;x/n5A3FxvrVTrcHnF2qt0osVO4JDoLiqi8PlIssnkz9tKuEvhMGpfBlg6WBz&#xa;0LUtbkAWqIhCViD2ywQkzZSfOVQWEqEccEFqQMUDf5yLlVduZTtYUggnKoj4&#xa;gIwBP502e5C6pAmdJ+MSscV/qwgr1l/DaLFyWQ6PJx22HMs//3/cJqbyvDyd&#xa;d4NXOA8RU0bINHqe8brgOD9/gK0XnhPV8nB+QbdJ+B4BCzsMPd502nr8ahfl&#xa;j8GRLkqyh4QkwsIZKiqirDDgYFv9zfk5h2sX7sd7H6WHqgiUIX1g+dmzhPzl&#xa;CNBBqcEq+SRbDgXtr5zqtOhmLDwmftAXPVYpjv0iRowQLTk/rQj/Ufy6ipp0&#xa;MEsqz3nMeWjEMMq8oAsNinBTNhb/OG7qLBN1C2SqmOy0qlXZrE0+lCujm5h9&#xa;oPamBROykRFIPzPNuQB7HlurQPsOgtPno7ubc0araLuAIMQsYsoIURJiJVDT&#xa;sW+2tdaDczJ1hpzlc2bqzyr6mo5FpAUyiheZIJH+Gx3ZaXa7pmfN/qMq24RH&#xa;0wLBUC6vJ2DiCtvOXK9wNeLwbNbXzE0lRWESQXO+BcqX0iofYVaw4eAHprIP&#xa;DDXtCkfOlBMGw8n7nX0ZY9Y6a91DuEARU0bIJr4pypp5M57PcwB7udphD/w3&#xa;0Af3Vjvk0FKUAdaiaF8dM4td5+zIiQAkK+E50ibWOhfVDBauRhyezfoit2o8&#xa;/LfuV40AdRJuCuVlBZTT1MTrVeaazaw5q8DUMAvylZ5ToJawO7FVFzqpghm3&#xa;kCBkHjFlhBzDmqTOzWzFR3tq/j8nU34G+IaS0ufcqRS8fGap/c3V7Kw1Ju0n&#xa;Eo69ZrVVlucfZOQf94FIFbbZDZHITqc124ytwKgqZRbnVyrrmeFLgHIW2yku&#xa;w2G4UXp2miIAtAekYet00k0w6pZeHSUIOcg5HTPCfxFrZlLTuHbR5mz/vB6a&#xa;cVWpvABQ0f8evmNZtSCdI5VUEdwgDNqDTw5l7mcYcVrA2YUnHN1WRlRX2UKC&#xa;jB5kV00dWBf/H/670SAqJUq3Zjy/qQ+xZve1543mR1lUm9MzUKqUDCrFOlvF&#xa;kc+UY/udY6hEryOd7uV3pCvdcurHI9TLz4hxpVWVBSEnEVNGyCZ6WlKTlJqo&#xa;NAg/uz+1JOCPk0+J66XhrMPLYeBPPY4EByUwV6lzoRKKUKVwU3CzQA3dRNH/&#xa;bPcgn1V4mbcaSrdeZn4MOZBd7frAuth/aBK+6UTtFDKAbEJ8qFikB37Zo/hR&#xa;FnUmA8qwHEvVkD9dFmmm8gYUDTEqVgWcC1AcoBINB5mzakua5NBPiaR3O6Hu&#xa;ul5UY0HIUWhoCUL2sU4dq6n5HIBy9BGt9Q60c1I0L4eBP2UKwMEJAGlybhYk&#xa;Xh+wUdW3fpnjHH4cFDsLTcTbLPwYdmCLukeqbKg+aQnJAcxdzPL53A/rGe5H&#xa;+4t3lqmV1UvIqy73UIySbFf7LMGlsy66FmejXOtemXNSKeGCQz5cIPiI5q38&#xa;SafT4uJCX4xQUxU5pk+fvnjxjyrsbIE5kZfwLl261qlzjToVEZbDhw+XLlNM&#xa;e8IQ5YcLjh8/rl2BsAJYq5wFCuRj3SJwd78+n376sfaEYeuWneXKldOeMPz5&#xa;5/r3339fe0ysxomenbu2f/31LO0JQ9u27SdOmKI9YUDRUXy4wLln9774+ATt&#xa;yzrOOXNnLv91pfaFYdnPP61du1p7wlC7dp1r616fhXZTpgAt0IYz3eGNq1b9&#xa;ki53dtcxYUhNTf3f/+hTVpEZO/Y17QpPhG8wWezdc6ho0aLaEwpov2LF8vHj&#xa;x7NbtQBVimNzAm5SyCaZDRs2bNu2nQoJi/nhggyQxUuwEFNG8JFNU8bi/vvv&#xa;f/udjCfinMD54Ycfdu/WS/vCkIOmTATMZSAqcsqUmTP3qzZtWmlPDoFa8KoT&#xa;QLZNGYTTaQmQkky3uWSqxWxAN53rhRefe/LJx9n9b0O169mz5wfvf6Lumwlr&#xa;z3k8nly57efAfM1iw5makm5VMxw5YsqAL774ok/fDCywnGLgPYMztNLElBEy&#xa;S9jxJgjZ4JxNMR4H3W9xXpClVTnbnIXqh7RjcoLABTurLebLddZUzQJcO9od&#xa;kc8RBhFsxwAEnrvuxHebCULsIqaMIAiCIAgxjJgygiAIgiDEMGLKCIIgCIIQ&#xa;w4gpIwiCIAhCDCOmjCAIgiAIMYyYMoIgCIIgxDBiygiCIAiCEMOIKSMI/yZn&#xa;+W00PMBzbJhnqGxQdexF+6mR5VfCnE/vkskaTrRS8H63hwTHCoIQATFlBOHf&#xa;5GwuzBjd/OqzHHoBGn2+UTvDQV9X9sNetOWGYtG+55fbx95KVsbom+48Mwzo&#xa;0+VByvu+QgqCYgVBiIR8uEDwkXMfLhjy9juva89Z5sNxn3bv3kN7wpCDHy74&#xa;YNy72pU9xowZs3nz39oThqg+XDBndpu2d2hPCMiaeWDYyLvvvguDXYdlGjaJ&#xa;nGeSTyxbtsxBxkrYDhAfH39jg8ZwwOCw1mPDcKnPbWo5Dof74osrZWjKLFjw&#xa;/Zatm5xOp8fjwVZL8zodBplE8EJCrZrXFC5cxF5WMOPGjXtl9Es2Q+os0rNn&#xa;7w/e/0h7wrN161Z2qErYNXeqqlBIpUqVOCgCOfXhgs8//6zvXT215ywjHy4Q&#xa;zgZiygg+xJTRnvBE00TRwet6JLJnyljynePHj2/frpNyZ2WwK0MBf70pKan5&#xa;C+SKbDeUK1dh65bt2qOKM9Oj3bwGDBL6+JIWqAJDAzunU+cOM2ZMQ16WgC3C&#xa;LQe7d+7YV6pUSVNaSIypU6d06dpR+84yUZoyAJUwW9FsB8OtPkNB9QvfwH6I&#xa;KaNdwgUPRo4gCOceux1Dw9BaoXMIS77H4XUpY4IXSJSSuZ+5rGoLhrfhgNWh&#xa;XXqF5uxw0NbrodtEPB5OowWGhGPsJWJrdwBKYabkskL9QpDTTZ0VzEYApjK0&#xa;m+wmjiAI0SKmjCD8K9Cirp3K7LDW5pwGY1yfycjSCm5aCtHlRS2QUv2QAXmt&#xa;Sulwr8PtdOnwCCYFpbSMlFDJbGFWEaEJlnPWmjoTOJ18qslPGRVor5ogCFEh&#xa;powg/CvQvZ/aeXaHof30TxYWSVpxgcfju7ITESdSomaqckivsyAvwulUhNfF&#xa;52Y4PBxqRddpSJwP3VZWmF9kKM4rC8aC25OraSnGf88nNQUhNhBTRhD+ZTJc&#xa;17MKje5sCjec6t4Whcdjt4pCg1UZKbXHBq/ZVlQ2VmufDizNkhkBVbI98b85&#xa;77EKdq1NraxAbh2xaAQhWsSUEYScwVqQmABvBNTTPWcDfd3KXMVVWCbxenxT&#xa;RDQ1su6Vyf4pkAyLi74IpOTEaptjk17IPc4FRcCMD1E7/6gMqi8IgoWYMoKQ&#xa;M2ANs69tGS5pGS3VNDZ5cVTeyAQOZJtwHZWhPiEJ0jHDGUM9pKTP5ZBfNQvJ&#xa;Ya8lMLI+SMYJglqJm0UHQnaG7RMkARZexqeXQhFY96AqhH73XXTYRVGLCYIQ&#xa;PRlOTIKQabK2av4HyFTFIybGwORzKthEXNbUS1bMtdk3nG3CPXSHChHt8hig&#xa;GC+r5uIaWFAwhuFUd8Ow8mRJwME/4PGQKBThdEbSRyXmFkAyFMc/eyBAKfBG&#xa;kgO8juCTXpH0DwOycN0jYL//KbNQLcxGphYTBCF6sjCkBSEE9knc6bxw+5Va&#xa;jTK+rdUCCf3T6gXbMFzKQa3q9WIRhSPEz+uxZ0YuSDPXQ9OhnhgCfhkDfrz7&#xa;OIddeQTzjlVb5UICZ4aLuhZoZsGWQtRbZSiG7ZuM0E1h+2mUBQOwhaq+IkL/&#xa;6GUtBJrUrJlPVNRYeyQQKxwVU/Vi4UFqZPBDdraEqJWUBEEQokVMGSFnsB9k&#xa;R3N/aMyCIRPhh4UIdgwtauwNj86C9A4H1kLtNaMgx61MClqqlWnI7sCfiuJc&#xa;ANLi1HLIbtOhzR2/jAE/3n1hzAsKhS5KVUAnXVShIX8MyVR2A/4ju/aql/Zy&#xa;guhhmXbh3GjkwH/INQsK/VNnZSg7GkRlzNqP9giVGYQ9HAUYBp2RCtAhih81&#xa;jqoJNlScIAjRI2NGyBnMqxgEry3/UWClRfih7ji2RvW1NxzqvIL+qbXQ51U/&#xa;gm0RtQBzQAiU1ajTK0e62fa+QLU7MrAguIgw+41CkcB2LiTCj1AaW3pzdlST&#xa;OknUXYPOcCgHy/QJt7lpC0tFlxMGgyxFe5as/JQy4WbLwPDI+oSEGougXSBn&#xa;ZQQhs8iHCwQf8uEC7QnP0qU/aVcgWOz44oLRsVObgwcP6uAwfPLxFxUrVlRO&#xa;vdLzyo0tr/c4NE9LS3W7Q58JsMC+iIuLpzVQGysQEuhwu9OBcoelUqXKF110&#xa;ERwQxZow7FRrs9fjMZYtW2KeM2DhIUhJSdEuH6wMbWm1dnpuanyzjgnPX3//&#xa;eejgEdUg1Di8zCv4DymAekXTRC6X/doQK5NpVq9Z+cADQ7UnBGgWz9VX13rh&#xa;+ZfsDZhZrPa/6aYmHBIB+XCBdgkXPGLKCD7ElNGerKLWIUfNWjXWr1+nAmh5&#xa;U45Ajh5Jyps3NxIrKyE0r73+6ogRDyhnWDlLf/q1Tp26AfZHAL///ts1da5W&#xa;zrBynnryf4888oj2KELpBn8GPQSaJOZiW0ejrBAWpEtHSPIZvnyWMcjL78AN&#xa;gpR5/oVnn3rqCR0QhpUr1l51VQ3tyQa7du2sXKUiN7VZo7OHMzUF1mcGTSSm&#xa;jHYJFzx+k44gCNlBLc/25Se03aCgqKgXxAhyiCjNgkhyjMBzG6F0i7IUP2yr&#xa;vi49U3aAshu025+sKJM9tAVz9u0YgLY69xUUhFhFTBlBEARBEGIYMWUEQRAE&#xa;QYhhxJQRBEEQBCGGEVNGEARBEIQYRkwZQRAEQRBiGDFlBEEQBEGIYcSUEQRB&#xa;EAQhhhFTRjgL6DfcC5nGfEEMvWpPkeEI9b195Ky+78R6c020r7ChlFEnFc4P&#xa;zsYuY5n2T8xKvxByHDFlhLOA+S3ic8F/y2xia4TfC6fWAE+U3xaEHWP/omeO&#xa;o/RhR1QGk6rCOXiVXMYoNUgTy5F9UDu1d7JCljOeRcxBdDZ2Gcu0f2L2/OgX&#xa;wn8K+XCB4COnPlywfPmvGzdu1J6zA9YDTJHY3nBDg8qVL0KAjgjFOftwAVOz&#xa;1lXmhwvCcvTIqbx582pPGNavX7969SquZrg1pkWL2/m19Fgfw60Qtg8XhOWp&#xa;p5555OHHtScULP/vv/+OvNolJ5+pU7dmBIWZlGT9zanMwpks2agagCNccSil&#xa;cuXKRYvS3rdKjKxbGLyrVq3u1bur9mWDQoWKjH5lDBysBreVtVVJiB49emSo&#xa;Zk59uGDz5s0//7zMrgbrln24RnbJ1apVq1v3Wo4Nh3y4QMgsYsoIPrJgymCm&#xa;siY9nqrwl+evc4A5RWpvOGLUlAG6IXHQHOZEV0Dd7bvDIkdMGZCcnFygIHTG&#xa;4XWEM0WBJ8l4DdMekyybMl6vx+l02rtchueiJk+e3LVbJ+WE2pGVj0BgvbLM&#xa;5ZdfuXbN79pj68MB7RG8H4PJKVNGdRtqSY9Hd6Es7ZxIeDxel8snPzJiygiZ&#xa;JWujWhBCYC5O9G3nc/LD6kKfTUaRwYtljIPlDZXyoFqooDudVoKQP51aVR/b&#xa;s9wMkA4TBA5sQ/84HbAslZzVyTDIjjFlUykBDRL0o7s0WBkYDLxVv0DNI/9U&#xa;aTk2W6rdqjVkN7Dc+LndXOLZ3Z0KKgLl4ud2k9tSJud+gCRDvoJKFYScRUwZ&#xa;IVuEnJiwcmD5OKs/VQT+0EKF2ZHXKszArECsg+rwGgy30+VwuaiuIX9Wenac&#xa;HXi1w5YbWQWpxS/4Z6HSn63pxV5QQIME/bA2Y3FmzSkb3F6vi7WN/ody2BLK&#xa;KagHK1hPBuHsVrsexZ3V3cpQEShZFcpurVKO/BRqpCqxQNVLEHIYMWWEnAdr&#xa;RsBKkOM/VYr+qfmRwGzJjlhHVZBXXofXQ+chwv3sWO2Q0+gVTnsilnLWdAgL&#xa;GgFmn71NAn4BKimLJF17MgPbQ9kmsIuykhZ8AkPt+3PUkmgeVkBpwqcDqfwc&#xa;+UEq/sOaZPmCcJYQU0bIJvb56d+aq3S553wZPYvYFuCMW1WtfGcPWt4sIpd1&#xa;ljUJTRT73Xe6LqsaQkKOnPNTl5HCw/v9XFqEdnVQLrw5WrquDmoNqaru565q&#xa;woWDmDJCZrH6DE+B9olJu8/lRKzQxWVxkcohcujyVlbqkLMNHiCMl7csKZYj&#xa;DeJHzlXUb+ozGzCD+TBUO2d6CrWEBNg0CM6R2kF+KD0zwVkYR6QSxGZJMVmk&#xa;hIyRXiJkFmt9yol5N6cJc8ib83NzMLbLW9lZwoNbNVI7By8N4Q76aTGJuJBw&#xa;Rmzx1y7E9J7r3c062DUBIcP038xB+4gbBFtTYuQdR3dlaaePrO1rkmPfHZAM&#xa;2R6PPgEWcUdlgBLl09PujkGc2DnaKQjhEVNGyDrZmXDPPrxa8FR+LhXFyp/x&#xa;c6RM5GUmmkUoOEmQvQIxlIj+RLzbw76us1udZ6K8ypuxMgq/KSVImUzgdEIT&#xa;DwSw/gzryG+OVTVCVNaKIBEsmbeKCPMhoqCMKt6slHLQvazsBRwSUQ7KCxFr&#xa;SWZd+I6ZHMHpzOAtUOcVvC9sTUrX4+wtLAghiTjkBCEU1pUU3xJw3mCb9cgB&#xa;DdXycG4U5VIMw5nxkTprZZ+jg5XEWo5tZOWjmOQNl8ulnRFOIaj1FWUBSyt1&#xa;nskqAMEZFxZQRGTlI6NOUZAC3A4A5bM8XumhjxWVeUI2RYQdhyj9rBxXynT4&#xa;3fvCIRHkUBvSo91+aiOXXQiIrqmjATqnowTtO+/hige0RoBXEIIRU0bIHJhr&#xa;+CHh8xPbEuCb/s7Bgam9XI+bHWilsD/MzurZVF9Ga/WyJm6+3IBwm/BAeFFX&#xa;WXQuM7v2wuF2a4UCdPD7qVencHGc1MKmF6uC9GhP/+y+XyCRtI8IMqoifaco&#xa;VM3ovyVTRcFctSqYfQKqY/0ANZG1dyyHHbN9gD2v74cKWWdl6JBAaY5MIVsp&#xa;ZBGZBDrTk+exA+kaqjEEIRJ6UAlChrAFg+mVZ9jzc7qxzdo+/dSB6dkF5Zqr&#xa;EWw9VgKrSIQfZeFfACwHjQxHcGwAfFpCZdH1Nc/lsA8YTuukTKAOAT+ghdhh&#xa;UWpL7zhTKdGe9oz2nx3dYdiTBVAvj8ejamQJ8WkIySoKxoGvhpnF3GsWAdWx&#xa;foCqE5TeD7N9gD2v/89nNTqV5sgSWmbksqLBMCCfiosdUGV6sZ72CUJ0yIcL&#xa;BB8ZfbgAU7nn77+25c+fjydfTLXZWajOKjC8+G0WmM3//vvvGxtm8NmXKD9c&#xa;cPjwYe0Kz7hxHxw/cRQH32TUhHmsqW/fuwoVKsRua8VCY1pNCkfhwoWxVEdu&#xa;4NTU1FOnTllZ7A4WCwU2bdr81VezEKxWzdDUqFGjadOmSmGtA3Jz0ZackydP&#xa;vf/+eyokbL3S0tJef2Os15vBaZJoPlxw8uRJ1A4OUwGf8lYI2tB2+Sw0U6dO&#xa;6dK1o/aE4brrbqhfr6Fyhm2irds2T58+FQ5uHw4MoEyZcl3u7K6cYeUUKpzv&#xa;rr6DYF4bRhwaiqUFy8zwawMgmg8XLP7x50suqQKttT8WwK6vWu1ijNzIHUkW&#xa;L8FCTBnBRzTfYAIRpvLYJUpTJnwTkZ3HruQzbvV+U20KhOTufr0+/fRT7QmN&#xa;c+uW7eXKldO+MMyZO7NNmzbaE2bXjB8/sUP7TpH32P79+8tXKKWyo4KhzZS2&#xa;bdtPnDBFOSErbFdJSPQ7ExBSpWhMmc6dO02fMVl7AtGtvXPH3pIlS3FQOKIx&#xa;ZWZM/7pFi9u1Jwy7du2sVLkCHAE1snt79uz9wfsfsTskqLTb7c6VOyFcI5s4&#xa;U1PSIzQyE40pY++ZsUNUOsviJVigxwhC5vjv2TE5QeDMm1EjZTj0olt+vH63&#xa;AYXeNV5nlHtMZY+m3LBLbLCErPcW2xedgrCiMljscxRdVkCNMlVBlRZyMmxk&#xa;JMipqmVY1nlILOos/JuIKSMIgiAIQgwjpowgCIIgCDGMmDKCIAiCIMQwYsoI&#xa;giAIghDDiCkjCIIgCEIMI6aMIAiCIAgxjJgygiAIgiDEMGLKCMK/QPjXmAYM&#xa;SX5nSVZfzZIVtAIRXmEX8eV24eL86pXhu1hsCTKeozJ62V4OEN3LY/y+kh2O&#xa;aNJEj7+0C2E+vxDqKGQa6RYCpmnrhVQXcH+gj/ydO4sh/HoW8HIwThZ58YPm&#xa;EXdcpHfN2WEhOnGwMWGZXxGX9XBxfjqo6keSggRmE1FG0x0IKxmVmZE9ghWw&#xa;QuxRXk9oPe2Esooi7r4I6C9TWtmj3NExjf090Wd/xwsxgny4QPDRvMWt2nUB&#xa;wbO/s3bt2s89+3yGi2I033bgDxdoTxheHfPy999/DwfmZaxt/2fvPADlqKr/&#xa;v+Xl5aUnJJCQAFKVIlUpAvpT9AciUkWaigKiAiooosJPEcUKShMB+18QsNAU&#xa;QTrSVAhFAUFaaCEQIAkpL+293f1/zzl37s7uzszOlvfyNu/7yWTevXduOffc&#xa;O+eenZ2dsT2i6i7Yh/vixb+5fMqUKQjqK7Kj27333ntP++b/oTmtw6qSHYpr&#xa;WN4hcOwxx//v/8r7lXwrtcyZM+fY4z7tIqITL39/NjtCnhec6Xvbdjt//eun&#xa;QGQ9Gr1q9vWtnLTGOBeJJffGgsVdXcmvKy996/TTHnroIe1FpNjFTKnrsssu&#xa;mzhxkkuIoV0vLnj99dcP//hHEFB5xKvTlwRBMFMXltj8Tjvt9JUvn6wqiqO0&#xa;YsXKyVPGu1g8aSzz10895YH7H8pkMUb2uqI6s241QHRfzJt3/tfrb6x7wpJh&#xa;Al0ZAuvgPtf6wDDElkwXiaddrkwYU3vVKKQcC4htr5yszY8U49///vfbt98u&#xa;cD6iBTvttFNPOfkbLlIN6hXdLFu2bPyEscn1KBVeTowjImt/EIhm0cLenp4e&#xa;CydrI3ns2uLKhAXwYQuE9729vZPWgJuCrsX1yw45FcUoR6hnmXFUyqaZtKsf&#xa;fggIMRLsERkWwBp6Y6p/8X8YbYpcwIBDYDrQ/SDgBZDWESgWEcAKJwE5nM5U&#xa;B2shduW9HpEwYpoC3NqpgYgtmxmhBZEdUbcPNsTtGo+twWY0XMGoTaTSPIIW&#xa;TFhuq8qWNy3l5XGS6N4lImJL2iAs56ZFtIumdIBEBoyYBmSvV840qwhv+8hN&#xa;Dnl5tWxzSBU6aU0bIlugltVzMz2b6uRc0V4TYtCVGaaEbKisNDAQQQpMxTDa&#xa;PLYsaeLg4AXAOWiXVXIWDq7opJfEVYUNBAVtD3wgiVKmL6hBZLB91RbMkPpL&#xa;SGh2xZGykipJgASQaC2o3jR5ULB2vYrw3+TRqAyiYsMXjX7lZ5WI3LZvGm0R&#xa;daBCcTRNsNV1U12Jks2J0c7WnWZkuJB01pHVGG9D1Q7akuBShhW2XiJgK4ul&#xa;6X5QCStf16e0xAyaVRF9LIbkBVj8mIZmSGWPRJ62TrBSNueuZrmEQcS6E4ke&#xa;SvLS9I4WZBDnQ6PQSetGWIYmQarVgHDv1GmzudTGGUU6G7oyJGwjXGD4AJto&#xa;vdY/porB1kKlma4eheQlyh8MsmGPLaILgfVPS1W7KK7rrgtboCGswpRlq3KF&#xa;oiYVEvJaVTOStEhkFywttWa8u4NAkuuTDmm0uUHpFGp6J9Mg+dQgwwq6MsOU&#xa;kGUoh9JZBpdplVvOdhkyq8bWWQlV0kQ3G11UwvkhRrhbOIKjaXoaVIJ9bX45&#xa;lK4SFwAhqVzBoAZ3RSGZuDxIt5qxDzVRTVXp2sqQEl968IAMJkYKlaSkMZtc&#xa;qwSkmPLD+8GkpkWJBlpqlzBSXcL8IcMNujLDlLBJadC+wHxE5/eGpRWDFbZO&#xa;yfXUGrK2WzZUqPfQOOrVb2dTV7vsNZqzmho12TX5pZY0lXjBw11AQYvir1bS&#xa;9FUE0495QrK3apNBnkrBy5GgdP1KBg7I4DvR4CjF2d6yehP1E3S+JgtSbKxt&#xa;n/PfxjRIc6VATXsSNTmbFIWQetCVIWH7kmA6nWmzfeQy5FOCXwM1ipQPV5u6&#xa;Hlcm7Ha0SNBNpxyTqrbLIbBiyEqfzfZLLOueJtc45TYCFafqVOSy5wZWH8IR&#xa;mSEOPyVQCFso2kAlNdiPkuT5K2n8IWsUc8DaRNPh1k0i3XvpmqcNVaiuGqG+&#xa;BhLnf8IhJwf6ZDprbtDCpVBVGg35IpGZw8NHSHuhKzPc8UZHA0nmymyiuguw&#xa;/HVyNkV1nSlcE8vgCrZlQTLCXUCtoYpxykRvpZLcTVLSB7BmM1itmyPcBQun&#xa;6lRk36FA+blHyYSpkLZqCy8z4bDVaimplyJUaLjK9Zfe1gqqwz6Vn2c/SkcX&#xa;TAaZc0Ef8ddksRmSVq4YUG3qrtWhkXqcckJbV2U0Vb/8sPumvZaQENJZw/hB&#xa;N22nOBm9MPLTdAt5rB7QtDyG76YPEALkhCHDk8BUOeOSxjIgp35SrMjaom0K&#xa;gWqlZl9h3asyzdvpFJjxxVapGayvkVt/EABYreVP09ZWG22sbKQmdCXLBZeI&#xa;vKgRW/iZfrVq13pk7+KJZMvvSXCV6y+9JQCfQfeunuQKTSTkgSZC2nABK6o1&#xa;IKUxXXlMgOBEaLqS8j7NoxGDXjvlhDY3hVSB2FIBqQMBrFpJsb+6wQWxaMNY&#xa;hdibenz98Ui+oFB1Zp/SrJqtZpPHGkK82brIagddmWFL2TalNi6ST+2IGBFv&#xa;+pu2TTWgWieSUfeDoDXd9CKUjH21UVl3QkPhU8mtHrUGPSVo1PwJVNBsHR70&#xa;wcsWe76HdRjusm/drpEEJNmNUHFkq9i0lfIVoOSBs8eHWJ6QJiWANJ0bOIg9&#xa;hqkJHXl5HK0MVrB3jzdMg37LVgVEEvTCngsnEJY3SnYkSWqz3XKYitJpWPJA&#xa;A2gxrNgQrpLmRPJVNj1SZDWm/glDVlMizUqkAfJYVrdvu0Hx5s97MHWbsCID&#xa;ZNrC1jgw6Jlx4ybEbMAFrEiL2JqIFsNiJBCfLZvP52uErN70jUgRVfhqs9lc&#xa;oeDf8pO0YPtWxo8fr+Fx48ePDcJIH4N9iiHL9fcX4M3E5dT0rHf4Ggdd8L2Q&#xa;rsWsvg2gg1XflYFbAA2MHTt23NhJqpNxEgjCSDddudzxeHm13bDwiFX0pZXz&#xa;w/Qf1BCrIjRoeXLyOjBXqhL3BZOEKsVriMqyta2QYQrfwUQ8pe6RdV3b3NLe&#xa;vq6uimwwLnYBw3P88V+48KJzXKQxUDMWA9tnbr/99l12frcdqMXaffzxx7fa&#xa;+q3Ji2vrwDSjOSww815f5JIqgZk2DSBb3OqbHnn+WzF77nlnn3TSiS4phrvv&#xa;uneHHXZwkSREqoQVZO7cueuuN117CeFNmW4UGmKdGevPmjWrao3xygnCpQ03&#xa;Wn/27BdcUix1BECPXnh+ztSp01w8hjTvYGquszWgEkiF/iUZ1S222PKhBx9G&#xa;wNQSOWHCGkvgA3vtccstN2lQ7jrHH1+bBbB7ec7cyZOnaJ5WKN3z97ve857/&#xa;cbEYfnL+T48++lNh4UWWLCYzxHOJCxe+seZadd4Amo7cyhVN31xPVjfk3CNE&#xa;qbanUcDcV1v82jUydLdEo1jBoHgp6eXJ1q4+v7zp5tISLE6x50vIdqdRYx1g&#xa;+tMNB5pzgXpUj1EU9vxcr8ymtCpDXy1TuGkNpxS6jgAqbRu0rbRlCqES02Eq&#xa;LGPkhEldh0fatabDARWpLSqCJ5JisXC/lbOIgLBO5nDikBoyspqQYnYSQggh&#xa;hAxV6MoQQgghpIOhK0MIIYSQDoauDCGEEEI6GLoyhBBCCOlg6MoQQgghpIOh&#xa;K0MIIYSQDoauDElL8AAMmTP24IqBoC3PZWmNZk6KKoXIkz0GTEUpqVKkRmNF&#xa;Cj9Hv7UhkOfWJzTUsloaH53mn3LUqVSOYJNGPjxSDc0IK2jTIFwQYd0aftNq&#xa;3ISMSSbDEboyJC36HFggC0PbHQ5fYWAH69SvT4ivWBSbFqmqYHPP97NKAusv&#xa;D1qtqjYloSffl1I9lCwevxKZVKZXTYjAqz0sdhNdwEJl751AhSgdKMRhia1R&#xa;MTpB1ypaqSZQY213Wuzs0AQdqVRIM/MZoJ4KlWRjXyIBwocsrNOgnBiMFLZU&#xa;j+i1SmwfN77Jw06GFXRlhjNmXML2IHk+mE2MMyst2ZWq4j4KUxa55fLYlw0l&#xa;0CLNzOeapl2gQaRYIJJZYQ3VSJ68+VcrS1XiVLXhDEVVqEwDsZsir1c0fFQD&#xa;DVAs9ut7kdzbkXJ58V38Zoe0uSbX10py1rVgH71ZTvwPdcdpNfDO7SjCbdD2&#xa;Ksd3U5SSOOh+qxpojUqKT9aEfKCuCLSI057VqWMt5REG+bwTRqmjZzjE1laV&#xa;YMA6FdRQfZQMW/gOpuEOLEPIYGGBccYmhpK9Lq6WcD3HH//5Cy/6sYs0C2zW&#xa;lClrAReP4atfOeXggw/R9/FCckiQLH8EMJcou2TJ4ilrTrSopdcybtyEea+/&#xa;4SI1WD0IfOjA/fQ9RM2Az6x2Bb5UzL44+/nFixeq1Y5d+O+5+97tt6/zDqYn&#xa;n3zy4EMOdJEYjjzyE5897gRoL3iDY5PKLBRKb99+a/hj5WWvlPNf8UBFuWxX&#xa;KVN4/LEniqWVltgcEBK1rbfe+nXfvPirX/6/bbbZzvqle3HRdLraeEninXfe&#xa;tfse73EFBhj/DqbWCb2DKZZkFZkSrrn62je96U2qE5dumKKCaYCY/o1CMub6&#xa;n3ryuYMO3jebGYERDzQt9VtJC/T29j7//LNWKobc29627d/vmVnK9Gcz/i2n&#xa;UhbGp1jECeJGUF9aQohAV2a4Y8Y9CNeZDGaMdAGoJpz+hS+c8JMLzrVwa8Su&#xa;4t4+/vKXv/7YRz9RV/I4vMwrV64cO26kheNIdmU82267zX8e+7eLtAPf2VrS&#xa;uDKPPPovrA0uEsNpp33rlJO/3rQaPahh1OiuoB43fKZkTbSU8L4ZEhRSywP3&#xa;//utb90SReDvqiMuBUMiSfD+B+7deeedm5anIQbZlUnDw/9+fNNN32KqqNIr&#xa;7IP/9JKgcxuRZ5+dtelmb04YXMvmIvHssP0ud911twpjmTFYrlS4BhGXEAUT&#xa;jgxr1I8pm4Z6II/lrUaOBWDNcKFWia2nbM4ycg3DhGsCq8RroDWCStxFiKZP&#xa;LiuIvashjfWPxMqViklv5XToDSXQR06/tNG9RCXSGCatCe/0gBQ4uhpGiqX7&#xa;o83QkEKQ2b7tyuetj653GpZNKGEWNS9Pp6PqEEVArzJUphMF2gqULZ9V4tCj&#xa;kj1Qo+1tGpQ3/bwDVSOcQK6UWYnasAWz0Y2UNoG9QzMTIiRPKTJMEEvkgomo&#xa;pXPhBAbByvgmqixvE2jx9ljGyjqaXhr9YtB0DQ4nT7ZP/ySBBcv+6vjq/3Rj&#xa;HUNYeN8dw77AarVrDWF3ItveMGfIBh27Uvlu69WH5qY0SoXG3bRk6kquDUdR&#xa;FPvwmoKxRkHotrzpbb/J2kapvDbqZqCNVbAREgFdmWGKt3IWCFay+oi5qizb&#xa;dsoNxGNLkeIsb3PCoFRgLuUDo6Zg39x54S59h2RrlTSqqItduEqmUmZRKZpu&#xa;onW9yJcE6myjflJiHdG9b9p1DWmDLs7A4jvbnJ5Ryg+7VWCTQROSUE2iQNhN&#xa;cV/nNXpCoZSX3bccBJrpFFntoSszTPGWQgPyhTj+pLBXAoogp1oul9JeymYs&#xa;FS6zSdUo4aasXd0nf2qMwBSCvxpuXI4YGlRFmbAITVfSBGgrufutC9OwevX7&#xa;PrSrSIIXAQGXkpFfCLc+cClrcHKoUPhTW6gVQazOoImU4PR3+dEFX7YhhUQ1&#xa;6M+jxk6ocLu+Wi+U/SEkDF2ZYU1gMdyf9NYPOXVLXaCSsKlqyFyGsKkb3PWg&#xa;fWlWnLQkiGoKabIrLWBdtnarWveJTQ9Tcwx0cw3X724DclhaGFRoF65al1yq&#xa;imqiikAQ95N1NBv+hguVDO6IAfvWTzDBLNwsXFbIYMM5N6xpwmKqnXXF0ljt&#xa;SMKmOhxulGy2GBRvvpr0JRNz4hCOy94lDAo2AiZXWDqEfWLTw9Q6rTfdeg11&#xa;B6UtQhoIp5xOwYMELYYayqbY6mkXKWvzkqQTP5mGL2oS0iJ0ZYjDTDDsXtwW&#xa;HDUkukqxbw1MHtkjhk3DjW3Br3Wiu1SVbkVqNzmSs0/k0fUkENd0SsKlTRjb&#xa;fMoqwTol1ztaA9MypJ9m7JU+dbBKjDYs12EgpKFtJSMZdICkW7ZZiuETfUpz&#xa;eKVBKgskU9Woj6bftJT88U0TMmjQlSEOM0D4sBi5wR6qrba8CLtAc6Atw8Ub&#xa;x5ctinAmD1KyYZlTbla83LdKqtKryvoNFAtyt2wTy2Rc0ylB69iLBJChKH2x&#xa;FAPhFOtre5Hmgk614QN6UBUo1+YngM6jpIkUKu6JLNGMlqpat8cQRNYeIBmC&#xa;IZMANh04SxFhUYcmSu5G8U2jfKIY1ZgYhYLTsAmWfjNpzXNtUnRCWoCuDIH5&#xa;KwfEMEehRxuwjMmI1VRcvHFQ1uQJr9MJ8sehNyuIGAgHlZQ7KzmCdMNSIvFX&#xa;d0rFiiIDjTaOfRDIFe0ODD0k15wKhVRvvWkr7TEs0p8Y/OTReZQ0kfyv88LZ&#xa;NCxRtBCkN+N1Sduhak3gcEoUcmOKjFTFU3ykoO7hekq6ZW2Uek3Hok1ng0fv&#xa;SLRBpFRYh5JEyGBBV4bIJzALwAyqZY7AMgRINHyjYhO0bukgFSopFOWhKSZh&#xa;gvzxSCkt6+SRpNDeAh5LicF9lg39sn2Qzi/7WGxClIryTDOT2gKDu6ig4fI9&#xa;pEZTAojq0BuLtEDOe5aBGJg2EtPNKapdpBHYXkyhU0UvKQaDBbS4XFlsQSo3&#xa;5dDZ9LUgp2VG07ZvHOmF/AkE0DAhgwRfXEDKHH30p+s+Tu1nP/0FrKStCnHG&#xa;6oQTjr/gwvNcJJrcrbfe+rbttg9qgPlrzDEKBCg9+eQTF1x4vhZvwW8o5RYv&#xa;XnLV1b930Rhyua6PfexjLhKNiPGD7/9w5Mg670D4yEcPuv76612kBbbffvvN&#xa;N3+rhaENU0sVTzzxxD//+XcXicFeXOAiLQAZli7txfiExzROsERyBxyw7+1/&#xa;u7VmYuR0jXbz5u9//+dmm7ruRwK/oaenx1+5gxS1kxYpcACXLVsGIX3NqUF+&#xa;65r0d86cl7Z462ZhCWsZOXLUIQcfFjwSOoZS7uc//4ULx5PixQW5mfc9sPHG&#xa;m7hYBCLnLbfc8pfr/tzKSYT+QnuzZs266647XFIL7LDDTnff9Q8XISQFdGVI&#xa;me6R9debpb19XV11HoSfwpXJ/PfxZzbccEMXaQGs01tutamLDA2WLyvUvT3l&#xa;6E8d+Zvf/NpFhgDtcmXayCGHfviqq65wkRhefOGVqVOnusgQoLe3d9IaY12k&#xa;NdJY5jTvYHp5zuuTJ092kRguueTioz75cRcZAtCVIY3SpA9OCCGEEDIUoCtD&#xa;CCGEkA6GrgwhhBBCOhi6MoQQQgjpYOjKEEIIIaSDoStDCCGEkA6GrgwhhBBC&#xa;Ohi6MqQx4p51Vpmc5nlo9tBVCdifRrGnkAXPIuuwmewfoVb32XGNP1yubTTd&#xa;cusiowZ03Ppuj8cdIviu2QhW9rTJmRyisWkcOTfCiZEZBgwRPqZF16/BlYcM&#xa;I+jKkMbwa7BSDiM5dKiuTcfEy1v2ivoax4xjNttaLelooyGOqyq0bLtzs1Lh&#xa;zdHAaR5urumWUdBerKjhZmpBoVLRP3s38cG4rYFxQCvp38Lhe2MjqBL6DrY0&#xa;PbRCL0YujUilYu3IomBZ4eHwgALhcQ7K/+gnO7c0GQipC10Z0ihyNcU2s90a&#xa;sEQxYj49kSKMXi5n9bhSjW76Ej5XXWAiB3Y+t9UQRxp3rEP26kd0BBna1Z36&#xa;VQXtQrGm0yZ7it5YBVXPO7Yha2jzj/ZXFUXK39X0i8C0YCmbK6rAAJOpovXa&#xa;rYpg4ERQDYRpZuAqZwJOkDoiCRGvGQkrpF3zpz4Q3rBw+cwkZFDgiwtImTQv&#xa;Lvja/502YeK4TAluCIwmVgJdCPTTmMuRybz3ve+dNHGKi1QD8yqryEMPPfTM&#xa;rKeCgkhp0uy+eZNNt9pqawTUgOJv22xouFMIF4vF/v7+N79lA0tJIM2LC+bN&#xa;m2cv/UEYy2qoLUsTvv2d0375y1+6SMOU31V08le//ulPf9rXr/tqxo0bN378&#xa;eA3KiCIvxAh63wAodc65ZyGA5qxTUEXQdGO8f4+9IBXUjhqKxfLLva1aVVN2&#xa;7bXXxtEmRLUiQT2ZuXPn/u73lyRPwnfu+j9ve9vbahtCBcUiuilKA7Nnv6gy&#xa;Rus5EZRHJeLEQLCrrv5jXb3t+f4PjhkzGrlCOpEioZTM9Okz6grTrhcXHHfc&#xa;57504peDXrhGw+Jh/9xzz+723nfZoTj44gLSKHRlSJk0rgzIZvP+Q7wHhssb&#xa;3tdfewMro4tUYuYMgV/+6mfHHvsZS2yFX/7y1x/76CesTlRvpry9mMwwxfBP&#xa;0qgojSsDApkr8PoB5557zpe/8iX9gF5OTI25jMJll/7hwAM/nFyDX4lbBD5H&#xa;z6g6r+hKyeJFy7qhbtd3bAiK8hHVRFnyLWfr3P/AvTvvvLPXWCRnnvmj4z//&#xa;BZ1jFdjMD6Rye3csNZVdk+JT1py0ePFCPRhHbsnipVCRRYJGraYKeTQ9iXa5&#xa;Mueff8Gnjj4mkETwrfvERYsWrrnWJAvHQVeGNErbbAEZJnhTG0wet8fH71BY&#xa;ssVgXwxli8V+zQxam4Qluw4v5PKy6rcXSItGEMi3+95T1GyqCAeQHnQngw/n&#xa;dr0qvDY0ilRUrjMW30I2V17OtWhj5HJQk80ENxlC+4aQGZXLi1iqHLn4gsGG&#xa;SBrFXupsQkKPlnXd1ptOkvyYWvyg2F+RyYlq+8ZAb1BQg7ZHbZAnwSkUgVFO&#xa;m3VlrXUf1YDGBwsbFIjhN5VEtiA6qPKQ4UMTJoYMW2S2wILDD9Fo1d42C8cC&#xa;ux+Yfu8aJOVPwJtFVGjmMuouyJaQOp20LtA+ZCm0On3N4aj1TvfN6ceVshU3&#xa;qDloKZ6wDlNkr0abQNOyhYRvogtSgwlTLJa7ABBF2KJBYnCsEVA2ULLENK0u&#xa;ktXw0y+MCRZI1QB2kzSqtLKqRvTdu/u1SIFgcO2vlA1SJGpEiTlQ2L3eIWHc&#xa;5qPKIApEhg1tNv1ktcYtSIFJqibSuFeBLLapzfXTr5l56Oy3WsaQoWwnVqdK&#xa;q/F2UqEr35DuXY90356GwzVH4o/EZ2mYFoVH8Rqx5Y6lqF40J7QTL62Yct0x&#xa;Fc3pEGJ4SdDHdNqTXGGF1CinXTMoFV5s8z49gykDGZ7QlSFtI43VRBbb1OY6&#xa;3ygUaII6jTZqy2vzN1hB80Q2VLM4NUOaLljHsWtUYwOErosSCMuTbd/9Mais&#xa;sY4Gv6iKA3JirLA1VG3V8PrO1h13zVB3btSfPCp2dbamZ50VbLo4Ic1BV4as&#xa;nqRfEqpohxWWpsMLcCOglBV0xZutpzHQiO946xpo70rW3toGADdAkBNqbHS4&#xa;fH7tZYRXEUe7JgZa9A8B8ljlQ17zhDjoypDVk+ascFtMt105aHYZQCkpGLnA&#xa;DDTtWrni/MgmdGIl2iXYwNAe4fRLmWaqat2nqRwXzF63LgyOG01I69CVIast&#xa;KQ1xOFvVd/zp8YsBAm1ZACBJvu0/mqoHBA8vak10pMpZQQ3hlKY10w6NDgaV&#xa;vU+iVhVVqqsL8luRRgvWUikMHGjxoauqTfN8AUJWFZydZLXF2+KEFRRZgvUA&#xa;O3nQGfaVNjwVvommV+sqIIm/xbX1taouvoWw+E20a90PF4xUSPqafel2Kbbt&#xa;hAVDMLln4aMJOdN0Fl6iZfOZUyu1mgQ3xc/Awb9GSEh66MqQ1Z+EhdMvGRqA&#xa;vcafBu8GjaJqjWkCFMUC03o9KWlvC3UFtgzpHZqhDJxO3190KLnr/ij67sNV&#xa;6kqtFf1VekiNddUeR40ArkIVUg5hv3oMFlldoStDVk90UTFDbwmp0KsybaBF&#xa;u2+lm16ZmqO9S1V4ObRArbVpqINDdilFJ7xsCKfsVDhbVdfgT0tK+ZmTkcjT&#xa;88IFNdiKisrNmWzYh4UMhwkZavDFBaRMyhcX1OW1V9+YMGGCi8Tw819cdNxx&#xa;x7hIC/zyF7/52McOdxEFNtdMvA+sXLny5ptv0oMRIA9yTpkyZYcddgyvDZGk&#xa;UdElF18+duxYCWWL6R9GUstPLvjxrbfe3PoSYi8ucJEYVqxYfssttyBg2ggW&#xa;xYabXr58xaGHHYhAeAgquyAKuf22O7q7u2sOhcj2v227nZABuJSBZObM+3bZ&#xa;dUcXiUFfXPBFF4kCfSkWizfccIPFdF9Ldvz48e985ztdrAJVe7aQKeXR6Qcf&#xa;fLC/sDJ+/kAtpbe/ffu26GfevHmzZj3jIsEblKxmP0B//vOff3DGDxKf2pf5&#xa;yU8uPPqTdd5GsnDhwjXXmugiMfDFBaRR6MqQMquHK1MLLPXa0+Neb+l43/t2&#xa;v/66G10knnapaDBJ48rMnTt33fWmucjAs2J55JPuVhltcWVAb2/vpDXUi41n&#xa;iy22fOjBh12kc7jnnrvfs1ukB1aGrgxZVTT/kZEQQgghZJVDV4YQQgghHQxd&#xa;GUIIIYR0MHRlCCGEENLB0JUhhBBCSAdDV4YQQgghHQxdGUIIIYR0MHRlSPkp&#xa;WINAVt55ZIG2PFakzgQOGknuoFQymEqowquiNtAiVfW0qdbBQYajLQJrJTa4&#xa;q2yIq2jjQAzYvHXVNlH9KjyVyLCFrsxwB3YnvOAh3ChWyu91UsXOK1g5M3Sl&#xa;YlvMefkVd7XLA7oWGFUVNBrLYMJbbihE/0ZhZaKQJ7Qqac8plLG9SRkEchZA&#xa;hZqrDuFsKAiCsEsPZwi00QasrfRYv6yg1QD88EQh2ex4qdTqiwxRD5qNbC0k&#xa;zmChD/C1vptIrcgQ1mdbcdWWq8+612VHYlnQNZ26VSJF6N1KxeEyKQPVP7J6&#xa;QVdm2CL2BWai0nSIJWoUFNO9e/ch3ItsFptVXr0Fdq2UzRVC06+leVjVhN/C&#xa;r7lWSSPBQWejJZ8AT8KFanGFIiiU3DPmUVua7lS/KjIIuHcEokKrRweoPEJV&#xa;aDYHFpFQbZKOqKbEFm+IsBhWc3pC/cIebo1UggFCIHLz6EP0W5oeaFDf+Fie&#xa;D7WtDCbZnLzfwN72lcs5McJSpdkMU+kgUYJPHGsfXJZMIZ8XJVssmzMf1FKc&#xa;5u2oKxaDlCn30QUISYAvLiBlrrzqD42+Mwh2x1Y4C9h+3XXXGzlypGWIoXTe&#xa;eedd8ttfI6SlUENzn7xzRx111DGf+ax+cEc95WXPCwaWLVv20kuzLRzH1KlT&#xa;d921znPZwZVXXuFC1cBOF+zdNZ/93GfmzZvnkmM488wfrTNjPQTCcmoY8rtT&#xa;8mc/v+Bvf/sbEi0aydGfPGa33XazMBaSbKb6Wg6K77TTTuuss66Lx5DmxQUb&#xa;b/zmb33z2wh4gdMT7ibYaKONNYquxVa11VZbBUWSstVl4cLFzz33DBSrDoRM&#xa;j5BKrebSjTf99WtfO8WlxdCuFxdMmzb9L9deD8fXTpdmZ76w9dZbu5BSpeQW&#xa;QW3wt6A0qA7hefNev+OOO9yxGtAu8kycOHHKlCmm6kAQUa8NH1KQZ/nyvtmz&#xa;n7djcUyePPnd736PixCSAroyw5ew4VMrg00cAktJjdRhVWGPOCr5whe+cNFP&#xa;f2yHq7CG8NcytwMsCfjELyFzAxAOuqW9KWW+9KWTvn36D1xKNOZD1Keu2NDD&#xa;Ntts/djjdV6y88aCZaNGJXl7qOecc87+8lfqrJ133/337d++k+tnCB0O/JX/&#xa;MkLuaOzgxrky0Ir/eueA/Q/63e9+j0ATY+enhwU23mSD5PUMeRctXNbT02MT&#xa;xnshjYLif7zi94cddohXAmrT6RHWGPy/gqYnTct2uTJB66JGnbHSqCY2gIm5&#xa;eNGykSN7NGrnMlIbrCgWqarqkliCckx1s2Y9t8Vb31ws9gfdMZG8ziXlmM98&#xa;7uyzz7FIHNoXB4LxzRLiaMY6kNUPMxYwWzAiDWFXyHN5lJfPcNjy+TxWHVQY&#xa;uRWLFkD+ds09+DGuKiy6UrFcBrdWcpZSKuaduPEkmOkwLncN6Dj0oEFow2VO&#xa;oFjs08xSUMtCby6KGuwqfb6rbNDjQF6tIWg6qE2FcSPiMja1yEGBUpeRlSXK&#xa;WmkcKSh/VIdwTfA3GKaIzWNhzCmNNYV8M4J6ZIStNg341jFbxI8ZNLRRIKrQ&#xa;+SltB8Kk3Yxczt2hFYxyG7GRkusxCIi4bnpHgywWgB8TnIDYOyVriiW6bHGE&#xa;ZqwDpayPhCRAV2aYYobJRVrATFWxgKrCK1PSyhC02/x19Rrkex0XlPrVdsqH&#xa;eGmibjdVWuRqSRvaY6mhbveNXG6EBTS/BNTJs6JYD2yfUn6U1WKykIQb9wuJ&#xa;UQ41RLnGUpdVGKozLVrEdQQV2iWWhK61NhpltF1tu1yjGT2ZMzZJ/CFzLwYB&#xa;bdHN/wQl1EXmi45FMCLtlN+qNvGwD5qIw5pGp+y8s72bwChtZ6XWk1QRDtYc&#xa;Ty5BiGBnNRmmwEjAUrVgSx32QSplVQOxYIStnXaq7AckG0KVuQHhEyg3lOJ+&#xa;o1KpUNucSVIm9FOXZKwc/BhfQ1Sp1roHgru5W8QGBaOU0DV4Oy6kpNBBHUJt&#xa;ycQASLFJEhyy1XcwCLUYFqwZWiyeQHg2NjLopkPbuw4aFtb0NIhpkj8D1T+y&#xa;WlFhL8jwwQyELiptMBZWQ+qqBnzBSG8xfcbUwsdiK7SGUnWwfnPp6lFql5pW&#xa;PY7wSuZpXUshkntXfbR1F6oeKUetuv+BYGn1ElJsxdXE5mi9hnpIv6zXjTcV&#xa;rdI09aBBf62xEQeIDFPoypA2kN7G1VpeS8G+Iays4aNV6WBwjaBcFKkSQVMi&#xa;cIfjQRb7PZSGY8FR38cgQcq2zhBfPxrto6kmvG+aqtKmp6DO+kqDYr0Y4bGz&#xa;wNBDBDMx2zIj0GXzUZKBQrxOhrByyFCBrgxpA+ltXO0CaSnYN4SVNXw0nN4u&#xa;85e+Gmu8UrTYfrnDNfhD+JvNFSyqJaLBUfTUApqzvG+IobxamGhVnQp66r6G&#xa;qIupKLxvjkpFWetSmy3PKSuuFaMVkQYO37uU0yNNNuRJWRsh6aErQ5oh0go3&#xa;ao4H1Ki1a20If4JMFtb/8qKVTqGsSa57d3omV4iclqFdXR5qhLsVUo7reHKn&#xa;vU7COkzWZ130BhsBdev0kNpUkvLlFj0eTYutDxoQEx1sSFqvbaOqbKd0nHQi&#xa;dGVIM4StEsIWa8hUITMMX5Xtaw5rV6SoFKAq2hzhn4YmXBgPdcXdTFoPlxsy&#xa;ejEtYP3QnftVd7KWJGMQ8FU1SlsGYoDwnXJq0b1G3YEE4SPztNhZ/fWVBdwv&#xa;h9EI6vRTJbn+FlsfZCCsqTBZbMvjtV0LDjXU8XBNnaUxskqgK0Oaocq4NGFq&#xa;2m6eUGGNVC6aYGHrUnlVJslSu1DGfuJbh2zw5DHI6KXWsHxnYSmlTPmlBGmo&#xa;UcBqgh8Cp5ayulwo/fi2MhM8YXm8SKjZC9YiJmRbRG0F3x0LhH36WixPlRMf&#xa;no6NTs1w9uSmCQF0ZUgzDB3joktItZWsWgZaWeFTrygVVjsoFXt+xYmk3cHf&#xa;iqMpZUgtaocR2S8osIlJaGpvUVGJxW3EW7KrJmRoFq1KvAgJlyQ9kQI30Yuq&#xa;syPmXCGkDF9cQFIBc2QGZf78+X19fZpWbW199Nhjj7n2L1dbYgy5Qw45ZNNN&#xa;N3WxJrDnjmSLDz/88FVXXQVLq6nRfPjAQ88662wXaY2pU6e6UDw///nPXn3t&#xa;lWQLfuCHDh4/frxdv6ky3MFCWPzHP/7+2OOPajiW/3nXezbeeBMXqRmR9Dz2&#xa;2GN7vN+9yymOAw448HeX/9FFWmPDjd40e/YLLhLDzPv+NW2ae5dCuF8ImMaw&#xa;x3DU7e/jjz9+9TVX+FIeXyf2991333XXXafJsRPp6KM//fWvnRZurrbOF198&#xa;ceddtneRaHLjxo078cQTq8paFPj6Tz/99EKhkDyxlyxe0d3d7SIDiMjZ19c/&#xa;f/48SGpJkdx7770HfnhfF4nhg3vtd+GFF7lIDCNGjFhjjTWgieozg5AY6MqQ&#xa;xtj1ne+4775/ukgL/PfxZzbccEMXaYEnnnhiy61acIkaYdy4CfNef8NFWuPo&#xa;Tx35m9/I2zQTmPXMi+uss46LxHDddX/Z/4C9XWSAGWRXJg0vvvBKGueyLjNn&#xa;3rfLrju6yACzxRZbPvRgnVd0gclTJi5evNBFYhgsV0a4556737Nb/fettoUd&#xa;dtjp7rv+4SKEpKClC6GEEEIIIasWujKEEEII6WDoyhBCCCGkg6ErQwghhJAO&#xa;hq4MIYQQQjoYujKEEEII6WDoyhBCCCGkg6ErQxqg3tPIUlIx69pU5wASPLVs&#xa;wE8W/3i0EHUe+xR+zJoxYPqU7mdzxdoWGyKoIc1rqoYgVVO3CV03NItiM2vT&#xa;OiI1IjQ7ASKGFVX50W6qs20mPPdanIdkNaOh84qQtiDLWKkUvZilN5iDZloD&#xa;ozngq2+Uda7TydoFZsAsvI5aEQ22pPdSMSc1lLpcvMOomANNraZ1ZpHoplxt&#xa;bGbNI4NhmXVMXAAJvhLs9VAdkK3cZgirKghH5YimDctKZHPhuafh9CKR1Ry6&#xa;MqQBAvNi0wZ72wBWJh+uiyxm2Sz2EoHNClvbNK96MUJ21rdrMrRrC1co4VKp&#xa;sfc7JoJVyqoFvglQG6iL5fSVhKOtb379kLARHq8qag9FZ85a9xO2oUmtYGGZ&#xa;U226SFdP8mDllr+hRbq6rN80DwJAglIq5+p0Ua0E+3TvTrL8huTXFImUk4UK&#xa;GaI2yxOe2w1jkoResOXlR8DZCt0jWiEcGc7wxQWkAWBov/GNU5986rFsNh+s&#xa;62az7OOjWdjMnXfe+dprczWlGmRQ3yV/+213bLftjplsv0YtsXrf3d2Tz9ex&#xa;VnPmvPLFE48LDGg7MRksgPoRHjVq1K9/dbEdbZELLzofWtL6vdjQHhLsfJTu&#xa;/OT8X0yePEmjsTzw4H0//OEZKOWlbTdufDFkW2y+5UknfVlbifXqsAKNHNlj&#xa;YVt1AqHwpzyUxx137PwFryYKXLz11lsXLlzsYjEM2osLoN511llnhx12Qsd1&#xa;PgjNKXzddTY444wz4MrbqLnUakpHHHHE8hVLEpvInf/jC8aOHRfOE5bNTlJM&#xa;WktJoFAo9PUVfNe0QpmBiBaLGFOkZB944L7zf3KO5Y8EmV94YfbMmfe6eAts&#xa;tdU2d9/1D9OP9Q59sTPFJ2Lf0+NmGiF0ZUhjmBFxkUq8lTnhhOMvvOjHLjUe&#xa;VAMzVVVb2FTdfvsdO7+j/mtfrJ6BJqHjTYCa8HE5qBDSl2uuPNQAXkLs2qsQ&#xa;k2X58hXjxsvigVbQliTVsM6M9WfNehYBy6DySO+8SBaoKyGKH3rooVdd/XsX&#xa;j2Ew38F05pk/Ov7zX4TkzY2Ox4ZJ96ZJl26USsVcXr6Gc/FEPvCBPW+59Yag&#xa;NhHJqvWqxu6l2a9OmTJF4vFc8tv/d9RRR1hYS7kPKr6bqPaGv96y227vtWgc&#xa;s2bN2nSzTcwH8t10xxqnqpKQMAhIEyuWt/nTC+lcUp0whBhqWeQv/geGRUBY&#xa;N0nygWSQpaRvt0aVqFZxNkvNlzZTrFuP5RepUrTZEGaCUTeMpoRCV7zbADrq&#xa;1WUJfo9DUVfX62NXsNqtB8HGBR/QDYvGAQF0RNwgIgH//dcc4aIJoooGshUX&#xa;foLaVhlYUoOAyGJbE9jgancw4S2tTC6XMz+mrpL1Tz92ljM4fXK+HM4vpNjb&#xa;1+tg75lXtJTTPIr7sxIk9zc4ilki7Qb7pnHFIYDFEVVhELXLM6t8RpAhBF0Z&#xa;0gBmf3WDKbE0UDZZgYWt/2kJRbKaza8QZqEU+ZFLudJ4VB5kkyUhRfaGcD3J&#xa;ZnNYhp04lYtrazhxg4/4rjnd+75IkxpN1TdzNdquCh1T0bCNl6Y4OSPIQlmS&#xa;oSpLZdx1KFnOKkdWy6xKe2VrqpfctiYIlbJZ5TAN+YQkJQfZKvPY6PiTCEi4&#xa;6D3QGLwMQW2S39ccbiIkbAQ4apmDeVKn3Xp4McL1IOyjMtMIMejKkLSEzW4l&#xa;NcYu9CGvlsA44lOX/ImsNrCJ5Zqr0FJWNDZPu4AYTpJSXhPaghMbNVcpwDUl&#xa;qT6P/Y2m8miEMlsjPD6upcghq8JncYNUIWRifxTx8IL7WEO0uDqueqr04OaV&#xa;kkKp1QRXLNKcbrH4DOFhRdjS/RUakDjuOITjkqGJjniqpPViBHDBItFwZpC0&#xa;JNvEkP1KygYCg5i0LAU2MdYoqjB1GupQrNOV2k6pedB2nVRXmDwNIsE4xo9k&#xa;NPGtVJgsZGtcnFVJo3pIx4B4eLVjlqhrHGrDSNQ2WplS0dPOGnoyoNCVIYSk&#xa;whaVRr0S9TaaWXNiGnKLmdWJPMjVqEhkgGhuoJuGw048dGUIIXXACgV3wW4g&#xa;HbTlKrkhc18szyCvoCQS8SoHy7kIxt1ihNCVIcMbWEM1iKU2mkVfYRvrbJSg&#xa;9fb0CytULpe1G0jTL1fI2XTrKJjQkPdd6t7Tmoa2qIhgUFL9WqopqrxVmxuD&#xa;5TiRDoCuDBnWwBqqQay+97YVfIVtrLNRgtbb1i/U0+hVGeREqeYcBS0YW9JW&#xa;snatne1SEYFnmX56NETYrx2gJkhHQ1eGEJKK4KNw1Y9K6jAQjoIJEF7eGqWV&#xa;siQBr9iBczhCY8dBJA66MoSQulSsGSn9gBbdBb8WWiC8NKLmFldKK671lKOk&#xa;RWpHqr1U1ozFi6NGHHxxAWk/J5xw/AUXnuciLXD7bXftssuuLtIaaZbVdpng&#xa;TmwroR5d76WG3t5lW229mSXGMX369Lvv+gcCKNGaJyPvafrrDdf51iO5685/&#xa;zpixdholxIGyuVzunnvufs9u70RDCVXZiwtcpB5x9bRr3I0P7LXHLbfc5CIx&#xa;vDzn9cmTJ7tIDJdccvFRn/y4i8SQ5sUFL7ww+93v2SVZjW1k1jPPuxAZ9tCV&#xa;Ie1nqLky8+bNW3t6ndfQvO99u19/3Y0u0hrbbrfVf/7ziIvEsGD+kjFjxrhI&#xa;C1x33V/2P2BvF4nhskv/cOCBH3aRGObOnbvuetNcJIYDDjjwd5f/0UWGBt/9&#xa;3umnnXaqiwwwaVyZ3t7eSWuMdZEYtthiy4cefNhFWmOouTKErCr4BRMhhBBC&#xa;Ohi6MoQQQgjpYOjKEEIIIaSDoStDCCGEkA6GrgwhhBBCOhi6MoQQQgjpYOjK&#xa;EEIIIaSDoStDUhLx/KGBeA5WW54hpnU0KVxt+w1JJA8HKw2R00rEyGbzFmkH&#xa;/t2NzQ98c8MLrUYWTP8otsp5lUPUp1QeGmyafppcVMEha8+bnzCEpIGuDElJ&#xa;2NzLumJb04TXj3C4acseRtwJqaahqtw6XbtqliXKFlwgBi0LvaR9XbM11JYu&#xa;R63H9iJrL3NzrYRNhAu3IG+5ryl7bdnQu2IRwXIRn+73CSCDjozPpnUFNVQe&#xa;SosVb4Kqtppo2ogq2Ib3hLcdVZSImqajIa02qV4yPKErQypMDMJxm88Aa2Nb&#xa;HAlW3i4SqBVGHpt+uSC/n41tmJbaRArb6ZAWrY+2QgRht7mUUp0rHK5fqa7K&#xa;uDwokctFtJhy84R1XrnIua4h0Zeq3SoJy2+rY1labBDYF0y/6Yjjj8gJaVXI&#xa;ssyRIItXjm7ZXM6qculGwnwzNIO4Ly4eInQozagJJowKIF5veEtBWZN+b4Em&#xa;tgAdj6GKyYZdWP0mf+3mh3Uo94gMQdKevWQ1I2wo1MTo/1IJn30jN+TBQfxB&#xa;ILy6eORAQA4LTgx2kcDqwRKiBst/lKwJpL68EQZVo1a/d6l1gCR57Wa4y67j&#xa;xaIXOA3QC8Suc2ZphQCVSytI0YCLpt+qVGQLAOoNrQTIkEVDvq3IzeV1NZTr&#xa;DOqxkWpYvKpNOizClIIp5IWMRotId3ygUHD1YI8MqKFuJSDIUz0olel1Jpu0&#xa;KpSVYOFwSlxDIVR61yPZu9SghoY2dZrhx0hVVs8QxGQrFjGFLMENaNxm+Ydw&#xa;h8hQhO9gGqZkc1ifc2YvYGIQgAXZeJM36cE4xEA/9eSsSE/FKjGOP/7zF170&#xa;YxeJJvfvfz2y2Wabm9mKI80qFUdYHhDXENKtleXLl791y7do1C69VC1s0uWx&#xa;Y8f++1+PWjweNJRVw50k/IknnvinP1+FALIF3wHJZ+vQ90GpmD//jaVLlySq&#xa;MTd6dM/kyWvqgofKo1fZ44773BdO+JKLKF4znt7e3q232dxFmkKrhKi5uFnk&#xa;QcvHHnvsDTde7wfCy2OdtfCdd/xj+vTpcjieSy+7+Mgjj6wZ0Ap+d/kV++33&#xa;IUiUoMnnn3/+ve97lwZF8kgHArPotddec5EYIPk666wHeXyPmgPFX355brHY&#xa;lymNKGX6XGoNQ+EdTOilV9XixYu32XYLF6nBVLrddm+/8oqr44eCkGroygxT&#xa;AjOK0S8b0+6RCCctMLC/vUv6u7vzsDJh8wTCdrne6yTRRPGJ/87aYIP1UcSM&#xa;lwbkmFVbVfnAEYicWbFi5dhxozRoa54IGdKGhMeNGzPv9UUuIYkKrUZy9KeO&#xa;/M1vfhNqC4SbS4/VEI1Xb0Bs/aeddtopJ38dAa95rxlgI7Js2fLxE8Y0K6dh&#xa;ZYtqdupo6ZBDP3zVVVdYfpckdGUy/S6Yybz4witTp05Nni1//OMfPvLRQ62S&#xa;GoU4rr7q2r32+qCLRIEmXnjhpY02XsfFBVNCWDYRNa6JMHCXa3zW5lTq9Oli&#xa;UQy110kuXLhwzbUmxvdX+rLD9jvfffc9FickDc2dP6TjgcG1v7qihIEpSdhQ&#xa;EJ8mJV+VuQ4qrINmk3pKJezNfUGK82MAAskrU0rSieMaCppzfVTssgr2OGaJ&#xa;2Kc8X6ztpD5kM/lwW6EmGt1iiVpTq8qGN6cxXwKBsHJ0j/+Ss7Jg2k01aWVR&#xa;G8LpRkjzB0D/ZT8GHdQxchLGoZd/XCWBQqLHMeE6EcpBfmsuwPUolOi7Voeo&#xa;PKKixrcKKsUbUkB1VcNU1RG/KaGvTdPok5CUppmsxjRqAMu3vjZhOWGYcjl8&#xa;sHZE1tAW24VKUooXNFfdqtnQkCVNOlnCbVk4Wa2lTPhD+YCcho2uAaaxkNS2&#xa;/LhKNGzBJgnLk0K2yAzlFc5I08dQF3zfqusxitHJDtQTak6GzKKhxLS01efo&#xa;iFVffoDWXKfD93cTEgddGQIL6ALpCJtOF2iIYtE+WIuFGlDb22DldS1m0kIX&#xa;bsvCjbSeuIQOIpA5JLa/ZiYg3MYFOEVV9dtqdOVucaWvlLmlIWv0jqjVgKYn&#xa;T2uDRoYLdGUIIYQQ0sHQlSGEEEJIB0NXhhBCCCEdDF0ZQgghhHQwdGUIIYQQ&#xa;0sHQlSGEEEJIB0NXhhBCCCEdDF9cMNzJ6qPPbL98+XKXGkVWnx77jW+c+vwL&#xa;zyKKcNyzIu66667XXpvrItHktt9++3XXXTehksEhm8nL40ayxSVLltx00011&#xa;nxdywAEHulBrnPWjc9dYYw0XaYFLL/3tMcce7SItsPbaM97xjnfUDocNuoUX&#xa;LVp0yy23JKtozTWnPvP0cy5Sg1WFOnt6euoOffDigiTsxQUuEsMVV/zxsI8c&#xa;5CIRyMe5TTfddPPN5Y1g8SIVZ8+efd9997mYElaOsc8++/32kstdpAVQ87S1&#xa;1+ztXeziMbzw/MsTJ050kYCqXvz617+6485bYz+16lvc//3wQ88884zGYwc3&#xa;zYsL5s597fgTjnURRVRUtBesmroKO7/jXUcf/amwhLXkcrnu7m4XISQFdGUI&#xa;TIz4MSnZ9Z3vuO++f7oIaZYF85eMGTPGwqb/hkbBc911f9n/gL1dZAiwzjrr&#xa;zXrmeRdpjcFyZVKhy7C4CFW+SxUf//gRP//Zr1ykQaqmweQpExcvXqhHYlmy&#xa;eMXIkd2aH//LzkF4Lp188ld/dNYPXKQF0rgys2bN2nSzjVwkhmOP+fw555zr&#xa;IoS0CX7BRFKtoMkWvHPxnw6TPyYOBF6l9hf7oaPktmijsjvwA1xIF9oOm04m&#xa;8ICKbXU32kLwsgVRrtewrwQpKYfSsg3+WRAHBOm4SUJWIXRlhjuwF95kJNgx&#xa;exOKZchm7TVMmDw5b/vSG0FvNA1LXLVAjMG3m7732AeBNmhDq22pHhSHNmor&#xa;SVNtWI2Vb8+RMCrAhixW1eDrPI70GkvIiUOKizaBlW2oBnsFphWpVWddBZu4&#xa;2NuIt3dEAl24Vcai2pAlJKHvbHL50uQnwxy6MsMXsymwF95kJNgxHEL+YG9v&#xa;kMHnwaIkKT6QDNqynFKNYumrCi+AV8JggsZNBzDcXpKGqC0lFTVVlceK11aS&#xa;ptqwGtEpCwQVStheK2gpq0TnYUwAPyfTkJAThxQXbRRf1uutLpDcZk5Co0nH&#xa;gqPYN6SElAQVugtHFtWGLCEJGxqj3XKR1RC6MsOXlDbFY8YFewtUEZlYS9vN&#xa;ZVuAVKtEMOgsuNwVrdW6NFcqEl9VXJ2NtuWvyqAgimKDjpGo3kzbxG4ayIBB&#xa;t71LWqV4naRXjslv2WsLBempamuLEnwlcY1aerJE/mg6wQkR6MqQtFYM2Sxn&#xa;ZH6fmNJ0EtOZbqn0X5cWNe/FiJOnUTnDVxcQtusHxaKTc5VPE+tOo52qS3MV&#xa;impCBRuqBHl9aV/Qp6SkLaetr6Sy7fIqY+nJgoWnDSEpoStD0loxZKvNWZvS&#xa;mAVd1dTKP4hI01jc2yXDQGg+LJuF00vrc9pfRBVNqreeDVnKHQioSqnNkAaU&#xa;Ct9alL4SZERmn92HKm9UqgNKtTh5agUIEdyZrFg4AZ+nQ2cIWSXQlSEt0VmO&#xa;Sy2rXH4sYS6khJYEF1AZ44XUJ3a0g7IY4fUm3LSFm9AYSlid6WsIiVAXufmm&#xa;LmkW0eYIumMKhGOqfxuncb2iiHxbh4DvXXOtNzGmVfgKaqoqzyscgsAWsJRa&#xa;ao/UZk4oToYtdGXI6snALV1tIc4cI9kOFYNf2aIr7m8kJfs1Wev9LbtEA7RU&#xa;oFoIibohqTWR0JCs0Pr0tsp+Rdgr1JFG3gHqVEgkU2BuoNqJAsox9fjemWeD&#xa;aEoxQupt21oQGjHUWeVqF+F8J1wx0rJOdOsDJKzqTEjmdJ0kw4C2TV9ChhRh&#xa;8xeyfUOFOJGQrIew6su5qVH5ssACtZtac8kZ9HfontHWZbcTkvqVz+OPrIKV&#xa;y5hzF0J7yWz7uE2PulYl0hpVy2oINwrxGQaCgnUL/62zplKvWJ0eSai0pknR&#xa;rRRrHnFV5Y/6oKgWw6gBwyXW1Y8/bh5PuDvhTbvWirRktcKZA0JWY9zvPIYS&#xa;TjKRTSx32L7joMWQiIDeLSv7yE3zu+5JGfmCoxm0rBAODyhVHanZ0H+xTrXy&#xa;ZN13athLBigHCqopXt40T3nfdAetYHivAVenSiVLLrBDg4K0Fe6sasNtFjVM&#xa;sBhaUkuIbLFYCFVYymT7NQoQda6SRBLBcZMb8ts+3C8L66HB1DMZ6vDFBaQx&#xa;Ou7FBTCdBx540I9+eI6LDw3scfvJZv2f995z22232cIQx7veudtGG22MAKqy&#xa;BcAHGuKxxx57/551HkufhrgXF+j65MLg/J+cW/ep/D/96YVz5rziIjF8/ONH&#xa;bLDBmxBI0OSNN97897/fjUA2mw8eiQQfyPyhBvjkUZ859dRvIKD1oDPiNXpV&#xa;a2L/6NFjxo8fX9XZ5qj34gLpwuc+d/zkyZOCvud87yzFovvuc+DkyZM1PRpk&#xa;/vGPzzvjzO9aOG7ypHlxQaFQev31V022oB5TtYkkiWPGjBs3zr2yIw5k+/4P&#xa;Tg/ptjy4SAyiuZO/+jUNEEJXhjRIJ76D6cQvfuX73/++iwwN4pY6WOngUOmc&#xa;c8758le+qGG5/BDJPXf/Y4cddkAApbSsN/SN8corc9ddb5qLCM0s9iDBlQG+&#xa;1xtu9KbZs2fbIueSqqlovWaJdQtkYg0OFMW+sngz/PCHZx3/+S+Ynh3ZYqko&#xa;rfsUa0QHQuMtkOYdTJV68FELOF6eM3fKmmvYJa5aIGqxmPntby858qjDg5Ro&#xa;bybZlQl12f3ReiQdWMBHi0V4gdHyGH19fWPGdod6B6o6CHIrV5jrRkhoxhOy&#xa;umJWdUhtcYQOwdr7CMx33FauUG8Ubrqnfn02pK42Yt8LVGJNWC9qN8HcsqjF&#xa;FRm87cK6iKPhshUbygKtqiVzp9VYINjUj7H0oIP6v0rYAQQd9HsQDvgtCzmd&#xa;wDWbPuYHgbIHbN1olKAQ/qAePwlLqN8ClsHSk/0YkLPXMbjuWC8MHwDhMBnu&#xa;tHRuE0Jap2rx0DXFDH/601PyO/vfFOoNiNNg0bZj7khVT+ti+WNKlVe4xGqd&#xa;UjRPa4tf1HBAYaa0QHW1XtcqJNWEMHnbK7Zpw27XtahTTyNElZEeNVMXWd1p&#xa;wfgRQtpBlWnWNcVWgPRLr+RvfTEa0GVYlrNVsAi177N71HDUKmxV9DGO9vU9&#xa;LbUz2dHQzLJ5GDUbpUdDyVkkQwW6MoQQQgjpYOjKEEIIIaSDoStDCCGEkA6G&#xa;rgwhhBBCOhi6MoQQQgjpYOjKEEIIIaSDoStDCCGEkA6GLy4gqcgGDyZ/5pmn&#xa;e3t7NSX6aWBI/+KJJ9xxx+0uHsNPzv/pjjvu6CLZ/kypy4UHgKVLl+pj8uPJ&#xa;FqdNnb7rru9EEJ1q8dEgt9xy8xsL5yc/4G6//fbv6qrT5XPPO+ukk050kRju&#xa;ufve7beXFxdEYqO2cOEbN918QzbTpV1zh6p4/L+PnH766XFjamy77bY//9mv&#xa;JZQtxvUOxZ96+omoo9awVI5WNt54E5Ekvp4kpFReu1b61umn/vnPf3bpMXz/&#xa;+2e87727u0jz5KdPnzZlyhQXk164M6IhUKpYLF155RWqaovKu5zcYdGSVpot&#xa;fvzjH+vr69PElnh5zuvJ72ACl1xy8VGf/LiLxJDmHUywDH+94S/ZTL6UKTQz&#xa;soJooLu7e4MNNoibijqNRWNbbbWV5ieErgxpBG9ENCh/vBXGX6RYhhNOOP6C&#xa;C8+z9CosP7I98d9nNtxwQ6skVG2rmBjhAJg3b97a08uLUCTve9/7/nr9zXXf&#xa;DpOA78W22731P//5jyXGsWD+kjFj6rxUr3VXxnj4kYfe/vbtXKQFDjjgwN9d&#xa;/kcXiaFUKo7sybtIFPYuxhXL5Z3JLqlBvJ6x+853Tz/ttFMtPY77Z/5rq622&#xa;dpGWQaPwRVqZrphjPaOSVNReBtOVmTXrmU03k5ebtsgOO+x0913/cJEaoHt/&#xa;ahNiNGm1yfDELyEaFIKo2Hfsc7k6Jh7rENBA2R5ZPW0BdaIya8QaUpIsX9C6&#xa;vKemaT8GhHpRvxLRnWYPtJEkYRNY5aaK9J+PTSbfER8w0omKQknrNIrbSxKa&#xa;xkvVtM4qu9UAKIh5XneSt0KVzjuRdnUhshok+nHvfFWRtkFXhqQCVkONiC1m&#xa;5RSLIuDft6IpaRcZK+ILtgWVR4QJLTlJDXhp2yVMmu4jj+UyUeV/W7HKTRWa&#xa;kArIhPxefh9Q3ABjn/CyJy3u3leMMLCApSjy3sUg3VIawIo0VNC3jr/atFNO&#xa;Q6CUFcSkkkpyA/VOgEqddyR+fFvBKvDVmP6xQT3+UOerirQNujIkFbAaakSc&#xa;aYG1slcBm+VFOIjK0XSGTOaelrI62oZVZ/Kkx8uMghZoCN9jBHLq1qVTgtBc&#xa;i8mEG/eKSBDJDoX3NZQXb30FdzShtmRvUdujWl9/OL0hbMLUaCzJjvm2UApN&#xa;Ww12KD0oZQWtK/ZO7PZiyulwZIjb0hHoOdhs+GSzcQ/vCTHoypAGgFkxM+UW&#xa;61zRrnxIMHRVJh2yHlo9Fm8XJomvVv/WmefIHKxS5YINYWUtoFUJLqkebdcA&#xa;CBqXP77+BJHskEotWGIYq0R3bg4kAoXnMVlcTLGaTdWBSPUrqsImTDDrLA0k&#xa;XSNBc9hLMdcFF2gIKwWCaHnfHFaVrxCYnB2ODA+GV/vSnsVFlB4oKRh3SbHT&#xa;nBCDrgxpAJgPs7duX5T7SwwEfDg19vG64WLJmCQmDEyqBmKXOjOHA7GKpDS0&#xa;yDWQFrk9vUNfzC+xj8IpKizq10wRareypVKS85FAUa4IBXWk65Yf4rQFoqgq&#xa;G+jBYs1gFbYi0pAE44MBksHFlLGkVsDQQUVap+CvxEBtthFi0JUhDdBe24E1&#xa;RpeZAVnJzT+wZWwQCLdjjaZcpQbUIpsMjSqhNj/qsZUpGK80FcK2VJmXcNTC&#xa;Dfdc78u21tPIUAaSW78aVIbDymrA9nbhoWmk+77OKF0ZkYmdQWv6MaQOfHzK&#xa;5ctq13RHZYwMazr4VCGtUGkFnNFJNA2tGyYhbIzsM5YlxDTdnkYTsIsNEihG&#xa;SACpAotcFjWSsN1u1IiH84eb8CJVWfAKsgmXN5r8rU2k/EgMiZGmg+7TeQgX&#xa;1XqshmbEC5OkmSiQPU7bKc8ZxuAAAPJWSURBVPGlG226ElFFSJJizDWMhMEd&#xa;iliPQpppcX2RelBlqZiDrajStw6lCxNCV2aY4q2AGZ9QOI5WDHcZb74RsIXW&#xa;EiKbbmK18CUskKICWS2y2XwuX142fKmQVJLkr2/XJYXkZdMcdjgqFtqcC4cT&#xa;q0n6obVUK2XF3Wn+TLe+ZHMmhm1Jvavb96TupMXVEHz1kNi7bNUd4BDPegFJ&#xa;ZFd/rBT91ZKVcrWlLJiGduikjBuyNsoHkpxmh/0OP9SX+kUiyWaqf8+PcyT8&#xa;yQe0VWGk46ErM0zxFiFs7hJMnx2qyhBnf+vZZZl1sLPIhgprG/WJ/jvy9PiW&#xa;LWD7FItrQS/PWGHIZcubRGFDfemEekJHpJRqIOnkwvGwqF5joSaCw/VBTtlQ&#xa;1Er7PWqF/PpzmyYXFWAXroJKEE5Sp+jOdyyK9B1MrMd9vxPUltS7kjxNV7Nl&#xa;McqapL3AH63E1siEthSUFQ1IKasNu8SOrjJUMJHMBk46L39bpt7TibSVQstr&#xa;ihQvZSoec2w9Uo8ff03pKYaMDCdanHakUzGDENgFIAthKFpNkF8jzmyJldSY&#xa;EC6bS3jwiCALj+a3X8ZKUqgmaUU3iNTk/AwLY/3CPmFTbJ0G2NvdzbJemjB1&#xa;CTeIqlQz2Fc3FNqkLQtrwEV9PUiBs6d7ly1y0+ZkMzntk6tVYnukaDZ4ZNVl&#xa;U2/qC+SK+nIJVUm5s9UgfzJa2IY1OassXVEtSQrSRS+KSiixyE0yBBe3MiX5&#xa;rG+JFsAWVJUsjJQtiU9k8mtC8ICT9uL7BRBsfHPF9S8Elmcre5nTIxrVKoIK&#xa;c2U1RhE0Ag037zQrUjyb6UaVGpW9zmp3Surmo4Q4+OKCYQoMT2CkDLEOM+//&#xa;Z53PXtni29+2IwrWFBfT6Y3L8cd//sKLfuwiMZxzzjk77LCT2L+SPWbXpYfZ&#xa;bLPNxo4d5yINIH1xQWXlypU33XSTi9RgTefzXZOnTPTdtz6GA6Crq2vbbeu+&#xa;AaB0xx13Ll68WMUAUR3LZPbcc8983l2ND2uyrMZsYdYzzz/22H/iajDGjx83&#xa;atQoBFAPPEgvaplscfmyvoUL35AglqPaDImEuz9yZPfEiRNN2rh6Vqxctttu&#xa;73aRWHK33fq3np6eJGGyxe223d5UFInp7Mknn3riiSc0IZZ3vevdEyaMRVPW&#xa;HOQvK1mQUG9v72OPPR4MWTTrrbfB1KlTUIFFUZupolGK0S8uwMRzTgCqRd1X&#xa;/PHqeh8JYtEaRDzsd9999+5ueAZJJL+4wOo54fgvHXTQQabDOGbef+8JJ5zQ&#xa;sjeTWXfddX93+ZXQsX6YkRYj2637yg4yfKArQ8pGuXtk/Q9VS3tXdnWNcJEQ&#xa;vhKQ8A6mGMp2PMztt921yy67ukg6wmKY+bNo3KLj869cWRgzFhY/qfvjxo2b&#xa;9/oiF4kCNaFN31ZYmCr0Ykn5EIK1KagKa1ni2pH5y3V/PuCA/aynMeQuvfTS&#xa;Dx94MCoPy9YQ1pHly1eMG9/jkmLQywDuab9VqAANWJvFi5aPHDnSRWJQLcUq&#xa;GYQbjM9Zmjnz/l12TV4Xc2ecccYJx38RFdp9GwmNJhPjylQDy9zsYMleyurb&#xa;OtOoPMqVMS9KLsiFRi36PA0hGaxIZcHGyGZGyAsp69milSuQoclRIKsZNl/J&#xa;sCNsZfRLaKOunYKJjP5k37RlD3BTUetpflqiuBcE/bIIdhA5csNBLEtF2PxS&#xa;IZvixsZEnFp85Wjdh6u2spQ6FkixgCYIFoZslj9uC9cTDoco6k2U9l1endpq&#xa;Ny+AFYdSY1pxmB8TmUeLpxHYEb5TKiajq9IkjNzCRDanafhfmTUCWaHxB3tU&#xa;a2FrfoBAC74XDW2GjJf+8MfFGwbKF/1X9rGufSi7Pq0oR++ViW0rNI4+QIY7&#xa;dGWGKd4amMVMhzNtIVPSLpzdBGEL2Jw19IVqA5FodyRHKfVrF+Ooaiil/KZP&#xa;7F3Avd/HlgTZJ9RTKrqVQ8LR2axTMmpWf0M4kcpl1bWpB/IE+cvUpiRXhfyh&#xa;rtnfMvrdi1SYRp4EGi0d7kRtj1pGe6XVttYtV0l7JaxXm7MPFmkjVe0ORBOk&#xa;06ErM2xx1mFImgXn1rTXECcQNOTajSf5fKmVthn59ZcygkmFfSBeczjHSPeD&#xa;R+16YykNrUMJHfeXbFpTTqPAu3KhgWGgvIG2sKoEG7IKIUMHujKEEEII6WDo&#xa;yhBCCCGkg6ErQwghhJAOhq4MIYQQQjoYujKEEEII6WDoyhBCCCGkg6ErQwgh&#xa;hJAOhi8uIEJJn2l27rnnZrLRT50Hludznz0+n88nP+jhjjvu+Ne/H3CRFjjo&#xa;oIPWnraOi8TQ39//yiuvuEjjoEfWryVLltxw43X6YI9q/97yINDd3X3MZz5r&#xa;iVEgjzzjZO7cuZAq+WEYM2bMQLUu0gKznn3q2muvtbB1pCIsz60vfeADH3jz&#xa;m99i6XEUCoWXX56TzXap2OHn60Ab9gjX4suvvLTLLrtUHq1m9OjR3/zm6S5S&#xa;g0gljx7OfOO0ry9dusQS41i0cFlPT533JCxatHDRosUuEgUkX2utaSNG1HlR&#xa;wMyZ9+2y644uEsOZZ/7o+M9/0UVaIN2LC3JPPvH0iBE9cW+B0HEpzJixTsIs&#xa;wpFisbR4ce/ixQt1WOMoPfqfh/VVVvGTv5S7866/XXvtn1zq0ICLF/HQlSEO&#xa;WWbSLq6YM8hp+wpk9WxhQoVkiKg8EpjgLbfa1MLO7DaGLNX48773ve/66262&#xa;JI91p9FObbvdVv/5zyMuEsOC+UvGjBlj4RaVFk9Yh3X0OXfuK+uut7aLRJFS&#xa;t+uss96sZ55HINQpGVMfVjFKG2644eyXnrOkOBJcGT8u3/nu6aeddqpLjSZ3&#xa;/8wHt9pqaxeLYei5MqlYsnh5d3f0a6q8/k/5v6/86Idn66sAYnnk4f++5S2x&#xa;zq5Vdc/f73zPe/7HJQ0NuHgRT7UPToYJWJZsZfLrUzo/xjJbzoj8LbzzRQjJ&#xa;IAueC6bG96URxI/RduVcCGrwypFIi52Kw0vbjNQR1NYiygxaiRisMPoK4ghr&#xa;YCOivkgqKS0bCoWUJn5MMLBWT1bedNg8UkdlEwkUq9pCwUCYjkeVHVYCNAPH&#xa;0ULlbib7MR7kt+GzsMfpueXXehAycHB2DlOwONn6lHqVEivpM0YuBjhstZXz&#xa;NUVQHG0k1YNsKkZLbQGvgVKpvOYhEXtNl05ZYhtR4cvVNt1CuA78D3cBQHzr&#xa;nWWzbkaCLC4URZW0Cdj3R9aupRhYDg1LR8DSm8JqkNeFlor1pTKRwhpoqfHB&#xa;QhVVxz5rHulYoGwkYLgtbKOAP/WNvJYSfABl5b9qTFuxtggZotCVGdZ4I2Vm&#xa;S8PRm+bK+ndoe0vnCZs8fSV1uWzKTcvKFnpTtw9EgDZUhKQ8afAdyQmoDVGp&#xa;U4VxAb9PQYVa4rCaDQhQqcsGQMGweNA9AraBXM7CbnkLN1oFsoQuUJVpWLLg&#xa;EoiXAXUgoFNCCFJiJakLippU0vecBJJrs8x2aQE5G+3QqkLFrnBME/Cdss6a&#xa;PlRRdZRjoJTOfMmJgJ2AKIiivrjVTMjQhK4MEUIGK24TQ6Y7hy9imPkzQqUa&#xa;2KwgsE/wEorHX35AzpAkLc1nVFVULByIIItfKBqNHTZBgssAae+HgPyVumwM&#xa;E8yWapPTNjtkAas/oQ/+kAVqBUooGwmyB+PoFIg0d8x9zdQMkAtFQ+K5wbJI&#xa;HMhgRWq6NXRJOSdUIb77rpuWEOxTqdpnw1/dJJquKCGrHroyJBVhT8UTtpJ+&#xa;KcW+6QVD7XL5c2ECem+HkMvJj3QsnP5TbAxoF+Qhhl9I7G/dHvklBIFSRn51&#xa;Ev/bkwhCimwS01ic3qz+hNWx6lB4ZD3Ik1CDI/R1huUPSsgfUxL+Q8uS1jg1&#xa;ctWvB32BENaj1vU8YFR3JHIIakEuDHqQuf4gxuPKWikbNuzqDjghQ4EmDQrp&#xa;dBo0c2Ixa/HLFAhsn+wbrLsMCqIC7C2QzdV3TewiSuuYQrTpogYdQbi+RTdl&#xa;hMsOFiZ5uWGTxCOarCd+pBrD4wvQhLVSlV5B6AsmIywXwsEMaUlNWjxtDeGZ&#xa;qcCzcaGhhPzi3UJJ6o3CxsTC4aIN1aNjK5rRUk63mmZBQoY0dGWGKY2bSzNz&#xa;LtpGqur0phOBUrH+/LSO+O4gEA5bIAGfJVzKgrpPv166xcDFG6aVFcMkV3Gj&#xa;qhFN1qs+Uldx3UnTzbgsKkz94kZoICpQaSMETiDUqCsYJUYz9jAsXpzAMVQ0&#xa;5+VJrx+Pb7Hxog6oVK/uuJj9CQXaQOQcq0tzpchwg64MSQvMnFm6BNvShNlp&#xa;1vg618rsfngZCIctkIBmkbMglNkZdKTAjFZWklwhsjfaf1RodTZpr6t+smSk&#xa;6Pdgo2p0Ynkt1VWXdaRYrL6OYlHsUwyxM3HhtlAIsagv4+pf4attMZTgDiYI&#xa;pTn0rnihojkkhoUcXETDcWLjUCBXS+tFisGqGCYjTSlC6MqQVHgTA8PibYum&#xa;IWKbkN7s1JisxrCfroCm77oIISuKddCk8rLBjNqCF6QEB2po1N6GKsRWVmCj&#xa;+HuGlCYrGQSgXqgorFgMXeIqhaOWW4YgKOvyWzlNDGqMRb4uRC60FdQgGxKt&#xa;EhDMoDoTydqqcoCQZiLovuJQJKqHgnVfE8p7JGq6I0XX2oIJ4NoKtekUhZSQ&#xa;ruq7eglYj5L7FdYAIempc/YSYnj7EzZEeqsv4ralNEPuE7ba7ebNVqmIpU4s&#xa;bLFYvskgnrTz3CTSmk06WUSDcEXf49Fi9bKG75I2BQbhxrBS4X04MKSATgLB&#xa;SrlsV711EcNqGbKBriSsKY2RzZk3Y/XIgFbVUyxizAr15PFKtpgDUUsJ9nUq&#xa;wbzQuZGDMjTB8keUGqxBdE37XgTNymCZ0iCvhIMPD00TKDBNPVyYSGPwxQUk&#xa;PZgq2eXLlxUKBbm7s2QPQzNPApsctWyjRo1OuFgCW4aPtn19/X19K/Vu03DZ&#xa;BkCzKH7vvffu+YH/DS2TEUyfvs7//u//ukgkpdyb1l/3Cyd8SSVBzfCTAsG0&#xa;p75+/7aBBL7xjVPnvDzbRWL45mnfnjBhgotoK9lMXptoTA+jR4+qvDDTJHPn&#xa;zl13vWku0gL+xQXxSB+//JUTFyxY4BJiMBXZwl8q9btUwU+Y0smnfOWiiy5w&#xa;yTFcfdW173nPbghAvbYqWzpA0FIeffTRX/zyZ9pWLO9593v33Xc/TN3QLdIi&#xa;g84Wq7PU1TVy5MgurTa2KmT+1KePcpFKSqWC/w3/JZdcUiyGex3BksUruru7&#xa;XSSGU045+Yc/+r6LxHD9dTe94x07IxDM87KKtI/CNddcc+RRHwtrrzmmTZu2&#xa;++7vT1Z1b2/vFVf8wUXi4eJFPHRlSGPsuusu9838u4tEgGW1+NqrCyZMmOgS&#xa;oin9/Bc/Pe64Y1ysrQTmuMyXTvzqd7/7PRepRFcy2a9cuXLM2FHJH83HjRs3&#xa;7/VFLtIaR3/qE7/5zW9cpAXuufu+7bffHgHrSNMMoiuTCnTn4EM+fNVVVwUj&#xa;Yu5a9OjUjngY1YxMSxcXqmu76so/77333gkKRCUvvPDCRhtvECOD1Z/7+Mc/&#xa;9vOf/T+XVgc0FrmcSzqaW2Py+MWLk96UCdrlykRRq7HIjjdK7thjPnvuuecm&#xa;z9X+/v7RY0bqsMK3ix1cLl7EY6c0IWlQw+Eu+8fNHDua9JFLSVp7WqShmi0v&#xa;9hqIMNayqpSJPV8qcin1xJCqQpU3eSb6Cipba0ADg0VZpDQDhCyqHD8iCESM&#xa;jpFcYY0fA6pr0/XShSNReaSeYMiqxstqwz79ONbMGIekS49KXRYfZLSDkRpL&#xa;37U62DeG8djRoj2ZqaHTmQxb2jY7yeoNDEqlua+ydA2Ty/nfcQwJ/IX9KqnM&#xa;ktYVNWxvUxYBrZvpmBqGkGIDRCSVViYSdFNXPaGutWimIuZqeHTSjBTEMTFw&#xa;Hmi0pfnvG6zVQxDFgVZPseZQtUc6Lm2RRyqpunW6htqjXKdIHThFSCpg7mHi&#xa;Utn8dMBihtaqVY9/OG+kVA2Jmm5prGLVrFuDjGpGlAN1NqLR9isnPKDpBhdi&#xa;mxhtEMY3WKuHVLIMBgM4IRvv47A4O0gr0JUhhBBCSAdDV4YQQgghHQxdGUII&#xa;IYR0MHRlCCGEENLB0JUhhBBCSAdDV4YQQgghHQxdGUIIIYR0MHxxAcnoe5TE&#xa;qQ29XCaWjx1+2GOPPSahUi6T7Q97w/rsmRLSb7zxpilTprjUSixPNps555xz&#xa;vvLVkxKeGIGcUyZPW2tqdD2OUm7BggVzXn7BRWP43Oc+d+YZ57hIBNKF3t5F&#xa;U9Zcwz9dJpJx48a99uobLtIaXz35pJtvvtnCTm9hRLfFF198cfHihclPPbnn&#xa;7nu3334HFwkBDVs5CxSL6FdWexqt8DlzXtl7n/fr0WBAVQYXTs20qTP++te/&#xa;IqCjXPV8HQgkaZCnUOjHlIvoeACOHnDAftddf23yM0XWW299DIqLNI698wgy&#xa;/Pi8n7zzne9UedyhKpDn1Vdf3XPP90P2GLFFdbv/7/u/973vqaobxZSDmu0B&#xa;NqXJUyb19ia/uCA37/UFY8aMDQ2rVKIBYONY/NJJXzj//PM03ChWrbz5Eqy1&#xa;1rQ1p0xNmBLI88Ybb8yZU+ftY8ce8/lzzjnXRWLQFxeMcJF4uHgRD10ZUqZ7&#xa;ZD6wiXHklvau6OqSR6rncvJK4aol0zjhhBMuuLCOtaoicnn42+1377zzLi4S&#xa;wxNPPLXlVm92kXYTs2i1gQXzl1S9mbJWk+eed9ZJJ52kItjyFkGcKxPm4Yf/&#xa;/fbtt3GRGL75zdNPOflraDc8jm0ncJpLG260/uzZyQ6oX54TyM1+cc5aa011&#xa;sWaxLjfeceer+bLYL168ZI3JzbtW7SCN3tIScq0yN9xw027veR/S7FAks2Y9&#xa;s+lmOBmTBKArQwYC89zJ8EWtsaeuESza0o49/BjsvfUPvVcFgVgTY9bf46Pl&#xa;ikJEJlYBY+tCNaDyquYaAmXTCNAW0JBXIAKmY4tppA2LU7Iq0Ir1FXsXajvZ&#xa;Qi5nL5EWSeoNTZouQzltkNYqqFcNDlflwPSoKFssFhNeCJ+eRidtZf4IvTVa&#xa;oUd1G1Qor7KqWw8ytGGuEtIodGWGO/UseDUwizCMfq8pLl3+CEmvj6laeFpZ&#xa;h1BWrwz5N/xVgwwt1o99XOUt4gVD9QijFd9QKNhOUqoCTbfSfFIrpTwO5nLO&#xa;QUwpj5EgUlvUlUIYtJHcDAbRHLVWSVmJ73Y4f5Aohj0yQ0pqdVq3EpTwpSxQ&#xa;WwkhAwRdmWGKGhlnm9QGWbA+sGhm07xlC6Lyx+2LdapLsHENmT/9hku/gAmV&#xa;aqiGupldb9tNcH1CrsHUyIAU7JHs0xs+T1HUl06lkJKTBzvf5TTlqkBbyRrD&#xa;QXuboH9/ZxqCOiv04PuV2GA0KGJ1Wh31XnAYQU03y/MwlcLjSVncCxBuNEgU&#xa;/75GwgaoLVtXKpTwpSygX04RMhjQlRmmqKlxhkZtkAXrgOXHDFpgqsrFLF3t&#xa;Xe3aXI0VjMwWrjMZFEcFVkm4VPoaQJwkPqX2UFtAu8GKjj1iJoYe028ukBi6&#xa;C7vhi/aowashlUKy/uKWX4/LNTREWGORTVua3mHdqP0p6wGtpOpXDChtYgbC&#xa;yD6B2rbC3TS8SK0IBhotHtloizIA38HankaCXDU5+WUTGSToygx3SqUGzI0u&#xa;P2KtQsuwx4erzFkssLYprWQkKApzXWWyIyus20qt3fcprS8JcYQqhoAiYU1X&#xa;mldOBal+iOTzuEYhTIt9h/hxXQhqbn6p85/426WkZNo2Fp1D1SlQTwOSKyjC&#xa;ZYUMNpxzwxRvlxq00W7CmMnyxi5MQ/VF1mDUFSyyaGSFCa2kOQVWxTIGkRNk&#xa;boxsJl+3C+Gve3zeFjse2QOrsrmaUSpU0LlBzeoJ9UhVqM+rugmde3FQtqk+&#xa;VWC9a+jeYSsSUkub8TWnV87ACUNIHHRlhikhu+TsTjr7U/ExOjCjFnM0u7RU&#xa;o6azrkytN1b/wkATKxyoZ9Ar6qzMKxer0t69oVdckiXE0bpdCGdoqrtpscrR&#xa;wXr6iSBNRxKo7KML4y8ksWhTIskO/7USTWqqHsPESPN4J48VCXetCWIEdg/+&#xa;saP1OlU+Gno4UxPrS0sdIcMWujLEkdIYeovmrWdEwcYfrVaLNlRXpmTz2nYa&#xa;OF/qrS4Vt3qE8yId0XrFHaalestMSsLXFVK13ijaKdmSH0WYhobuGjbC3mGV&#xa;xlpToJSVQQtWfQQ0vQOIEdjNc0vXvdwVnuLLaCvoT5Mm7IDI06b5TIYRdGUI&#xa;aMDy6o+fJVBjbrzVq/8LpjRoVbHL1SqydSlNeSri7HXwm145Wrebqur26AJt&#xa;6uiZ5ttTZxXqTMiGRd/f7NIc6gx14a+Lx+N1qB10+X0goH49yeTlS7xWO1UJ&#xa;5tKA22fVgzzx0jAHEf3QmJvtOlElrI83TKKqYNNEXZeypp0AOqa5umcHGT4M&#xa;+KlChj6BWZc9rEPCBvL5nD3MzaIhxOLZ8oy12PI3smlBRWuTxEx2hYVr8SsR&#xa;hA/KDtRm+EAi8jsgy6llJRy5QWxDS+EvbDfCEkUYS77ssyOqF9wakME+K4f3&#xa;+IsmsLcwCNqNlSdTsoVBZLAAqtLaTKrWNyeJBfT2nSYmCTZ1GZRMRt5+EGoi&#xa;YkMXQg9vBOGwx+Qy8RrbfJFCwXQlrzWwSlsGFcrHhoHdctj714/Ah5arZaaO&#xa;oCPuV/oBrr9RmyvYClZDDieAti7DLHIiLBNb54yAXLJrtTWy+kBXhrjbDNVe&#xa;wGwlbJK3UCjE3MYRel5tAWamqmzdTcpiH9gnScyUyp8Xa/A5EaoreUsbKnfy&#xa;pDhftAcuv4Ujt1yuS82106QOAcKSoFdlJKVQXFn3axTkt+EL74Nq7W8Widqo&#xa;ky1yC36MjZ3sNYByTqrWN5PEAvofflITkwRbQQvaOgav2nzHckNVG7qgTUvf&#xa;VSMStS2ESpRYT9zmi6hTJQGdjW1BhrKm++3eitjjLIMaxbm0RhWk2/llzrGg&#xa;SnP9rdpUD4avoXnE/XQnNfSJBFdnaOglbImEAL6DafgC42PGCqYhsESIRxsI&#xa;O478CISf6uYrqSS2npRkc0UYWReJITC1Ykd1L+EoYZoh6J8QrrN7ZP1+Le3t&#xa;6+pyPxqKk+fYY4/5/R8u13UC3bTVwgdQCmtwprd3WaHQh3p8T2sZOXJUd3e3&#xa;i+hbDtT78csPVu7STy/61Yc+dIDW41JreeWVV7Z466ZBW/YxvY7+GwVeCBy4&#xa;YrEfEr7+2gJziBNEisSPMvSDeXjGGWf84Izv6JFYae+8457NN98czSW09eCD&#xa;D+6+x3sT9JwA+uU9TqzB9d4BGU0wW8oCqGXGVn++tYLp81e/+vWnP3OkJlSD&#xa;rtmlmhEjRvb09FhiFOIMrRCWhWdyLWnewaQ4IwOV4K8pRgOSHk4kBNCVGe6Y&#xa;aXCROlQb1kprInY4dVUJVLcSh7Vu+0Z60RJ1XRmIsWxpfz6PD5QuJZKjP3Xk&#xa;b37zawTULkdmTVoPwoRriKotd9lllx34oYNdLIZXX319nXWn6oIUJ097sPpX&#xa;LJeuIWyJTfPd751+2mmnJst8//0PbrXltsiQ0NzMmfftsuuOLrJqKA+3dWcw&#xa;LfMll1x81CePUP2IN+xSI0g1J+2UjCO1K1MmeewIAbEfZcgwIfRtUZLpVEtS&#xa;zmmGpdJgwdq0xdykrQatI2eS4V0VmNlNJ5WcfTVmGol2VmLNcKdnskbCa0/t&#xa;OpTNFvVFgKKrBPSTt6xSEMdS2o3J4HwOBLRT7Rm82l5X4Lpf7pcGrUirAli1&#xa;/qpMC5RdhDrdaSshrcCJKSQ0rT2t78eAktx3Va63QSIEsMqar5IMA5ytJMOW&#xa;kO1KMhWVJi7lUt0k6Sv3OVswne0n9VLkFobK/Ej0C0ZkhsbwRVPXkWq5ahyp&#xa;1nckCKyaUdPGrelWBbCO2FcwnUjqWeGHLA3Jl3aSiRwRSWy+SjIMoCtDCCGE&#xa;kA6GrgwhhBBCOhi6MoQQQgjpYOjKEEIIIaSDoStDCCGEkA6GrgwhhBBCOhi6&#xa;MoQQQgjpYOjKDFsintIwbB9CFbyFsRNxr6nKKhYeSNplMWT6tSJvC08uiaOl&#xa;rgXKt0oG0652zONW/PxMGLvQlOiYfpGhAF9cQBywLx/Ya49BWQ6HFHBisPAU&#xa;37bdjqef/m2XFk+adzAtX1aw1zom4F9cEE9u5n0PbLbZ5ghhUOKs/+WXX3b0&#xa;p45wkRguu/QPBx74YReJYe7cueuuN81FYthjjz2vuvJPCDThRlgX9IU+/Ygd&#xa;9clPzJs3zx1rEGtdJmop9++HH3rttbmWHsf9M/+11VZbu0gUqBD090OwppEp&#xa;hD+vvjp3w43Ws6QWSWOZv/71r93/wH1R56zNauna7393xfjx4y01Dn1xwcdd&#xa;ZEBw+gGTJk3ebrvtku3MZptucdZZZ4Xf9UZIMnRlSHltGNnT1bnPLW0WsfhY&#xa;Z9+72x7XXXedvt84iYF2ZTAKNhzgmaefX3fdOuvi9ddft9/+H3SRGNrlyhxw&#xa;wIG/u/yPLtIM6JfT3oYbvWn27Bf8qwrTo0VQj3NAw+qKI9KVQam2LJPhehBe&#xa;unTppDXGWrRF0ljmD3xgz1tvuxGqUDXalAtrBrvsnJfmTpkyOVlJA+rKqCT1&#xa;+xJmhx12uOvOf+Yw1PXeKUuIwYkyrFFDLLYGaHS4+TEApl+fs56F9cfp0JjN&#xa;bTvhpTGbdV8eJWCLhC8yODTbWllME7up+SbjhT9YH7G3epqwY+3SmNWDHSQJ&#xa;vc5ssMjaKwJEIV4ztrd007BT0iqloddUlYryYvliQfSpHRkCHSBDG7oywxrY&#xa;C1sMbI8oLM5w23AWoNv60kEowVvPVYZvPf1K74fP79uNGgp9L6P8bVY9vqBM&#xa;tJqBSLPB04MwoFRCVMJany3hDVCrpKYHHQVRFMJoBYNrUd2I2OsbsVctZUbI&#xa;phN7sOWJwhQbnsxOzphNOpJTVaprqF2rGS1CKln1E52sWtRSuL0a5cJw2/TD&#xa;K9YiuYdDVeK0sUqRExNi6DJQf4lFziBz80tyIvAVsLzIatQW3UDIqlFIuakk&#xa;RZDJ9KMKuzbTBGElmcagQIs2Srhg0/I0imszaxdgoBm0K9dgZMv0yRboSvOt&#xa;SnRuVujWyRmzaUfkajH6VO97WkIcnCnDHdiLkJ0ZhvPBdVk/7g/SOpQCtwLp&#xa;0FQsA1XYMoy9BQaSYjaDD83wI9rRUMkuJDSMldK91GC9bq6qAKdAizRBuOzA&#xa;j4Ij3I5ezHBUncJIGTSR4oAANTLUsTMqtgTEZSUkBXRliBDYmmFoObzTgGWg&#xa;lRVxgKgjUuT9xdqXAUDuzGi28qxc0ZG/eltJNle7vKVCPU6brnotzSU2V5WV&#xa;QoeywXcZmtAgXiFW4UApPwprSy9mOKpOYaRI9wZPolRk9WJSAtoRRzhMSBx0&#xa;ZQiMxaDa3wFltelISiINfRPWX4vUtwbQbpMKLrm7PluebPLbHBdsAe1IuR6V&#xa;SvZxxKk0XIdVOJhLb5q2INUgSBRWZt0BqitPuAZ4mT42mLolnQVdGdIwMC1h&#xa;WzOkgLEbsrJVENxCO0TIyYpRf53AUqKryapcUZpez8IFEa56LmJyrf7XSVWt&#xa;29dtlYn1f3c2WMgcqxI4JY2eRNaKlWquxThQmdWHalF/eysnqw10ZUhazE6p&#xa;NTGDMkQnTyCbE69RozxIVFxjD2ty1WhVxxSq8royMcpqrGSIqDRZSEO+ykK3&#xa;sOXllhIJ6AbgvWWyuTpfdjhkvGQRRSXY29d6QT22N53gQCuP2muMkPcZqQHp&#xa;Wlm0RmjKYxBVmyTNNFmBSe42C9vlGT+IhIRJMAGEVGDWTRcGM3Pp1oDBJXjE&#xa;HWRz4qnAQ87ymUiBXGFNVmi1qRWlGXRM3d0nulTI8m9qDCmvQrZVRNhkmTwi&#xa;pAYisYfFQZOZgtxSIoFg06g8hK2+kjWbakSbQlUadnsPjgyiUS2Viv5hLdXf&#xa;u/mYk6sF0pw+NluQM+RdNQ9OWexVsWUl68/WyoNISJhBO+tIx2MWLRs822No&#xa;bsHjQWXvTXCrtnwA0B+d4lMsgl74cNil+O81BppgTC0MwWT5V0zIrkCkVazJ&#xa;YKU0Uav2kZvHPcLOr8vBfJaddFrRI0lYcasqqFDuGlbkEJZd+zOgONlz3nOS&#xa;IdOwRCFKaGo1j3UppBarMGKz5lSFVqSsjsaR5wbpH6khpGRpxVeLv2nGiwwT&#xa;+OICUibNU/n/+/jTEydOQkCMlljMoTl/TDYXeeqpp971P+9wkRje977dr7/u&#xa;RheJp10vLujtXbZixbJ47cmdKxMnTkQvgEuL4rrr/rL/AXu7SAxpXlyAT7wL&#xa;FlS/FMk3bevTiBF5fZuP/v6otSfK24sLXKQx0G7ZV7jl5r9tscUWkNTFo5g5&#xa;c+Ydd/xNviEK/QLcNI8oPutjsA4//OObbrqpHYoE5d54Y+H3v/89DZcrCcKY&#xa;bHJN4tXXXrn44ovb4s3Us8w4ml20aFFf30oENJr37apg+Cv/J02aVHc2xr24&#xa;AD3yU/Scc847+KBDrc5aNGfxvvvu23e/vTShYpgaZfz4iZ86+jOmXj9SXtte&#xa;pO9+93uWQghdGVImzTq9tLevq8tubMTMGXJ2BJYtsIDllHnz5k9be7KLxzDI&#xa;rozHG+jmaJcrAwK9ydULrz1bNiolrFBvc7TmykAeyCUSvPjCy2utNVVTonWI&#xa;bFdeecVhHznIxQOspy6SyVx91bV77ZX0KitU/+KLszfcaF0XH3jqujLhUUBf&#xa;vAbCYYCg9jRpjqV5B9ONN978nne/z0VqsEZnzXpm0802dkmteTNpWLkC9Sf1&#xa;iwwf0hpcQmqAEUm2tqsANe4VCy3C4UVrqBFagexvNbpIuPCAYpKE/RiAREsP&#xa;6bAiw6Ajq6MtnBo1AWMVFHcoPCUSintquhxhOdPU0z5sFOQ/mg01XeHHAM3W&#xa;BsFKxaRKgkbLeZrWRk3BClVXHm2yCbL6QVeGtAJNSduIs/yw3YPpOsS11fTK&#xa;NAA4b8YirdNUVRHXG9ooUmpkUCqbHSrDpHeDNUONGitUvSqUTDoAujKEEEII&#xa;6WDoyhBCCCGkg6ErQwghhJAOhq4MIYQQQjoYujKEEEII6WDoyhBCCCGkg6Er&#xa;QwghhJAOhq4MaQn/tJHK5z0M0rMfYlpflWSz8upeyGO41IEjO3jvYW6CSA0E&#xa;iR1nfCD2gMq8ahSS8EAjF1LSPFgonMdOBBchZIDhiwtImQZfXBDLzJn3/fe/&#xa;/3WRgcJELe2yy7s23HB9XWZihZ83b97a06e4SAwpX1zwxBNPuFA8b3nLW2DD&#xa;B8e5WrJkyUsvvWRhuAhVi4emZF577fVnn52l7+iJfWrZ1ltvvdVWW7tIS5Qu&#xa;ueQSFxQgjygiK+9tEmGKxWwuX/jc5z7X27vYcrTCiy+8MnWqvLgggSuu+GPt&#xa;iwuqqPviAtDX1zdrFtQYAbqmLzssvvji7A/stUdbHtj/04t+OWJEN+p08YFC&#xa;Jszv/3DZTTfdYHH1qCIaPfDAgz6w5wcDN7QWqedf/3rox+efa8UxFeMztwcu&#xa;XsRDV4aUacKV0fVJSlnA9ieccPwFF55nGQaY3C9/+cuPffQTul7GCt9GVyYB&#xa;M9xVzsRAo85B0RwFjdr6IVLYWCDxkUf/9ba3bavZYzntG98+5ZT/Q0ALWloz&#xa;oNGRPUlXFwIJ28NgujLAS26vdzANh/e9vUsmrTGhLa7M4NP60LR3cOvCxYt4&#xa;Ou4aLxlawHiFA7ZXc4apNQhbMZuBX4XmBtWBiAR9xwoX6GOQKBaxgqJVad3a&#xa;Dv7aWOBoJvQW67DqKresrL4YOAydFW8WG3rDKjdcACu+BToR1S0IRyv2pSJm&#xa;Y0t+jNRSgelw4DZrQkjwQkJShcuWt2w2j31w4ls2vydkwOFUI+1HDR8M+iBs&#xa;mWKpL2hUtoFGF/sI7BAcC1sOBkESA84T9mjXosBJ4AJZ9XUsAVRpL7SVxBTY&#xa;ihVU0ByoARUCVGiVG9WBmjW7MzCtmoqw181ULqOfzTV565LXhtVlDMp5BGxf&#xa;lqF2aCBVkBguW95UbAQsgw29hQkZDOjKkI6kbHblqozEbF0ZaNBSJP6QZRsE&#xa;SQxzYgIBJMWcG2CJiBaLfkWJP9+zgRemBP1oAleJth7ZnEsMN9dB+CEGFgz2&#xa;gt6Q1IxRtYtV4crBIKhIr6a4dn1ztVfOkEGPpuwaPRgy2DRz1hHiWVULUqhd&#xa;CawiKWLJ5gbJmofXPnVrqgZEormcP82TpLL1zCpsQZ9OIH0xcmRzHbnOVfoY&#xa;VcgxaEzzoHfNdVBK+cELfJoBt8/2/uqas7jchUovJ6FrzfWakPZAV4a0RGBz&#xa;k239gANLC2u7amUIE7o9ZWDx+gcIh6OKRFUzdVSDT90W0DXLL2xVK9zwpWqt&#xa;D6/9XrU1DkHzpHAdBhC7VGO0sVOEDBx0ZUh7WLUWD8sJVutVKEOUq9Cca9VY&#xa;H6q6XBWtXGWTTvbK7xR8uJkOtJUKmWv0KXdZN6XkVgm3qjo3vaf5/U7bTG5l&#xa;z1uttrJHsT/aX+WskuEmQx+6MoS0ASxhWMYMRNXgNuNatXdlLsoNME6kzv0K&#xa;wOtE+9EVWC3s0T25r1mj9bF62qvhAKkTeq77XDh/9at1gmE1/OCWTXpDPdXa&#xa;fNmhuy40cU6R4cDQnbKEdBZYOQyEmza4tjBXrlLN4wQSkTruTDeBZYWu1EZ/&#xa;sGxjjzxF7V0q1NVIc+GkGYJqK+6ersWOppc5mahqyg5r4z31ZcuVENIR0JUh&#xa;ZAhhay2WKF2HbClqdEFaPTBPxVZ9BMxSScBS9H6OBvwYo/HVPS2QBGj9Jm3C&#xa;1hUWQ7uAxGYoyU/o3TNdQr9FKifqZolJBBeTunzxIbmBqjAhDs4GQoYQ6sdg&#xa;OcFO9ppm+yapt4oNZeTagK76CNh1AglYit7PIe8KQOqq7aNvHQH9sZhJG7tl&#xa;s7V3oiC9GfTrKlOF7cPqkkTd6jtwKKt5+kPFh+AGqsKEOPjiAlKmXe9gGsQX&#xa;F2R++YvffOxjh7tIDG18ccE999ztQvHsvPMu6oi0ypw5c/TdSc0AAbAs2f62&#xa;2285/fRvugMxnHbat045+esu0gJoLvnFBen51S8vnjFjhvYCFVabKay50HFX&#xa;1wj/HJ04fnPxr//f//uViwSacZGAlC8uqAUyaG1OhkKhcOedd1g4EmRevHjJ&#xa;hw/az8Vb4+LfXLbWWmtpj6xftrojKGF9nUXx29/51t1336npsXzt/07bdddd&#xa;taBETbdDDZ0JEAubKBxd222397pjZNhDV4aUoSvjIvGkUdHyZYXQo1ya59zz&#xa;zjrppBNdpHFsXbIFoHbxrmLouTK5RQt7e3p6EPJd0D1Wa/x1o/Dd751+2mmn&#xa;WjgGEUZLJ2mgaVemCYrFYs8o92VQslR1WbJ4xYgRI7w2IjnllJN/+KPvu0gM&#xa;jzz837e85S3m/bikIUl4JrgkQpQhPXEJ6Siqz6bm7G2Ly5uhFt+tlG2pcNBx&#xa;Xx9AeLvuYquXvnDKAnI0Bainzq24LdJQ5V5sfZN2G5bkNDWkbCXwY4bubEFH&#xa;0BX8D3TeiRObDAh0ZQhpF9Vf3je3gKZceJJRW18tTyei65YLh2lOtwNBQ+Pl&#xa;xba3SQyoj+VpsJU2TL+Bw7oS6HxIi0oGE7oyhBBCCOlg6MoQQgghpIOhK0MI&#xa;IYSQDoauDCGEEEI6GLoyhBBCCOlg6MoQQgghpIOhK0MIIYSQDoauDCFDDn1q&#xa;hn8WCE7SOo9XrsKeuqH78AmOcPz5Li8mlBbDD0mxcFiYFE8oCZWvoEqSNFTL&#xa;M3A0+niXwXkeTHvItvp4Ievs4AwEIc3BFxeQMnxxgYvEM5gvLnj4kYfuvfde&#xa;fdJdbG3XX3/9dddda2F9mlz4dEYpWcZ23333fffdP3hiXnRVb9tu++22e5uL&#xa;hMACFlQpdT/33HOlEjQQuzouX758m223QKBGGEETpfiPfnR2T0+3psV27cgj&#xa;js7n5QH/qMecs1pSvLgg87GPfXynnXZCoFgs2usetT7rhakot9GGm6y//gaR&#xa;MnsmT548YcIEF2kB/+KCZM4999wRI0aouqKBqLvu8j89PT0mtt/bIQSKRSi8&#xa;9OWvnPjnP19jReKwFxe4SCW+5pUrV86ZMwcBdyAdVtZFhNKECROhSRcjpE3Q&#xa;lSFlWnFlzORZmK5MO1wZnJhZVIOFIGH5uO76P++//741C4agiZC2eNmlfzzw&#xa;wA9p1B2qJeSyRCLCLFu2dMLEcbr2J2DOQZko2XIrV8hrnBMaxaFi0c8oaV0D&#xa;1aRxZe6f+a+tt94aAWvLGvV7Y+bMmTvvsoOLRAFJzjjjjOM//yUXb4FkVyZQ&#xa;l1NRMh/Ya49bb725dugbJcGV8dxzz93v2e1/6o1+Eta1Yz7zeXhpLomQNtG6&#xa;wSVECL+guHXbOszRJVbW8UIBugTFuE2/GIpWuCbKJYdsDnt8Rq8uW7n5IpFA&#xa;IDgWXViMJJLFSox2I7fqpS5UJ47KPptFcwAShQWo2mRGBVKZQppEW5LGQo1a&#xa;qCARQaIud0VfypuWcEKEMrcXNCSVqwNnSgAWqN58Tt3LcGgpAVHbLNGnNwSq&#xa;dSGpMAhkEsY9bgMuYApsTh5CkrGpRkirYD1wIcyqdny9MpyBMmHwsVcHMQt9&#xa;xuEKJIFlHEuaDEoClrV2mdEEG1mEsIhKuFQqIByzxYEm5Kj6MdKcazgGtOs9&#xa;GO/TNAc6hRqsVt0DWeDz+byLadTlruhLeHOz2hwIBMol2oa04iVBc/l87NDD&#xa;PcXOD4e6NE5HiNqGCiW1Kd2ZGFbWV1DK9IUUknIDLoCh12gz8hCSTBpTSEh9&#xa;QouBXEJ3IdIUWKXMjykURJMIx22WPxFxCywz8AWrNuRDtmDZq6oWI4uUcqJ+&#xa;4m8StGCXdhBIkCeQxKSSgCQFiQ1h5cqXX1yjQGoOWrQZm2QPrSzmOfYalRQ7&#xa;1Ea0EakWIhUKJlvUVii7dyqSnX2Q3zbDBcLnZnoghhUMlU7STzxOJHVhc63f&#xa;hkxILc1NTUKSaM50EgPKw1oFHWKfz8sZapcNItH8TtsxHoas3/IxXi/wxIF8&#xa;WBotYHsjWC9t4XQR/cQfR5xJKS9gslRnrQZtOwbN4AVwWV2kAUR3+JPNImBh&#xa;2cmVGqyquaJUqmjmOqsssvkF3qIWaB9l7cmll0SQx5we3Zvk6I4PAxewbI1i&#xa;TYBQ6Tr6iQGlnHiy6TU5QtoLZxUhQwusHLaKYK/h8FqSRMKKhSMpKwE+Z7hC&#xa;v7A1QUTZUp3rOr5l7X5q0SNwq6+JENSEiNRaKooBbLSJUOZWBIvES1u+6JKA&#xa;KrbChremq2hqR6812lwdIYCuDGkPA2FD0+DbbbfBHTySJa+r15Dm3ULYLmpc&#xa;kDQqjpChlbmBoq14Ud7E1YgQ1JotaBOpntyDjqCU+hkS8HU23sFYwxuIld4y&#xa;t23QteWIjljnSplCI1K5i2FRJOlKtWoZYrNZhsZ1TlZn6MqQ9qDfXzhaW3tS&#xa;4ZtAwIKdaNkCo2wxR9hGt2av5ezWH7M0fJrHDKCrp5XxDcq20q8GyuoXLtVq&#xa;DKvd7onOyDqdjCkTWWWH/yju9eAD6WRDVd7/MJWWByiQra48ivuyJsFvqAMK&#xa;+rLacmw92QwmUp3ehcSQrzVdsBFCWvVSVddjGUJtERI6hQhpjvDCYDRnxRqi&#xa;3IT8IsYFVzX+bHKBBGNrhwJzXN0BJNsPbgPq9zDKsksNuii64gnygJAawwNo&#xa;Ids7kVoZ36BsoijxaBfwPxCg3o0X1pyWKstc1lW2ABe8UICK6spT7ntl7ysi&#xa;KeoB4ZG1cDilAYIrJU0WB9od60J4XwUSJb2q57UgQyu3hIcwqaQ5jJUNFxJ8&#xa;IiFV0JUhrVK7iCJFLwYM4Iap69qVuy4Gz7pViRHeXI7Q0pJg+SsPVSsQR+1S&#xa;SqDb6gxlskVtXTIEkiCMsrIhLIIFvxlJkEcr8IflCxQL2V/sfUrQSqObSuJF&#xa;anbIvDyObL/WFiuV6kGO6+Z64fuCyVMsZnK5fCnTr7JVFw9tUhxoAMXLEuB/&#xa;SDn2ty42OuXKFR+1rX5t+qCXYjYzQsLVxVNtJoarTDoiobJ+HO7GnXDBms0y&#xa;IGe660mJoDlUpe2iYbn/HYmqEJ9ISAV2nhPSTmBrYNEGdIMFN4tmz3+zdgeB&#xa;KjHCm8shfkxDpxV6YZsLBwuYT6mDtm6YJCgCGWRzifIzHckZ1ByBLh5uC8tg&#xa;AZT3XyAGrTS6iSReJHXUyl1Ov1WJlyl1abWxUqke5LgVyefxR8K2Ad2XcnKv&#xa;DGSrLh7a0LqAgF9QfQ2mHExFW3SVsszhzYoEo1OuXPFR22RQ4nD1iJOaK2X6&#xa;ooqn2kwM/SVXqCOyq2jbmgsXrNksgysFFamWmsSEKbmJawo31ZkOreZ47ZDh&#xa;B19cQMq068UFV155xV133WXhgeawwz6yw45vw8dT/QEzEiK60MYXF5xwwvEu&#xa;VI22rbeCnn322XXt+LLlS1au6PfSIr9fBjzjxo2TXwwn8thj//nZz35mxXM5&#xa;KAFrG+qxhRaVS61HHnnE1ltv4wrEgHyLFi3SSuTJtuqNmRMgAasfGX70ox9p&#xa;2A41gQiF6r/+9a91dcm1hCYwYSz8l79cO3Pmg4l3umQPPfSQTTfdzMXkIkQJ&#xa;WlLllHn00Uf++Mc/ukgM++2337vf/R5VEQRwiWFMqoULF1ZVXkVfX9+3v326&#xa;i1R0x0q5qs8551wbSotWgSIo+NOfXvT444/DL9SoKNYXb4iPfewTG2+8gbVl&#xa;wgcilafBww8/dOWVV2o4GhR86uknbrrppqBINMce83ntWh0WLnwjm+0qFu2q&#xa;m6/QywNK48dPSFY1GT7QlSFlmnBlAgNaBZKGkIlpoyuTglR9P/pTn7j44oux&#xa;AIXtfliZCM96Zs6MGdOSa7MlzUVChKpKJc/cuXPXXQ9tOVBnsJiV2X+/D//+&#xa;939wkSYxYUobbrjh7Jeec2kNEpbthedfnjatLHYkWIAPPexALWVFpayvBCtl&#xa;qVS4+qpr99rrg5o9DpNcQzE6B0uWLFlj8jgXieGtb93qwQf+jUBCPSkJjXJL&#xa;XHLJxUd98uO+tpBynNIQ/uv1N++223vlcDzPPPPM5ltsYmUr3Y4ydV0ZiAFv&#xa;b/SYntrigWDijwIuXsSD2UZI87TFkq5epF2e1ChXGOuwMhHGEovaXDwGayxY&#xa;PGQZqAFJCUej8RWGwYd/F0hdj0crxGbCyHUEJKbVVCVh2dJUoPfBWCn5ekvT&#xa;7MqTFIeS04lheSrEDktipKnKlwoyV1TiK0gjVKUAcDpcqBF8DdCJE0mrlaUB&#xa;foxFQZquIYuWNSL8mDRoBWjLFy8vUkHlfhwJcdCVIQNBMzZ1tSGdmW3nqRda&#xa;XO1vlQzVR1ukiXpUQhND9rYUtWNBcl1LIuJXTm6ZtPYbEaOiuTSrewoqKvGy&#xa;pBMqXDbblDp9DaKTkCpMRdh7XaWpvS0KqcIJQEgCdGUIIYQQ0sHQlSGEEEJI&#xa;B0NXhhBCCCEdDF0ZQgghhHQwdGUIIYQQ0sHQlSGEEEJIB0NXhhBCCCEdDF0Z&#xa;0ihuzrTnmRoDSUme6+XCg09TD/kwnIZbf+yKdt8qabSqTrEMbetdsrZDE6nR&#xa;tqpp09NonMBe7NBYDxEip1Cu8e53ylQkqxK+uICUqfvigmw2//pr80ePHqcP&#xa;oh3SwGJ6K//iiy++ZdMNLRxHyhcX9PfLo2OjMINbhIr0nYUCjHbc+nj0p478&#xa;zW9+7SIxPPTgY295yyYu0gwQSR4vls/n9M1KlhjN/Pnz99t/b330rb0nGQX9&#xa;EiJhqPNd79zt9NO/7dJaY8ON3jR79gsuEsPWW287atQoebtWqV+fnV9e0ryc&#xa;l1x86YwZ69jLB+xQLddff90Pf3SGTgdd7av7KPtTTv7ae9/7Pl1kY0+BXC6b&#xa;y1nBWHp7eyetMdZFYthkk7f8+1+PJDSUEnRnxAiRJ2GapcReXOAiMdzw11uS&#xa;X1wAMebMmXPIIYeUMn3BYMn0Cw8c+NABHz7++BNcJIZisfDud787myvIkJVy&#xa;may8t9yOhAN33nGPhgmhK0NCpHkHU/KyMRQwJya8dwcSSenKpFHR8mWFuq+B&#xa;rOvKBJKjHlsPmkOKX37ZFR/60AGo0qWlwFRn4fBKiUCQ3BJpXJlFC5f19PRA&#xa;ktrXN6p4+Jv97vdOP+20Uy0xjpn3PbT11ttYj2prQz3FYumBB+7feZcdXFIM&#xa;Z5zxwxOOPzGsjVrSuDKe9JOzFiu7ZPGK7u5ujSZJVZe2uDLAlGzCNC1ScvFs&#xa;rlgq1jm5yDCEc4I0Ro0fgyk0tDaY06p98Cm8LVQ3V7lZhtbp0lUBYtvH0OY2&#xa;IG6QvsjaHJDktSV81IchiIUlgAWmXiVtxFrMFuFrlKpeu1MZq+54eMuoW2ke&#xa;TDHkx+CPbNaEVhcuVbuJ92DtqhJaB5PTNyrRhragrBMm6NQqxoQpluTKZfCS&#xa;dj9nvIiWEouOiPQIXoslhMuW9KXmQZ2EOORkIKQJ1LIDmJshtGFVqgpga+tl&#xa;JFdn1RY0Zxlax96AWFAdl1tpcHMEIwWS1hCfTdcS+H8Wwx8L4bgLDNYq4lpU&#xa;Ydw9FrqEW4oJI8Dbqem732xNhT8EbyaHvZbAHsX9ZoRL1W6GZG7db1DhUSfM&#xa;r1QeRBvagOxNIUMAE0OcwqxzxNE7Ua+NmBcTgUSRccxlLroXfVolVkbC+KOx&#xa;8BQgwx26MqQhbMLIXkzW0Js/3rKHTfwg2Lxwc+1Cv8vD3yaVHPTaPsHXx+fy&#xa;2vIB1GAfkYOUAddnJtPl/sraVpY/aiTRQReKQpwekV/2phPLLXukAwtoYpKq&#xa;gzwig4WjhEmFFvenUtoBimEQxqI+/hSzq18+amiKC1cdqqF8FBlNMQiESpW1&#xa;1ZLayOrFkFuKyNCm/HFQ9xYYioQtZmtLxaBiYtveX0wKdaUBgl43PEZWDnuv&#xa;NshjNyhYSnPyNIhclzJl6Oa7I7rxA5rN2HdwCcjR8GQIKnQpYYUnVIUMQU5R&#xa;goW9fpoCbfmtXbQkUCuYKjAuxaJdj6nArtA0fhpCyVIkKGd/TPeEVEBXhrTC&#xa;0J0/jdvNttGKrTWxsdc6TL3FFrvSkCq06TryD5pqww2FpdKwHLPbMlIqvDKX&#xa;FE8/Ul6H+BsqNFiKSEf67gwQEKBKBouZ9lKKVzldw0UQlkMVxwlR6MqQsGn2&#xa;V/VT0sYPlKuYhtb7OMxYt6UqraM96g2WkFRSpVxvBp5o0wTpAu2KnGkUjqPW&#xa;p8pcTXYTtSW0tmq1l6iG1mmmayZSQ2pJzLwq1UuGMnRliDM3aqHlM+4wp+nF&#xa;CAX9Kle/khJOvWF69qXTcJUbB8WKbiNX6+SVEkeDu33jSD5aQWVb1e0muTlt&#xa;pSHnoBVCDQ1S1whpAroywx0YXzNWg2YchybafVFFvWUvlvAqVn9Fkx/deAbU&#xa;rXE/9unw8YXw1Tdb+A4lOhByUy36rpndVDcQDgpaav1RiGmo7mC3H5Okckyb&#xa;FyPoV1X3RSF6qL5mCFm1cIIOd2ANYaxCZn2Ygu4HqggvDw3QUEHN7L0ZBNrz&#xa;XVIURf01Mjpo0VVFufmmJVGlobArn64e92sazSzjG4ABtxFvYBT8EFeeLOVx&#xa;H8STSEy3NRcIVRajUbI5UYXvPsJBtPxDcQ0QMkShKzPcUYOOvZlp+/g13DYh&#xa;lx1hqqhHVdnyhtJBhvpLWuWjbqwGH2jPZmtPNiuvLdDKVy0iTKAW25tUZYEr&#xa;t7jbtsojFAwWMts+bnMgP7ZglPFf/2AZd8/fs5zhguENOS2/ZPJh2dyT3ITg&#xa;JALhsgOxoVELyMnbAihcypTs2pV7kiTCgUL8VRl7PA8hQxSZo2Q4A+MbMoXy&#xa;8Wv4bSBXyqxUVYgubLmKoaps1SYZbJ0DifXIqRfkLJdt42aLEHymkixUSFmV&#xa;WEdVw14SCzhpa7b+wOMp4/Vqf2S9lT4iMwiXrdhUyVIV8mJTGbREQPDAPWQG&#xa;FWVDmzSne8nkw7JVPEcf6ZK5suxAbK4J1UFlfxoDHYc7hqpkqkhctRsoxF+V&#xa;yeRy+dYaImQA4TuYiBgv2qgQ0IWa82aBxdcFYMiQLWRKbXx1QzPYHFPNSKAV&#xa;/QTTVYYpCDeH1BAerOT3+7TW1kBhUlkvmpZQC4o2XDxEUKcc94oiZKjBqzKk&#xa;SfO3mhFY6WiDnh7Uk9Li27o+cJR7JH7MkBhj1YwuuakQmcN5LayLrsQ0rMFE&#xa;4lur8GNA8nsKm74ffGBwyjENWC+aPpG1oNOD14erUjwYjfkDhAw9eFWGEEII&#xa;IR0Mr8oQQgghpIOhK0MIIYSQDoauDCGEEEI6GLoyhBBCCOlg6MoQQgghpIOh&#xa;K0MIIYSQDoauDCGEEEI6GLoyhBBCCOlg6MoQQgghpIOhK0MIIYSQDoauDCGE&#xa;EEI6GLoyhBBCCOlg6MoQQgghpIOhK0MIIYSQDoauDCGEEEI6GLoyhBBCCOlg&#xa;6MoQQgghpIOhK0MIIYSQDoauDCGEEEI6GLoyhBBCCOlg6MoQQgghpIOhK0MI&#xa;IYSQDoauDCGEEEI6GLoyhBBCCOlg6MoQQgghpIOhK0MIIYSQDoauDCGEEEI6&#xa;GLoyhBBCCOlg6MoQQgghpIOhK0MIIYSQDoauDCGEEEI6GLoyhBBCCOlg6MoQ&#xa;QgghpIOhK0MIIYSQDoauDCGEEEI6GLoyhBBCCOlg6MoQQgghpIOhK0MIIYSQ&#xa;DoauDCGEEEI6GLoyhBBCCOlg6MoQQgghpIOhK0MIIYSQDoauDCGEEEI6GLoy&#xa;hBBCCOlg6MoQQgghpIOhK0MIIYSQDoauDCGEEEI6GLoyhBBCCOlg6MoQQggh&#xa;pIOhK0MIIYSQDoauDCGEEEI6GLoyhBBCCOlg6MoQQgghpIOhK0MIIYSQDoau&#xa;DCGEEEI6GLoyhBBCCOlg6MoQQgghpIOhK0MIIYSQDoauDCGEEEI6GLoyhBBC&#xa;COlg6MoQQgghpIOhK0MIIYSQDoauDCGEEEI6GLoyhBBCCOlg6MoQQgghpIOh&#xa;K0MIIYSQDoauDCGEEEI6GLoyhBBCCOlg6MoQQgghpIOhK0MIIYSQDoauDCGE&#xa;EEI6GLoyhBBCCOlg6MoQQgghpIOhK0MIIYSQDoauDCGEEEI6GLoyhBBCCOlg&#xa;6MoQQgghpIOhK0MIIYSQDoauDCGEEEI6GLoyhBBCCOlg6MoQQgghpIOhK0MI&#xa;IYSQDoauDCGEEEI6GLoyhBBCCOlg6MoQQgghpIOhK0MIIYSQDoauDCGEEEI6&#xa;GLoyhBBCCOlg6MoQQgghpIOhK0MIIYSQDoauDCGEEEI6GLoyhBBCCOlg6MoQ&#xa;QgghpIOhK0MIIYSQDoauDCGEEEI6GLoyhAw7siUXCFMqlbJZDei+No8dbStR&#xa;coQolYrWaLhpE8yEVIJKxJhZWDqSrVc5IWS1ga4MIcMKWeDhB8Ah8L6LW/uz&#xa;2ZKu/vaniOOBO4OctkM2DbcBbTrkoUSRy+WsNd8mJK/ytLKBU1MqoBeQvYgU&#xa;5Iewlk4IWe3JrlzRHsNECOlEzK2B44KPNblstqj+SrGIaOAihFwHyYxoUcIt&#xa;oo5U4G2IYxU0owKJUyJ5IFKmBOHsoPlh5lDp0Xwui6OFbFlad4wQMpygK0PI&#xa;sCPsRpTUbxAXQrwI+VfMFHP2bQ2yiBuBDOJdSAr+q+vTOnV9DnFpkEeutSCc&#xa;FZntH+LwtOB2ZTIrM8WuUg45c6VSQS4yi5AQT6SW44SQYQFdGUKGHaVS0b67&#xa;EackJy5FUa5wmDeTWbyk/5XFSxcvyy5cUViyorR8Zf/SPvgROXV3EICHIY6F&#xa;qystxaqvs82dymbVAxHMG6nIli3lisViJpfNZzNjunPdI4pju0eM68mtMaZr&#xa;8qjspHGjNZdUlNNy0iPdifdDw0bIsIGuDCHDDnMjwmHEXpy34qU3Vr7eu3zu&#xa;YvEFCplSzmxDKVvUkIsqxVYveRTRhPpDcFzc91XiJWFTpK3g4o+0BU/KYkEi&#xa;XLGpozOTJ3TPmJBfZ9IYvXikLgyyOD9GqtC8hJDVHLoyhAw75PpKsMr3Li8+&#xa;+3rvC2/0zV1chG9RysFpkIAelAskzueQqzGWaJ5HxSWWRvCOi7hQ2pCvyh2q&#xa;TylfUmfIOjJtfH69ST0brjlizMhu+DFyo08ONbu8hJDVHroyhAwv7CsYBHpX&#xa;9D/9au9z80rzlvYVs5l8cHetol/YVAIvJ1uUix8SbuZ6R5WnIvWrKxPhweTg&#xa;N4mzA4clB9fKpSqBAxRGqpoyJvemySM3WWvUmJFdKJiTTLwqQ8iwgK4MIasl&#xa;OK9tIXcBWd3FddCkbObpVxY/+Wr/3MX94jAEXza1EVctWhLfx/kiLrFYKsit&#xa;OkjoVy+kiCgcKTBxdNeMiSMmjhkxaXTX2O78iK5ctzpUK4uZvv7ikpWFBUv7&#xa;3+jte+mNvjeWomymkIMHhpKSSZ0euULz5rVGbjJ1LFLiupYTEVyYELIaQFeG&#xa;kNUSnNfOg4EvIU4F9vp1zLwlKx+f0/vMvP7CAJ765rvIlRH5Eijbnyl1IY6Y&#xa;pnvPBp5GtpjNzBjftcnU0RuuMWKEeS4B3hepdUr6VhZnze97au7S2Qv78tJT&#xa;VyfIZ3ObrNm96dqjJ4/tRtHApSOErLbQlSFk9SRY/u0Edw7BC/NXPvbSklfk&#xa;YkxWrk4I7qpGe0HT+oskaVQTrAm0Jc0VMiX4Hzi00Vo9268/ZlxPVy6TLeaK&#xa;epGlP5vNx0gliag2l+sqZgrIXsyUFi/vn/lc76zXVqA2eEVoVz2b3NRxXW+d&#xa;MepNa/SI+1SUB9To7TPWZULIagVdGUJWQ+wyjF2TQFB/L5R5dM6Sx15evnh5&#xa;sZTNdYlfEL6Zt33Ag5LfReuXSIEf01cs5DOFUi4vF2EyxWwpN21ibseNxk8Z&#xa;3Q3nJFcqFrKlfLarWMhkc3o7jtwgg0DZm5HfUcERkWf5Sn9yUl1/HqlorJid&#xa;17vy/ucWz57fB49I3ZZ8qdQ3duSILaeP3mzt0eLRScPwk3hHMCGrIXRlCFkt&#xa;ES8i/KXMw7MXPfJS34pCEWG5BKJXa+Qyhqzu3udoFbsYg9rgTOj1lWxJPBC4&#xa;JOKaaLuFCT0jd3rzuPUmjlD53NUXeCjFnNz64iWxquyoSCreSfmQXpWBJ4M0&#xa;tFWCd4aOPL+w759PLl7SVwTi92QyI0fkt1y3e6vp43E8U0Ql1pa4cISQ1Qa6&#xa;MoSsttiajf2/X3rjX7P7V5bkUTFY+813saM+6sq0hyK8kGymW38yLTVb/Xpb&#xa;TPf7Np/QMwIuhXgbBfmVUU4urKjzIQ+zCblfcaD2vHpjIrk4ZcW8PCQPTRSX&#xa;9+Vufvz1uQsKJfFaxG/ryme3nTFmq3XlRmCVhX4MIasbdGUIWV3BqS2L9uMv&#xa;L5n54rK+Pln41Q2Q71rg09i+3Yj3AOReHMEuukginJvNpk/YZeOx8thgaTwP&#xa;VwpuRfgJMXJEvgASsfSqTFk+H0VAO+EcNSTKb7NwUC4x9WfkPpvs3U8teXzO&#xa;YsmZyRWzxdH5/Dbr9Ww+bay6SZLcZs+NELJKoStDyGoJzmtZt5+dt2zmc71L&#xa;VpSqPYOS/JJ5gFwZ/WJI78YJQHPv2GTCFtN7EBbJnNsimKC2d9HQ0Wrg+shh&#xa;DcYXxO7Rl5f/46mFem0GFCd053fYYOx6U0ZplBCyWmHnOSEOrHbhBa82HL78&#xa;XxHWj8iGDzSE1ab7cqMg3EoV+CQeBCqKBPjEyKOrA35QZKvp5YJlfY/NWQo/&#xa;BuGC5C3nwBi124/BWGDTr66yIyyMVJkYpaz3YzSlQlYbXj/IEqjtiSfwY0B0&#xa;QT2OHZpDo+pUySRZuLLwyMtL5y9dKbl8GSVhgrUdCOg7N5jtBljbYfWGBkJn&#xa;UTnsjoQzEzJEoStDKsBn95z7ja6gl+gdFna+g4KVsXxcrvHL35ARdET6GaGK&#xa;BRRBLtsQs0SPLMLy3kGHldUl003gsJxFLGQaCyVWV7jaYH10qqvopUT+8+KS&#xa;VxdbVBwX+SKmTZR1W9lq4M3I7brFrLwAAcOx2fRRm6890g7L3BhQqxPMQ4BG&#xa;N117tHwBJRRfWdT3nzlLNOymkKFTbpCALF5hoXZlgsuf4JDkqtJre7Arc+Gq&#xa;XVgkECyWCZ47aCJJ6sDIQ0h7oCtDqikmPgnV1gnYPHU+nO3DgoVSZuxCBlpA&#xa;ol/2XAb5isC1ImEk6q0PikTNeuIv/khUf4mTLeU1g2YuoDxyil22OrNYN3Wh&#xa;Rs3IZzKgCSff6otf/MJYr59+tfepeX2lYp8kFcURtLdCtoWyYp2LKUMo6haB&#xa;RO/Y54sYlcz0iSPfsfH4HBxkHSq5oUWEEYdTC7YPbRqVowmA5tDozm8eN32i&#xa;/fRJbN0Tr/X995VexLz4g45vWJTlgpi/6lIEThgOQJkWbjP2QcXOGlEZWtEz&#xa;0ZLlvx7CXgQI3lMBVp3GCKkPXRlSAUyYLTkgZGoRxtoj7oIByys/ONG4FpHf&#xa;nVj2YO/KehcHWBrWN7glL8956e//uOPaK6+888479fFlclS9E2RALiRk57z0&#xa;wt///vdrrv7D3XffpfVL+VI+m83DbZFK/TNCSlg1i6XFvb133HXnspXyJQJQ&#xa;wYK2V1P8ShMGvV6yov+/ry6Xo1l5zG4ml5f7bCs+jrcJ52Lqrbtyy620npPH&#xa;1uT688WJ3V3v23xSXp0bGz5IUJLZIk/Ia6c3g6rELc5L5ZagjChl37f55PE9&#xa;uYL2PVcoPfPa0mXL5aUHq4TgBd8yMKHLn5i/qhw9qN+heee+zbjzxaSATrAC&#xa;dMm5JWeLfbrQh0BDdb29vXfefdfy5StEIhu7gRGJkNbhbb8kArFtNfNCP/TK&#xa;48dsL7+jLdviWMRC6hUUH33sscd+fM4Pb739diSijo995KOnfuNbdtTz38cf&#xa;/fE5595y+y2wtIVS9iMf+cg3Tjsd6c89/8xPfnw+5ED4u9/7YVdXF9YDq//h&#xa;h//98cMP6126ePLkyddcc8PUqWuhNfRieNrfh19YfP8Ly0r5fLbUn810Ya0c&#xa;oKVRx8K+VMKMsY9GRXFdxLXI7bHV+PXXGCU/k5brb0iTnHl5IN5AfYgKKtc5&#xa;inkh3zcVn13Qd9O/54sY+Rx8qLevM3qr9cZZfpXTgoML5n7RXamSWNivgy+P&#xa;Dwp6stSehq2DkbJ2n3vu2Qt+fHamlCvms9/79g9GjHTvecDBRx5++OMfO7S3&#xa;d/HEyWv86U84m6ZZURzVACFDi4EyKKSjiTSgsLbwG3oXL37qqSf/dtttf73x&#xa;r/AeXnvtVfvEpkQUKxbdNW3jwQcfPHD/vW/7298Q1t/QoDRKSUG/ovzroQc/&#xa;tP++N//tFhzSpc++sBCp5s9740/X/hn86c/X9/X1mR9j9V/+u0t7ly3NZkbM&#xa;X7D4qquutBLD049ZvLzw7Pw+fdaK6K8g77N2hwYGufCjl2TMrZFxBdPWyK+3&#xa;Rk/BBte+QVGDM3B+DAgqlzmBoDwsL5N906TutdYYiSVanzWcmTVvOVSk2SoY&#xa;YC1VUspj3i5ZsvjJJ5+4/fbbrr/h+ocfeejVV+fKlFc/RrIEZ0S7sNPB/Bic&#xa;U/PnL7jmL9ddc9211/7pmpXyvRzas0OZyy777ZKlS0vZ/PwFC6+66iopFhQk&#xa;ZAgygDaFrE4sXPjGb/7fL/d8//vett1We3/w/Z/59FEnHH/chz+8z6677LjD&#xa;9tt8+/TT4N/ohfFqYP3gbSAA0wnn4/9O+XI/4qXSiBEjDj3s8B/+8JzDP36E&#xa;GVD50JzJIM/XT5Y88Gy6u7sPO+yjZ5xx7uGf+DiKyFNR5I4MWZ6zGXmSrF2P&#xa;MYs/ffp0cYay/ZliYcaMGWp2h6nlfW7e0nlLCzn9oC8PnVP9DBjmvsitvhgj&#xa;gCS0iLHYaYMJEsZAYND0fUxG4LOK09NWpELvEAM0imkgX15mMjtvOFa/QJE8&#xa;r/f2Q0WapSL/oIGz6f/9Rs6m7bbd0s6m4z9/7Ic/dMD/7LrTDttvi7Pp6aef&#xa;clnbip2Jhp44xXwJJ5rqLSNPK8SEMYXgbMLZhg3RGdOnS1JlcUKGFHRlSDW2&#xa;GnkKhcJZZ531zl13+u53v/3MM89Yosujr8hZtGjRxRf/v70+uMcRRx6Oj5WS&#xa;HmDZ1KuQ/cyZM30N5//kZ6d94/S999l3gw02tBRZdLKZmffd++SsZ9RpKZ3/&#xa;k59+47TT99ln3w032ARLolhS5MjC8mLD2inVemkPO/Sje+yx5+hRY/fb74A9&#xa;9thD07Gr6Msw4YX5K33H/f0xA7Nm9+slGWdGdATFa8EH/A2n9qw5Tq7WiCTh&#xa;tvV7poFDKq9sQLzfUmnNsSM2mjYKghTl9QXZF19fgSMuR8DAqKiCYn/h7LPO&#xa;xNn0ve/I2QRJLN0CmNY4my659OK9PrD7kUcc/uorFWdT6/jmDETRIrRVgsdr&#xa;8yT4nuvQwz76v3vs2TN6tJxNe+5u06mqOCFDB94rQ6qBLfM2Ha7JF7/wufvu&#xa;u89bsQ033PjNb37zOuus093d/fLLL7/wwgv/fvCh/lI/jB3yTJo06ayzf7zz&#xa;zrsgJyrBIuJMpHL5ZZecdtqp8EU2WH+TG268WQ9VZACXXX7JN79xGqz6Bhu+&#xa;6YYb5HsonwciPPDAA4cecqAmZh76139Gjx5tYWAC2nUaBPCJU3+qLWWRYCu7&#xa;75pJKyElFNXDrgiIM99OpFrC2su5OykHByfSnDdW3PDYIksaeOQDvfmUGhYX&#xa;U956XcwcvP2U8WO6RBVyazZWylX1qQnTQG87zmYW9fb/fubr8p4nVdSeb50w&#xa;fYI9MS9hoNsGVPHq669+4YTPzrz/XvsMAOxsmrHuOj3dI+fMmSNn00MP9MvX&#xa;gsIaa6zxw7PO3mXnd1nU0JkZhAPPQyewJEgkQI+6WRHJgw/Gnk2GvE1CroU6&#xa;RE1wjvGhQr1TN+yBSHa0nhpN9Eo5Qz3Sd1fkw5UrUb3QnC5Mhj2ryr6QoQvs&#xa;iJmjuXPnfuiAfWbOnJmXa/SFPfbY83e/u+KGv9587nk/OenLJx9/wonf+/6Z&#xa;l1/2h5tv/9unP31MT488AG3BgoVHH3n49ddfh7AaI7NsYqhg6V549jkEMqWu&#xa;9dZbR753ECosFJp5btazOV0g11t3fUQt2f6IvZOPkYKfuF5aNaZlSxoEZO8v&#xa;jFtm3XxGARFICxMtWYIDvja9Y6eMpun/UA3ApHV7PTQYfkz5DNZvBzKlOQuW&#xa;u4QBR9QiKnLLDkSRm39zpeLUCfkJY0doIrQHLaxCO2P3IwsQCYJBPEuZM3+l&#xa;rKE2kjbQlQPaFlQ9aK4097VXD9h/X+/H7LHHHpdd/kc49DibvnzSyZ8//ovf&#xa;/8EPL//dH2669Y5Pf/rTI3tEe/Pnz//UkUdcf91fEPa9CP6KtNgKKrPKjy3w&#xa;KhFRP8YmMxKLUoGf2g5fZxzyiis9X6QOd9bY7UZ2P48Wl/vdJE9ObmLWrDXV&#xa;hlJcnoASipe/t0Kd5p3oPXT4G+SVP/KWrTD0Y0iIVWhiyBCmmCn09X/xi8e+&#xa;+uqrpWwu1z3iW98+47wfX7Dtdtt5WwnjKHYtU5w+fcYXT/zy5b+7Yvo6codK&#xa;oZT92tdOeu7ZWWJM4QXowoFSsHQLe/UGhWz/mDHj7G5QsWUe2K9sZunS5bDO&#xa;qAd5ivolkhlT2SNv8HHWrBqqlgzOm9G8CLto1ts+RF26Ps9GBApqwOfOpXJ7&#xa;o5wJxZK8HQiFsJeKnR1FIPC77IRBBm3Z7DMO9ffLj3tVIZoicsoxX2oACcy7&#xa;dQFdfGmJijXguIaLMlr6nBi59GG9zm8+fZw+yAZSSaLdrbJKkO+7RAIRDyJB&#xa;ML09WcZv9uKVMlN0chptFFN7LRMA802eFdhfxNk0d+7LxVJ2xMju00//znk/&#xa;vujt273dphAyayFR4owZ63zxxK9efvlVOJskpVj82te//Kx85YqeBIOtU8sm&#xa;apeWDSqQKW9TWp6VoIrXrZRHWHQhmcr9jZ+gIryW1QpRTH98Zof0Szo9t7R4&#xa;v1Rqp7k1bdWGtaopTsRAVCNbKsj70l1Mm8DZpEXKKYgCecU6ITHwCyZSCewK&#xa;vIxs5qxzzvr5BT/GOpUvFS+46Fe7vee9SIR9gSWyvYI/Yi7NrZn/6qv77Pv+&#xa;1+YtyJVym2y+6R+vuLqnuxs5X3pp9qlf/z+YumefeWLOK6+i2FpTprx507fC&#xa;UOEj3rrrr3vqN741Z85LX/+/r2dzmWee+s8rr75eKBWnTZm8yVu2zIs4hfXW&#xa;W++0b34bAjxU8wUTWjej+fTTT3/3e6fbdxkXXnjhqJ4x3mji0He+637v/dOL&#xa;ft7dPfLFF1/43eWX3njzDXNfmgPTudZaa62/8UZbbrHVUZ88ZtLkCbIOWaXV&#xa;yC980du+vr477/jbn6668qlZT70yZ87yZSsnTBk/fdqMnXfe9eBDPrLuuuuq&#xa;Z6SOT7AADA6v96687uGF+mSQAUZmQwFjr1+GSD8xAbCSIYIROXznKT0j8/Lb&#xa;IbcirTpETlEHxjSXyyxfUbj476/b2Oazub23mTRlTLdE2o2dI3A+cjks+qVz&#xa;zv7RRRf8BOnQ1AUX/WK3975XBPJLOIC7oD/Ek2BGPI95r72yz74fwNmEQm/e&#xa;9C1XXHnNyBHux9LIgyn97e98UyovFn/201+MGNGNs+x3v73kxltufGXO7JX9&#xa;mWlrTVl/4w223GKbI4/+9BoTJ+lplEMT/nwBDz304CEHf8iFK79gevrpWd/5&#xa;7mkWvujCn43q6fGXTp566qnvff/bCJSK2Yt+ekHPyNEvvCBn00033YBzoV/P&#xa;pg022uitb93qqE99ZtKEiXIuaZNyWgXzQcI57XMp21fov+O226750x+eefr5&#xa;uS+/uGxpYeKUsdOmTn/nO9/zoYM+vP56bxJPVH64Lg4TPhH585oQD10ZUg2s&#xa;zBtvvPGeXXda1rcSlveQjx1+2qnfxBolRtBMc3A/iscMN0zwPXfd/cmjDpeU&#xa;UukHZ5697377I/zkk098cO/dUQCfIXVZkUW+CMuqkc232PLqq/7y5JNPfnDv&#xa;PRCFKyWf+XL4tFnQD9OStuUWb73i6mtzpdIDDz5orgwEePChR0ePHoWArAnZ&#xa;zAMPzjz04IMQgXD/+vdjo0bJbRBmPR988IHDDv4QAqjugX89+sRjjx5zzDEL&#xa;Fy70jgYsrT6atjhp0qSvfvVr++93AOSotZioDeLd+fe7/u+rJ82dO1cq1HtI&#xa;5XmBxS4UR558trT33vue9q3vjpKFoUJLAwcEs1XqqblL7nzafSweYPoxLuLy&#xa;wV/JyUUphO3AGqNyB+0wFZPBokMKDN8f7ps7f5mMFPT1ro0nvnnaaER0eRwQ&#xa;pWFoFi54Y9d37tjXvyxX6sLZdOqp30S6O5ugw5pPCHII4Wzm7jvvwtmEcxCV&#xa;/PDMc/bad18/sg/96/7DDvqwhe97+NEnH330M8d+GqctytqEzJS69MworDFh&#xa;ja+c/PXwlJYWtfUHH3zwsENdJVWuzIMPzTzkoA+jKtTxoJ5NElYJH3pw5mGH&#xa;HGRn1v0PPfbkYw9/+thP42yyFHmCJU5clXPyhIlfPuXr++27fzA1BKvE7UuZ&#xa;O+++8+unfPllnE3yuUbMC2TOZuQdXqgQZ9MHPrjf6d/6LmQLV6IM1JCRTgSn&#xa;CSEVwAxdfdWVS/vFjxkzbtxXTvwqVny9ngwLJX6M2ES1IbY3qwTwUfJd79z1&#xa;fe/bXYxvNvv7P16GQ9jyuczIEaNHdo8ZIfll7e/KFXu6R/WM6OnG1iVv54EJ&#xa;w4dObDl8/hJvqb9LSvWMGtGDxK6ubvlsi8qCHxaXMvo8fhhD93BS/NcvDmBM&#xa;RR6XzUyqmLy8uC04dPMN1x9xxBGLFs/PZfpHjR751s03nzp1araU65dvSTIL&#xa;Fiz4yldO/NnPLwycHOudqw0fmy+86PzPHHU4/Bj5PJkpdI/s2njjjTffbKtc&#xa;N7SCMrlCKX/1tX/e74B9Z7/4oog5KKCbtv69sayoXzQNAvYsGfsWT37EFKg6&#xa;M21it/kxXm/eZVwVuKZNGAgG8YKU/IKlfTgM1ckM0TTdtwdrMZfLXnn1VX2F&#xa;/kypG2fTV790MhxAGSE5j8SP0ZzlPXBeYLH0zne+c/f37o6TD1P70j9chqqQ&#xa;bGouqeOMrZDN3Xb9X2RKL5wHR230mJ7NN9987bXWxsFCCY3m5i1846tf/dJF&#xa;Pz/fzhSg/UU98qlBE6KQx96IeDihEEFWSZOC2OXFHuSyaPrGm675+JFHyKeC&#xa;bHHcmFFbbrHF2pPX1A8jIPPawgUnfeWLF/38Aq3REe7sBT89/5hPHfnS3Feg&#xa;q1IuO6I7v9FGG22x+dbuUVJZedrhtdf+ab/993px9gsmNpDMUl4VQYhCV4ZE&#xa;8PvfX5oryjfze+65Z8/oUWJwxZDYJQ8sXrJwwsTZvqBmCQFkw5EDDjjQDORD&#xa;M+9/+qkncHCjjd/y8H8ef/iRx/bd/8NmhnZ//z6PPPr4vx994pFH//v7P1wJ&#xa;67Txxhsh/MijT+z3oUOtld3f/0FEkefh/zyGPKgczcGCS9VigoOpG1yWRyVI&#xa;wmYmzyw+Et1eb93Aoa9+9cvLV/busP3Of/rLTQ888J8rr7nujjv/MfP+h75w&#xa;/Be7ukdo8dL555/3wovPakGxuRAGH2FR4fXXX3/u2Wf26ZIwfa2p55x9wUMP&#xa;PXbd9Tdffc21Dzzw6MWX/X7//ffFEoJWnpv1zOc//9kVfeZvDTCBJtDu4uV6&#xa;A8VgYFdiZKyCKzRKobjGmG7RmLisMgZIs9tTVgloGgJowIkE8SCkHiyKuuSL&#xa;E8kg/Wgr1n24/n/8w6VZbfH97//AyFE9mFDig+TglleNlIqBRDgOmO15Kb7f&#xa;hw5EHZhTDzww8+mn5GEz1h3vheRLxS+fcvLK5Ut22PGd1/7lBszDa66+7m93&#xa;/XPmAw+e8PkTR4wYgemAIhf9+EJ4A1JOu+n26o/GgEIluPg6ucJftyIEAYp5&#xa;kaJ48ldOWbGyd8cd33HttTfd99B//njVtXfcfe/9Mx8+/vgvdHfLJVh09YLz&#xa;f/LiC8+jRTmFba89+Ov1151z1o/6in1dpfzaa6999tk/+te//nv9dTdfdfWf&#xa;cVr99tI/7L/fh+Q7qGzxueeew9m0sm+ZFIPmxG0uC0QICKwgIQGvvjr3+eef&#xa;109jmb323sdMoRglsYDizcAYyd7S8RktMCv4i/n0P+9+z7hx8lR42Nr7H3wA&#xa;5lAOmfmFSZT/dlAw66b20TaxfXqkjL5IUsprZn2YK5yWkqyderwMSlphlVPE&#xa;szotBTZR9pnMJw4/6uLfXPrmN78lnxfZkTh+/Phjj/v8pRf/PtuFz5qZZcuW&#xa;nX6afAvgm0Czr7wy97RTT8HnUeTfZpvtrr3+pj0/sBeWCsvQ0zNq+7fv9P0f&#xa;nHXccccjWsrm/vOfR84/90d2dEAxGbVnpSUr1GUbeLx3Ak2rGRHdQzNg4pgu&#xa;6E1uaVDJkOLVOPigaQhgARMJ4lkKgLpE4iDqA61jNaG5ea+9/uyzz+rZVNx7&#xa;731xOgh2NJicARIVaSSTm8o4m8aOHQttQ833PzgTLrVlg78jlWSLMiFLmcM/&#xa;8clgSnfZRZ3x4yZ99rjjL/nt70bAJcoWl65c8s1vfhNSoHEclWurQsK4ONmC&#xa;E0r/KOKC6VlqJ/XHDz/iNxdf+pZN3iKvctLPFePGjz/us8f/9tLfj4C/U8ot&#xa;X770tG99A80iv9tn5deRp556ijhkpdxW226DzwN7fnA/nE2qmdLIkT3bb7/9&#xa;D75/1jHHfU6+KcuVcDade+6PK4UnpAxdGVLNnDlznK3NZDZYfyP9jFi2ZBYO&#xa;79W8yN62rq6uddZbV5JQ1ewX1XOpMD1mAQ1ntevjBIAtM9sKwlJVYSYvnEFK&#xa;qfczbdr0L3zxJHVIkEEE9myz3bYfPugQ7W72H/+8q79fHiiMdKvm97+79I1F&#xa;i1AD/J6zzj537Fhx16qER87PH3/CcbC/xQLM9O9///vly91HSY/VNjBkl/al&#xa;0mbLyPX/YJKoakUReu9Ttjh2pKTjYFj/qxwIY/KKeMFVvaX9CIjsIq3O3nZh&#xa;VaHRl+bMVj1Ic+tvsAGE8GpJox6cTeuuu67ezI6z6SUUsnRIK9qWC5HFqVOn&#xa;YkqHqnUBdGq77bb70MGHSbZS7t5/3NEn36cJPk88pguXP6wZubiF1rWGqWtP&#xa;+8IXv4Iw2pI0l00ObbPNNh86SG6bg7Zn/uPuQsE52ZYHZ9OiRYsgVXA2jdWD&#xa;hhS3+fX547943HHHoUWEf/e7365YsUIOl3tqfwmhK0NqgCtjJizflZ0yZc0m&#xa;7PvaU92TzufMeQX7sm1t41rRLEceeWRwR3CFgTYZjz760xrL9PcXX3zheQnp&#xa;t/b4/6c/X6lHcp848qgZM9ZBSIxtpTWVCouloz75qTFjxsFMv/HGGzfffLM7&#xa;FtB2HdjaIEJmM32D/YHV+QRhurvKXycNhREHYTGcePpj8b6V9jXYAAr58ssv&#xa;a+vFEfn8mmuuhRQ/ZUJXF5IEWHtt+VU2eOmll6rmm+GntAe5LCNaPvroozVN&#xa;pvQLLzwr8yXQRiujY2WPPPKTVU1burae/eQnP2nTY0V/3/PP6zOlgNx9XLrm&#xa;mquyOXwsKaEGO5vUPbIcAnqKbOCoo462HyouXrz4pptu1IPShB7UGCF0ZUgt&#xa;8+cvwD6Xy40bOyGfrz9DYFFgaLxZQXT8hDUQgDFasGChpki6mtcIQzzIbPLm&#xa;Tc0UKmVbaEJOX3udkSPlNmQs0e4dC3rN/Omnn3pp9ssIwMDutOPOEgg+mPo+&#xa;wZMQctmxo8duscVmOJrN5h995BFNFQa69xBpsL5f8mB6hGaI3sDRHXo+7FAY&#xa;cRAWw8STe7SLJbmGJd/HZPWOmfaDZl9/bZ6FJ4wbj3MKAX+m6AzBX8RjtYSz&#xa;acKESRLKZe0HSrKCo4rgXhmwySabacZyF0JBmdLd3e5O52eemYW910ZYLQ0R&#xa;tJXbZOO3VDVt9yZbwowZM+Rs0mtC/o0l4OlnnoBbBmeyK5PdfoedXKqWCkuk&#xa;+smOHTNuiy22tJT/PPqoNodM1Z8iyDAnZIYIUdZcSxyRYrG4aNGi/n55R6Cl&#xa;xwGbIsuBftiylIXzXsMeNUyZIlUZ9aoZJNZbb73QyuEC3irm8/np09dBj9CX&#xa;OXNmu9RM5pU58iMLBLAazZv/2m233Xrr7bdiLwHhFvy/3YLg9luhEMmf7X/1&#xa;FVcJogP0Hb+5UNijF/YDLxN1UMCCKu+ssEjJbspWZKVxzt1QwS1+6gQUMV9z&#xa;9mQTxPz9NGX/oF2sNXVNOTsymTcWLezvt/d72BFBNefkimPB669B1GyhuOaa&#xa;a4pG7aZX+WrJsd6b3qSVVNQis08TMKXXWQdzHl3umvPSC5oorTY/SeSes7yp&#xa;cf0N5GwKN23V2l7PJrlAi+icl14MDmXmznkNYZTC2TR//vzb9Ty67dZbbrvt&#xa;tltukb2l4LSyE62krwVFi3Pn4uOEtVbRWULoypAKYCamrw3LKMAXefXVufYx&#xa;KxkxZmI6JSfyv/TKSxrIwS3Q40LI3K1K1lhjskmie2fN4WRYIgLjxo0zO1uQ&#xa;3+g4Xpn7kv0OHDr57LHHHPOZT37mmE8ee8zR5e04C3zyuOOOQuCBmffLqlPq&#xa;mjfPfSgHoiS15u1VhXxSD271GKFX0WwgBhhvOkK/gtHlzX7RJj2FTEMJU768&#xa;6xLoY4hzXV3ijEFQPWRXTdoIal17+gz7JXO/nk06B+RQeIgsJRKcTXPmzpGL&#xa;RrncNP2mySlVVO2k9VO6ClSLfmFKB3eiFIsFa1362/wkgReVlZ95Yz9p4lo1&#xa;1UjcKkdb48aNUb3m0LRv8eVXXkAKZIBOPnvcpz/zmU/ihDr22E8d85mjjjn2&#xa;qGOPPRJ7pBx37Kdwln1WzqaZciWm8mxC9boRIrT51CWdDqzPjBnTEDC788QT&#xa;TybYWY9chFAzhUK9vUtfelHuMsGqP2OG+5ofpKlnEDDjrpSXfARMPASKRflp&#xa;sUYkyfolF6d0CUSGLvsxqK4TsiZYSa0Tn5jlFkV95k0eH/Gz/T2j3f2MKOH3&#xa;bVeF9xm688XQlZEBxV/A8AF0TPS2vN9/yxU6NGRY3qcKKuVKuezInFydkd8V&#xa;64C3d1ysthkz3H1j4MknnnAhPaqP5KnDkiW9c/RH1Jhd68yYIQs6NhQWVWOC&#xa;SQ2YmnGSy0R1UxrID/VtymuypjWH/X5QZYhr2oARkF2lz9FXkLPFJDD3EWGk&#xa;IJSVV3hBYjkkeeQpCvrEvVwfzqZRo+TLX2laaLEPZLVCz2BCQuBD3mZbvFXt&#xa;Re5P18hDX9yBGGBP5DfN+u0JCt10041Llsm7lvL5ETu/Q16RrdSpZOBxP94W&#xa;q6g/XwoTjuoxuRvURVXwadOmIQU1dHV1fe8HZ55xxlnYzjzz7B+ceTb2sv3w&#xa;nDOw/8FZZ/zwR2f+4Hw5dMZ5Z/7gvKM/9RmtRuyvCTCgjOp23zENFt6A6Kqs&#xa;K+vC5bJQSXToAcEWrtB1XR4tWxrVI49YlLdImcfaVmwGTZ48eYsttjSFXHPN&#xa;FZIUEHqpUKy6brn5psVLexHoynbtuPPOmI2y+fmqviNmdOUEdgEDTbv8GJ3Q&#xa;DwabHiKrzU4HDWhqCEu3vXoq2k31+iWQyaw9zX3C6e7u/v73f4iT5fs/cGdT&#xa;+LSy8JlnnCsp3z9XzqZPfwaV+O433QWy+uHPJUIcMBSHHXaYBkq33XbbggVv&#xa;WHocMChYwcy+wNBcceUf8hn5kciuu+46fcbamsUdXaUU7Rsi4C2gDwR3sbh4&#xa;WFqscVg84MrI4pfN9vX1bbnVtvvsu9++++2/9z77IiDhffbbZ59995Xwvvvu&#xa;c8A+SEBYkvfdfvsdrB67lGPhAQLKHzNyxGCp2kyHXRWA3pwlgY4XL9U7GzSm&#xa;+yEEBFu8bIVNBIRHd+XlQtqALYmoGXUffMhhaAvcejvOJrmn3sCxYKxih+zK&#xa;K/+onxSyu7zrnetMdx6AFzgUsL9CMJkFbUIql5zq9yCoe3Tf/jYKarIa5Gsj&#xa;jWssANVai65deTalXKj0kgA5m5SVK1dus802OFmAO5X2298CGnYBDe+/zz77&#xa;bP/2nXwlhIQZcraGDAU+uNe+Y8aMgfVZvnz5qV8/xaXGY5cuwFVX/3Hmvf/E&#xa;+oayBx98qDeqZu8CI1hBgmny1YIGLJheG4jAmXIDC1j54kFgH91fpJcPyRcB&#xa;mU02efOkiZMt5aF/3Y8sciiQKfSRHqFSoVCYHwBjbQeiut42ZKnQJWT8SHfx&#xa;aVVRyJTm96LLOgTBlw/hcRxkrGnZublYnL+kP3gre3H8KPG5B251tJrh5o4e&#xa;K2dT//IVOJtEJBUGB1VBduuxIyRL6cqr/vDP+/6hk7F00EEHuVRkCG5fq5Ic&#xa;2ZAQJFoTlTmlbZeCzBaoInxeVKHpvsXobNVpFSedQ86mSfKzLNTwwEP3+07Y&#xa;YPmotYWzad68efPnvzH/jQV6NkXLRoY5dGVINTBGo0eP/sIXTpQPXpniTTfd&#xa;cPlllyAdJqbG1gTobbNPPfXkt7/lHpK7ww47vGe394ZNLcrKDSYhXMw5HhWH&#xa;zEqGXAS5wSXcbqQZdc1FWU/J71wc+QJeM8l1EqRXVusCBo4ioVSUJ5Xts89+&#xa;lvjLn/8MHp6FgfoQLowACvz6Vz99x05vw/Y/u27/2mvyYy7DyxxusS2IolQ/&#xa;E0flinYvxYBjyhRVq9rdKCL88oIVlu6HD6p3oUHHNx0Ik4N4EFLW4VJ2jTHl&#xa;R+C0d1CsNhuIUaNGffEEOZuK2eItN91w6WUXy9STI9akf8C1JKGEnRdPPfUU&#xa;ziaEIe0OO+y023t3t9owZd2Jo1SNdRDDn/irTeZIuRu9os8LTREiK3EFAyLz&#xa;GDjkbpQJffGJs2nffffHITSEs2nZsuAxknriWmV6VFTxq1//fOd3vP0dO237&#xa;zl13fO01ea8+IbXQlSG1iC352OFH7P7+PUr6i5jTTjv1h2d+X36YbSbOWV6H&#xa;GLJc9uYbbz300AOWLl1ayubWXHPNs885P58vrxNAlvzKW1KRgrLBGuP+mIEL&#xa;G1NFUrzBRNgublchkjgkEK5DKiyZjZZbBoK9fO8Tb4e11UDOgw4+tKt7BEo8&#xa;88wz3/n2t3DqWHOwtlaDBZ57/pmf/ewXujzk9thzr/CNz1qZkNBiU2h1+KRe&#xa;zKwxRkT0DQ08firYKiT7N3r7lq0UkeS5yZIKgQb7cTdltGks2/YzIggG8TQl&#xa;N6IrN2m0e+AKaO+goDbMBz8QOJv22HN3eJvFTO6b3/wGzqa+Qj+mlR01HyIQ&#xa;QM6IW2+5+ZCDP4SzCfHJa045+5zzMOH1rUxydlg+gHD4RPCHLBDOWYFd1JHh&#xa;ESLPCwPpVfVblT7d4i41Csmpms/pl84enE0jRorycTZ99zuno18ImwZUG5k8&#xa;TsxCadZzs37+059JYja75557rSO/iPStleUkpDxNCQlwxuL73/3BxhtuZPGf&#xa;//ynB314v2uuulqeHa6rOPJYtpkzZx7/+eM+d/wnFy1cguiYkV3n/Og8e7Bp&#xa;FaWceEY258xgWUvqzUjcrH8x+ImR5anCDukvIxJAjRXPcUGjMI0oZU0gBXv1&#xa;Uey4Q+suf5z1AawjG2208Ze++BV9/XXmD3/43VGf+PiLL7r385k3hv3dd951&#xa;+KEfWbhwAbo6akz3Mcd8Tg6E8BW2C21dOivX+7OZyWO7J49BUsWyMTB40xGy&#xa;IeLAQUG5Z1+XO1WL5V/ohPIMNtp0tmTCQDD5zRJS85kpPbk1x8svYpR2j4t+&#xa;5efBhP3+d89888ab5DLyNoyf/+JCnE1XX3PNihXLcbAgEx3JUuDee+874fhj&#xa;j/vs0UuWyNk0uqf73B+eN2XKmjLQ8h7TsuctU1W+DXKv1whTO8vQZxsDO6ek&#xa;NpUQiZHnBYis32rGWaBF6j90yupHIKuPV/bgbDrxC18WkeT9Hpd/6sgjXny+&#xa;4mzCuXvPP+45/CMHL1o8H9GentGf+cxnvEUwSS1MCLDpTUgF5gSMHjfuiiv/&#xa;vPc+B8Bs4WPto4/+9ytf/eIuO29/wP77nnD8Z0/84gmHHfrhd71zp4997MM3&#xa;3vhXfMgEG2z4pt9f9Zft3/EOFI8yc/ItiGw4hA9relxsqATEMMGK4ZB8AFUQ&#xa;DVlRIPn8UUsS26cNlTL+blNBWgg/ESeXK+FTbTYvdYrVdu36EhbQit0HX1SL&#xa;j4aSGijkE0cc+f699tUcmXvuuWvvD7zvox898Bunfu3C88879eun7Lf3+488&#xa;+vBX572Kk2rUqFE/u/D/bbTxJlbcYzX7RlsH3VTtoYNWaWmtcd2DchXEuymh&#xa;x+9g6CBMtv+ZV5ZCwV0FZ16chKsC3zSEgUgQDOJByFIxv+akkaEZ2r4hUYKp&#xa;Kw3IGGVzo8aOveLKv+y1z4E4mzKlrkcfffSrJ31h553ftv8Be3/h85896Utf&#xa;wFzC2fTxjx/817/+1X75v8EGG/zhymvf9g55Hq5W4meOVGvXRXLZLqkwivA0&#xa;Qw7LZPPfpo0oJ+a8AAn1owiOYu/i8YifnZMnD8ld92F1ZzNHHPnJPfb6oF3J&#xa;+9tdf9v7g7vDknzjtK9feMGPv/61k/ffe68jPvHRufNehyrgx/z0Z7/YeJNN&#xa;bZikmqL2LvRZhQxznK0hJIwZQVi0USN7fnTmj7797e+vPXUtW7QWLVr06KMP&#xa;33DD9X/5y5/vv//+V155BcYItrmnp/vggw+96qrr37zhxlJYKpFasIMJUysm&#xa;dsfC4g0EH1vdV/SK5i9fFAEa9lGsCJqvnEHCQUNBQb02AD8mfFVGvDFpD4dy&#xa;+IeMrnUpbgHZh8ljvQsSzSuC93XWWWefdNJXRubFvi9fWZx53wOXX37pOeed&#xa;i0+Wj/33v9qV3LR11r7gwp/v+I4dtWgEtW21jHZe1bDOhO6ifHwfHGBAyi+a&#xa;lrfqYLgzuTmLV7zR29cfWBdT9SrBNw1hIBIEg3jiJ+RK64zr9kctEPSjPfhR&#xa;VpdATpLRPSPlbDr9B1Onrgk3oJjLLlm89In/PIaz6c/XXnX/zAdxNpkTM3Lk&#xa;SJxNV19z3SYbbQL9BlWVA/hvs93Pf5/iqYyVsc7aPu68AAn1I2BYFAnubw3h&#xa;bL4egDR06+yzzvvyl08ZIS5adunKFff+c+bll/72nPPO/sMfL3vsicfgYHVl&#xa;stOnT7/wop/vuKP5c66qolwXku+1LUoIXRkSASyGs3d5+e78oIMPue32v19w&#xa;wc/e9a53T5q8hnzjj0OZgjy0aszoTTff7OSvnHLnXf/41unfHT16tLcvZrjU&#xa;ZjnK863CBkk4yKDxUFiPljObofeoZQtSgrt9zd5Zu5ZiyIogCfLtlaUosjyE&#xa;UsqH8DkSe0iKo+44fJl89pNHffpPf7nhyCM/OWnSBKkQ2pBHmea7c1l8jP7W&#xa;t0+/5eZ7dnnHLvbQWw9kQS2VErUTVG39n77GyOmTQk/gHVgwE2QyOHQIpIuF&#xa;/MznF8rFD02uyDPY2FyVu04hkjwwSFOnj8/PmDwKrqfNRLsOUTliLeLqsskj&#xa;GyaA3M5UOuiQg2//290XnP/zd7/rPRMmTOiXobMnKxZGjRq1+eabn3zy/+nZ&#xa;9B15UyM8cr1YIjWFJ4+dgzKjwncul3NIq2XcqYGpb4Ew0edFUv0qTTYnnyv0&#xa;QlFUrRVI3yMyyROejjzqqD/feOsRRxyxxsRJ6KzYFnS41NWVy62/4Zu+cfq3&#xa;b7n17p133tlKmwAirVzeNWEIEbIr8SmFkBSoXRPzsXTp0tmzX1yxYgU+ME1Z&#xa;Y4rYKb0ubfhsntoUSUNSzdQL58RRs4DlFDWawaojq5BLcYYyqFCcEzskiZok&#xa;WEq4XYu5SID4LlhwtEdiNAOsLQ+ihUJx7txXXn755d4lS2asA9aVOxlXnZH1&#xa;Ej7y0uKZz5d/YzUA2Dpn3ZSHI6uqRWPQvRzL9uPoAW9ba83x3TiAgbIMgw/G&#xa;wi47vLZo5VUPvCpjX+rCR/rtN5qw5YxxfoiDmQAh2zl24QmmoxNRf29v7+w5&#xa;s/uWr1h7+vTJk6eEi4SIKFiexu5IbR6XEp7JEqicoiaYJPkKNZay/hiBq9Dq&#xa;IUZ85qK82OHVOXNeWrJkybrrrjtjRvktmGGcbKhDT1JCDLoyhHQwWIawFhWL&#xa;JflCTRYWSVy4onD7Y2/MW6q3W9ZfZppBnRNZVsytASW5uxNOAuRxH+jXmdSz&#xa;1zZT9CBS3IUBBatQXm/oCSe2BJrTr0fy8DAzuTyilo7uW/gvD702Z6F7xs/k&#xa;Md27bTF5wki53oAeQAhToNRS4zEQQoY+bTMlhJDBR6+D2IJd/piORXqDyd36&#xa;G1uku/cnthd1XCxg3gwsSdV9ndkX5y97fp49MkTsTEkf5qKH8nqDVFuND3rq&#xa;vmHzYkhzFn5xXu/sBcs1XMwWsxtM6TI/BkAQJJsC6ccQ0qHQlSFkNcGv3GCT&#xa;aaOnjxY/JpvpyhYHwpuR23HEVxKnBGF5qwOQ2x1gVfR1gzh09xNvLO/X57iA&#xa;Yl78DXnNBaRqM6hQO1+Ew5SXn7egdfmVDQ4t7yve+cQikzVT6lprjRGbTHXv&#xa;+JQigcYIIZ0LXRlCVhP8rQMIjO7ObzJtZFcun8mszGfxp+3Og/ycTRwBeSci&#xa;wuWbRnPFvmyuID/WLWUXL++/8eEF7oBdicnJb3kGBHNWMplCTm6PKYKCuDY3&#xa;P/L6khV9XXL5qtCVLbx5Ss+YkdW/XSKEdDR0ZQhZTcjpYo6A+AyZzJvXGrf+&#xa;ml2l3MiV4nG0+9pDaQR2uVwxK45JlwT1EojQNapUzMONyOXz2Ux+7oIV9/xX&#xa;36GoXgNcn+CboDYT+CS5kj5YVi4Q5Up/f2L+S2/IixQKmVJXtmvDaePfsvb4&#xa;TFYfSqfOD5QmIUJIJ0NXhpBOp9pNMccFq/TWa4+ZOgZLePk2mrahT+GTG2Xk&#xa;ycLuPl89gJi84CIrzkMpky0WsplH5yx55IXFckMucG8SQIF2+xBaIWqWW6El&#xa;VPjPC4sffWlpCZ5WKQenavL43FbTR2nOitt6AtquI0LIIEFXhpBOp9onsAf6&#xa;FUuZiWO6t5gxduzIfLH967QzHbl8Sb0ZROU242K2KH4MHIqSu5mmS56cl/nn&#xa;0wsefkneKGQFxetou3ulFfq7gh59cek9s96AL5XLFiDB2J7sljMmQCE4JBdj&#xa;7HkyFdSmEEI6A7oyhHQw4RW57Bv4Sw7ZwoZr9Gw5vad7hOZr84UQdUrk0os1&#xa;V8SWty93SvBegp84yXPP8v2lzN1Pzbv7vwsLxfb7MGHQQzRx1xML0FzR3f+b&#xa;HZnPbrPO2A2mjLY8op5ARWFhItwbQkgnwOfKELL68/DsRf+avbJff56cy2T7&#xa;s6V8KVfMicdRzMrdJQCLul5QyUZ9+RJHv/2UCYR+ni3FsRcvQZ4xU8yUuuDZ&#xa;WIYZE0f975ZTekbIJZyqhiKbRiL2Pl0ClhTD8r7izY+8PnvB0qy8Wkjoyua2&#xa;WW/0tm+a6OtArRYihKwe0JUhZDVEPInKFR/ezMMvr1zZZ++8kl9FS8B+NC0u&#xa;hGWG55HLlop2Z645N/WQp/1qRfKeZGu0WNTfZsuTWlwi9lY5AuN6crtsusb6&#xa;a+htK+ZZ2G+0UVa+ocrLs+pQjThWrkIprlEt4erJZHN2W4yX8/l5y/7+3/mL&#xa;l8uzhjN5yTNyRG7b9cZvtc54OeyqlAYtSghZPaArQ8jqjKz++hxcrOOPzVny&#xa;yJzlvSvhaMhvjwrZYlcJe7mXJfASmkAci8C9cBdmBPlBtOwl7F/ok8kXSyvF&#xa;yykU115j9E4bT1xrHETQm2xKpZwU0JdGwH1Rp0PKhiknlhuV5Ezm1UUrZj6z&#xa;6OV5y4t5udRUyo5Ac2N7snBitpgxRrqnHpWWJYSsbtCVIWQ1BCt+ISvfJUkE&#xa;/oReZEHis28sffzFFXOX9BXlF05wMbDEiwUILfPFYiGby4sbYo5CPZBNcmo9&#xa;5l5IpfLjZ3FNkNAvAoyAMyHPelFvRp5Dk8PxXGHjtcZtv8H48WO69EUG8oun&#xa;XEZeOwDZpLT8GEpFh4cDmeTSjdor6UpBchYzb/SufOi5JU/NXYTW5aZjFJCf&#xa;hRenTujeZvqk9dYcidzq7bg9KqdPQ8hqBl0ZQlZnsObLd0lY++2KRjHzeu/K&#xa;x+f0Pje/sKxQku9ysvKNkmZzRZBJ3i2gS746KIm4et1NM1pKimDXJ/5KppTL&#xa;50rFktzuK16O5MFm30AV5SpOKZedPq57k7XHbDhl7MjunH3zJT9EqvQ5RBJE&#xa;5dXWUnb5ytKzr8ODWfryguX6q6VSPtMFZwguUVc+u+GaozefMX7KuC67HKUV&#xa;FbLFPHwtCKECEkJWH+jKELJa4vyAwBXBn5BbkM08M7f3yVdXvLKoYHcBw9vQ&#xa;Izm9WtOQTZBLMtjDX/BhpJpXAf9DnBv1k8SBkMtAcjEISLpKmIejk+mCA1Qo&#xa;ZSePy609vmfy2O5JY7vG9ORHdGW7s/KTqJWlQl9/qXd5YcGS/nlLVr68aOmC&#xa;xe4eHW2uWMzIncXZXG6tsfnNp497y7TRciVKxJEmtB11hspXaAghqw90ZQhZ&#xa;vRGXAQu+XNQILr1gUe/KZBet7H967rJn562cv0ycD/spU7ZULORy8iAaWfSj&#xa;blhR4IWoZxDOI5UgCGfIworcQCPXeArwPOQJM1YKXk6/c57MwyjojTLAvqjS&#xa;b5CikQzmA4kHI3/lVp9cNjt59IgN1hy52bTxPcGrIj2oG6XgQ3kNEEJWJ+jK&#xa;ELI6o54GznFbwF0AK3tRvq6Rb52WLu+f9fqy2W/0v7JIf22ExV4dksBdSI93&#xa;TczLKddg3olmyMl9M/IYvaLcyQNJiiW7wUWOin/VX9Kn7iXiPBj8R+ZctjR9&#xa;woh1J4/ecM3R47q7ijm5spTgr6hCXJgQsnpAV4YQIsyev2zOwr5XlxReXyw3&#xa;BbtUT9kFUI8kFnNo3MWVICr+jYbL3oylG0FmoSKs+7AocgVGv73qzuemjOle&#xa;c0L3jIkj4cfoQULIMIWuDCFEyMq3MPBYSvMX983vXblgaXHJitLivsLyFYWl&#xa;faVCJpuXL2jkCbquQBRyoScr98LYtRm58CNfMMHImHNjPpD6MfbLbb11RgKK&#xa;92OsErnbJmf1lEaNyI8a0TW2JztuZNcaY7omjx89ebQ8BI9XWQghdGUIIRWY&#xa;c5DLytUTxOBohH0FhIvyU2kXrQEH4GCIu5PNybdH4m1UZNYfWmslILIecar0&#xa;Io5zU5Cz8iIOYvmS3EIs98jIN2XihBFChi10ZQgh4grIT4UCjwE+hFwLES9B&#xa;/ARxFhpBL664InahRR0ad7uuuChZ+DnqyIjPUgcrGPafUA1KJ98TQwgZPtCV&#xa;IYTY9Q/xPwLvopSD95AtZoriMCDu3QhgfomLVKOVqMti/k+Q0f4gCR6SHCho&#xa;jVaV5TcQRBFJUL8KeSFB5XUgKaB+jLTl0gghwxi6MoQQBxyIYrGUy2Wx12iF&#xa;o2A+BjwJ8XLqmI0IJ8NfnrGou3NY6vPuThl1rVzA8CkAgXJ6pSdECBmG0JUh&#xa;hDjsuyTvWHjvoSg3uADxGMIuRWrkSowUlC+GJIQaJFDlKqmvlAQcKH3kHaqC&#xa;POpY6d04tGGEDG/oyhBChPDlDQuHL340C8xL81WYGJXOk6vQEtshISGk46Er&#xa;QwghhJAOxn1hTQghhBDSidCVIYQQQkgHQ1eGEEIIIR0MXRlCCCGEdDB0ZQgh&#xa;hBDSwdCVIYQQQkgHQ1eGEEIIIR0MXRlCCCGEdDB0ZQghhBDSwdCVIYQQQkgH&#xa;Q1eGEEIIIR0MXRlCCCGEdDB0ZQghhBDSwdCVIYQQQkgHQ1eGEEIIIR0MXRlC&#xa;CCGEdDB0ZQghhBDSwdCVIYQQQkgHQ1eGEEIIIR0MXRlCCCGEdDB0ZQghhBDS&#xa;wdCVIYQQQkgHQ1eGEEIIIR0MXRlCCCGEdDB0ZQghhBDSwdCVIYQQQkgHQ1eG&#xa;EEIIIR0MXRlCCCGEdDB0ZQghhBDSwdCVIYQQQkgHQ1eGEEIIIR0MXRlCCCGE&#xa;dDB0ZQghhBDSwdCVIYQQQkgHQ1eGEEIIIR0MXRlCCCGEdDB0ZQghhBDSwdCV&#xa;IYQQQkgHQ1eGEEIIIR0MXRlCCCGEdDB0ZQghhBDSwdCVIYQQQkgHQ1eGEEII&#xa;IR0MXRlCCCGEdDB0ZQghhBDSwdCVIYQQQkgHQ1eGEEIIIR0MXRlCCCGEdDB0&#xa;ZQghhBDSwdCVIYQQQkgHQ1eGEEIIIR0MXRlCCCGEdDB0ZQghhBDSwdCVIYQQ&#xa;QkgHQ1eGEEIIIR0MXRlCCCGEdDB0ZQghhBDSwdCVIYQQQkgHQ1eGEEIIIR0M&#xa;XRlCCCGEdDB0ZQghhBDSwdCVIYQQQkgHQ1eGEEIIIR0MXRlCCCGEdDB0ZQgh&#xa;hBDSwdCVIYQQQkgHQ1eGEEIIIR0MXRlCCCGEdDB0ZQgh/7+98wCQorz7/87s&#xa;3h1wFCnSQUCaHRQ7iC0mahRRUWN77b33xJhiEmNs2KIm8X2Tf+woYCxoFJEi&#xa;YKPYG6DSezm4g7vbmfl/f89vdnZu9/bugDtud+/7YZl7+jxlnuf5zjONEEJy&#xa;GEoZQgghhOQwlDKEEEIIyWEoZQghhBCSw1DKEEIIISSHoZQhhBBCSA5DKUMI&#xa;IYSQHIZShhBCCCE5DKUMIYQQQnIYShlCCCGE5DCUMoQQQgjJYShlCCGEEJLD&#xa;UMoQQgghJIehlCGEEEJIDpPtUsay/B8hhBBCSDrZLmU8z/8RQgghhKTDC0yE&#xa;EEIIyWEoZQghhBCSw1gV5dl78cbjhSVCCCGkUbGy/n7V7JIyqC5VL+kihrKG&#xa;EEII2ZGki5jAJZivs4GskDLhGoFkQU1hq8DBsmzXhbsTBLBt23gRQgghpP4J&#xa;JItOuNg6jhONRtUx29ZpsmVVBjWlCgZmCBdsjIvUmx2NR6MFJpSPBvYthBBC&#xa;CNludApOmV5dIRKvlIk5YrkRD/NyNJiys2QuzhYpg9pwXcmJF4lHPBs1Z0cj&#xa;RUUF2VZfhBBCSBMhPAWXl1fK1GwVRCzHisTgG56XNQwcGuWSSbY8wQQdgzpA&#xa;XbhONB6PxwrsdB0Dg26VwIUQQggh20kwtwbo5KtbTMog7pR7jqgZuMhyTQLb&#xa;1mlabTuaLLrtVxaxBKegMFpQIBfkUnSMGgghhBDS0FQ77ZaXV1ZWONFozIZ4&#xa;MfgejUpWrMqIDjRAyMAKHaMVBJegmgIDIYQQQhoUTMfBtIu52PyVCbqwEBpG&#xa;bgLBjG3m7axYDcmWC0xaI6idaExEjDpSvhBCCCE7HugV3yRzsUzQCcFg21ER&#xa;OsYlW2g0KaO1INWTMKBqXNeJxZIPWgcGQgghhDQKmIvDSwyxWAyTtREz/vSt&#xa;Xo1Io0kZrZfwuouKmWhUri6pS9iXEEIIITsey5K7VwPhEovJBSaoGeOZFTT+&#xa;BSbVK4mrbpQvhBBCSNahs3NiyjZOImyy4uJJY0oZFS2oCFQNagO/rFJ5hBBC&#xa;CElHJ2vPk4eY1KVxaUwpo2IOFeE4juq8SETeISiuhBBCCMkWkq+QMWadrB03&#xa;9GqZRqTxLzChImz5xIOYvUhFlkg8QgghhCQQtZBYa8CUHTdWrsokQEW4rqzK&#xa;yJWmiP+pKkIIIYRkFWHhYlRNtjyS3fhSBliWrMqYL2BnxVIVIYQQQpQa9ApX&#xa;ZVKRVRleXSKEEEKyieyfmrNIyhBCCCGEbC2UMoQQQgjJYShlCCGEEJLDUMoQ&#xa;QgghJIehlCGEEEJIDkMpQwghhJAchlKGEEIIITkMpQwhhBBCchhKGUIIIYTk&#xa;MJQyhBBCCMlhKGUIIYQQksNQyhBCCCEkh6GUIYQQQkgOQylDCCGEkByGUoYQ&#xa;QgghOQylDCGEEEJyGEoZQgghhOQwlDKEEEIIyWEoZQghhBCSw1DKEEIIISSH&#xa;oZQhhBBCSA5DKUMIIYSQHIZShhBCCCE5DKVMXuF5XrDNRM2+oNYAuUi1hcrL&#xa;kpIdDI8iQhodSpk8QcdTy7KCbTrhMDVQa4BcpNpC5WVJyQ6GRxEhjQ6lTJ5Q&#xa;l/EUYXgGSQghJM+glMkTVKOEtykESzJUM4QQQvIJSpk8QVdlgm26XgkcNQwh&#xa;hBCSH1DK5DmQL4GsoYghhBCSf1DK5CeqWiBiYAjMxocQQgjJKyhl8pZNmzZN&#xa;njy5vLxcrSpolDrKGqQwadKkIIWcRou8ePHiGTNmjBkzZurUqepOSH2RT/2F&#xa;kNyCUqZO6Mxf7fxfsywI+1YJ56a6Z0qnhvRTvUK2T+d+ctABB154/gWHHHTw&#xa;8uXLfdcEYVkDJB0TN5zgJ598cvCBB110wYXhFGrITCa2IUpD8PWXX1184UWH&#xa;DR129pln3XbLrRMnTvQ96onaiwl/0+hZUiFKSmbqpX2rdUl3rIFqA9fdMcxW&#xa;7TedjDs1zmHfavtLvZCeB7ikO9bAVgUmJBehlKkFx3FWrVq1Gv9XraqsqHDN&#xa;MKJeYjJXcAJrPB5ftWoNfqtXriktLYUjfDWYmBNjimxtq7KyEmmuWIHQq3Em&#xa;V1VeuP7f0KUitYZJUSSyAwMCP/PMM8gAAqxbt27s2LHJ/SYCqMEH6Zi4klvj&#xa;AJ59+pmysjKEXLt27fix49QxPTPhlNO3IDWTaQECMrnUJWQ6CBEEmz179ogT&#xa;TnjnnXc8y3dMljONGhKvwStczGqDyexnS5j0Ckmnhh1tLTUnlZKZemnfal3S&#xa;HUGQyDZTbbJh0gNgpzXvV339LQ4Y41gFpGlSReKBb7X9ZWupNmPpRYBLuiOo&#xa;uVyE5DGUMrUAwTHs0KEHDNn/wP0P+N9/PGmbYQTuGDXMeFLlWaG33377wP2H&#xa;HLz/kAMOGHLLTTerItFgGgAWs5HtKy//54ADDjj0wAP232/IihUrjHcwGEm7&#xa;hFNOppBGOBjMEFsI3K1bN2xhhmO3Ll01um4R5pVXXrn4wovwu+fuv4g7/hvg&#xa;FZiRgiYFc+euXdRR96WOCswSK5R+eFstmQLARdMPqCGkb8oMQmiweEXlL2+9&#xa;Le5KWxTGCs4555zRo0efd955JlQ1pCQezlKt+9Wg1QarS54DEDilKraBoLHq&#xa;nlQQRa1Ao6tL+raOpGQgsGZKJMU9PVcppKSfThAABqSTKanwjvytiffyyy9v&#xa;W3/JhO4oyFVApoylkBIxsGaKXsdkCcldKGVqoVmzZgceeCDGAowXMz94PxhC&#xa;gtEhbJg8eTKCYc7EdsaMGfF4YszSEAhjtnAE02fOiLgegvTbddcePXqoe3jQ&#xa;CcxwD7YppEeB2EK4s88+++c/O7Z1i+KRI0f+7Lhj1VeVDcIsmDf/3XeEjz76&#xa;SL2UcFJnnnv2Ccce16q4+NSTTz7uuOPUMZml4JfIQHomUzKcYq2WcFIBgVUN&#xa;2AYuNaOBPpj10bfffgsDEn/iiSfu/OMfRow8qfeufYxn9YTTD9dJrftFUIRw&#xa;jWwCdcplBvyqSPzEnCi+sdUVhA8XAaSnELgEIWH3f/XRvslkTZiU/NQKwiNi&#xa;evqBS60JJgMgqURHAJpCDenABU7b3F9qJhxdipdWwEwEETVKOB1CmiaUMrUz&#xa;bNgwbG3bnvvhx25lXB3D6ICC7dTJUxAsYrnRaHTDhg1ffD5XR5lgpEE4BIMj&#xa;+HDGzIhtFVj28COOwGjkh0hDw+vWdwpRxTEYCT2vbft2Dz/x2OxPP7lv9ANQ&#xa;Y+qMnKkBsXSyRW6RMjC2KnRo1/6hx/76yRef3zv6gaKiIt81APnRbSIDQSaD&#xa;BNUMQ2CVcNWhAQI0ZOCYEhHWFJeMmBQWzluAYiIru+yyyxFHHWmcq+wOhPMJ&#xa;UtLP5J6OhHNcOQaMOQidvsdaQRSAFPQHdO91LXsofLB3NYRTSHfxqaf2NWHF&#xa;Vwmi1EC1ARAxSD8IUJfUwiAwksAv3BHEMS1lNQRbBNje/lKVYI8BcFFHTbza&#xa;XQCz86QXomQKGVBrAELyAEqZWsBAMPyIw9WwacvmWbNmqTvQMQJbHYO+/vKr&#xa;FStW4Izci8Qcx4HLlKnvSbgQCKeBFyxYsGTFcpwhxiPe4YcfjlTEN22AA+qo&#xa;22BUCgxVMLE1Pxpe5tQgpFdNdOQzCJyChMF/g+9kUKtGSYkYOAbugYtaM5Ee&#xa;AHsJO4Z3ulUg4rwfvheDZfXpk7oSExSs5nzWfb8SztwQ45sTbG3OtfhAC749&#xa;BDVZbVLqFUaDqXuKb+AYuAcuak3HhE36BpkJCOcqvOvAGiYlAIA5PVi1IFjK&#xa;rpVwCkEANahXONY29Jd0ggApIdVabeIBKXtHlJTw4TTrkiAh+QGlTC1gIOjb&#xa;t2+XLl20pmbOnGn+CjpGBCOFPt9rRyOFtgcNYUfc6dNSpUzAjPem62X41i2a&#xa;H3CQXMCCORiGkqNRAoyh4WErMASkRIFVwpv5VJPFQBvEMmfc4q7rB2H8wGZf&#xa;AeqlpFhTgJLT+53rgu4rhZSSKoG12ijV4/qJlG7chEIiYosWLfQZoiC18D40&#xa;5ZT0KyoqfFOdSa8flChIB+kras0EEtEwmhpqNR6vZjkwuJKVCSQS5AcppOct&#xa;nZrDbFX7phMUp6ysLHAJaiNl12EvRQOoY2VlpZpTYmUiJRgiapVqCppmeKuE&#xa;Y8F9G/pLDSCklkIJR6xjIhqsjvVJSB5jVZQn+22jgI4HMNyjV1dUlO/csa3v&#xa;kU3cfuttz73wAhTAAUP2f37MC9WOEWecdvpHH3yAIe3ss89+9umnMckUFBTM&#xa;nj27uFVLP0SIKy67/M0330TBf/rTnz7x97/5rgnQJLJgU1n52muvjR8//vvv&#xa;v1+2bBmG0c6dOw8cOPC000474ogj7GgUIf98111fffUV8nPMMcecdc7ZQfR5&#xa;33135+9+r/n8x/8+qSvem0vLLr30UgzGCxcu/GHhQri0bt167733hgGOyDCs&#xa;jz72V1jBd99998c7/4AcwhykoMz79rvf//73MCB99UKCzzz19FtvvbVsyRLM&#xa;EB07duzTv9+ee+55ySWXtGvXTmOlg8Q1h5jp33h9wrhx44KSQjvutttuKOnh&#xa;hx9umbWlu++++4svvkB41NhZZ59dRYZUx+LFi3912y9h+Pbbb1euXAlDhw4d&#xa;kCbGfSTSu3fv3//hThMwieZnzpw5Y8aM+WTO3KVLl5aUlLRq1apr166opVGj&#xa;Rg3Zf/9M+0V1pVT4okWLnn36mTcnTECJbr/jjrPPPUd96wi6w8S33kadyALe&#xa;kiXoIaiTnj179h848Pzzz+/Wo7sfrga8yFxTlrlzk2Xp0q3rXnvthYrdH2VJ&#xa;EDSEUi/tO2/ePE0EPPnkk0WFRYuQyDPP/Pe//0VxkMjOO+/cv3//PfZKJpKS&#xa;jRQQZdKkSePHjkNVozhbtmxBg6JOhg4devrpp/fstYsfLjPxisq33/arFAXB&#xa;mIPo3Xv2RJ8674Lzu3dPrVLoA/QX9MTF29dfqmAa5YUXXvjkk09wYGzYsEEP&#xa;sL32kQMsaJT0qqj3+iRke1i1cl1hYRHmuGg0isOs0Y80Spk68d/XJ1x+5ZUY&#xa;vwqKimbPndO8eXPfIzFebNq0af/B+5ZXVhYWFs784P3Dhw7DOOh43t+f/MdR&#xa;Rx+NRhZ14seQKPsN3nf9+vUw33XXXWec+Qt1DzPlnUk333rr6tWrYUb6iKLu&#xa;Sr9+/R574vFdd931zDN+8f7778MF09sdv/2N+oJZs2aNOuVUNX/2xefFxcUw&#xa;YDIbtPc+MOhArFvgWf6TGu3bt/9o1sfGrfoUlBSvL7/88tKLL9HipNCh3U6/&#xa;vP2OkaecDLNWlLqHefedSbfccsuaNWt8e1UgPh7566N9+vQJl/TXv/1Nrf3m&#xa;66+/Pu5nx2q9pe8X0/l/Xn0FhlC7uPO//+GGa6779PPPtDbCaBMgMw88OHrA&#xa;gAHpZUmpE8wuvzj9jLXr12lSv/vd784973+MZxU0nSC1wPre1Gk333yzKjBt&#xa;JowWOJwkjBVpFis46eSTb7z5Jszlkoorj3mHCiJgtr7+2us+++wztaZnOChL&#xa;uAo02Ha2b3oin3/++Rdf1ZBIu1/efrsmUi1IcPq09269+eZliQf9lGCP2I4Y&#xa;MeIPf/pj+ChNYdqUqUGVpiD9uqBqlRrQX/bZa2/dBdiq/tKiRYsgYoA2yqef&#xa;fgqxrpIajtiiIBpgwG4DH3zwQWmUEPVen4RsP9kmZdA9SU3oKHPwsKEFUcux&#xa;7PLy8o8//MgfeEJMnz4dOgaGAw88sG3btgcdcggmHrQu5iRt4XA7f/HFFzoG&#xa;ofb1RhxF94XtY4/+9YKLLgrrmJ122gkDXDDO4hTw5BNHzJ49W611BEnhyIPY&#xa;wsEHK8ZluMBaJG5CxlPJzEyYMOHss88uMcVp0azZHnvs0bVzZ2QYRcN29dr1&#xa;N9x0498fezwxC8i8GQYlveiiiwIdg/yg9nByGZT0q6++GnnCiXNmzYaXugiJ&#xa;oT8T2DXKiMKiRFpYoC5a0lgspo5Boq+9/vYpx/8cc3/UNVcRbAt50DqXBjB7&#xa;lMyMOGns2PGaGf9BmNDbDpUff/zxnLPOXrduQ9TDnCdYdvUZRjrimyiaGv7+&#xa;xN8uOO+84Pl8OELJDd5vv06dOsGMSRRHGk7rzz37HD2KMLNKMNn4vP766yf9&#xa;/PgvPvtEimHAKbuWxY04MvB4npblpbHjwzHh45sMyNvWti9ISQQgkSC3xc2b&#xa;I5FuXbogOoDL6rVrb77xxicee7z6OjIHCSoEOkZHK7QdjpA999y7qCCqKWD7&#xa;8ssvn3ziCQvN2kkYTRNVeuH552uVInDMtlGlQ4YM6dhZqhRZD6p0w4YNJoZg&#xa;R6yCIjlaMFrDulX9JagEZEB/aJSRJ8gBhoSRBxyNUEJoFGwj/l3For+lUcaN&#xa;VatS7/VJSB5SUe417q98i7tls1O6qWL9utKVK9Zqh8xCTj15VJ9evXv13OWe&#xa;u//iO4X45a239d6lF37/+r9/wvr0008jMKxHH3mU5+AEzNVgyv/+7e9IB77H&#xa;/vRnvlOAK5MHfPHTFP74xz9+//33vqfrLl++/MEHRg/o1x9ehxx08M+O+SmC&#xa;7bpLrzt/93sNo3z88ccIoL9Nmzb5rorrPXDf/XDfpUfP004d5TumUUMKYS/9&#xa;nXnGL779+hu9zQVgPnjooYcG9t0VXsjbbgMG/vDDD1WqwJRlwmuvI4BWRe/e&#xa;ve+8886gpGDFsuWjR4/u37cfAqCkx5mS4vf73/4uJamMOC5+t958i2by6iuv&#xa;CjdE0uS4s2fP3W3XXXv1kmB77N7/4YcfXLZsmQRGIMddvHjx/ffeN3DgQAQA&#xa;/fv0nvHedMQLpxauk6EHHITtngMH3HLTzU888cQbb7y+cOFiSUjC+1WUjvg6&#xa;7huvS+tL0/fuvd9++8FaWloKLxPXm/ftd9ddd12wo1NOOWXLli0aXUEwyD6p&#xa;+V49NQ+PPPTw0qVLfW/PW7Royf333YOymBT6DOjde+b0Gb5fAi2L3y7mV/f2&#xa;1XyCIBGURZM688wzv/nqaySiYUrWb3jw4Yf695NE8DOJLJSYfgI+r7zyigbA&#xa;D+cJsFbEK01dyg0iH3744Y3X3yCtIl2m9wnH/xwnG37MBKhDxNWDZ7/B+6J/&#xa;oUqRAryQyPz586+99lokoLs49eQqVapZ3Yb+4lQtxuyPZ2l1gd13G/Dww36j&#xa;aPqLFy+97777BvYfIN5ygO2qjSKFrO/6JKRewGSNKRsTN6ZvTOIp0/qO/+l5&#xa;DslM4tTmsMOGehHHtu0ZM2bAirZUdwDTlClT1Hz00Udje+SRR0bM+DJv3rzF&#xa;y5cmT9EMU2ZOhwtOpo844ojAXf643vJVK3512y/hix1hkPrTn/70q1/9CqNb&#xa;8EoYnJpfe/11jz76aGEshun2m2++8TCWSeSM6GK47kK2iXM8pKaDoCaOrQm4&#xa;1Zx//vnPPPNM3/795JU2Jo1WrVtfffXVz44ZWxA1p7zl5b/97W/Dp5YItnLl&#xa;ShQNZpQU0f70hz/++te/Rkk1BWQMZ8zXXXvd43/9a1FBwcrly79CSQ3Idjip&#xa;GvCXKwxiNahB3MUTJXc3bSm77qorNzue5dndunUbO+61q666pnPnzhLLini2&#xa;1a1L1xtuunH8iy917dgpFrEqHeu6G65fs26tJhsQWBetWHbAAQe88faku+/5&#xa;yyWXXPLTnx7bowdOmjUb0uPC2dAtgO+KVSt/ddttms5++wx6c8IbPz32Z82b&#xa;N5eYprF27df3gQceuPH66zUKJsjxY8cF6eBP6eaya665piKOcsW6de8y9j+v&#xa;XXn1VV26yBvbdDfdunW6/oabxr40BufxOAYrXOua665dtW6t8RSQjGZAt2Cr&#xa;2jeIpcCqCUoiTz3df+AAaW6Ecb1WbVpfc9XVzz3/Usy4mETukMMwkQAiQrjf&#xa;fsevdZDad999J06c+PMTTojZUTQKQM0MGTLk3vvvu/bqa2SpyXY+//zz+++/&#xa;3wT3Wb5yxS9/+Uv44vDed9CgN998E+cPcoE48eblPn36PPjggzddd70eLbNm&#xa;zfpP4l29WljdAgSue3/RTqdsKiuFWip3pGw4lsaNf/WqK67URkGa2Hbt2vmG&#xa;G24YO3Zst06dEbHScdAomCjEu/7qk5A8hlKmNixzUmPeLmNFCmD88vNPcdYV&#xa;HmLmf/vdimXLMBT279+/a4/uGO8wEQ7YbTeEwUDz/tT3JAUz7sEl7jqffPAx&#xa;rJgYDj/SlzLwkAC29eJTz27YWAIHJPKb3/32jLPOFC+z1q0BAaxHHPOTe0c/&#xa;gMRh1W0NBDN6+lbHQU0cWxNw6+jctctNt9ys1zF0goGjpj5o8F6nnXmWlMt1&#xa;Z057r7KyUivBeFpjnn1OF/NR0tt/+xu/pKEAMCPnR5qSarJbhcRGLE3HAKvW&#xa;lSauwayIPfa5FxYuXmy7TlGB9dAjDw8Y0M8xu/PDeJ4jWsvrt+ceDz3+V0nB&#xa;iq9evuKFZ54LElHUijy3bdX6kb8+2r17Z+zJ/5kKSu7UpK8uagYwv/AMWn8j&#xa;zJiN/nzvPW13bi+BEkXwG9qyrrj2mv3220/Mkcgzzz2rKUi4SOTF515YtGiR&#xa;61UURd2HH/lr//594IG9IroEgo61ovi/+x57PfjYo9hLzHbXLF895ulnTWIm&#xa;mJmwNU2wbe2bAqbtG2++CdERQEPALH8sa9999z79rDNFHLju++9Nr4AKS4B9&#xa;PffMs2XrSxzPa9269YMPP1TcsqXuWjqlHDlxMVvWtTdcf9U113iuXAZ66fkX&#xa;tmzZYhIQnn/62ZISSaEwYt913z0dOu6spfAzol/FikRQpUP29av0388/GxQE&#xa;IdUAYN7a/qLpjHt+zMLFizy3okXMfuivjwwYsGskKteYggCyF8vabc89Rv/1&#xa;EZyioJnXrVgljZLIRgrbVp+E5DG1zIJEJyGME3sP2menti0xIVQ6nt5/GjBp&#xa;8rsyA3iyJIOQOt4NHz4cW8wKk9+bJikkxr1PZ8/dUCpKqGXrVvsN3lcd4QcX&#xa;z3HHvDxOh1ecjl9wwQXibn6JIUuAFQPhCSecgADIT81LMuGIQK2BY4p1G7jo&#xa;ggv9m6CRRjgdmTvtSy66GLXh2lal5y5a+INWggnojRk3FlYcf8cee+wF553v&#xa;lzQ0O4jZJKglDXvVhcS+/CypFc2BLfbu+5qSP/fiGLHa9nE/P3Hw4MFwi5r9&#xa;ypqM/LGi5rlubIcM2nfEyJERL4bAz495QXxNImrQNKNe5H8uvMDc6yPTi/6w&#xa;5yBAGLiEo780TpZY4HTaGWf03bVvMFnCKwgpLp4HeXGGYa899lyzSu6pMs6e&#xa;Pl7nRWLHnnDS4MH7RFD1JgocJYRs/NWE/fYZjLJUuJYT81588UXEBRoMTQaz&#xa;hN+m9k3noosukifhNbrZUWDG3i6++GJUGvZa7sQXL14s7gY01riXx0OFYBcX&#xa;X3ihfItDPRAfxRL3mKYDdyTSppXkc23Jhrfe/K8JJwHHjx+viyinnfmLfr13&#xa;hQGBJQOaVaMAUF/4o1V6+umn77PbHmvXrkUcLY7UpwkLJGJiWzPJuJ73zAvP&#xa;S1PaaJQT9x00WNZJEhkIakz+eB7k1AkjRjhWBL9nEwdYOttWn4TkMZQytaPj&#xa;FsbTocOGQ23A/MHMKlJm2pSpOroFL5MFRx55JLYYqmZOn6EzqDJjxoyoGb+G&#xa;DzvMjpn7Fv1RyJu3YP6SRTL0YOgcNWqUuCYIhjxFraeecZrqnhrQkLKXkDXs&#xa;qJkUP5j1z9bQv39/P3E5sfTTAcbsdu/Zo6CgAFNF1LXnz5+v6cPju+++Q0kx&#xa;zKNeTj31VP+c0oCICKZJBQmecvppms/ApQaCcmGbEh6NiG3gCMPC73/49utv&#xa;xOK6I0eOlB0YjHdio9nD1rZOOeUUy3YQePHCRV999ZUESKSme0SJoFDh6Hny&#xa;msQEGTuaCSkRTZ0sghkpHPfz47Fjt2rmg5AwHHDggXfd/Wf8/vTnu9rvLLdI&#xa;w+PHH3/87hv5RANm+FNGnoydepbkQeIktpITU8MoC2q+AK3meAsXLvz666+D&#xa;goQP121o33T69euHRBBFkTUfRJfZXHLSvXv3WGEhyoYCz/9unh8nEkGCcpCY&#xa;Uu9/6MESxWAiyx81G7dIcauWA/bYG0GRYvDc1rx58xYtWiTzOqr0uOP8dgxS&#xa;CDCWAw88EJX557/c/ae/3N2+fftwAF2G0XrQghjnWvqLhkejzDeNgq566kly&#xa;gGlq4fQVSdaSRkEAHC7BAZbOttUnIXkMpUztBOPW0KFDdS7U22WUjaWbPvzw&#xa;Qxgw/OGUCwYzrliD99u3VatWsOIM7/PPP5egBsTVieKww4dja0YfGfJgWLJk&#xa;ifGR08Twaz+ShMdOL9K/b7+d27cXo042GYAwkhyF0PBwxAlr2Ct9eK2VXXr3&#xa;qpK4yQg22IUOtvp5KceqXLhkaRBOS6r1MOSA/VP2m2JFQhi7O7RrZ9KUHdRU&#xa;WlMuBKuSq8xgqlMDIuwzeJCmL1b9YzC79R3QrJ6L03RJHJONOqqvbqFT9aUv&#xa;luU/X1MrmtWlS/17qrDt1VPekuI/eRVOI1GooGwaBUHwR3UwcDxv0KBBqGDJ&#xa;gwY2Cw+CMehaHsqCkJpC+NmfQPCBbWvfAK2BXr2qJOKXyzhgg9317NkTGUK7&#xa;LVpiimAEetAdYra9ZtXqiQnkY0hvT5z4Nv4b69vyAxHXQY5Q/0uXL9OISAH7&#xa;1cZCQdSxBqqUFPjXlv1SwHer+ouGRKOgaKhQdMM9BsurEAKvdOAqB5iRswif&#xa;vqayPfVJSB5DKVNnrMjw4SI+MFbiFBYCRYf1mdNnVJrHsOVlblFbHRE4Zkf1&#xa;400YdILX/m7ZsmXOnDkYj5CIfK/AEIxKK5YtV0OLFi1at26t5ipowMQuQIfO&#xa;nbDVuScTcqaWGART0BPE7SH1DWkmPWxQKC2X/6oPz47EZfpUVi73nzQubt68&#xa;VevW1eYtQNPZuZOUVM0ojGwz4werA8uW+dMe6hzSM4gYjg/HwL2wsNB//5gV&#xa;CR7uVV/dQhx0MlkNXOqItj6iYBedunRWR8Gk4VdRhoIjCAIEZWlVXNyyNWS0&#xa;PALu5yDIiG+QA6agoAACUe3BsSfXn8xe5I/nbVv7BmiYtu2rJpKGXC4x6Kqn&#xa;Lp8EBwmq9MrLr7jsoosvMT/5SPXFF1968SVqvQR/L7oIhlnmW4+e56xdvU4j&#xa;IgUtRfOios6dQ1VaFb9O5SpN1epN3BsUsBX9JZESFCq2KFXLZs2r7dQpO0Xr&#xa;a6Og2y5f6jdowPbUZ82klj1BJndCsgpKmbqCDt2xY8fdBw7EwArkGpMZH6ZN&#xa;ke8VAHlqCRhH6f+23C4jDpY1bdo0RIfjrI8+rqiogMte++wTvDrFx8OQ7U8G&#xa;watQAiRBs5U/cqndH18KovJ+lMBaA+FBOVP4uqRTL8RdufCBLNmxGLIVzlsm&#xa;YgiZWG6pS/g6UhH33xyv7w6plqBa1BAtkDrHTKMSVnIlntsLUtPmLyooSC+g&#xa;ulS7L80VvMor/c8jRAsK1OCnkoiTUhBgJUodT3wYocrFlHqr5m2h0vGzpBe8&#xa;/L6RqIpg5EJW1UUDuBG7uLn/upegcXGYQe7rTTNKuCoQWSxm8TIIEQSogZrC&#xa;JKqu3KnUrAaNEqDRNfNq1eQkt8YQNMoOQMpeXXEyuROSVVDK1BUZb7zIUHNV&#xa;CATXmCZPnoyujulNLxgpOjwdccQRlnlUYdasWVtKy+Co9wvDEA4MZLCwIl06&#xa;+SeOJSUlZZuSX7rRZW2EwVaHPf0Ll+BFarUiu0ig0ROJJUl3aSC6dpY3eqFc&#xa;GzduDJc0Ewi8fOUKVIGa1bFe6N7ZfyZ2fUlJ+ebkky9hgmqBwamMr1/tv9Cv&#xa;S7eu2CI39VJrwbJBSVnpujXygiW1ppC+L80ewqNW1WXDhg3lmyuSE3d1cbBB&#xa;WdaZlxMirpZFgTWqx1t91vRWg6bRSigsLLzf8MADD9w/+gEY7nvwgXtHP/DA&#xa;g/gvLuBB2YjX6NEPXXzZxZpCUKVlZWVrV68Jr6n4lWYMsjWOUmRjAEGjB9TF&#xa;pQqm9rp16oKTHxjQqaVRQvh50KPaWGGHfFm7erXKsnCj1C+60xQyFaeWYhKS&#xa;BVDK1AHT67HxIt7wYYfpaPfBBx9g+9133y1eKtfjDzrgwPBL0yWw53XouPOe&#xa;A3eDmqmoqHj/Qwk/depUBIbXT444MjyW6GDRqUtnJI4mgfWzL/zbaxBMhuDq&#xa;rnavXr161ZrVdWzClPEIeVB8+44FJUW16NQiJa0tFyjm+pX++F6/7IycmJrB&#xa;5D3vhwVaISnVElhh+Oa7byv0M4RWpFsXmWmqVGudSa95qRM9A3a9HxZXeWtt&#xa;ynKCEofRdxMQt2PnTnr8gHkLvkncT242JqyU1FiRZ7h8Pe/bCrM8FjHvzhGD&#xa;YsvbYlIOmB2PNg2orKzcZ/CgkaecPGLkSQDbkSPkN2LECLEblxNOhutIE+bE&#xa;Aw86RFPQlwOZ2vJ+WPijOobRekiW08iaatFEgG+vDRNUAu/cuYutr34xjWI8&#xa;q6BemgdEwgFWmfj+dveu3YxzfaJF0J0SkjdQytQBvaBjhoB9DxjSqrlch57/&#xa;3XcrVqyYNmVq1FxiP/Loo0zQBGYFBXPSYUcf6cZltpgxdVrJpo3ffPUVpqUO&#xa;HTrsvs/e6WPJwIEDO7Rr75or9K+OfxkuSNkPppft/dlJgJe8Hs1x9Zxva5HU&#xa;zFaHth0MSrpz23Z6QQ0l1WJpTsJbBeZXXhpXaSXf51iPee7ft1/79u1d13Ws&#xa;yBvjX9EK0coJCGoJhvEvvqR3JnVs1363vfYw/slGqTspuwADBgxo1aa1THtR&#xa;+6PpM3WnmjI0nxrxH+5g+fLlb77y2uuvCTjdN6HkaaOd23dQwffqfyb4KZj9&#xa;qNmY/NqDy8tjXorKszKR9m3bDdx9N/E1YD7PhnGhXz9pGs3trI/kVUzIM/Kt&#xa;P3mrCnqYLZpSSue6q9esXrt6zZo167ZUbNYUUCFy673pOx/NfB9dT1C/4ChK&#xa;NMSyZctef+XVCa8mqzQIK/FNMGxDCdREEGW3Abu2a9dOr5G99sobeqxUk4g5&#xa;V0EUNIpcC3NdxOq7+0D1rEc0V2EylaiOJSUkG6CUqRPBfFBUULj/gQcaF+v9&#xa;GTMnT54MJYGh5ydHyUt+AxBSBgLbOmLYcMxMsE6Z/t6HM94vr6yE9Bk2/DCM&#xa;E35Qg44aSOekk0diUAMvjH0JiQfjjjjhD0Zt3y6fa3n88cfFbMb0rSIa9R+u&#xa;ccz5nzruSFDSE0aeFMOkaUVeHDsWJYWj5kSrLllw8+WjRx5/DNUCtaHUY55j&#xa;hQU4rUeCmL+fefGF1atXpyTuV7xxXLBgAdpF10hGjjo1ZsuNJpJb/NkmNHEl&#xa;Fov9/Oc/F3nneo//4+/r1sjbhJGyH0arxVQIDH/5891XX331Nddc8+c/3RXc&#xa;4xkrKBgxUsoC85iXntOyBHkLjGpY8MP3z48Zo2py1KhRBaE7ObCbbdPH9Uu0&#xa;IIam0cr9xz/+oXcCwaY/1AIUnv5g+/vf/37AkP3BwQcNWbPCv+0XhUKV2q58&#xa;AeDxv/2tZP0Go4N8/ApJlPTuu+9GfV51zdV33ZWsUgWHq7bCVvUXjWLHCvUh&#xa;f5hfGPPM6lWr0IThRDSYFvP777/HASYNbZ7Kbl5QKK71ge6lZjKFqUtcQhoX&#xa;Spk6geFSRx/06uDJo3ffeeeDDz7AMLfrrrt279kD3T3c5zX8oH0Ht22zE2p5&#xa;wbffjR8/HoExSUgKVQfEYGg744wzCgtl/HIq41dcdvmH78tlKeDvPsGC7xf8&#xa;zznnri/ZgJQxB2dcFg9lKZy3rl27anrVfih4x3D2mWeZt1/I7a5XXn7FRx/I&#xa;A+0A+dS8SYZd7/sFC8479382bpCz5BqKuc1gL6f/4gzICJg3rFt/3TXXht8V&#xa;C/yKdz2c8V91xZWbSjYiG82bN0f+xavqtLRtaNMgHbS+vJXfipRuKPnzn/+s&#xa;OkPTx39/R56Ho+7NCROiloVJ+txzz9XMA3ifceYv5EUvlrVuTbIs6dW2Zs2a&#xa;qy67orS0tMCyW7ZocdY5ZyN13y90tDcuyAaapjAmGmvevHl3/uZ36q6EcwiJ&#xa;+bfHn0C9oSaPP25Etx5yi4zWKSpEbqK3rZKSEsg+qBrxCvUF5f3333/j9Qno&#xa;TTjTQM8KqlTpIh95kN1tVX/RKJbrnXbmGaoU168rue6668qrO8CwlUYxBxis&#xa;rZqbRqk/gupatmRpxRb5TJVaAY5ndQzCKJncCclCKGVqRzt90PWHDT9Ma23C&#xa;hAkVFRUYFI4++mhsU7q7DhbQLsOHD8fwifn5jTfewNlhYSwmTzalDaYATlBF&#xa;N954o5ityObNmy+++GKMsIgVDD0wTJ/23rlnnoVzbox3Xbt3r7kJg2EoPB71&#xa;7NlTDUuWLHnhhYwvFW1QevXprSUFmHEvuugilDR81ouRdPr06VrSli1b9t5l&#xa;F5RUazmoje0Hu+vTp88dd9yh1hnvzzz5pJEpnxyHrETbHXfccV9//bXMl1YE&#xa;J+4Qr3LVIKXVtxItrG5RqD333PPyyy9HwaF3X3rppXPOOjt4IFnBHl975dVL&#xa;LriwIi6PPnfr0eMXv/gF6kIrRI6f3n1uv/12WJHmjBkzUJZZs2Z5oVfexeNx&#xa;1PNxPzsWZRGr6/7hT3/q3r17uByIrgk2JuaCS9++fW++9RZ1eO65587/n/N+&#xa;/DH1lpepU6eefvrpGzZsQL0VFxdfcdXl/rBmuiSq9IorroAXnF588cVzzz5n&#xa;xYoVwTEGUNJX//PKJeddUOkkq1S9gmDb3F+kGm2rb59df/3rX8OqjTJypDSK&#xa;BlC0UY4/9rjgnXh/Mo2i5nrk2quvOWzo0EMPPnjSxHdglex5keuvvXb4sGEH&#xa;H3zwxIkT5Viq2Z2QrMSqKG/koxPdA2AOw9l5RUX5zh3b+h5ZzOGHH77wBxlS&#xa;9VrImJdeHDJkiDGGZwSfl8eNv+mGGzBKqubYb//9X3hxjDFWg6kM78orr3zz&#xa;zTcx/iqdO3fea6+9OnXqhPO2L7/8EqM5doRd3//Qgy8897w+FXX++eff8dvf&#xa;aHiAsfLUk0/R/Hz2xectWrQI5628vPyYo3+yePFi3R3SR+I4cWzduvX//vP/&#xa;NAxS0O8Aw4wUwjc1w2vUKaeqOfBCyPTiw3HkiJM+//RTmH95++0XXnyRuivw&#xa;RUn/+8abuheQXlI4ItmHH33kmaeeDkr669/ckb6v6vEit91665gxUuEnHH/8&#xa;Q3991HdOy+2tN9+Cqc63mEl0wIABbdu2Xb58+SeffLJq1SrfIxLB1CifJapK&#xa;tXWyDaAjXHj+BZiecbTgmGnevPkehnbt2i1asvijDz5EnajXzjvvjAz37LVL&#xa;elluvvnmsS++BAPc4Qt9PHDgQKSwbNkyLYtUuC3X1FCWG2++SUOaqEK9tG8N&#xa;x086J504Aokg8O133HHBRRf6rgY4YgJ+7bXXNAOFhYWDBg1C03To0AFNM2fO&#xa;HNVkqJPCZs1w9GLq1Yg+0IXx+AUXXDBt2jR1KG7efLc99thtt92QArrAhx9K&#xa;lWriHTt2RN/cZRd5PyFQRxi2s78owQGGNCFJcYChUXbaaadVK1bMCR1g8IWc&#xa;rfYA2876RF2dMvJkOGIXqMOx48fBMHf2nJNPTjqOe3m8mjO5a1KErFq5rrCw&#xa;CL0gGo3iwGj0Y0OnV7J1HHaYLMxglrAjVod27fTDPeltCUds9WNMMGD6wU9f&#xa;P6Ne6SCkbduPPfbYVVdcGbjgPPLtt99++umn33jjjUVmdm/ZsuXjjz8+YsSI&#xa;RDaqARGxFyUlb0VFRX/4wx8KCuVWD03/i88+mzt7ts5JCtxl1aE6gtSQcrBN&#xa;2YUCx3AYn4QRvo8++uhVV12lcVEKTE4o6bOmpD/+KG/xx2zx9yf/cfzxx2uU&#xa;GvYVJrm7xF2uALXgG6prrL/cew/qBDMlfMH8+fNff/31p5566t133tFpBo5t&#xa;2rR54okndO6HNdjWIxgXMDteetnFcg9WxN28uXz2xx/+v//3/0aPHj1uzIuo&#xa;E9QScg9x8/+e+nePXWS1IL0s995775133omy6HoeygIp8O9//xun12tWrdKj&#xa;BWV5/G9PyJSJ+FVTCKzhMqbvBcAxUz3AK9PxUy0oL8pVbToQsvJ1a/MKnHhF&#xa;BcTHM089hQoZ8/zz0DFanM5duz755JOpOgZYcs/N//3rn5deeqk6bN68ec5H&#xa;H6M2kAK0hUpDoFUa6BgQFHmb+0u4OHff8xdtFFNQC43yxuuvo1O/NXFioGOk&#xa;UR5/XHVMSlVUm34NpNenVqBclzRmLZ0dM46RqDrCXLM7IdmJ9mJSOzoo6HbY&#xa;sGGOPD1hYTv08OEQHyn9XIOp407t2u61zz44CZbzYMsafsThZpCpaVyA7w03&#xa;3Yip9JRRp2IgRni9roFf27ZtLrns0jf+++bRP/sp9hGHLrBtZEMW01Mwe9Sd&#xa;+i4hDjt8+DuTpp52xum777lHqzatkQ5+4ZFSiqAPiYhRCNwFs0d9a46mD4MG&#xa;SAHBJHsIGeQCVt8kF+Cuv/GGV19/DTmJFhVqUnJ7r221a9/60ssvQ0n9dw+a&#xa;agHJdDKj6fiYUtQcUTN/5tlnTZz0zpVXX9Wxcyf/PpWoLTVsFml+/etfT5o0&#xa;6Sc/PSaceNiM9GUXdXizas1g5rj1tl9NmDDhtDPPadmqmWP59204ULlRd/e9&#xa;93n0sb/+5/VXcU6P3asX0CIErXDWOWcHZZHiY0oyBwPqtk//fnfcccc777xz&#xa;zDHHIKQmEUSEQdie9jVI+NDx47tmQOKawCmJBFx0ycVvTXz7wosvat2uDaxy&#xa;hJiDH8fPLrv2ueuuuyZPnnzwoYdk2pFU6S9vg54748xfNCtu5kSlKrAvDH84&#xa;qdxtjz2g6l557dUBAwb4EdLY2v6ijnLUhcxoFFT7FVdc0bFjR7igFMg/DIjV&#xa;t3+/2+/49TvvTjrmZz81wascWqDa9DMh1Vi1PhFl7733PvW0UbFYrF3Hna+8&#xa;0j9T2nPvvU4ZdZpV4LXr2AlHizoicCZ3NRCSbfACU51ADqtMWp4Xr6jEQK8i&#xa;Rj51k3BPGYAUcU9UMwYXCePKwOQ7ZUBjxePyedslS5ZgOO7evXuXbt31KwVm&#xa;Rzjnxt8MqYmn3HHi77EaTIgQEhgFCgpi7lcQs5yb+agTNn6Jap25TSIgJRvJ&#xa;dDDcG7NTGV+8dMnihYswu3Tr0aNLl262vODXjzLqlFNnzZoF6wUXXXj77ber&#xa;YyY0/8EWLkE9+EWrDoRTD89x165evXDx4nXr1nXr0qVTly477bSTeNRc2ESF&#xa;yyyCnZq91BghAyYfsnG9uOutXL5s6eLFWyoqevVE6+8SLUDpUAKTcJDjDEhh&#xa;I9aqlSuXLl26du3azp07d0mURVoeiaTVBpKEIzbb1r6aI7+Sqzt+0pEAfhqG&#xa;xB41ET+pIM14ZPnKZcuWLCnZtKlHz249d+mtN0prmDrgxuORFcuWIoWKioru&#xa;PXt264bDLCqHB/abOCA1KPYYtm5bfwmjwWQbsVauWrls0eK169d36tSpa9eu&#xa;aBQ/7aolQYp1T1+RABIwganPIIXVa9e0adW6oCj0bJTnrFm9oXWbFgWFzXwX&#xa;JZM7Idl3gYlSZuvQEQFbjDiwyihjXLUhddxJwY9izPDFyVw09NiL+qo5TEos&#xa;kDBjPEtOL7rH6vfr/016SbZhDU8P6m6mIWOsko76pqQsq9y2PAFbrW86CIaT&#xa;Vx16awgcpKYGYG5+lR1pVvffb8iaNWuQ8zvSbqeoFaSpKYczkKyEoAlM1WoG&#xa;gjoJVw6C+iHTkLpNeFUfoo6EmtdBvXmO6uSgfoBxN4dH5vwEhOrTLwiaAylK&#xa;hg0pKdRj+9YlBS1CkEmQKbyGwVFhJb6fKJhqr2EXKVUUR9k9J+KfekidoKSu&#xa;qRk1++4ZKjaRhzr1F9QkTnVSkpJqz5xf8ajSv6uw/fUJd1gxBMUSzpqfZJjE&#xa;3jO5E6LwXpkcQ7p0CG0w2cJdvUyfF0PKqJGIiMBixhBjHFXHhH3VAML78neE&#xa;wAl3sYvBDj+QYlwS25QUTFz18lMwqAFbmYPgjozBUw0YsEIgUIoLsGx/thdf&#xa;41IzCIPhXNP3nQxlZWVLlixZunjJCv32gqkfINl2xWxH0EVk0QuO69evh44R&#xa;X8vqnPm7gBlB+dMyoCnDPVEb2KUY8B8/kVAwICemGv1fEDINeIlfohTbjq7o&#xa;mIxhvhUd4yYyb7KPjeoYsVSHRlcSEeUXHA8yu2oYyXRqOvXVvkBSSDt+UtAM&#xa;6L7EFOQtHVO3lhcNAssP1LiLlAKar2dFNbfwUO2ibS3mREoaKy0nW9dfAh2T&#xa;ko4ECx9UgaMx1KAYJMz21ae4iJgzfwwID8cgjCxNGTK5E5KdUMrUgg4N6fju&#xa;GJJgqDpUKSkR1YotwACh1hTUS83+HxMqeQpoYun1db1kri66TUk2IQ2SAdIw&#xa;99EYYJFt1QFL8pBwCTIGu4avO2YPglo1oQU/fD/s0KHg0IMPmT9/vnETMEUk&#xa;dppUbBMmTMAWKRTGYgccJK8orJUgw0D3Dnx7iLBjMkICuXxQNVZ6mBRqDVAr&#xa;usfEfnFqH+Rf7Nj4JjH7hjDwTTZWVQIX9ZPZODje6q99AyTFrZwC09ORLJq8&#xa;qXvKTsTL7ELDVAu8XDcpATSBlL34VHVLC7MV/QVgvwijW98lkWZQ87oNC5Tw&#xa;rTCBQRHL9tWnJhd2UcTF+KV4ZHInJNuglNk6kqOM9nPTxVOGhvAApGYECI9Q&#xa;sPuGNIKkqoSoLrhOcGqWlJP79Kl2H5KJtOyBlCIAeIlTKFkTNW03mdHA6VF0&#xa;T3sO3L1v3744/jDN/OkPf6w0X5kGmhMT0z84V65edc/dfxEHzzvs8MM7dOhQ&#xa;l0xUqRzf5P9VQ0rGYEmtgjQXjVAlWlWSTbJ9hPLmf6mqeoxPNTVcWy40n3oI&#xa;BZGRTnpSNaCBM0WBu2SiDulVm0LgWHNZAt/0YOEU5J42tRitIKXOkO0UUoLV&#xa;kCt4iVMouIYJQsIn6KVwBBJFfUMCRZo7EcX3NaSnn4mUPIdJJpdOJr+a4hCS&#xa;LVDKbB3B4FJDBw8PQIE5rDxqiLttSMoyAFaTcIqTZKK67KXjeyX8TTzBt9cB&#xa;DZwxii2vZteFl3ffffeySy7dsG69sQkmphi+++67i8+/cFNJCQbywljssisu&#xa;T/jUlWQGgmjGkJKxuqSJMPpraLahnrcZjYxEFGOrExo4UxTfvQ7pVZtC2DHT&#xa;LmomUyyVhnVMMyVYDbF8r8ypwidFlWZKrVrXWtMPqCGThOQrvO2XNAJ64ojt&#xa;9dde9+qrr8IMTd28efORp5xyyCGHdOvRPRaLff3lV59/+unTzz6LI8Mx4W+7&#xa;7bZLLr+M4zQhhDQufIIpFaNkKGWaKGj0q6666q233gquc8gyulvlph9g2/bV&#xa;115z9dVX631ChBBCGhE+wURIEvSEJ5544l//98+DDjjANjc/yuMVVe9tPHD/&#xa;/Z9++ulrr76GOoYQQkg6XJUhjQmaPpKQ8198+cU3X3z146KFSxcuKtuypXPn&#xa;zl27dj3y6KP69OmDYxSBJDBvBSCEkMaGF5hSMUqGUoaYI0HeJS/Xmqp0C3nw&#xa;Q596J4QQ0vjwAhMh/vpKGJEvwLxwA//FxaBPn7qJjiIuhBBCSAhKGdIIpEt4&#xa;tYuaMQRmsx6TfFO9elHOEEIICaCUIVmNapcUqnEihBDSVKGUIYQQQkgOQylD&#xa;CCGEkByGUoYQQgghOQylDCGEEEJyGEoZQgghhOQwlDKEEEIIyWEoZQghhBCS&#xa;w1DKEEIIISSHoZQhhBBCSA5DKUMIIYSQHIZShhBCCCE5DKUMIYQQQnIYShlC&#xa;CCGE5DCUMoQQQgjJYShlCCGEEJLDUMoQQgghJIehlCGEEEJIDkMpQwghhJAc&#xa;hlKGEEIIITkMpQwhhBBCchhKGUIIIYTkMJQyhBBCCMlhKGUIIYQQksNkkZSx&#xa;LMvzPN9CCCGEEFIHskLKeJ5rWbK1bT8/IU3j+n8JIYQQ0gj4E3EwNVuCGLJk&#xa;AaLxpQwqwrajqA1ZlYk4MMDFryQBOaSaIYQQQhoLXyoEU3NimrZDk3Vj0vhS&#xa;xrZt15VVGWBFCuNxRzSN58CakHuNn0lCCCGEgHgcUzYmbqgZl6sy0HeyRUVE&#xa;o7IqI0om4pSXlxu5FzUB4MIlGUIIIaQxCSQLDJs3bza3hWCCjga3hTQujZkJ&#xa;rRmzBgPtIsrGtqPlWyqNpgmwgxokhBBCyI4nfCGpssKJ2s3gwlWZJFoRliWX&#xa;3FBXlZXxTRs3q5ciroQQQghpNPwrJBs3llZUVFrRCjMzm2k7C2g0KaMKJizo&#xa;oGZANBotKysrLa2iZgghhBDSeIhaKN1Uvrms3LYt24phylaPbKDRsqJSThRd&#xa;wiBCxo4WFBTBurGkdMOGjRA6RutkyxIWIYQQ0kRIzLyyHgNzyYayjZs2wByL&#xa;FWCyxoQdTN8SqlGxKsobXyVofbmu6wjxykr8KuPxysLCoqJmdrNmLYqKCjRk&#xa;AKJkQ/URQggh+YROr8EkW1Hubt6ycctmmZchYpRoVC6hJO4MoZQJASljcPDf&#xa;SJm441Y6cQ/qBnWKrdaX6p6I5UY8G3/gIFZCCCGEbA/+xCrzrG3LMzdGr1jR&#xa;aGE0GoE5ZrBhtgvhHizMNDrZImVUABopA00DGeN6XtwRVSMLNeKKOnbh6OKv&#xa;BI7I09qEEEIIqRcgTrxI3PMcqBdMsjY0C6SNuYfVXFGCdikQJRMtwHRtlhLk&#xa;zXCJuJjH1dgIZIuUQS1AqBiT4zq6QgPtAjUDR2OT1+j5qzIw6EPtMEsUQggh&#xa;hGw3Zp6VuRUaxXUdaBejVUSxQNBA0shFJduNeFAzVW7z0Km5sQRNdq3KqDSB&#xa;EaoQlWjM+MkyjPpIUMuFjMEfMRNCCCGkfvAsuazk2VbMdV1dlRF9YsuVkODO&#xa;GICgtm2ZF/5mxVycFVImrONQiagaqUtUnXySSa/biaxRXzVoGDUTQgghpD4Q&#xa;LWMEinzgWc3Y6oUkmIHrQsdg/s2iBYUsuu0XBJqmqkyRKqNwIYQQQnYIMu3i&#xa;D4RL2Arggtk4O9ZikmSXlEmB8oUQQghpXBKCJnvJailDCCGEEFIz/mNUhBBC&#xa;CCG5CKUMIYQQQnKYbJcyluX/CCGEEELSyXYp48l7ZfzHmgghhBBCUuAFJkII&#xa;IYTkMJQyhBBCCMlhKGUIIYQQksNQyhBCCCEkh6GUIYQQQkgOQylDCCGEkByG&#xa;UoYQQgghOQylDCGEEEJyGEoZQgghhOQwlDKEEEIIyWEoZQghhBCSw1DKEEII&#xa;ISSHoZQhhBBCSA5DKUMIIYSQHIZShhBCCCE5DKUMIYQQQnIYShlCCCGE5DCU&#xa;MoQQQgjJYShlCCGEEJLDUMoQQgghJIehlCGEEEJIDkMpQwghhJAchlKGEEII&#xa;ITkMpQwhhBBCchhKGUIIIYTkMJQyhBBCCMlhKGUIIYQQksNQyhBCCCEkh6GU&#xa;IYQQQkgOQylDCCGEkByGUoYQQgghOQylDCGEEEJyGEoZQgghhOQwlDKEEEII&#xa;yWEoZQghhBCSw1DKEEIIISSHsb7++mvfSAghhBCSa1ie5/lGQgghhJBcgxeY&#xa;CCGEEJLDUMoQQgghJIehlCGEEEJIDkMpQwghhJAchlKGEEIIITkMpQwhhBBC&#xa;chhKGUIIIYTkMJQyhBBCCMlhKGUIIYQQksNQyhBCCCEkh6GUIYQQQkgOQylD&#xa;CCGEkByGUoYQQgghOQylDCGEEEJyGEoZQgghhOQwlDKEEEIIyWEoZQghhBCS&#xa;w1DKEEIIISSHoZQhhBBCSA5DKUMIIYSQHIZShhBCCCE5DKUMIYQQQnIYShlC&#xa;CCGE5DCUMoQQQgjJYShlCCGEEJLDUMoQQgghJIehlCGEEEJIDkMpQwghhJAc&#xa;hlKGEEKq4HleikHxPMc3JcgUUgk7qVmDVRuYELLNUMoQQkgVLMvXGpZlmb8+&#xa;lhXFNilf9I+6IKQrSgfmZICkYnE1IUlZA0dc40AIqQcoZQghJAVblYdrtIgK&#xa;EmyTGkU2okWgdYyjmD1blE484okA8iKu69qWm4giI60x28ZXDAkXxKWsIWS7&#xa;0H5ICCGkChgbzfKMyBo1Q63gv1lTESyRIOZsEIoFEsU4JhAvKCHIFokoIG4o&#xa;CiGk/qCUIYSQJDok6qWlYHgUTWJ5NrYiW8TLDyD/Rdyk6BhRPuIGMWMbHYQ/&#xa;Mtj6jr4vIaR+oJQhhJAkbkQli6KLKEa+xMvjZeu8TaviJcsr1y2Mr1/obFwV&#xa;X7fMqyjzykoR1GpRHClsUdC2i92mY0HrHgVtu1utuhW1bu+1aBeNFap8kcQl&#xa;SUlfxl4IGl/fEEK2HUoZQgipAsZEFRdu6drKtT+UL5m7ZcHMioVfwsWCFLHi&#xa;thUNRk4JaUc8CBRjVlc1mDAx23Zj3Qc233VoYbe9Czv0tprtlNQuwZ4IIdsB&#xa;pQwhhCTx3LhTsnzLoo/Lv5xYtmB2+pKJhSBwNQNnoF2AJ9eg/G0SdQpR1Htw&#xa;iz1+WthjSKzVzpYdwwgs4f37jAkh2wKlDCGkCeLffovhLxARbunaLYtnlc79&#xa;T8UPc83AaHue0yBXfzDuupHmu+7XYp8Tm3Xfzy5u57unLNPInTa+TRQPr0MR&#xa;kgFKGUJI3pKiAIxQ8G9/MQ6iZtyIF1+zoOyrt0qnPetZ4m7JBSMbZn99JW1l&#xa;ZXsIsiRjry2rOy2Hnt1i4M8K2vcK3BN5lqymFIEQkg6lDCEkbwkWOcKCIDnk&#xa;eV7Fym9L544rnfua7cnNvXYkqmpGhsaIfxWp/sVEQhshZdsWsQKK9z2+5eBR&#xa;0Z37RuWtNNVccEIYkyE+y01IKpQyhJB8RgY4I0siTiQSFbPqkso1CzfOeWHz&#xa;7Jfljt2EcIHAgJqJeHHXilp6K2+DgUwgb7pFBvRfy/1PKd5nVEH7niaIrMoY&#xa;gy+nNDwhJAVKGUJIPmPud5EPDgQXlZyytaVfTCh553FjFRL36sqFJ8uTS0vG&#xa;2Vgty3Vla1zqETtiOZari0CyMION7crjUdhXqyMub7nn8dEW7cztMipjqGEI&#xa;yQilDCEkn/HkZhjoAFUMTuXC2eumPhxf+r2vVOyI63i2FfFsmDxRNB50jxE0&#xa;tlOPt8iEkdyEHneC1ZP370HHRORTByaM3blX2yOuLeqxr23HYNX1GBmuKWoI&#xa;SYNShhCSt6gCMLhO2frSOWM3vPcvswCTRISF50HTiKBIXH4yyE254mLSqS8S&#xa;K0DGnNyd6CpjAP5+YWp12HktB50iyzMJQlEIIT6UMoSQfEbn/vIV35RMGl3+&#xa;42e+q9xX6+rYB21hPq1UHbpyUo+YBKGbzF9Xv2agOfQDJHWM7UacaMQq3GWv&#xa;NkdeX9hpgHrDg0KGkBQoZQgh+YErl21EJPiTvUoEz42Xz5u6etwdgYvxzA2C&#xa;JZy2J/+xRd9hlrnYlIrnRPybgQhpolDKEELyBrkhxjcaXKe87JOX17/1KMzB&#xa;MkzOIfLL81r/5OoW+5wUjTWDS1KupRkIaYJQyhBCcp5gucXznISacb2KspL3&#xa;/7Vp5vPh21NyFxSv+OAzdjrwAq9ZMcxepNKKFPh+hDRtKGUIIXmCi/ndlUeR&#xa;IGwim9eve+9vpbP/E7FsW17da0JYDfVQUoNhHrOSr1fKJxRc1y0e8vM2h16W&#xa;eiMwRnE+s02aMJQyhJB8AAMZpnE34lhe1N28eu3Ux8vnvmU8HNEDCQVjbrkN&#xa;nhXKAaRQsqzkyNv7BLvZ4J+0HXaF3bw9XCPmtTTGnZCmC/sAISQfMB9XwsmZ&#xa;7VVsLJn+zy1z3oCskbUK2wrfI5NbOgaIRLOgZWRhyYLJdspnv73hvf/z4qVe&#xa;BGeiHMMJYTcghOQFcpnF81yvQu6Pmf0yZn1b5I1cfBFD4mYZuQSTWzfOBDkX&#xa;5WK+cWm5pbNeLpnxT8+Nq4AzdwgR0nShlCGE5AOWTPVO2Zzxm2Y+L++JSbl0&#xa;bi4wYQP3HFuXMTkP/RUgyFDM0rljPdesRfEWGdK0oZQhhOQgyYtGgTCxN8+f&#xa;uuHtR0SvZJjddYEjRyf+8FqSFmH9xEfK5k0xDqkjeXKdpqqiIyQv4W2/hJAc&#xa;Q66zVJEjUDN2xfJvV/7rfLiqjmmYb0BmEaYSolbE7Xj+vwo69fNdE2gVpVUU&#xa;IfkJV2UIITlGyvSM+dopW7vh3fvELOdnieeS83oWN8WTW4HWT7oXxRcnOS31&#xa;16i07PldA4QEUMoQQnIby4lvmju2YuGXYsaEbrkQMzBD0Bj/vAXF89xIxcKv&#xa;S+eM9dy4FL7qkJ7n5SckAaUMISTHSNEo5cs+2Tj1X3AMboy1vaYxslmy+OR4&#xa;8ZJp/ypfOldqwPdw5WYirQ+5A5rPN5E8h1KGEJI7yFwtN8HIgoSZuJ2y9eve&#xa;fcgsxtiYvl2jZmQWh5oJ3yibl6CU8uI8lNleP+khd/O6QMvhv391Sd5Gw49N&#xa;kjyHUoYQkjN4omXMPC3/ZVP25avxZfMjVlTefWdj6ysYz865bxRsNS5K6eoY&#xa;7saXLtj0+etGu8ntMq6pIZBcqSEkf6GUIYTkDOH7WGGqXPPDholPiGQx11D0&#xa;Tb6yUgHyXccAUW2WrkOJZNk46Ql3zQ8enCBx/CWpPH+MixCFUoaQHcRWnR3z&#xa;VDoTOkNji8l709yXjFu4usJfKahPUpY3skciaLY0PyWmQswlJ12W4QhPmgQ8&#xa;0AnZQZipxX9WtlayZZ7MPnSGtiJu5ap5mz4cZ9x2BDmxvFH60fjy1d8YY12P&#xa;NELyAEoZQuoTPXfH1kddDcYmrzzx7RnQAOFgMMGqiLW2FPIfeSrHLpvzvLwj&#xa;bocojGAvwc7QCnZWipuy2WNdOWSCsZ2ahuQ/lDK5ikxvvpFkETrnYetTXTPV&#xa;oEXSvORyCRLxU0skrn5NF8+rXPN96dz/mvfZ7oh+EOwFfzzznLM6ZkID73hw&#xa;ZGz+ZEJ89Q8wJ57B5iBP8h8e5blHykDZiOMmCSMNYb5iqKgL8HWH679C3giS&#xa;jFok8JWtyBgbFk0HjmoAuiMTo0liW6VfvYEqcBrjy5AWdq8taFl2BkzARgDH&#xa;hBX3yr75Lw6PxDPYXJUh+Q+/wURIPbDkgeGWnKuLXtE+pQaZTqKRLtdPxrxr&#xa;5EldUeWCKMtGHxlxkLSTlrLl2Va3G/Rrgk0Lt3TtskdPhKLRhYegZhoarXZ9&#xa;Piiwqlf2YEVt13O6X/Ga1bKd70RIvrODhgBC8ptF9w2LVIra8O0hvJjd46Zp&#xa;vmXrWXTfcCuOE+vUc2vpuQXR7Uk5dyn7euLal3+Lut7Bg5dqpu63Ta9VxCy+&#xa;+1DftKOBynIiXrT9yb9t3v9o3831zOoeIXkLLzDlJBhJ1078C35UotmDznO+&#xa;JYT5HNBWLfJXCWyip1LrVJrHeG5809zxGSqmYQnaN3srX3QM8uZumvOyfJVJ&#xa;oY4h+Q6lTDZT3Yk4XJ3Kta/eXvbxK/jBAGvgVZWtmj5JPYAZDpOGbcesaPLn&#xa;RWPa0dBGggbNDM6gwwG9qG3Jz09NEtepVF6B1hT7b+XGpeU/zpXDG9KRc3QK&#xa;ntwfg2op/35OZcnyWg+2pky4L1ZfUUlXM5Y21BuLSD3AC0xZDFrGMv0tdA7o&#xa;VpatHndj+Q+f6rs8MWYV9dq7w8n32wUtjL/pfXrKbqKTHcPSe4a5rkyulh3t&#xa;dnMtF33QptqkQRMlDXVYblly73DPkRNuyJqutzS5e2VKP3993Wt3qVmrC/Vl&#xa;esMOovtt031TZhrvAlOSnY6/teVeJ/oWEhAeGOUGesdZt7hk7kvx5d+Wr/ge&#xa;JwcFnXoXdOrXctCpsfa9LBExiRMGiRiykmyCrZLFSH8z7x039zZ6nuOWrl35&#xa;9MXlCz4JPpMHA6xwhJf/7KW5P9Scs5oQZIegywN2xHbl7ADNgyFP7tU1DeU/&#xa;uxtG7UETqSE1kDS6JIX/fuOapFzzCI34Nr0mRvHLvnjDGGXsUtmXXm9NFj0i&#xa;dLv5qzfNX67OJvGqDoxOxN04a8zK/z2/7MNxFQs/j1aURSrK4ou+KP1o/Ip/&#xa;nVfy0bO67qe9zzw1mLSSrIKrMllLIP/9e/Yq1yxe9eJVzrqVOBfXGc74ynOh&#xa;rhuPtu2486hHC9p3h0foTCIwkIZl6T3D4vE42iIajXa9RVZlFj14pF3p6DcO&#xa;415c2tA8j23p1nS7zjdOtKNFMLhO+fL75SZNDJVoXM82HdNEiVkxeHuW7RYU&#xa;9LhuIsIsvWe441QiQCxW2KRWZaRmytYtfeQE325AjQXKfseQzasycmSFhvSu&#xa;V79qtWiLGgrP300c1A9qSQyRyJqXb9r8zUy9lQg9VasOR5R/c5FnNRt4cIeT&#xa;7jMWhSNqlsJWyVr8psFJBLpV+fIvVz57obt+jW3brleZ0DHAhVUc169BAARD&#xa;4NB5B9t3B+HYkVgshoaQ0zZzTT1aWQGJ6UQcJ15e4EVicS/qyA9SBs6OFzHv&#xa;RAkayIYVjvBCAA2JKIiI6EhE1GpFuQR05cwQchZgp00KzEAVa3+Qq3hmKlIX&#xa;0TE7WMtkMWEdA/OWdQukroLxgCQu16NyNs15ccs3M3DseK7tOuKI/hvFf7k4&#xa;H414UTiVfz2zZO5YX+LIYgxH1CyFDZPluOhpZT/OWPXslZGyUpykux76XMz3&#xa;NMBqHF0EQDAENgN7oHXIjsCGCpGbZeRNsP6zNZhwYXQxcNpxSJGI65jHS+R1&#xa;9zIBuyaK/4wJDLDCUXxsCYbAiIKIolvgLEma3mqWalwRN5JCU6N88Zzk2bNB&#xa;XEU/EkFrQo4iHGh2rHLRJ8aZJEgcKc7GZSXvPpY4cqSDodLQp6SnSs/F+aC5&#xa;OmxZGyc9Gi9Zblyj2uGaXrfLAShlshW/u9hlX7259oXbvMoKHbYxsaGPBSO3&#xa;GMQqk5oEqKxAYETxW5Z9bkdhRYv08SK3qNC/oG4aCS3Q5bo3etwyufuN7/a8&#xa;6d3uN0/qdv1EhFQvnAEa0enKco4ERzoxBEAwCXzju4iI6OKFuUluOZRWdovM&#xa;c0zRmBXT17k2FVD28u/fx5QDs24VKpkAlbyoKJmYIw6qS92JguqRcdLzSj99&#xa;PaLLnOpi2fiDSjNdUgdPqJuIB3VTXl722avBx8YlrHiT7IJSJkuRO+sjkQ0f&#xa;PrX+lT/ifB4jFLqQekkf800mUKJnSR+D3XUQBRHFxfiTHUDXGyZ2u3kKfj2u&#xa;mxSeZYVYYSRaGIkVRWIFEbsoUtDMyBfBtKkMncnGhRcCIBgCI4pELBRntLJp&#xa;diSOXei+ul4/SbzymqBmYHAcp2Lhl2oFwdcck/2BCP7RhWpBdXmVW9RKBKNX&#xa;gLvyG8+oExxXdiRqeXpzvRBUoJxe4BizvMqVXxl3AXF5uGUhlDJZhd+FlLWT&#xa;7t846YnEVYTEZ18yYwJIgyIKIiK6uieokjipX4KRLkx6g8FFfpmbEl4aJgVx&#xa;STsbrHaneYQcsUFdwWCXrlYz0DmngZAmwAQXGh5lb5jC/H3W3pXkSZlQBnd4&#xa;S5l7tgxe2XrfRBKHE5pjy4p56gJ0vRNI75NLTWrzTwStiF2xfIExGic3rR+S&#xa;LIBSppFJjnDmXlEdJd24s+61X5V9OA6jp+WavofOVuvJQOIahESxPERHInLj&#xa;qWD6qr8LrtXUPzpEphJyRJ3rT8yJiS2IFRjUKxzYp7r0q99p/pA6OsU3JaVM&#xa;A6EVKpUvXcn0JlPJsvXkNibpZWYVrUrrpGEuBJvE5K4Vz1y2ELNsdwDmaWG5&#xa;ezUSqSxdY5xIErSm48U9y7ajMMrYmvCQG7GqaSXLvOEC7gjoP91EsgtKmUYG&#xa;3cIfFTE8SnPYbsXmDeOvL/tiakL8Y0yU3pU8WcgAAkgnlP/SrAiORJAUEpTU&#xa;4WgWeLA79sWGIzzHyam5YHqZqXZT8+ooBIHDsRDAD+k7mtasLlZTI75xoW9q&#xa;MFCzWr1oreKDR3W/bXq3W9/D1v/d8l63W2dYckpgzjAyE4oyo8cvZ3S9ZVq3&#xa;26YXH3Sa791g+H3bstDX9QJKfH2DV1ouUtSpr+258p3WiGtLsxt0CK0KKrGg&#xa;Y1/fRLIVSplGxh835SePpjhla1c/d3Hp/FnoNehUGIysiH5URQKYGBnxA6A3&#xa;RhyJaEYyJIUEkaw896JaBkGa6lzYoPh1qufiCiSonMyb1bDkICnNJCd5iW2a&#xa;VbWLH0Wiw9mfowwmWCK1PKW64lWsWeKbGhK/LbxI6cwX1015EJ3F7y+qYDD5&#xa;ydqM3nCd1JdpyMsMPc8x7SbBNkx5ZNPMF4xXAxIcZEH9Va5b7JuIQV9wV7hz&#xa;f7N4jc6G5kye3mnrJ3ubPFVoF+4sUqa6Q5JkC7L66RtJYyD1j95jZEbluiWr&#xa;x1zjrFsZke4TNV74H5V76+vcTJKYzHUigABOPCJIq23HDqc9XNC2mzzcrT3X&#xa;nzVJQ7HkL0PNDRPyTERYhwDXlWfsQZeb3onGmsHgxLcsu+8oGBDSvxiRACHl&#xa;KW8RRXbXW99rOs2GGkJh9bjXUq99/Tdln71jjA2F3CLjL15in/JgbquDT2s7&#xa;/Dq/n2qe6oAJbkyQMXZk9ZQHtswca+wNDjKeFDSWXbznEe2Ov9O3EwNas2LD&#xa;wnVPnlvpxFFX8pS10Tc6zEoHTAy4qMxYLNbhgqcL2vYwDgI8OX5mG7Wc6JOG&#xa;RroEepFtVaz4btVTlzjrzN0Ali2znVlYkVvrVZTUpma0g8lG7saXKGYKlCZG&#xa;skgcuzBnIPplA9IgJBvJRkOIAEEreA5+qHh/G8w0oeC+AV4pgSW6TE5QMqbZ&#xa;msxjaXqMYhscrJWbGvy2D1SzbKWvyVJKNGKZtZnR0p1gN/eiKQhjgmVC/CSE&#xa;HVk/eXT5++N2UKeTY86MKr7NjW/kvTKpoH4K2/RsfuTlUK3QMRHPf70T3KFj&#xa;pMcZq5yKuF7Lwy+Xk0BzPCg7qCnJ1kAp08igz6Avbf7xw1XPXOaWleDkQK5I&#xa;wN0snZjbZDCFyWJ18OhpJmTqlGAy80lEM48ijqSEKbGsBLvAjoIXPZGGQGSK&#xa;GQnNzQpiTQx8RptCniSEDFpFGscnJFXFmPiQFmwSTZIKrg7WchzkC35xEwbg&#xa;rVvqmxoQ6Wu+0eza8uzSmS/JlSZxSA6Y0i6Zu6T6YbN+8sMb3x8jjzPVpHvq&#xa;D3N0yL4Sh5lbskwNBGiloH7QNG32PaOw34E4XUBlGWdxh46RZVTTWFYk1qz/&#xa;QS33HWU6H+fKrCY0gJJGwfXKvntr7X/+IEMoJEjynBtqRC4SqQUdry4tVSWY&#xa;TIBRfzrEH112tq12I+5o0e8YGDQUaSA8t0KuG2JGq6HhYvIBJp+4/8KuajCJ&#xa;iJi1zTtmmirLHjrG2VzqWxoGVDM6kfajKr0pIncBtx1+HQxwlK6alKGZcNdN&#xa;ebh05ovmCDDnFbX34PpEM2k3a9Hl2rd8J5IgaN+Ns57fNPlv5klP/8xBGz0a&#xa;LSg+4rLWQ84wwRNoj+bYmX1U6atkx1Py8XMl7zwSnEuhI6l79ciQmCFADV6G&#xa;ZOKW1/qoq1sP+YVxJg1O7c2KMGZbcyBtYUkNAWtJL+epUmmoHWNsrG80Ak/O&#xa;Bezig09tO/x63ykMZjj9AqiZC9Vl3bSHoGMSBalyZtJwiHyRAyVYV5DK637r&#xa;9Lw/YOqCHkfJZjKtBnPlmh82fvGqs+ybipXzITcLO/ct6NS3xZ4jCtr3MvGq&#xa;HI2aCMk2KGWyjiX3DvccnB8kL80GSD/0jalk9rKtqN3t5ib0/eRGAu1lJ7ZC&#xa;MPyFxsGkr+JGPHMpMDRtG6oOl0EsPSTEnB4lb5F1SlNY11v8l0Nr1usNiTQu&#xa;qr3lIXIXsHHRmTDcOiIgtF3WTHmwbMaYxmojzQaAAdbudfiUd77iypde0QpV&#xa;+h2o2oNSOyYIBxBxqGcRjdSgpFZS2480Cjri6Nagk1YqGcSKkNnLTyptF6R+&#xa;0a5kywRn6tlzK5z4FvxcpzJeuRkG+ZBWpbjEHWzFV684mPHRVS//MpO5Zl9Z&#xa;UQYXhEy0GnaR6LBNZkgVJaOFtS2rZSvj1ihIP7JseUJ7w5SHTBvrNVppEfP8&#xa;ixi0KddNeXDzzBcjUdgx+5lOJ6JiB3U95CD80Jxd3NI3NUlsaQa/14QbADLP&#xa;NwkpAUxbJ7uY6xtDLv5fkjVwVaaRQf2HlT4aY+m9w8yqjI9cTkg0EQZznBj6&#xa;lqqEvcJRgBW1u948LbmPtJ2SegKtpmOiGJaYdpS2kOlYb1pCK1muG9fKx7bj&#xa;jW8VxFqgrTynfMk9RyFMNFrQ5ZYpsFtOfPF9R6KhotFo51smy3e4BD8ds5em&#xa;AWoncaguffxkd8MK39I4yHUiCJNWB53R5rCrzHSXuEph2gU9a/3Uhza9/6J2&#xa;QHkSX2701ss9aDWEaXCQKR3VLQ+CxrXbdOp6+Tj1apr4w50cSNp3UnuQucs+&#xa;GoEcNdJTAgeOfnRNQ/9oU5Lsgk3S2PjdBt1DhjlZr/bks8kB/nMrBic4bUgj&#xa;7BWOIngxswwOEk9nmJ2SekXGR7969UKDSEpzZo5eZsmDS5aNMK48lmZGVlBg&#xa;yW28aB3Lc+2oF7ViblR8go4JR8eGLyJEJUnjZrZCYnf5ievKQSurMgkK23by&#xa;TY2A0SuWE3Wj6F+bZj6/fuqDpj3MNSbJo7wzFjqmbOaL5oqGLOHoaxG0mczK&#xa;TYODHcuxl5h7sY2165Tfx0kmUN1acOltciAB9B3tp9CjQA4wc5iZnivLNyJk&#xa;xEdiyZu9gIkundY4okrx2xFNSbYKv5uRRgfNoIJj8T2Hy3sO/HmrCrZtd71h&#xa;om+pytIHjtahPxWcQ1ix7jitl13o6SNpOIJz9Mii+4ZZjiM6Rhwwz2EGNI9Y&#xa;w+BWmCCRzjdOjBU0F5MTXzRaXpFnx6zOV72JUG68YuUjJzrQP7Fop2teQzNG&#xa;cYDECiSp0F7ym8RE4rNmwm82f9qwr8irCbRB4pFAbYWWh4za6bDrTM8F7trJ&#xa;D27+YJx2QzPnVck8kDP+Bh5udReyRXc3Y0iLvY5qe9zvU3LSBBCB4hsTLaTo&#xa;HdxiqNyy+YfplSvmuxtXVmxa6ZWsjpSukkZr2T7aup3VqkOsuGthxz6FfYZG&#xa;Y4WqbBBLWrZKeiQroJTJOsxtv/4rm1IwN/BO8y1V0csZvqUqVjTG2353FMkB&#xa;FC3ixkW7dLnpHTtaFJ5LgsbSt/2G5jw3Eq9cfN+RMGmrybAbr1wCF8+OxOT2&#xa;bemu0mddXf1uCgQzx4YZT26c+k9j3PHI3SfyFlh57aQ/bFp2pPig09oOvwa+&#xa;66Y8WPr+GM+FxsRUJ0JHYyUOier7ZgOCPEpGI60OO7/NIRf5jk2QkOzXjhYv&#xa;XbPluyll82fEv/8wHo/L2pnRfwikc6GEMkuh8n4MVGEs1rzXoIJdD23V/0i7&#xa;RYfEaxL9bk6yBLZHNiB9Q3uRUo/6MpxUwrTDR9UmRDBpybU8jIPAWJVkzYdd&#xa;TZjk+GjOpQVJQV3gLRenBHiaVJuKjgEosh7GBW27q0tjIBcBJRumQU0TyCVE&#xa;eRfw5EfXGB0DKzC3rEljmTzrYWB6nrlMKIaGJLmDxG6j8qbaJocpuiF0ub38&#xa;+/dWPXfZ8kdOXP/m/eXfznAd0TFwlxUsjWKqTCouoWNgtePx8vlzSt58cOkj&#xa;I1Y8c+HmedOkX5Isg1ImG5BWCHeOzENeDe1VvVc4qYSJjd6gaPXKHb74g5ks&#xa;PO6Z6U2QDyvrVONjO/KsU7kTL0dEKxqLxKKROKxbnHglrLYdswoKg+iBIc9J&#xa;lFIrs6CNPysHR3WoauuZoIaDfWWi9P0X5HmlRDMn82YM+upYmKFKd0CrYQfh&#xa;vSAHha2bopQRNeIbpT9WrPx2+b/PWT3mtvIfP1NXaZDkSUOaIdSOpkody3Tr&#xa;ysVfr3npVyv+dVbFim8k/cQ+kjVOGgnOaoTUC/5ijNlWAaOqGRb9dRoNIzIm&#xa;MW7KOOhULLvvqKX3Hokzv+63vNf1psndrn5j6f1HwXH5I8d3u3kKfl2vexvR&#xa;kUginSZAqJRSS8UdxCTTlAhE+RqA2BuEYN0Lu1LD9mAabQe1mu5FtnLTcSTW&#xa;smO1h2WeI3cLKe7Gr99e/e+L4ksXbEv9m/MNRDRX62S6RDvGV/y48ulLt3zx&#xa;32AfO6JdSY1QyhBSL8hCtrlJIglGQDN6qiMC6Oxoy0ckDDK/6Tgof22ZPvVK&#xa;vBlz1UuDiaMZRjWiWpsM5soOKqi4rdjkg4mYYuyoninLRO3XT70iXyP3jduK&#xa;aankISGfJ9whYK9SY5bc32O1aBfOQ1OjfMW8ja/cqU9EBP1oKzDnG9LvXM+N&#xa;yoNLRuPaXrxy7YS7KlbON4EEOQgb4jAkdaPpHuKE1CNLHzh66b3Dlt0zbMno&#xa;o2VYMziOgzHUjW925LfFc7Y4rrwHL+bYxks+MGlEjISXZ/BtKxq1IvFySy4t&#xa;lXuxmFcQhbvnVrhOecSR554wqi4b/ZPF9wxdKvuSG4TzGzP9yNU6K+JGY82K&#xa;eu6urnKebOZs2TaQtjO6MXTNYatBE1d5cHd70qob2AF2YsSeVF1Rj92tgiov&#xa;d2hqlEx5UF4E5MZFjmzrcSIRrajl6pooGhQnI14k7m54d7TcVmyQ224avHlJ&#xa;RpInfCRLqPEJpozPIm1bLFJfyPNKkCaebcW8bje9py7QIDKxuJYrj2HjZE5u&#xa;JcSQ59qu3m/Y+caJdqyZTD+wwA+OTvnC+47A0GlbhV1vnmQeoyhfeu+RSMO2&#xa;CrrfMlVSvm+oF0cMGyqnx03VP9GWTyQmIQg+e+MH/9zw7pNwlOqT9Sq5BQUT&#xa;dwOMY3aXm95OefSs7iTy7GcMZhigR5fdJ4/c7xBs1EzL4Re0OfCCbSlAvrD4&#xa;wZ9aWzbGRdA5crRs5cKYaUfpuTa6tw1RaF56aY419O1Ys1Zdrn1z244QUr9w&#xa;VYaQegCjm/xkfNMJzMGJm+t4jjy8K49k+6sIMvmKjpE/JixCy2wnE57rmCER&#xa;vrZnHlnCECnzkThGI9FgxLQicp4tqxRIKa8JdICxSWELu+6jVlOhmJZcCAQN&#xa;Vt+IcvKbbetJNlbiwSWzbfj2MlVhKsRF3TTrOkhdmijOlsiWTeiXMa/SvO9n&#xa;63QMMK0msVwbbScG/4CwvKhtOZtLLbcStd2EqzhboJQhpB5w5JUjnjyXZMCZ&#xa;nB0twDl91Gxhg4sVjekvYkftWFQwr7THcGmI6q00CODGYoiOxHSQtHE6aEPA&#xa;qL/vKGvc/isu8hZUim9KEGvfyy8+tkY1yttdGgbbM1OXWradZPYst+HfEmvu&#xa;Vg7qTb/trDXW1DA3r8hiGHqWXMpNO5a2Cr3n16zQGJAy1I3oG1PbTbKGswpp&#xa;ad9IsgNeYMpFzFvvzKpM1dcYmpG0yhiK/qb2oOvVOshKSDNcaki0dcSplFd/&#xa;xaKZXpmYr6AmVo+5qvz7Ob69IdEXGGJG1KuB24w2NNrOq9yy5P4dcYEJ+0K2&#xa;m/Xat8NpD9d6dOUr0tGcisX3HuHbt4/0jizrM25EXqQelc+PkMaFUqaRkdrX&#xa;Jkh0lKX3DHNwep+hWTJ9r3/x3Yf6pqrgxBWn/l1vkQkvfV+kvpA7Yxy5AzB4&#xa;I7O8iyI4h6sPggQzyaYmwqbPXln/+r3yWStdlTEH+TZeB8oA+odMXVF/zcx3&#xa;rQ8yvZK7nkH23Ujbn9/Wcq8T5Zj0XZse8XJ5d7btv7jQLJ7UT2Xopzph6H7T&#xa;ZPM5EdLIUMpkCf7rtWXodCrkdfWZrv3FinxDCvFy31AVTcqLFsroLJ0Z3a+h&#xa;FuSbMkZe+LNUNBqV22BkCkRVu1401u36iWZS3DplY7SLtWT00VZivQ2J2JjD&#xa;Hf86RQ0fsshjKtYvXfnEKFSm3JAkX0WSyal+RzGpZ1tu9PQ1TU4p/0SG7Y6X&#xa;PVfQppuYRfnWp6rOJZwKI3nNnWcNMdllGpDJjoWzWpaQ0DEYOqOFkVhz6SHV&#xa;/jKREiz5a+7rGCQu4djiDQKGSalezH2eHY/H5S0UcceNV2Lrico074xJUsOp&#xa;edLLRLER3SQlPyQriUPPYEdyIuKHbFIUtO5Y2Gcf6BiY5QZqda1X/P5iFIxu&#xa;cwVkG4caTmCKeu9T2KaLn/mmqGNkiRS1YYbTAi9WZAwpY+P2/7geky1wYssK&#xa;tNcFQ6dZO8n0y0RKMP+HpIJkpWNrWFLfePKItQfh4dmOHYnK4xKobP++UbM2&#xa;U6Xya+h3vpceEqYFjYs81+3JA6GRKHYht6RiX7k0ydYPqBHLtlvufbIR//7V&#xa;An2NCgHQMXEbaiZaPGiEUTByBDZBRNH5Y6kgZtMHdVSsj592T/NiTIPZD2k0&#xa;KGUaH3SChOAwPUT+wIymqfaXiZRg/i/0ylLZhfRn30rqlViRHSmSB5SsIq8w&#xa;akWLIoWFVqzQi8XkpFBOlWV9G5Vf66CHABJEl+g825xTxpCUJBg1iVuyI+xO&#xa;zgubGGZmspt331cv52ldGsVY/4RmwZwBFRJzoq7nNO+2H6xmJGmKqITxDw9f&#xa;atjGNXWE3MafSRrJyuFh0H2RxkLO1H0jaTQwEou611EnMNQXaSnL7owDqTdk&#xa;sJT1E61gszyTWGbTu6CMAWS+CyqEeWNKMpZZpTPjpmhRWxOQ23HkwSYN1eTY&#xa;MP2JjdOeQp1zDgmDgwQHTqtDzm0z7FJYmuzh4Y9yclYQroR6G/oSvTucYL0l&#xa;TrYBVn1jI6uepqeZa/+w1/vYYxKUuVB3Ibvj0kx9g3HN6BhTzzamV9iishVF&#xa;oivbWvVwQRgTrHrEV4KZKObggItcu/IT9LusvGevaU5UpjLdZv2PgdnoGA5i&#xa;VUCdNB/4ExwZef/aoRoxRwWUrjlETPfDtt4OFe16OJ1Qq/mjL7MkjQNHgcZG&#xa;rjxIr9DbQuuxs4XRZHUXsjv/hJ/UM8FYhvq15BXnqlpEdYij2RrlWkMr+7fA&#xa;aGATEYHNPU+SoE8DHSc5gakZu7BD7+J9j1dZ43sQUzktBh9X1L436sX2P1/a&#xa;xDFDnx4kekZRf8iNa4mzFGyC7kl2PE13QMxOGqgzsI/tGKpcPBK9CKuOpEl8&#xa;jZKZcICEyaQTEqC1JJHn+NqleNCpWg/6JlZ/UmkioLB6H7+sOoSOOstrOXiU&#xa;nCD5dq0Wqj3TDWvretuAptkQKZOtItQHCCEkB9BpySvs2L/4gJPFwdKvXEUx&#xa;nzSVSQXFlLs19CUA/s39MBUPORnVokEUUyEc50mew0OcEJJ7eObO6uLBp/pL&#xa;E2btAf89TPAaQC/U5Tu+dNOyWlbx4NPEECAKh5D8h1KGEJJ7eG7c8iKF7Xq1&#xa;PvoKudqijkbQOFA2cr+nWanIUwKVZooMuyi3lkdeVtiup3H03wftib/UiVoJ&#xa;yVcoZQghOYdrvhYus3ir3Y+LddtVp3b9UrE8g5vySsK8I1w2U1SroFuvVnse&#xa;L1ZZndHbUUXB8AITaQrwECeE5Bz6llURMHZxu50Ov1qn9oR8MY8F+hea8hfL&#xa;v/PXFNXb6fBr7eZtxdm8asEUH/WgFUJInkMpQwjJQWQlwhcrRd2GtDrsPB3N&#xa;zNsF8/96ipQcSs6zdCGq1bDzi7oP1rUa88r+AI7wpEnAA50QkmNgyjYrEf6S&#xa;gxW1Ww46pVmvPeFoW1G9UUa98pXgxUKe5xXtslerwadadsy/99e4B3qOyzKk&#xa;KUApQwjJMXS2DuuVaIt2rY+4zrPksSbL3Ozqe4TQmd6QB+NeQql4Xpsjr7ea&#xa;7QRzsnyCX8aqjoTkJ5QyhJB8oLDTgJ1G/jYY0/TKSxhZxvElTs5dgRKJFlYn&#xa;asW23Sl/KOg0QFVdonSENDkoZQgheULxrsNbH30ZDFAtjpM6r3tuzl54Mu8A&#xa;TCgw2zV3+nqes9Mx17ToOywpYfL9shohmaCUIYTkC1a0xeBTmh88yotYdrSK&#xa;lMF076/TQAPkzoxvJIt83VmeVzLDNf5GzVPoLQ85rcU+J1l2oegaDWy2hDRB&#xa;KGUIIfkApnzM+LFoYbuDLyne93jH9T9Wrl62ZbmurGrIx1RT12uyl0CByVv/&#xa;zKqMa7soWov9jm970IXRWDPXjZuAOXfJjJD6hFKGEJIHQLmodLGtwmZthl3Z&#xa;atDRnmuWL8ybV2DQL8PnHEahmVtj5PksKUnzQT/ZaejlkaJiETZ2zAgzjuSk&#xa;SWNWLwkhJPfxIGjM2/NkBWPzuvXvPV4263VIAPN1ppxEdEzVO2CK9zuxzdBL&#xa;9G14BtcEqRKGkKYGpQwhJJ9wgyUKp6J00/v/3DjjOePiX4KRdY3cGfSMQpE7&#xa;f1zXtW27xUGntjnoQruolfFMlpSQJg6lDCEkb3HiWzZ/+p/1bz3s242UgSzI&#xa;sIyRVDyNQiCzgsUYXWcynvZOx1xVvNcIq6BQrWZLCBEoZQgh+YznVpTNm7Zu&#xa;3G8gDTDY6VbxzOUo1/YsCIZGxzJPKiUQKZMcne32I39X1G+4bcV0oYYQEoZS&#xa;hhCS5zj4rfhqw6TR5T9+4TvpU0y+dGjkxRhg1mN0UUY+EhnWNEW77NX6iOuK&#xa;Og/07ch12g00hDRxKGUIIfkMBjjVBl7p2pJPx26c/E/btj2oG/P9bM+Ne9GI&#xa;rMpUFRA7GNkzMuCYxRj/3b4R244UDz239aBT7eJ2EgZBTGA34iUeMyeECJQy&#xa;hJB8xgxxruXZ8sloN16+eM6GKY/El833zEIMNIRtrjBlw9qMqCvXg6yKRiLR&#xa;rn3aHnZNQff9IlH91LXkzTNii0syhKRAKUMIyXMwyskCjG4hCsrWbvr89ZJ3&#xa;Hs8qTSCZ8VzPLLe0Pury4t2OjbZsD7Nm2wQhhFQPpQwhJH/x5F8gBTDYBaKg&#xa;cs0Pm+a+tOnDcerrWbalCzWNheXhX4v9R7YaPCrWbhffMYHnOZYVpawhpFoo&#xa;ZQgheY3qF3mTHP7KP3XQbcXKbzfNGbt5zmtmHGzMa0wtBh/Xat/TYh36mpUj&#xa;edYaY3NYt+gtMpptQkgYShlCSFNEhz5LLjxFKtfO3/LlW+unPyVaIXA33wmI&#xa;uA6sMDmek3jFiyFxm7CqohTMTS9AlnqqHWEtz3ZtFwILu2g59OyWA38Wbd9L&#xa;74JBeOxV1QwhpC5QyhBCiAgIr3Rt+aJZmz75T/n3c+R2YJEi6mf5Dw3JRx3F&#xa;WXwMgVlCGYOs/fhjqq7xyM3GiG3uLDYkEmnWa1Dx4JOLug+2i9sF8sUYCCFb&#xa;B6UMIaQpEkiQxKUbGOKeF414TnzjivKFs8q+eqt8/mwNY6SKeZWeJQEkEhyM&#xa;WDGCBoEc//MCsJrwoYE1oWnEwy3svW/z3Y8q7HFAQeuOEfnCpfHycwLE6hsJ&#xa;IXWDUoYQ0pSJRyIx/6ZalSA6JIo4ceMV6501CzYv/qRywYfliz6H3nHNP1mt&#xa;gYaJmTfBqGqxo55baVtReMtlI5Uj5kuWVjQW7d6/WZ9Dm3fdM9a+j928ragf&#xa;sy+k4nnQMXpRSayy0bjiRFlDSJ2glCGENDkS0kENRjEY6aAXjsyCDUZGOCZW&#xa;bryIW7nZK1vvlK6Kr1/sbFhWsf5HZ+MqZ91Kt2KjV1Yq3z9o3sZu1rygTWer&#xa;9c4FbXpG2/YoaNU51rqz1aKNVdDM7E3Q1SDduthHdXolyB4hpC5QyhBCmiIq&#xa;JnyLwRcQRl+o2WyDlRLjYXRPwl0MSMi/Xdcs7bhu3LYR2Hhpgsl9haLIqo5c&#xa;XXI926gZuCGIBieEbB2UMoSQJodqi0DNpMgajInQMnIdyVcpSZJRjEwJR1SN&#xa;khJe0cBiyBAgQAOEt74HISQzvBBLCGlyqESQl8zIUkmqYvD9quoYCAtsAxfz&#xa;R+75NTYftbquLuQIfiyjZuoiTSBgzNbcPkMIqRtclSGEEEJIDsNVGUIIIYTk&#xa;MJQyhBBCCMlhKGUIIYQQksNQyhBCCCEkh6GUIYQQQkgOQylDCCGEkByGUoYQ&#xa;QgghOQylDCGEEEJyGEoZQgghhOQwlDKEEEIIyWEoZQghhBCSw1DKEEIIISSH&#xa;oZQhhBBCSA5DKUMIIYSQHIZShhBCCCE5DKUMIYQQQnIYShlCCCGE5DCUMoQQ&#xa;QgjJYShlCCGEEJLDUMoQQgghJIehlCGEEEJIDkMpQwghhJAchlKGEEIIITkM&#xa;pQwhhBBCchhKGUIIIYTkMJQyhBBCCMlhKGUIIYQQksNQyhBCCCEkh6GUIYQQ&#xa;QkjOEon8f75DMz9adtTyAAAAAElFTkSuQmCC&#xa;;" vertex="1" parent="1">
          <mxGeometry x="80" y="120" width="157.23" height="280" as="geometry" />
        </mxCell>
        <mxCell id="I4vXzKeWVCMAm9B2MQ4L-2" value="&lt;b&gt;Step 2&lt;/b&gt;&lt;span style=&quot;color: rgba(0, 0, 0, 0); font-family: monospace; font-size: 0px; text-align: start;&quot;&gt;%3CmxGraphModel%3E%3Croot%3E%3CmxCell%20id%3D%220%22%2F%3E%3CmxCell%20id%3D%221%22%20parent%3D%220%22%2F%3E%3CmxCell%20id%3D%222%22%20value%3D%22Resident%20opens%20scanner%20on%20the%20sharing%20device%26amp%3Bnbsp%3B%22%20style%3D%22text%3Bhtml%3D1%3BstrokeColor%3Dnone%3BfillColor%3Dnone%3Balign%3Dcenter%3BverticalAlign%3Dmiddle%3BwhiteSpace%3Dwrap%3Brounded%3D0%3B%22%20vertex%3D%221%22%20parent%3D%221%22%3E%3CmxGeometry%20x%3D%2245%22%20y%3D%22110%22%20width%3D%22150%22%20height%3D%2230%22%20as%3D%22geometry%22%2F%3E%3C%2FmxCell%3E%3C%2Froot%3E%3C%2FmxGraphModel%3E&lt;/span&gt;" style="text;html=1;align=center;verticalAlign=middle;resizable=0;points=[];autosize=1;strokeColor=none;fillColor=none;" vertex="1" parent="1">
          <mxGeometry x="140" y="50" width="60" height="30" as="geometry" />
        </mxCell>
        <mxCell id="I4vXzKeWVCMAm9B2MQ4L-4" value="QR code opened on the requesting device" style="text;html=1;strokeColor=none;fillColor=none;align=center;verticalAlign=middle;whiteSpace=wrap;rounded=0;" vertex="1" parent="1">
          <mxGeometry x="105" y="80" width="150" height="30" as="geometry" />
        </mxCell>
      </root>
    </mxGraphModel>
  </diagram>
</mxfile>
